<svg width="85" height="84" viewBox="0 0 85 84" fill="none" xmlns="http://www.w3.org/2000/svg">
<g clip-path="url(#clip0_1399_9182)">
<rect width="84" height="84" transform="translate(0.387207)" fill="white"/>
<path fill-rule="evenodd" clip-rule="evenodd" d="M0.387207 0H84.3872V84H0.387207V0Z" fill="white"/>
<path fill-rule="evenodd" clip-rule="evenodd" d="M42.3872 3.70605C21.2586 3.70605 4.104 20.8664 4.104 42.0001C4.104 63.1344 21.2586 80.2942 42.3872 80.2942C63.5153 80.2942 80.6704 63.1344 80.6704 42.0001C80.6704 20.8664 63.5153 3.70605 42.3872 3.70605Z" fill="black"/>
<path fill-rule="evenodd" clip-rule="evenodd" d="M42.3873 4.52734C63.0714 4.52734 79.8464 21.3085 79.8464 41.9995C79.8464 62.6906 63.0714 79.4717 42.3873 79.4717C21.7032 79.4717 4.92773 62.6906 4.92773 41.9995C4.92773 21.3085 21.7032 4.52734 42.3873 4.52734Z" fill="white"/>
<path fill-rule="evenodd" clip-rule="evenodd" d="M42.365 14.0596C26.9426 14.0596 14.4355 26.5718 14.4355 42.0003C14.4355 57.4288 26.9426 69.941 42.365 69.941C57.7873 69.941 70.2948 57.4284 70.2948 42.0003C70.2948 26.5722 57.7873 14.0596 42.365 14.0596Z" fill="black"/>
<path fill-rule="evenodd" clip-rule="evenodd" d="M42.3649 14.6846C57.4448 14.6846 69.6707 26.9162 69.6707 41.9995C69.6707 57.0829 57.4448 69.3149 42.3649 69.3149C27.285 69.3149 15.0591 57.0829 15.0591 41.9995C15.0591 26.9162 27.285 14.6846 42.3649 14.6846Z" fill="white"/>
<path fill-rule="evenodd" clip-rule="evenodd" d="M26.4325 46.4106L27.3637 49.2415C28.1107 51.5237 28.5129 52.3647 29.3365 53.7157C30.7241 55.9809 32.0541 58.3001 33.8434 60.2917C35.7234 62.393 37.8038 64.3449 40.1034 65.99L42.0396 67.1775L43.7196 66.0632C47.8818 63.3055 50.6555 59.597 54.3248 54.5031C54.5445 54.2085 54.5614 54.0451 54.9837 53.4599C55.4025 52.8746 55.932 51.9451 55.9499 51.9085C57.6485 48.6754 57.8486 47.6901 58.6709 45.4423C58.9611 44.6936 59.2191 43.3601 59.4004 42.5749C59.6192 41.607 59.6924 39.5614 59.6924 38.2645V23.5986H25.0449L25.0641 38.3761C25.0449 39.3614 25.2471 40.3275 25.3914 41.2976C25.6489 43.0141 25.9762 44.7289 26.4325 46.4106Z" fill="black"/>
<path fill-rule="evenodd" clip-rule="evenodd" d="M43.3247 36.5644C43.3247 36.6376 42.6318 37.6055 41.9559 37.7327L26.2389 37.7519C25.7251 37.7519 25.7251 37.0743 25.7251 36.9126V31.9076C25.7251 31.1223 26.6198 31.1781 26.0907 31.1781H41.9559C42.0099 31.1781 42.3215 31.2147 42.3215 30.9585V24.4195L42.6854 24.3271L44.1265 26.5C43.9827 26.9754 43.597 27.3946 43.4702 27.8892C43.4319 28.0352 43.5247 28.2183 43.597 28.3647C43.6899 28.5303 44.0167 28.5647 44.1078 28.5089C44.4024 28.2893 44.7292 27.9625 44.9488 27.5777L46.0265 28.4183C46.0801 28.4375 44.8774 29.496 44.7122 31.3398C44.6756 31.688 44.3095 32.2732 44.0899 32.1634C43.58 31.9076 44.4024 30.8125 44.0533 30.0621C43.9631 29.8424 43.597 29.8424 43.4149 29.9889C43.1952 30.1911 43.3247 30.5009 43.3068 30.7397L43.3247 36.5644ZM43.8977 38.0753L58.6124 38.1119C58.9785 38.1119 59.1972 38.3119 58.4464 38.8409L56.3664 40.5039C56.3842 40.5039 55.8012 39.994 55.5449 39.865C55.1423 39.6458 54.9601 39.6092 54.5405 39.6994C54.3958 39.7186 54.2842 39.9016 54.2672 40.0476C54.2127 40.3958 54.5958 40.6691 54.869 40.7231C55.0887 40.7597 55.6003 41.1428 55.6003 41.1428L54.5574 42.1472C54.5574 42.1472 54.2127 42.0932 54.0842 41.9664C53.9574 41.8374 53.2815 41.1079 53.2065 41.0887C52.677 40.8691 52.1672 40.7057 51.4011 40.5767C51.3832 40.5767 49.7939 40.6691 49.6649 40.4132C49.5015 40.0838 50.9265 39.7914 51.3082 39.757C51.7475 39.7186 51.9841 39.7378 52.2574 39.7186C53.0082 39.628 52.9154 39.2432 52.6966 39.2432H52.3868L43.8245 39.2623C43.4049 39.2623 43.3316 39.0431 42.895 38.7507C42.7834 38.6775 42.4004 38.2945 42.4566 38.1655C43.0031 38.0753 43.3513 37.9672 43.8977 38.0753Z" fill="white"/>
<path fill-rule="evenodd" clip-rule="evenodd" d="M26.488 38.2623L41.085 38.2854C41.3717 38.2854 41.6951 38.4414 41.6951 38.7626V44.1741C41.6951 44.4552 41.5391 44.7838 41.2236 44.7838L26.9769 44.7433C26.6727 44.7433 26.5459 44.4953 26.5459 44.1506L25.7166 38.895C25.7162 38.5569 26.1934 38.2623 26.488 38.2623ZM26.3773 24.2588H41.0841C41.3709 24.2588 41.6938 24.4148 41.6938 24.736V30.1475C41.6938 30.4286 41.5439 30.7576 41.2205 30.7576H26.3773C26.0714 30.7576 25.7153 30.6077 25.7153 30.2556V24.7072C25.7153 24.3686 26.0827 24.2588 26.3773 24.2588Z" fill="#C1352C"/>
<path fill-rule="evenodd" clip-rule="evenodd" d="M51.9581 36.5865C52.1947 36.5691 52.634 36.4959 52.634 36.7691C52.634 36.9888 52.4876 36.9888 52.3608 37.0424L44.4177 37.0254H43.9079C43.6695 36.9713 43.8347 36.7691 44.0543 36.5865L58.4012 25.2461C58.7494 24.9881 58.9307 25.0805 58.9307 25.4828L58.9494 37.1718C58.9494 37.391 59.0056 37.6817 58.8226 37.6817C58.6574 37.6817 58.5494 37.5723 58.4012 37.5182L56.2131 36.2941C55.8479 36.6772 55.3551 36.9892 54.8238 36.9526C54.6238 36.9352 54.348 36.8794 54.3676 36.641C54.4042 36.1311 55.7185 35.5267 55.7355 35.5459L54.7872 34.3584C54.6961 34.249 54.5676 34.3409 54.4595 34.3584C54.0211 34.4124 53.8015 34.8512 53.4184 35.0338C52.2845 35.5629 50.8268 35.7285 49.8777 35.5629C49.7483 35.5263 49.5295 35.6919 49.675 35.8209C49.9772 36.1066 50.3379 36.3232 50.7322 36.4554C51.1264 36.5876 51.5448 36.6324 51.9581 36.5865ZM28.8363 51.5714C27.7756 49.233 27.1385 46.7486 27.0099 46.1638C26.8639 45.5807 27.3951 45.4343 27.905 45.4343H41.1956C41.3781 45.4343 41.6148 45.3436 41.7612 45.4709C41.9612 45.6539 41.8706 45.9441 41.9072 46.2021V51.9732C41.9246 52.5393 41.6706 52.412 41.559 52.4835H30.1506C29.1845 52.4835 29.1095 52.1737 28.8363 51.5714ZM54.5266 51.7475L54.9829 52.2403C55.0561 52.4059 54.9293 52.477 54.7999 52.8252C54.7999 52.8792 54.5266 53.1912 54.3266 53.4836C52.4279 56.3145 48.1916 61.92 44.6705 64.6798C44.4509 64.8624 43.5553 65.6285 43.2821 65.8285C43.0437 65.9941 42.5164 66.3772 42.2606 66.4138C41.9856 66.4696 42.078 65.6093 42.0584 65.4459C42.0584 65.4093 42.0776 65.3553 42.0776 65.3186L43.5732 63.8026C43.7384 63.6021 43.317 63.1097 43.1339 63.0343C42.9356 62.9615 42.7339 62.7419 42.7339 62.3226C42.7339 62.1762 42.9356 62.0664 43.0633 61.974C43.3536 61.8123 43.6848 62.3762 43.8286 62.5784C43.975 62.7785 44.1214 63.2713 44.2116 63.2003L45.6 61.9378C45.6 61.7936 45.417 61.7204 45.3455 61.6106C44.5045 60.4597 44.158 59.1649 44.6705 57.5556C44.8527 56.9899 44.7045 56.8801 44.2116 57.5556C43.7196 58.2315 43.7562 59.1279 43.5187 59.9306C43.317 60.5869 42.9356 60.7525 42.9356 60.552L42.9722 60.0596V40.4245C42.9901 39.6196 43.8286 40.0223 43.9946 40.2048L54.5266 51.7475Z" fill="white"/>
<path fill-rule="evenodd" clip-rule="evenodd" d="M30.5304 52.8878H41.0763C41.3631 52.8878 41.6864 53.0434 41.6864 53.365V58.7765C41.6864 59.0633 41.5365 59.3866 41.2188 59.3866H34.4393C33.7713 59.3866 33.7769 59.3113 33.5133 59.0341C32.5337 58.0274 30.0013 53.9977 29.691 53.0669C29.6052 52.8359 30.2384 52.8878 30.5304 52.8878Z" fill="#C1352C"/>
<path fill-rule="evenodd" clip-rule="evenodd" d="M12.5834 62.2072C13.0344 62.8867 13.5081 63.5509 14.0036 64.1987L14.1884 64.0584C14.1365 63.9891 14.0825 63.922 14.0289 63.8488C13.7574 63.491 13.7979 63.1389 14.0712 62.9463L17.1103 60.7447C16.2856 62.229 15.5529 63.7625 14.9161 65.3365C14.951 65.3788 14.9876 65.425 15.0242 65.4673C16.683 65.1152 18.3191 64.664 19.9237 64.1159L17.2371 66.701C16.9848 66.9489 16.6366 66.8971 16.4253 66.6914C16.3346 66.5951 16.2422 66.4953 16.152 66.399L15.9803 66.5585C16.6762 67.3205 17.4044 68.0524 18.1627 68.7522L18.3227 68.581C18.2462 68.5098 18.1692 68.4392 18.0917 68.3692C17.8202 68.1134 17.7779 67.7534 18.0107 67.5168L20.9744 64.4685C21.2224 64.2397 21.5344 64.251 21.7366 64.4414C21.8081 64.5064 21.8752 64.5722 21.9462 64.6354L22.1061 64.4624C21.6996 64.0868 21.303 63.7006 20.9169 63.3041C19.4065 63.8562 17.865 64.3189 16.3002 64.6898C16.9152 63.2075 17.6149 61.7618 18.3959 60.3599C18.0611 59.9101 17.7395 59.4506 17.4315 58.9819L17.2411 59.107C17.2838 59.178 17.3317 59.2473 17.3779 59.3166C17.5775 59.6073 17.5221 59.9302 17.2737 60.1037L13.804 62.5423C13.475 62.748 13.1556 62.6386 12.99 62.4129C12.9142 62.3053 12.8403 62.1964 12.7686 62.086L12.5834 62.2072ZM20.2366 21.9115C20.8073 21.2687 21.4058 20.651 22.0303 20.0603L21.8743 19.8947C21.8192 19.9453 21.766 19.9979 21.7148 20.0525C21.4416 20.31 21.1221 20.3044 20.8755 20.0581L19.5363 18.7185C19.6326 18.6201 19.7285 18.5242 19.827 18.4301C20.9836 18.559 22.117 18.7495 23.2139 18.9979C23.6256 18.6479 24.0466 18.3091 24.4764 17.9816L24.3361 17.799C23.8567 18.1263 23.5948 18.159 23.2296 18.0705C22.3551 17.8624 21.4723 17.691 20.5835 17.5567C20.8166 17.2598 20.9767 16.9123 21.0511 16.5422C21.1278 16.0938 21.0529 15.7164 20.7683 15.3722C20.5142 15.0623 20.0641 14.8658 19.5599 14.9141C19.1576 14.9547 18.7035 15.105 17.9971 15.7687C17.618 16.1282 17.289 16.5366 16.929 16.9118C16.5698 17.2792 16.2194 17.6552 15.8784 18.0396L16.0592 18.1973C16.1154 18.1337 16.1673 18.0762 16.2248 18.0148C16.5172 17.6857 16.8789 17.6491 17.1081 17.8644C18.1436 18.8327 19.1829 19.8023 20.2162 20.7702C20.4336 20.9763 20.451 21.3245 20.2162 21.5882C20.1621 21.6435 20.1103 21.7015 20.0584 21.7594C20.1194 21.8135 20.1769 21.8614 20.2366 21.9115ZM69.2366 66.0368C69.9165 65.2643 70.5613 64.4615 71.1689 63.6309L70.9841 63.4945C70.9323 63.5655 70.8804 63.6366 70.8268 63.7058C70.5614 64.0636 70.2167 64.1277 69.9435 63.912L68.4505 62.7515C68.5328 62.6438 68.6191 62.5301 68.7024 62.4225C69.8927 62.3683 71.0792 62.2496 72.2566 62.0669C72.6102 61.5271 72.9491 60.9778 73.2729 60.4196L73.0685 60.3006C72.6989 60.8776 72.4335 61.0297 72.0444 61.0933C71.1306 61.2384 70.2112 61.3456 69.2885 61.4145C69.4619 61.0606 69.5251 60.6584 69.485 60.3172C69.4271 59.8727 69.2366 59.5454 68.8579 59.3031C68.5176 59.0878 68.0417 59.0299 67.6051 59.1667C67.2604 59.2687 66.9104 59.4827 66.4332 60.1329C66.1753 60.4854 65.9574 60.8624 65.6841 61.201C65.4153 61.5374 65.1389 61.8679 64.8553 62.1919L65.0357 62.3514C65.084 62.2974 65.1329 62.2438 65.1786 62.1897C65.4196 61.9126 65.7464 61.8821 65.9848 62.0782C67.0804 62.9846 68.1729 63.8871 69.2658 64.7918C69.4972 64.9823 69.5125 65.3575 69.2371 65.6769C69.18 65.7484 69.1194 65.815 69.0584 65.8848C69.1194 65.9349 69.1796 65.9867 69.2366 66.0368ZM16.6074 26.9653C17.0353 26.2186 17.4937 25.4898 17.9815 24.7807L17.7949 24.6535C17.7527 24.7171 17.71 24.7751 17.6699 24.8383C17.4542 25.152 17.1408 25.2113 16.8502 25.0209L15.2626 23.9872C15.3376 23.8739 15.4147 23.7601 15.4879 23.6429C16.6282 23.5327 17.7737 23.4851 18.9193 23.5004C19.2492 23.0725 19.5913 22.6542 19.9451 22.2458L19.7699 22.0915C19.3677 22.509 19.1175 22.5957 18.7423 22.5861C17.8427 22.5644 16.9425 22.5817 16.0444 22.638C16.2196 22.2859 16.3063 21.8897 16.2906 21.5468C16.2793 21.0888 16.1289 20.7327 15.7768 20.4556C15.4648 20.2076 14.982 20.1074 14.5026 20.2595C14.1178 20.3806 13.7021 20.6273 13.146 21.4217C12.8514 21.8488 12.6148 22.3164 12.338 22.7552C12.0664 23.1908 11.8019 23.6308 11.5449 24.0752L11.755 24.1985C11.7951 24.1236 11.8373 24.0525 11.88 23.9811C12.0975 23.6019 12.4435 23.4904 12.7111 23.6521C13.9234 24.389 15.1375 25.1206 16.3521 25.8558C16.6083 26.0114 16.6985 26.3448 16.5216 26.6507C16.485 26.72 16.4449 26.7832 16.4044 26.8546C16.4745 26.8921 16.5416 26.9287 16.6074 26.9653ZM38.5038 12.1643C39.1819 12.0725 39.8629 12.0026 40.5455 11.9547L40.5342 11.7316C40.4592 11.7373 40.3877 11.7412 40.3167 11.7473C39.9241 11.7743 39.6874 11.5682 39.6604 11.2605L39.3044 7.53458C40.8769 8.84491 42.3139 10.3098 43.5938 11.9072C43.6592 11.909 43.725 11.909 43.7938 11.9129L43.9999 6.88831C44.0117 6.54186 44.2849 6.33574 44.7159 6.36101L44.9935 6.37801L45.0088 6.15096C44.1916 6.09383 43.3727 6.06563 42.5536 6.06642V6.29913H42.8146C43.2691 6.30523 43.5193 6.53968 43.5101 6.88047L43.419 10.2386C42.1644 8.77561 40.7789 7.43001 39.28 6.21851C38.7589 6.26477 38.2391 6.32449 37.7212 6.39762L37.7517 6.62858C37.8851 6.61238 38.0205 6.62421 38.1491 6.6633C38.2777 6.7024 38.3967 6.7679 38.4986 6.85563C38.5906 6.93276 38.6829 7.01556 38.7797 7.09444L39.2338 11.2706C39.259 11.6418 39.0529 11.8689 38.7296 11.9133C38.645 11.9229 38.5601 11.9343 38.4755 11.9438L38.5038 12.1643ZM25.215 17.4395C25.9133 16.9421 26.6324 16.4746 27.3704 16.0385L27.2549 15.8424C27.1817 15.8864 27.1142 15.9247 27.0431 15.9692C26.7429 16.1461 26.4309 16.0729 26.2696 15.8114C25.9655 15.3303 25.663 14.8475 25.3571 14.3681C25.392 13.3963 25.4669 12.4167 25.5841 11.4296C25.6996 10.6252 25.996 10.3576 26.3829 10.1959L26.2792 9.99589C25.5842 10.3545 24.9 10.7336 24.2275 11.1328L24.3448 11.3294C24.418 11.2832 24.499 11.2387 24.5757 11.1926C24.8298 11.0426 24.9893 11.1041 25.0551 11.2213C25.107 11.3098 25.1109 11.4122 25.0956 11.5525C25.0082 12.3828 24.9511 13.216 24.9244 14.0504C24.1569 13.7212 23.3776 13.4201 22.5881 13.1479C22.4726 13.1056 22.3628 13.0961 22.2761 12.9727C22.1937 12.8551 22.2264 12.7091 22.4164 12.5783C22.5376 12.4955 22.6613 12.411 22.7842 12.3299L22.6535 12.1338C21.7884 12.7166 20.9486 13.3361 20.1364 13.9907L20.2767 14.1637C20.6846 13.819 21.035 13.7153 21.666 13.9153C22.6271 14.2086 23.5748 14.5439 24.5064 14.9202L25.4382 16.3039C25.6286 16.5889 25.5441 16.9331 25.3266 17.0852C25.2455 17.141 25.1649 17.2007 25.086 17.2565C25.1266 17.3179 25.171 17.3776 25.215 17.4395ZM29.9782 8.60051C30.0688 8.56216 30.1612 8.52773 30.2553 8.49243C30.6344 8.35429 30.9561 8.49243 31.048 8.76L32.0355 11.5869C32.2896 12.2798 32.5977 12.5936 32.9053 12.784C33.3267 13.0459 33.9961 13.1806 34.899 12.9383C35.598 12.7535 36.073 12.4476 36.3541 12.1378C36.7158 11.7412 36.9333 11.2296 36.7581 10.2748L36.2312 7.39992C36.1789 7.12843 36.4291 6.82992 36.7738 6.77065C36.8853 6.75322 36.9951 6.73579 37.1067 6.72053L37.0662 6.48565C36.2562 6.61405 35.4507 6.76928 34.6511 6.95106L34.699 7.17462C34.8106 7.14935 34.9182 7.12451 35.0263 7.10315C35.3762 7.02602 35.6861 7.20513 35.7423 7.48446C35.9388 8.45801 36.1384 9.4359 36.3349 10.4094C36.46 11.0405 36.3484 11.4353 36.1654 11.7103C35.9693 12.0184 35.5479 12.3413 35.0014 12.482C34.482 12.6171 33.966 12.5108 33.5869 12.2223C33.3485 12.0415 33.1677 11.824 32.9903 11.2679L32.1148 8.46803C32.0089 8.13727 32.2224 7.82917 32.4996 7.74637C32.6251 7.71151 32.748 7.6749 32.8713 7.6383L32.8099 7.4204C31.8233 7.70097 30.8493 8.02404 29.8906 8.38872C29.9185 8.45626 29.9494 8.5273 29.9782 8.60051ZM58.7722 74.2248C60.3558 73.4062 61.876 72.4703 63.32 71.4249C63.1675 70.8841 63.0075 70.3472 62.8441 69.8142L62.6288 69.9258C62.7618 70.6993 62.7055 70.8767 62.6406 71.0671C62.5343 71.3922 62.3225 71.6807 61.8932 71.9644C61.5252 72.2091 61.1526 72.4471 60.7759 72.6782C60.5349 72.8242 60.3597 72.7841 60.2499 72.6032C59.5186 71.3634 58.7878 70.1228 58.0522 68.8812C57.8888 68.5735 57.9699 68.279 58.2675 68.0942C58.3355 68.0532 58.4004 68.0131 58.4701 67.9691L58.3407 67.7726C57.6146 68.2316 56.8692 68.6592 56.1065 69.0542L56.2145 69.2564C56.276 69.2255 56.3335 69.1945 56.3993 69.1601C56.7397 68.9827 57.0521 69.0869 57.1916 69.3388C57.8731 70.5742 58.5569 71.8058 59.2376 73.0395C59.4101 73.3955 59.2528 73.711 58.9739 73.8614C58.8702 73.9171 58.7647 73.9712 58.6623 74.0248C58.7002 74.0906 58.7338 74.1577 58.7722 74.2248ZM54.3842 14.3315C55.7942 14.9388 57.155 15.6543 58.4545 16.4716C58.8484 16.1461 59.2467 15.831 59.6494 15.5168C59.601 15.465 59.5513 15.4131 59.5047 15.3595C59.2415 15.4977 58.9547 15.6925 58.6894 15.7443C58.3616 15.8158 57.9999 15.7578 57.667 15.5674C57.2286 15.3122 56.7833 15.069 56.3318 14.8379C56.2158 14.7804 56.1744 14.6531 56.2219 14.5607L57.2478 12.5208C57.7328 12.7639 58.2116 13.0192 58.6837 13.2865C59.055 13.4944 59.1321 13.8391 58.9857 14.087L58.8009 14.3951C58.8698 14.4357 58.9412 14.4818 59.0145 14.5241L60.1423 12.6537C60.0668 12.6087 59.9915 12.5632 59.9165 12.5173L59.767 12.7688C59.5749 13.0921 59.2267 13.1688 58.8715 12.9688C58.3978 12.6976 57.9167 12.4397 57.4286 12.1953L58.4527 10.161C58.974 10.4221 59.488 10.6975 59.9941 10.9869C60.7288 11.4043 60.904 11.8972 60.6173 12.5169C60.6922 12.5627 60.7654 12.611 60.843 12.6572C61.043 12.2628 61.2387 11.8719 61.4396 11.4793C59.9217 10.531 58.3337 9.69973 56.6895 8.99271L56.6011 9.19884L56.9867 9.36618C57.2787 9.49735 57.4099 9.76449 57.2905 10.0203L55.4314 14.0234C55.3138 14.2831 55.0253 14.3794 54.8056 14.2814C54.6897 14.2295 54.5786 14.1812 54.4653 14.1332C54.4378 14.1986 54.4134 14.2657 54.3842 14.3315ZM51.0043 13.1056C51.0775 13.1266 51.1507 13.1479 51.2257 13.1749C52.3546 11.8088 53.5669 10.5138 54.8558 9.29733C55.3905 8.78354 55.787 8.81796 56.1104 8.99751L56.2006 8.78397C55.5487 8.5146 54.889 8.26421 54.2226 8.03312L54.1476 8.25101C54.1921 8.2667 54.2317 8.28195 54.2744 8.2972C54.644 8.42619 54.7307 8.6223 54.6649 8.79356C54.6418 8.85275 54.604 8.90508 54.5551 8.94565C53.5918 9.8626 52.671 10.8232 51.7957 11.8244C51.6507 10.5303 51.4472 9.24343 51.1856 7.96775C51.1507 7.82743 51.149 7.77688 51.1642 7.70976C51.21 7.53066 51.3721 7.42694 51.6937 7.49449C51.7974 7.52151 51.9016 7.55027 52.007 7.57685L52.0667 7.36157C51.1366 7.10591 50.1968 6.88698 49.2494 6.70528L49.2093 6.92666C49.6246 6.98418 49.9497 7.23258 50.0595 7.69059C50.4894 9.47365 50.805 11.2823 51.0043 13.1056ZM69.0309 27.9293C69.4323 28.6935 69.7989 29.4755 70.1296 30.2729L70.3396 30.1862C70.3126 30.1147 70.2799 30.0415 70.2494 29.9705C70.103 29.6262 70.228 29.3412 70.4547 29.2179C71.8906 28.5751 73.3265 27.9267 74.7624 27.2778C74.8953 27.5667 75.0177 27.8574 75.1411 28.1476C75.4261 28.8327 75.2875 29.3277 74.6042 29.624C74.6347 29.7047 74.6678 29.7892 74.6988 29.8681C75.1319 29.6698 75.5642 29.472 75.9974 29.2697C75.327 27.4729 74.5124 25.7332 73.5614 24.0678C73.1282 24.27 72.6976 24.4761 72.2675 24.6818L72.403 24.915C73.0567 24.599 73.5309 24.8051 73.9017 25.5211C74.0303 25.7735 74.1597 26.0253 74.283 26.2794L70.1448 28.2979C69.8258 28.4557 69.5369 28.3537 69.3983 28.138C69.3455 28.0335 69.2905 27.9302 69.2331 27.8282C69.166 27.86 69.1007 27.8948 69.0309 27.9293ZM59.3744 17.0717C60.085 17.5572 60.7751 18.0721 61.4426 18.6153L61.5873 18.4423L61.4121 18.3019C61.1193 18.0653 61.0809 17.742 61.2945 17.4687L62.4493 15.9657C62.5565 16.0524 62.6663 16.1387 62.7761 16.2215C62.7949 17.3668 62.7511 18.5123 62.645 19.6529C63.0459 20.0185 63.4363 20.392 63.8168 20.775L63.9811 20.6133C63.5954 20.1784 63.5266 19.9244 63.571 19.5509C63.6612 18.6658 63.7148 17.7668 63.7309 16.8547C64.0695 17.053 64.4561 17.1759 64.8008 17.1876C65.2588 17.2107 65.624 17.0874 65.9321 16.7623C66.2018 16.4716 66.34 15.9962 66.2249 15.5055C66.1382 15.1107 65.9247 14.6758 65.1756 14.0639C64.7738 13.731 64.328 13.4617 63.91 13.1479C63.4992 12.8416 63.0821 12.5439 62.6589 12.255L62.5203 12.4511C62.5874 12.499 62.6589 12.5452 62.7265 12.5936C63.0882 12.8437 63.1731 13.1941 62.9888 13.4482L60.5018 16.9044C60.3292 17.1488 59.9884 17.212 59.6956 17.0103C59.6341 16.968 59.567 16.9235 59.5047 16.8795C59.4629 16.9427 59.4188 17.0063 59.3744 17.0717ZM75.2295 56.5202C75.4546 55.9923 75.6672 55.4592 75.8671 54.9213C75.942 54.7191 76.034 54.5247 76.1146 54.3225C76.1843 54.1456 76.2549 53.9669 76.319 53.7839C76.8306 52.2234 76.6977 51.2032 76.4192 50.5469C76.0898 49.7716 75.4139 49.2095 74.5501 49.0343C73.5204 48.8282 72.6392 49.1324 71.9498 49.7424C71.4962 50.1447 71.0918 50.7125 70.7166 51.8608C70.5897 52.2439 70.4721 52.6596 70.4621 52.6748C70.4185 52.8274 70.3701 52.979 70.3121 53.1294C70.1731 53.4984 70.0254 53.8641 69.8694 54.2262L70.0873 54.3208L70.1893 54.0842C70.3082 53.7974 70.6338 53.6623 70.8948 53.7626L74.8382 55.327C75.1005 55.4412 75.1581 55.5488 75.1921 55.7144C75.2134 55.8373 75.1964 56.0108 75.1367 56.1572C75.0958 56.2474 75.0591 56.3359 75.0225 56.4304C75.091 56.4609 75.1589 56.4897 75.2295 56.5202Z" fill="black"/>
<path fill-rule="evenodd" clip-rule="evenodd" d="M35.7603 61.5712L35.1384 60.8417C34.9767 60.6033 34.1165 59.964 35.5598 59.9082H41.0002C41.4564 59.9082 41.6569 59.964 41.5832 60.4202V65.2792C41.5797 65.5732 41.4617 65.8541 41.2542 66.0623C40.7618 65.8815 40.3421 65.5333 39.9225 65.2252C38.4231 64.1409 37.0296 62.9175 35.7603 61.5712Z" fill="white"/>
<path fill-rule="evenodd" clip-rule="evenodd" d="M6.64258 42.5819C6.6465 43.3976 6.677 44.2095 6.73453 45.024L6.96375 45.0087L6.94632 44.7468C6.91538 44.2984 7.1446 44.0291 7.47754 44.0173L11.2279 43.8496C9.72321 44.6362 8.26763 45.5135 6.86919 46.4765C6.87703 46.5327 6.8827 46.588 6.88836 46.6438C8.46706 47.2641 10.0829 47.7855 11.7264 48.2048L8.05844 48.8955C7.71374 48.9609 7.45009 48.726 7.38646 48.4357C7.36554 48.3063 7.3407 48.1734 7.31717 48.0453L7.08795 48.0775C7.24897 49.0986 7.45574 50.112 7.70763 51.1145L7.93293 51.0566C7.90727 50.9563 7.88344 50.8556 7.86147 50.7546C7.773 50.3929 7.93294 50.0734 8.25803 50.002L12.405 49.0842C12.7418 49.0245 12.9941 49.2053 13.0591 49.4808C13.0804 49.5714 13.1013 49.6633 13.1266 49.754L13.3571 49.6982C13.2226 49.1609 13.1032 48.6199 12.9994 48.0758C11.4337 47.7087 9.89134 47.2486 8.38048 46.6978C9.70946 45.7973 11.0897 44.9749 12.5143 44.2348C12.4795 43.6742 12.4621 43.1126 12.462 42.5509H12.2333C12.2333 42.6337 12.2333 42.7148 12.2372 42.7989C12.2411 43.1532 12.0193 43.3915 11.7155 43.4016L7.4758 43.5306C7.08664 43.5227 6.88095 43.2512 6.8657 42.9745C6.86178 42.8438 6.85786 42.7109 6.85786 42.5779L6.64258 42.5819ZM9.02109 55.2754C9.27536 55.9329 9.5468 56.5836 9.83513 57.2268L10.0408 57.1344C10.0195 57.0826 9.99463 57.0264 9.97371 56.9749C9.80419 56.5997 9.9005 56.4433 10.0391 56.384C10.0696 56.3709 10.1214 56.3513 10.3005 56.3631C10.7145 56.384 11.1303 56.3975 11.5377 56.4054C11.8603 57.1161 12.2069 57.8157 12.5771 58.5028C12.3291 58.8431 12.0825 59.1878 11.8402 59.5382C11.7901 59.6114 11.7539 59.6419 11.7073 59.6672C11.563 59.7518 11.3377 59.6942 11.2126 59.4628C11.154 59.3573 11.0969 59.251 11.0414 59.1438L10.8278 59.2576C11.2816 60.1093 11.7693 60.9425 12.2899 61.7551L12.4843 61.63C12.2211 61.2203 12.2171 60.8739 12.4132 60.5715C13.422 59.0026 14.5309 57.5004 15.733 56.0742C15.6982 56.0071 15.6598 55.9391 15.625 55.868C13.7924 55.9887 11.954 55.9919 10.121 55.8776C9.60504 55.8371 9.38976 55.6044 9.29912 55.3773C9.27815 55.3145 9.25371 55.2528 9.22591 55.1926L9.02109 55.2754ZM14.0152 32.9401C14.1912 32.3762 14.383 31.8173 14.5904 31.2641L14.3808 31.1852C14.3616 31.2332 14.3446 31.2794 14.3233 31.3256C14.206 31.6489 14.0404 31.6855 13.8979 31.6337C13.8635 31.6219 13.8134 31.5992 13.6866 31.4855C13.3903 31.2066 13.0939 30.9238 12.8015 30.637C13.0596 29.9519 13.3401 29.2755 13.6426 28.6089C14.0601 28.6128 14.4741 28.6224 14.8915 28.6337C14.9761 28.6398 15.0223 28.6529 15.0763 28.6782C15.2245 28.7496 15.3169 28.9418 15.2245 29.1418C15.1822 29.236 15.1378 29.3288 15.0972 29.419L15.3129 29.5153C15.6437 28.7802 16.004 28.0587 16.3928 27.3525L16.1945 27.2427C15.9962 27.6083 15.7248 27.7469 15.3709 27.7221C13.5051 27.5869 11.6325 27.574 9.76497 27.6833L9.65123 27.9434C10.8535 29.3447 12.1441 30.6675 13.5153 31.9038C13.8831 32.2485 13.9141 32.5196 13.8539 32.7118C13.8348 32.7676 13.8195 32.8199 13.8038 32.8717L14.0152 32.9401ZM64.1277 21.0994C64.1822 21.1513 64.2358 21.2071 64.2877 21.2629L64.3182 21.2415C64.3879 21.1953 64.53 21.1953 64.6298 21.2995C64.6398 21.3108 64.6476 21.3243 64.6555 21.3361C64.6664 21.3474 64.6768 21.3609 64.6877 21.3722C64.8075 21.5418 64.8476 21.7418 64.9361 21.917C65.1283 22.3018 65.1727 22.3597 65.2708 22.4748C65.9541 23.2792 67.0165 23.3851 67.638 22.9271C68.3853 22.375 68.2847 21.5108 68.1735 20.841C68.0951 20.3855 68.006 19.9319 67.9064 19.4805C67.7866 18.9205 67.8946 18.6412 68.0947 18.4586C68.4625 18.1217 69.0268 18.1775 69.4905 18.7205C70.037 19.3594 70.0692 20.281 69.2861 20.9238C69.3441 20.9914 69.3977 21.0602 69.4495 21.13L70.8758 20.0366C70.8135 19.956 70.7543 19.8771 70.6928 19.8004C70.556 19.8679 70.4274 19.8178 70.3403 19.7119C70.2688 19.6213 70.2627 19.5659 70.2383 19.5119C70.1193 19.2465 70.0126 18.8172 69.6247 18.3649C68.9105 17.5413 67.9234 17.4371 67.2689 18.076C66.9359 18.3937 66.7847 18.8787 66.9438 19.6213C67.0418 20.0544 67.125 20.4872 67.2 20.9142C67.3599 21.8207 67.1481 22.1593 66.898 22.3637C66.4648 22.704 65.8988 22.6543 65.4878 22.1693C65.0429 21.6459 64.9557 20.9299 65.5235 20.1407C65.578 20.0697 65.6316 19.9965 65.6835 19.9233C65.6281 19.8636 65.5737 19.8078 65.5183 19.7481C65.0538 20.1969 64.5914 20.651 64.1277 21.0994ZM71.2676 33.5101C71.5034 34.3352 71.7042 35.1699 71.8694 36.012L72.0952 35.9697C72.0799 35.8887 72.0647 35.8059 72.0433 35.727C71.9762 35.3866 72.1505 35.1186 72.4512 35.0498C73.0077 34.9247 73.562 34.7975 74.1142 34.6724C75.0292 35.0309 75.9286 35.4283 76.8099 35.8634C77.5298 36.2386 77.6824 36.6103 77.7072 37.0278L77.9286 36.9973C77.826 36.2213 77.6958 35.4491 77.5381 34.6824L77.3185 34.7286C77.3337 34.8171 77.3533 34.9038 77.3686 34.9922C77.4248 35.2768 77.315 35.4115 77.1838 35.4367C77.0784 35.4559 76.9855 35.4211 76.857 35.3618C76.1029 35.0037 75.3369 34.6712 74.5604 34.3647C75.1248 33.7498 75.6678 33.1157 76.1885 32.4634C76.2695 32.371 76.3075 32.2673 76.4556 32.2268C76.5942 32.1867 76.7193 32.2673 76.7816 32.4887C76.8199 32.6347 76.8565 32.7793 76.8949 32.9218L77.1219 32.8661C76.8609 31.8559 76.5564 30.8575 76.2094 29.8735L75.9976 29.9502C76.1885 30.4448 76.1671 30.8105 75.771 31.3417C75.1728 32.1485 74.541 32.9299 73.8771 33.6836L72.2643 34.1011C71.9296 34.1834 71.6372 33.993 71.5639 33.7372C71.5352 33.6431 71.5121 33.5485 71.4829 33.4522C71.4114 33.4735 71.3382 33.4927 71.2676 33.5101ZM73.5346 59.9631C74.0394 59.0633 74.5048 58.1419 74.9295 57.2015L74.7243 57.1092C74.6776 57.2111 74.6271 57.3153 74.5813 57.4173C74.4026 57.7999 74.1294 57.9018 73.8732 57.7768L69.8914 55.841C69.67 55.7351 69.5816 55.4597 69.6896 55.2274C69.7398 55.1176 69.7934 55.0078 69.8413 54.9002L69.6278 54.8017C69.2731 55.5876 68.8841 56.3575 68.4616 57.1092L68.6616 57.2168C68.7178 57.1227 68.7697 57.0207 68.8277 56.9226C68.9606 56.6725 69.2338 56.5875 69.4687 56.7108L73.3363 58.7451C73.6365 58.9007 73.6871 59.2031 73.5559 59.4493C73.4845 59.584 73.4095 59.7186 73.3363 59.8515L73.5346 59.9631ZM12.9527 37.7725C13.0805 36.8442 13.2506 35.9221 13.4626 35.0092C13.6343 34.2606 13.5611 33.7873 13.3859 33.433C13.1972 33.0504 12.8547 32.7401 12.4389 32.6133C11.8036 32.4168 11.0998 32.6996 10.7206 33.4635C10.6688 32.7689 10.2875 32.2472 9.76236 32.0877C9.04244 31.8703 8.01094 32.361 7.61481 34.1316C7.53027 34.5124 7.48756 34.9051 7.42612 35.2916C7.3991 35.4747 7.37818 35.6516 7.34942 35.8272C7.2858 36.2177 7.22609 36.6042 7.17249 36.9951L7.4052 37.0278C7.42045 36.9066 7.43963 36.7894 7.45706 36.67C7.49933 36.3776 7.79218 36.11 8.09592 36.1601L12.272 36.8395C12.6242 36.8971 12.8072 37.1803 12.7688 37.4631C12.7531 37.5555 12.7401 37.6462 12.7261 37.7386C12.8046 37.7512 12.8778 37.7608 12.9527 37.7725ZM66.8178 24.3321C67.3213 25.032 67.7938 25.7536 68.2341 26.4949L68.4263 26.3833C68.3788 26.2988 68.3265 26.2177 68.2808 26.1354C68.0934 25.8312 68.1683 25.5732 68.4093 25.4233L72.1501 23.0544C72.3619 22.9215 72.6565 23.0178 72.8164 23.2758C72.887 23.3991 72.9628 23.5202 73.0334 23.6414L73.2378 23.5242C72.7104 22.641 72.1468 21.78 71.5483 20.9434L71.3652 21.0764C71.4428 21.1857 71.5195 21.2938 71.5984 21.4075C71.7866 21.6803 71.75 21.9941 71.533 22.1388L67.9164 24.5888C67.6323 24.7796 67.3639 24.7082 67.2279 24.5195C67.1529 24.4158 67.0771 24.3081 67.0009 24.204L66.8178 24.3321ZM7.89371 51.8362C8.16267 52.8323 8.47543 53.8161 8.83109 54.7847L9.04636 54.7071C9.00409 54.5995 8.96749 54.4918 8.92914 54.3842C8.78664 53.9898 8.91171 53.724 9.18146 53.6333L13.3767 52.2231C13.6134 52.1438 13.8674 52.2772 13.952 52.5195C13.9925 52.6332 14.033 52.7465 14.0771 52.8598L14.2928 52.7809C13.9987 51.9714 13.7374 51.1503 13.5097 50.3196L13.2922 50.3776C13.3192 50.4874 13.3497 50.5951 13.3829 50.7071C13.4595 50.9799 13.3253 51.2283 13.0713 51.3071L8.8873 52.5679C8.56613 52.6663 8.31555 52.4855 8.23886 52.2175C8.19441 52.0711 8.15606 51.9233 8.11161 51.7786L7.89371 51.8362Z" fill="black"/>
<path fill-rule="evenodd" clip-rule="evenodd" d="M37.4032 29.3418H31.6896C31.3262 29.3418 31.3436 29.6146 31.7436 29.6146H37.4036C37.7304 29.6146 37.696 29.3418 37.4032 29.3418Z" fill="white"/>
<path fill-rule="evenodd" clip-rule="evenodd" d="M66.6177 68.8343C67.3241 68.1841 67.6627 67.5008 67.7359 66.7425C67.817 65.9611 67.5119 65.0896 66.7733 64.4259C66.1096 63.8332 65.2881 63.5752 64.5486 63.5905C63.8539 63.6118 63.1118 63.9156 62.5937 64.3893C62.0363 64.9052 61.6685 65.7498 61.682 66.6196C61.6912 67.2027 61.9186 67.9374 62.3435 68.4996C62.8499 69.1598 63.5716 69.5581 64.2161 69.6331C65.0689 69.7407 65.9941 69.4156 66.6177 68.8343Z" fill="black"/>
<path fill-rule="evenodd" clip-rule="evenodd" d="M39.3882 57.9667L33.9479 57.9492C33.5474 57.9492 33.4916 58.2591 33.9862 58.2591L39.3882 58.2399C39.8806 58.2399 39.8266 57.9667 39.3882 57.9667Z" fill="white"/>
<path fill-rule="evenodd" clip-rule="evenodd" d="M77.3449 49.783C77.4852 49.094 77.6121 48.3955 77.7145 47.6991L77.4931 47.6681L77.4643 47.8411C77.4029 48.2473 77.2373 48.324 77.093 48.2991C77.0564 48.2935 77.0046 48.2821 76.8582 48.1784C76.5222 47.9361 76.1822 47.6993 75.8384 47.4681C75.9561 46.6963 76.0419 45.9189 76.1038 45.1415C76.4993 44.9907 76.8926 44.8341 77.2835 44.6717C77.3658 44.6412 77.412 44.6312 77.4639 44.6351C77.6334 44.6468 77.789 44.812 77.772 45.0739C77.7628 45.1972 77.7506 45.3149 77.7415 45.436L77.9816 45.4552C78.0627 44.4947 78.1032 43.5286 78.1067 42.5664H77.8761C77.8718 43.0514 77.6853 43.3438 77.3602 43.4942C75.6638 44.2676 73.9183 44.9285 72.1351 45.4726C72.1299 45.5515 72.1199 45.63 72.1138 45.7075C73.7206 46.598 75.2676 47.5924 76.7448 48.6844C77.1567 48.9981 77.212 49.308 77.1645 49.5464C77.151 49.61 77.1388 49.6736 77.1253 49.739L77.3449 49.783Z" fill="black"/>
<path fill-rule="evenodd" clip-rule="evenodd" d="M37.0286 43.4775H31.461C31.2418 43.4775 31.132 43.7508 31.461 43.7508H37.0286C37.2478 43.7508 37.4134 43.4775 37.0286 43.4775Z" fill="white"/>
<path fill-rule="evenodd" clip-rule="evenodd" d="M18.7144 69.2525C19.4867 69.9371 20.2887 70.5875 21.1181 71.2017L21.2528 71.017L20.9796 70.8152C20.6444 70.559 20.6022 70.2705 20.7795 70.0452L23.5084 66.5619C23.6605 66.368 23.9433 66.3366 24.1495 66.4905C24.2475 66.5641 24.3438 66.6391 24.4401 66.7101L24.5809 66.5214C23.8886 66.0088 23.2189 65.4663 22.5737 64.8955L22.4216 65.0685C22.5083 65.1417 22.5928 65.2189 22.6791 65.2899C22.8931 65.4768 22.9162 65.7592 22.7484 65.9614L19.9446 69.3178C19.7289 69.5754 19.4251 69.5601 19.2133 69.3815C19.0944 69.283 18.9806 69.1854 18.8634 69.0847L18.7144 69.2525ZM53.15 76.5519C54.1259 76.244 55.0877 75.8933 56.0327 75.5007L55.9469 75.2894C55.8236 75.3395 55.7041 75.3892 55.5808 75.4397C55.2575 75.5666 54.9764 75.4668 54.8666 75.1778L54.1092 73.1859C54.5919 73.001 55.0703 72.8053 55.5442 72.5989C55.9887 72.4028 56.3273 72.5165 56.4968 72.8765L56.611 73.1188C56.6877 73.0804 56.7653 73.0421 56.8433 73.0054L55.9085 71.0331C55.8351 71.0659 55.7624 71.1005 55.6906 71.1368L55.7904 71.3525C55.9639 71.7273 55.8331 72.0681 55.3638 72.2742C54.9082 72.4726 54.4479 72.6599 53.9832 72.8359L53.174 70.7193C53.6718 70.5297 54.164 70.3257 54.65 70.1075C55.2056 69.8613 55.6375 69.9515 56.0279 70.5555C56.0968 70.5228 56.17 70.4884 56.2389 70.4518C56.014 70.08 55.793 69.7048 55.5717 69.3318C54.2245 69.9937 52.8292 70.5528 51.3977 71.0043L51.4666 71.2196C51.5442 71.1943 51.6222 71.1717 51.6997 71.1464C52.0802 71.0218 52.2981 71.1486 52.3669 71.353L53.8259 75.5713C53.9187 75.8903 53.7645 76.1061 53.4411 76.2141C53.3204 76.2547 53.1953 76.293 53.069 76.3331C53.0982 76.4033 53.1239 76.4804 53.15 76.5519Z" fill="black"/>
<path fill-rule="evenodd" clip-rule="evenodd" d="M75.6203 54.421L70.8921 52.7176C70.9073 52.4792 70.9518 52.2639 71.0437 51.9772C71.5231 50.5321 72.6858 49.766 74.2986 50.1316C75.8766 50.4916 76.5677 51.9179 76.0265 53.5669C75.9454 53.8144 75.8125 54.1012 75.6203 54.421Z" fill="white"/>
<path fill-rule="evenodd" clip-rule="evenodd" d="M31.3369 76.553C33.5694 77.269 35.4764 75.8968 35.8229 74.0516C36.1637 72.3312 35.4071 71.4709 34.6449 71.2631C34.183 71.1402 33.7307 71.2173 33.2923 71.5154C32.8852 71.7905 32.5833 72.1954 32.436 72.6641C32.0686 73.7514 32.6534 74.5946 33.5119 74.8234C33.8601 74.9219 34.2702 74.9158 34.6933 74.7559C34.3159 75.4854 33.8483 75.909 33.2805 76.1765C32.6569 76.4864 32.0411 76.5208 31.4119 76.3399C31.387 76.4088 31.3622 76.482 31.3369 76.553Z" fill="black"/>
<path fill-rule="evenodd" clip-rule="evenodd" d="M66.4004 68.5307C65.9381 68.9199 65.4548 69.045 64.9545 68.9273C64.5279 68.8327 63.8293 68.4362 63.2597 67.7415C62.705 67.0678 62.4527 66.3174 62.4187 65.9287C62.3777 65.4053 62.5455 64.9917 62.8767 64.6819C63.2597 64.3293 63.6981 64.1929 64.2869 64.3202C64.6987 64.4104 65.3567 64.7146 65.9729 65.3112C66.5408 65.8576 66.858 66.4751 66.9443 66.897C67.0798 67.4992 66.8907 68.0531 66.4004 68.5307Z" fill="white"/>
<path fill-rule="evenodd" clip-rule="evenodd" d="M35.8344 76.1494C36.6907 76.3168 37.5588 76.451 38.4247 76.5516C38.3724 77.0249 38.321 77.4982 38.2704 77.9697C38.5436 78.0045 38.8208 78.0316 39.098 78.0564L39.2309 76.6362C39.5133 76.6615 39.7965 76.6859 40.0811 76.7033L40.1216 76.074C39.845 76.055 39.5685 76.0332 39.2923 76.0087L39.6388 72.2544C39.4889 72.243 39.3403 72.2256 39.1925 72.2099C38.1921 73.4037 37.1079 74.5246 35.9481 75.5642L35.8344 76.1494ZM42.9629 78.3083C44.4372 78.2102 45.083 76.6475 44.9562 75.233C44.8643 74.1265 44.4036 73.2628 44.031 72.8606C43.6088 72.4235 43.1917 72.2753 42.8762 72.2831C42.6396 72.2849 42.3681 72.362 42.0988 72.5464C41.5693 72.9216 40.9304 73.828 40.8594 75.1868C40.7631 76.8998 41.6368 78.3048 42.9629 78.3083ZM28.1445 75.2548C28.9277 75.5957 29.7229 75.9082 30.5287 76.1917L30.6041 75.9782C30.4904 75.9354 30.3731 75.8936 30.2594 75.8531C30.0323 75.772 29.8746 75.497 29.9535 75.2953L31.826 70.3474C31.3204 70.3743 30.8141 70.3884 30.3078 70.3897V70.6054C30.4712 70.6245 30.5117 70.6245 30.6098 70.6651C30.7732 70.7304 30.8503 70.869 30.754 71.1096L29.1795 74.9819C29.0932 75.1994 28.8082 75.2918 28.5502 75.1837C28.4465 75.1414 28.3406 75.0918 28.2326 75.0456L28.1445 75.2548ZM45.1702 12.0024C46.0284 12.0773 46.8829 12.1897 47.7313 12.3393L47.7722 12.1179C47.6763 12.1033 47.5807 12.0866 47.4855 12.0678C47.1347 12.0103 46.9852 11.7867 47.0275 11.5056L47.6742 7.12383C47.7125 6.87936 47.984 6.71594 48.2778 6.76213C48.4207 6.78915 48.5593 6.81007 48.7 6.83534L48.7401 6.60438C47.7277 6.42716 46.7082 6.29297 45.6844 6.20215L45.6665 6.43093C45.7995 6.44227 45.9302 6.45403 46.0631 6.46754C46.4 6.50022 46.6139 6.73119 46.5808 6.99876L46.0814 11.3344C46.0387 11.6752 45.8073 11.829 45.575 11.8116C45.4469 11.7983 45.3186 11.7867 45.1902 11.7767L45.1702 12.0024Z" fill="black"/>
<path fill-rule="evenodd" clip-rule="evenodd" d="M30.7876 42.298C30.751 42.444 30.697 42.7734 30.805 42.8654C31.0068 43.0275 31.3167 42.8445 31.5537 42.7904C31.7904 42.7368 32.8877 42.3886 33.7091 42.8445C33.7265 42.8445 33.9823 42.8445 33.9823 42.4056V39.8502C33.7457 39.631 33.5993 39.5212 33.3069 39.5212C32.8336 39.5212 32.0849 39.6868 32.0849 39.6868C31.9198 39.7583 31.3729 39.8328 31.3537 39.906L30.7876 42.298ZM31.7137 25.9565L31.2038 27.9289L31.0748 28.3486C30.9842 28.695 31.2382 28.7508 31.3864 28.7333C31.5306 28.7159 32.6083 28.2392 33.2664 28.4584C33.428 28.5142 33.7588 28.5874 33.8839 28.6044C34.1227 28.641 34.2687 28.5137 34.2687 28.2562V25.5369L33.8298 25.4096C33.4276 25.3347 32.9352 25.3883 32.6445 25.6288C32.4249 25.7905 32.2597 25.7905 32.0788 25.8655L31.7137 25.9565ZM33.9078 54.5701L33.1958 56.9447C33.2149 57.0715 33.1783 57.2546 33.3056 57.3086C33.4324 57.3644 33.523 57.401 33.6346 57.4546C33.7422 57.5103 35.1302 57.1639 35.4047 57.2005C35.6972 57.2376 35.8588 57.2545 36.136 57.3644C36.2977 57.2911 36.4092 57.0889 36.4092 56.9081V54.3335C36.2436 54.1505 35.6431 54.0236 35.4605 54.1139C34.6373 54.5335 33.9985 54.2969 33.9078 54.5701ZM37.5911 42.43L36.8424 39.9648C36.8075 39.855 36.4402 39.8188 35.5647 39.6166C34.7794 39.4166 34.4504 39.7282 34.4504 39.855V42.447C34.4504 42.7225 34.4696 42.8689 34.687 42.7957C35.3089 42.576 36.1495 42.4836 36.9156 42.7957C37.0446 42.7957 37.3544 42.9399 37.4621 42.8859C37.537 42.8493 37.6081 42.7569 37.6081 42.6667L37.5911 42.43ZM36.9622 25.7805L36.56 25.6898C36.2693 25.5608 36.031 25.2126 35.3381 25.4318L34.7702 25.58V28.2627C34.8086 28.3377 34.8086 28.7015 35.1184 28.6109C35.4283 28.5015 35.8845 28.3377 36.2136 28.3917C36.7252 28.4475 37.1453 28.7765 37.6377 28.8305C37.9475 28.702 37.9109 28.5939 37.8207 28.2627L36.9622 25.7805ZM36.9954 54.3383V56.9129C36.9954 57.2959 37.161 57.4058 37.415 57.3883C37.7074 57.3709 38.0905 57.2959 38.3637 57.2785C38.9124 57.2227 39.3856 57.5539 39.9535 57.479C39.9896 57.3883 40.0977 57.2785 40.0977 57.1883L39.4976 54.7575C39.3325 54.082 39.2244 54.6865 37.9637 54.1553C37.7981 54.0825 37.1413 54.1919 36.9954 54.3383ZM19.3169 18.4994L17.5868 16.7637C17.7045 16.56 17.8503 16.374 18.02 16.2111C18.5857 15.6703 19.367 15.6202 19.8769 16.2015C20.1462 16.5057 20.2216 16.8099 20.1658 17.1559C20.1157 17.4831 19.8943 17.9294 19.4577 18.3626C19.4115 18.4048 19.3631 18.4532 19.3169 18.4994ZM62.6408 15.7221L64.1373 13.7764C64.363 13.8749 64.5552 13.9921 64.7443 14.1424C65.3523 14.6349 65.5026 15.4031 64.9927 15.984C64.7247 16.2904 64.4301 16.4055 64.0819 16.3924C63.7473 16.381 63.281 16.2229 62.7942 15.8459C62.7463 15.8049 62.6927 15.7627 62.6408 15.7221ZM15.0026 23.8181L12.947 22.479C13.0281 22.248 13.1283 22.0502 13.263 21.8497C13.7057 21.1973 14.4562 20.9895 15.0759 21.4536C15.4027 21.6963 15.5434 21.9804 15.5587 22.3291C15.57 22.6637 15.4506 23.1392 15.1125 23.653C15.0793 23.7088 15.041 23.7663 15.0026 23.8181ZM12.8621 35.9539L10.4565 35.4823C10.4565 35.3015 10.4683 35.1843 10.5027 35.0187C10.7354 33.9201 11.4554 33.5544 12.096 33.7296C12.8351 33.9279 13.2216 34.5763 13.0373 35.4348C12.9962 35.6132 12.9375 35.7871 12.8621 35.9539ZM68.208 62.5624L66.27 61.0537C66.345 60.8576 66.4378 60.6881 66.5568 60.5264C66.9551 59.9974 67.6419 59.8313 68.2812 60.2684C68.6189 60.4994 68.7697 60.7687 68.7963 61.113C68.822 61.4385 68.6982 61.9196 68.3274 62.4025C68.2864 62.4565 68.248 62.5088 68.208 62.5624ZM36.4733 75.6294C37.2944 74.8666 38.0762 74.0625 38.8156 73.2204L38.5019 75.9279C37.8231 75.8467 37.1467 75.7472 36.4733 75.6294ZM10.0547 35.4109L7.86668 34.9838C7.84195 34.76 7.85491 34.5336 7.90503 34.314C8.07455 33.5074 8.77311 33.0206 9.43681 33.1997C10.0914 33.3692 10.4012 33.8712 10.1737 34.9394C10.1375 35.1089 10.097 35.261 10.0547 35.4109ZM42.953 77.9892C42.5472 77.9695 41.7332 77.7795 41.7907 75.2389C41.8177 73.8762 42.1372 73.1798 42.1986 73.0661C42.4087 72.7027 42.6449 72.5928 42.878 72.5907C43.1434 72.5907 43.8899 72.7258 44.0363 75.31C44.0908 76.3201 43.9156 77.0574 43.8228 77.2788C43.5879 77.8253 43.2415 77.9791 42.953 77.9892ZM75.4921 47.2328C74.8514 46.8153 74.2006 46.4135 73.5402 46.0279C74.2654 45.8008 74.9914 45.5507 75.7148 45.2831C75.6572 45.9338 75.584 46.5861 75.4921 47.2328ZM11.96 56.4144C12.7278 56.42 13.494 56.4048 14.2522 56.3699C13.761 56.9578 13.2868 57.5597 12.8303 58.1749C12.523 57.5967 12.2328 57.0096 11.96 56.4144ZM12.5121 30.3479C11.9685 29.8043 11.441 29.2448 10.9302 28.6702C11.702 28.6275 12.4699 28.6026 13.2338 28.6004C12.9783 29.1767 12.7377 29.7593 12.5121 30.3479ZM35.0474 73.8226C35.0125 73.9669 34.9646 74.1168 34.9145 74.2575C34.6452 74.4976 34.1872 74.594 33.8507 74.5033C33.1465 74.3168 33.0772 73.3219 33.3291 72.4904C33.6063 71.584 34.1122 71.4341 34.4661 71.5304C34.7973 71.6206 34.9437 71.8655 35.0474 72.1592C35.1494 72.4638 35.2243 73.0469 35.0474 73.8226Z" fill="white"/>
<path fill-rule="evenodd" clip-rule="evenodd" d="M75.3556 38.9453C75.1304 38.9455 74.9145 39.0351 74.7553 39.1943C74.596 39.3536 74.5065 39.5695 74.5062 39.7947C74.5062 40.2627 74.8876 40.644 75.3556 40.644C75.8236 40.644 76.2041 40.2627 76.2041 39.7947C76.2039 39.5696 76.1145 39.3537 75.9555 39.1945C75.7964 39.0353 75.5807 38.9457 75.3556 38.9453ZM10.1575 38.9453C9.93235 38.9455 9.7165 39.0351 9.55733 39.1944C9.39817 39.3536 9.30871 39.5695 9.30859 39.7947C9.30859 40.2627 9.6899 40.644 10.1575 40.644C10.6251 40.644 11.0064 40.2627 11.0064 39.7947C11.0063 39.5695 10.9168 39.3536 10.7577 39.1944C10.5985 39.0351 10.3827 38.9455 10.1575 38.9453ZM26.5643 70.1714C26.0963 70.1714 25.7154 70.5523 25.7154 71.0203C25.7154 71.4884 26.0967 71.8697 26.5643 71.8697C27.0319 71.8697 27.4137 71.4884 27.4137 71.0203C27.4137 70.5523 27.0324 70.1714 26.5643 70.1714ZM49.6208 73.4686C49.3957 73.4688 49.1799 73.5583 49.0206 73.7174C48.8614 73.8766 48.7718 74.0924 48.7715 74.3175C48.7715 74.7859 49.1528 75.1668 49.6208 75.1668C49.8402 75.1582 50.0478 75.065 50.2 74.9067C50.3522 74.7484 50.4373 74.5373 50.4373 74.3177C50.4373 74.0981 50.3522 73.887 50.2 73.7287C50.0478 73.5704 49.8402 73.4772 49.6208 73.4686Z" fill="black"/>
</g>
<defs>
<clipPath id="clip0_1399_9182">
<rect width="84" height="84" fill="white" transform="translate(0.387207)"/>
</clipPath>
</defs>
</svg>
