<svg width="85" height="84" viewBox="0 0 85 84" fill="none" xmlns="http://www.w3.org/2000/svg">
<g clip-path="url(#clip0_1400_10332)">
<rect width="84" height="84" transform="translate(0.387207)" fill="white"/>
<path fill-rule="evenodd" clip-rule="evenodd" d="M0.387207 0H84.3872V84H0.387207V0Z" fill="white"/>
<path fill-rule="evenodd" clip-rule="evenodd" d="M43.6791 37.3226C44.097 37.4869 44.2426 37.1958 44.5712 37.1405C44.8801 37.0864 44.9525 37.4512 44.6622 37.4512C44.3524 37.4512 44.0068 37.4512 43.7881 37.8508C43.5693 38.3066 43.8425 38.4888 43.7693 38.871C43.7327 38.9982 43.7693 39.0897 43.8425 39.1438C43.9515 39.2536 44.1515 39.1438 44.2613 39.0531C44.5524 38.8893 44.7167 39.0897 45.0069 38.7808C45.2623 38.4896 45.3891 38.1794 45.1346 37.761C45.0069 37.561 45.1908 37.4516 45.3355 37.4329H45.3713C45.4998 37.4516 45.699 37.5606 45.573 37.761C45.3177 38.1794 45.4453 38.4892 45.6811 38.7808C45.9918 39.0902 46.1544 38.8897 46.4463 39.0531C46.5544 39.1438 46.7553 39.2536 46.8651 39.1438C46.9375 39.0897 46.9741 38.9982 46.9375 38.871C46.8651 38.4892 47.1384 38.3071 46.9196 37.8508C46.6821 37.4512 46.3553 37.4512 46.0454 37.4512C45.7543 37.4512 45.8088 37.0869 46.1365 37.1405C46.4463 37.1958 46.6098 37.4869 47.0285 37.3226C47.4295 37.1405 47.4839 36.8319 47.5563 36.5042C47.5929 36.3042 47.7384 36.3221 47.684 36.1578C47.6474 35.9948 47.5563 36.1037 47.375 35.9948C47.0285 35.8126 46.883 35.6305 46.4642 35.7948C46.2088 35.9041 46.1008 36.1948 45.9918 36.377C45.8454 36.577 45.5364 36.3587 45.699 36.1948C45.882 36.0488 46.2088 35.6492 46.191 35.3206C46.1544 34.9568 45.8088 34.7014 45.6266 34.5201C45.4453 34.3928 45.5909 34.2111 45.3713 34.1924H45.3355C45.1168 34.2111 45.2623 34.3928 45.081 34.5201C44.8801 34.7018 44.5524 34.9568 44.5158 35.3206C44.4971 35.6492 44.8257 36.0488 45.0069 36.1948C45.1721 36.3587 44.8623 36.577 44.7167 36.377C44.5712 36.1948 44.4971 35.9046 44.2426 35.7948C43.8247 35.6305 43.6791 35.8126 43.3327 35.9948C43.1326 36.1037 43.0594 35.9948 43.0228 36.1578C42.9683 36.3221 43.1148 36.3042 43.1326 36.5042C43.2246 36.8319 43.2782 37.1405 43.6791 37.3226Z" fill="#E6E6E7"/>
<path fill-rule="evenodd" clip-rule="evenodd" d="M51.7246 32.8987C50.887 31.9526 50.9236 31.316 50.9236 31.2062C50.9236 31.2062 51.5067 31.2062 51.8156 30.6431C52.4345 29.477 51.4156 28.8398 51.4156 29.0037C51.4156 29.2586 51.0513 29.8234 50.3048 29.1676V28.3853H49.5583C49.4859 28.2759 49.394 28.1666 49.3029 28.0393L49.085 28.3853H47.5554C47.5554 27.9844 47.4465 27.0004 46.9732 26.0186C46.6625 25.3449 46.6089 24.7988 46.6625 24.4702C46.6625 24.4158 46.9187 24.743 47.192 25.1989C47.592 25.8181 48.0465 26.5829 48.301 26.728C48.4296 26.7829 47.5018 25.3989 47.5018 25.1448C47.5018 25.1448 50.9236 27.0379 53.7083 24.5256C53.8538 24.3809 53.9636 24.2345 54.019 24.1068C54.8914 22.9236 54.5824 21.3396 54.6003 21.3217C55.7111 20.2658 55.4566 19.2827 55.1655 18.7719C54.8012 18.191 54.8378 17.6262 54.8378 17.6262C54.5467 18.008 54.1279 18.154 53.8538 18.4089C53.5082 18.7183 53.4725 18.8826 53.4725 18.8643C53.2171 18.6102 53.1618 18.4089 52.726 17.9544C52.4715 17.7356 51.9599 17.4628 51.0874 17.6267C50.541 17.6995 50.1231 17.4267 50.1231 17.4267C50.3043 18.446 50.0677 19.2648 50.4142 19.8474C50.7776 20.4667 51.3062 20.6305 51.2883 20.6305C50.7955 21.3404 50.1043 21.8133 50.1043 21.8133C50.3588 22.0142 50.7776 22.4329 51.3598 22.5785C51.7241 22.6879 52.2153 22.6334 52.5796 22.6334C51.7054 24.3086 48.2653 24.9274 46.9187 22.7424C46.9187 22.7424 46.9187 22.5245 47.1188 22.6151C47.392 22.7424 47.9019 23.1973 48.2653 23.4531C48.7394 23.7617 46.9732 21.2494 46.7732 20.9221C46.7732 20.9221 46.4991 20.631 46.0624 20.6127C45.8445 20.5765 45.8445 20.4131 45.7534 20.4131C45.6436 20.4131 45.3168 20.522 45.19 20.4131C44.915 20.1398 44.915 20.3037 44.7158 20.4131C44.6239 20.4676 44.4051 20.4676 44.4417 20.5037C44.5703 20.7587 44.915 22.7794 43.3684 22.8334C42.9675 22.8709 42.8951 22.5066 43.1318 22.47C43.3863 22.4334 44.0417 22.27 43.9327 22.27C43.5684 22.3244 37.8527 23.1803 37.3603 23.125C37.1607 23.0888 37.0879 22.7428 37.3969 22.7249C37.8697 22.6343 40.6012 22.3606 41.1655 22.1601C41.9477 21.9052 41.8388 21.5052 41.875 21.1958C41.8924 20.9225 43.768 20.8863 44.0779 20.777C44.0957 20.777 43.9868 20.3765 43.9868 20.4501C43.9868 20.4501 43.7314 20.359 43.6412 20.268C43.6412 20.268 43.8234 20.0501 43.8778 19.7585C43.8778 19.7036 43.5323 19.7398 43.5126 19.2848C43.5126 19.2304 43.6957 19.1942 43.8234 19.2304C43.8957 19.2665 44.0055 19.321 44.26 19.5393C44.26 19.5764 44.0779 19.9028 44.3868 20.0679C44.3868 20.0679 44.6235 20.1407 44.6609 20.0679C44.7511 19.8487 44.3511 19.3397 44.2966 19.1938C44.26 19.0665 44.0055 18.7201 43.7314 18.7201C43.4224 18.7567 42.8581 18.7741 42.5487 18.975C42.4942 19.0116 43.3314 20.1041 43.368 20.1943C43.3858 20.2488 43.368 20.3224 43.368 20.3224C43.1313 20.1403 42.6036 20.0501 42.4576 20.0679C42.3482 20.1046 42.3304 20.1586 42.2576 20.1586C42.0937 20.1586 41.9299 20.0501 41.7294 20.0679C41.5839 20.1046 41.4749 20.3041 41.0561 20.3769C40.5829 20.4501 39.3086 20.668 38.7443 20.5225C38.6528 20.5042 38.2344 20.3229 38.2889 19.6496C38.3246 19.5398 38.3983 19.4308 38.5438 19.3398C38.7443 19.2665 38.9443 19.2848 39.0354 19.1763C39.1082 19.0669 39.0533 18.8848 39.2537 18.7741C39.3627 18.7201 39.5265 18.7026 39.618 18.7026C39.6721 18.7026 39.618 18.8661 39.618 18.8661C39.5631 18.975 39.2537 18.8299 39.2712 19.1393C39.2712 19.4304 39.7091 19.8483 39.927 20.0501C40.1275 20.2492 40.2909 20.1948 40.4003 20.2135C40.6369 20.3041 40.582 20.1046 40.5275 19.9394C40.4914 19.7585 40.273 19.7956 40.2186 19.6858C40.1824 19.6309 40.1458 19.4308 40.1824 19.3764C40.2186 19.2853 40.4003 19.2853 40.5458 19.3947C40.6918 19.5219 40.8003 19.5219 40.9106 19.6862C40.9106 19.7041 40.9468 20.0505 40.9468 20.1412C40.9468 20.1952 41.3651 20.0139 41.4191 19.8862C41.4557 19.8313 40.891 19.1402 40.7999 19.0848C40.7454 19.0674 40.7454 18.958 40.7637 18.8308C40.7637 18.8308 40.5271 19.0125 40.4543 19.0125C40.3824 18.9759 40.3824 18.9759 40.3454 18.9214C40.3454 18.812 40.436 18.5763 40.436 18.5763C40.436 18.5763 40.0904 18.8852 39.781 18.9214C39.6176 18.958 40.0181 18.3017 40.127 18.2468C40.2905 18.1379 40.436 18.3017 40.3998 18.4651C40.3998 18.4651 40.5454 18.2468 40.6365 18.2468C40.7999 18.2468 40.9101 18.2655 40.9468 18.3017C41.0012 18.3383 40.9468 18.6477 40.9468 18.6477C41.1102 18.5758 42.2389 18.5758 42.3848 18.5758C42.4938 18.5758 42.6934 18.4111 42.7121 18.4111C42.7487 18.3932 42.3848 16.7734 42.2933 16.6993C42.2933 16.6632 42.2389 16.7547 42.2572 16.8275C42.3848 17.2824 42.4572 18.0829 42.4572 18.1374C42.4934 18.2115 42.1848 17.7923 42.1478 17.7012C42.1295 17.5923 41.8924 17.1186 41.8924 17.2092C41.8924 17.282 41.9844 17.6463 41.9473 17.7012C41.9294 17.7735 41.8209 17.8289 41.729 17.8463C41.7107 17.8829 42.0201 17.9012 42.0201 17.9012C42.0201 17.9012 42.2027 18.2115 42.2389 18.3013C42.2572 18.3379 41.6375 18.3379 41.5285 18.3013C41.4196 18.3013 41.6196 18.0102 41.6196 18.0102C41.6196 18.0102 41.4745 17.5744 41.5111 17.3922C41.5111 17.2645 41.5111 17.2279 41.583 17.119C41.6741 17.0275 42.0929 16.5551 42.2027 16.4453C42.2933 16.3363 42.3299 16.3363 42.3299 16.2444C42.3474 16.1537 42.3474 16.0993 42.4018 16.0448C42.4567 15.972 42.8572 15.48 42.8572 15.48L43.3305 15.3706C43.3305 15.3706 43.5314 15.0983 43.5859 14.9706C43.6948 14.8063 43.8948 14.9165 43.8225 15.0983L43.385 15.6443L43.0573 15.6256L42.5108 16.2814L43.0028 18.5205H43.9493L44.2404 18.7026C44.2404 18.7026 44.5503 18.612 44.9137 18.6477C45.3691 18.666 45.6968 18.7745 45.6968 18.7745C45.6423 17.1556 45.4244 16.1363 45.1699 15.171C45.061 14.7889 45.2244 14.8063 45.3155 14.6067C45.4432 14.3339 45.5709 13.6785 45.6423 13.3691C45.6968 13.0597 45.8432 13.1141 45.8977 13.0052C45.9334 12.9141 45.9334 12.8596 45.9522 12.732C45.991 12.6378 46.1356 12.6378 46.1356 12.6557C46.1901 12.8012 46.1901 13.0383 46.1901 13.0383L46.3178 13.0566C46.2624 13.22 46.1535 13.3115 46.1535 13.3115C46.3178 13.3477 46.4633 13.4571 46.4089 13.4758C46.208 13.6754 46.0079 13.7665 46.0079 13.7665C46.0999 13.8393 46.2624 13.9299 46.4089 14.0393C46.4089 14.0393 46.3723 14.0759 46.2455 14.1304C46.0999 14.1487 45.9347 14.221 45.9347 14.221C46.0079 14.2938 46.1901 14.4398 46.2624 14.55C46.2991 14.55 46.1535 14.5858 46.0446 14.5858H45.6981C45.6981 14.5858 45.7901 14.7126 46.0446 14.9135C46.0446 14.9135 45.8079 15.0041 45.59 14.9675L45.899 15.514C45.7356 15.477 45.3883 15.477 45.4257 15.477C45.6258 15.5859 46.1356 15.714 46.1356 15.714C46.0624 15.8779 46.0079 16.023 46.0079 16.023C46.0079 16.023 46.2624 16.0413 46.4991 16.3511H46.1356C46.0446 16.3511 46.0624 16.4047 46.0999 16.4418C46.2991 16.6418 46.5732 17.061 46.5732 17.061C46.3723 17.0061 46.2455 16.9159 46.0999 16.8601C46.0624 16.8601 46.208 17.061 46.2624 17.2789C46.3178 17.5156 46.0999 17.3338 45.9347 17.2606C45.9347 17.2606 46.0999 17.4611 46.2991 17.6977C46.2991 17.6977 46.2455 17.7701 46.0999 17.8428C46.0999 17.8428 46.4089 17.9526 46.4991 17.9893C46.5732 18.0067 46.6089 18.0067 46.5732 18.0978C46.5536 18.1897 46.2455 18.2429 46.0999 18.2429C46.0624 18.2616 46.4089 18.6085 46.3723 18.6991C46.3723 18.8081 46.1901 18.6991 46.1535 18.6625C46.0999 18.6442 46.1356 18.8268 46.0624 19.0086C46.0624 19.0086 45.7534 19.0264 45.6436 19.0809C45.6258 19.0809 45.7535 19.3907 45.8811 19.7921C45.991 20.1913 46.0624 20.4105 46.1356 20.4471C46.208 20.4649 46.4089 20.3011 46.4991 20.1913C46.4991 20.1551 46.3723 19.9912 46.208 19.7551C46.1535 19.6823 46.0999 19.5903 46.1901 19.5363C46.2455 19.4814 46.4455 19.518 46.6625 19.6823C46.7732 19.7363 46.7187 20.21 46.7187 20.5556C46.7187 20.5739 46.9187 20.5007 47.0643 20.4466C47.1188 20.41 47.192 20.1368 47.1188 19.8819C47.0277 19.3903 46.7732 19.2809 46.6276 19.2264C46.5187 19.1903 46.4089 19.1358 46.4089 19.1358C46.4991 19.1171 46.9187 19.063 46.9187 19.063C46.8821 18.9536 46.7732 18.6621 46.7187 18.4612L47.1732 18.6081C46.9187 18.2424 46.8089 18.1522 46.7187 17.8973C46.6089 17.5883 46.5187 17.3142 46.5187 17.3142C46.7544 17.5326 47.0643 17.679 47.0822 17.6973C47.0643 17.6428 46.8643 17.0231 46.7732 16.8959C46.7187 16.7691 46.7732 16.7691 46.8277 16.7691C46.8821 16.7691 47.0643 16.8235 47.0643 16.8235C47.0643 16.8235 46.6276 16.2047 46.3178 15.8944C46.2624 15.8404 46.3178 15.7681 46.4455 15.7681C46.5536 15.7681 46.8277 15.7315 46.8277 15.7315C46.8277 15.7315 46.3178 15.4037 46.208 15.2761C46.1535 15.2578 46.1901 15.2033 46.2624 15.2033C46.4089 15.2033 46.8643 15.2761 46.8643 15.2761C46.6276 15.1126 46.5732 15.022 46.3723 14.8948C46.3544 14.8398 46.3544 14.7488 46.4455 14.7117C46.5536 14.7117 46.7187 14.7849 46.7187 14.7849C46.7187 14.7849 46.6089 14.6394 46.5187 14.4934C46.4991 14.4389 46.5536 14.4389 46.6276 14.4389C46.8277 14.53 47.1732 14.6939 47.1732 14.6577C46.9919 14.4389 46.6812 14.1295 46.5187 13.9112C46.4991 13.838 46.4991 13.7107 46.6089 13.7107C46.7732 13.6563 47.1188 13.6563 47.0822 13.6563C47.0822 13.6563 46.9732 13.529 46.8643 13.3107C46.7544 13.0562 46.7544 12.8012 46.7544 12.6378C46.7187 12.4914 46.7732 12.4731 46.8643 12.528C46.9366 12.5829 47.192 12.9106 47.192 12.9106C47.192 12.9106 47.1188 12.2909 47.0822 12.0186C47.0822 11.9279 47.1188 11.9096 47.1375 11.9279C47.2464 11.9641 47.392 12.1097 47.392 12.1097C47.392 12.1097 47.4286 11.7641 47.1188 11.1082C47.0643 11.0354 47.1375 10.9993 47.1732 10.9993C47.3367 11.0354 47.5554 11.1444 47.5554 11.1444C47.5554 11.1444 47.2464 10.7269 46.9187 10.3809C46.8643 10.326 46.8643 10.2715 46.9366 10.2166C47.0277 10.1621 47.3367 10.1621 47.3367 10.1621C47.2286 10.0715 46.8821 9.9072 46.7187 9.76209C46.6625 9.74422 46.6625 9.61566 46.7544 9.50715C46.9366 9.25222 46.8643 9.08837 46.8643 9.08837C46.8643 9.08837 46.7187 9.08836 46.5732 9.10667C46.4991 9.10667 46.4089 9.14327 46.3544 9.03346C46.2455 8.833 46.1356 8.6151 46.1356 8.6151C46.0624 8.6151 45.991 8.63384 45.9347 8.56063C45.8445 8.46955 46.0079 7.86904 46.0079 7.86904C45.8445 7.92351 45.3347 8.10567 45.0061 8.41551C44.6971 8.72492 44.606 9.3433 44.206 9.50759C44.006 9.5625 43.9506 9.50759 43.8417 9.50759C43.7872 9.50759 43.8238 9.45224 43.7872 9.43481C43.7872 9.39777 43.7872 9.36247 43.8417 9.36247C43.8783 9.34286 44.0962 9.28926 44.206 9.17901C44.3873 9.03346 44.4614 9.05132 44.3515 8.83256C44.2417 8.61467 43.3318 8.26909 42.6942 8.30526C42.5853 8.30526 42.5853 8.35973 42.6036 8.41508C42.6402 8.48742 42.6402 8.52402 42.6581 8.56019C42.6938 8.61467 42.6581 8.66914 42.5849 8.66914C42.3308 8.68744 42.0393 8.61423 41.8754 8.61423C41.8214 8.61423 41.8392 8.52359 41.8392 8.52359C41.9303 7.86817 42.1486 7.44982 42.2036 7.12124C42.2036 7.12124 41.7848 7.5409 41.512 7.75879C41.512 7.75879 41.4571 7.44982 41.4571 7.08594C41.4571 7.08594 40.9115 7.5409 40.6012 8.83256C40.6012 8.83256 40.4369 8.66958 40.3279 8.56019C40.3279 8.56019 40.1828 8.97898 40.1828 9.36204C40.1828 9.8706 40.7646 10.0523 40.7646 10.0523C40.5829 10.2894 40.0368 10.2715 39.91 10.017C39.8364 9.8706 39.8364 9.76209 39.873 9.61566C39.873 9.59736 39.1627 10.0715 39.4185 10.5809C39.7096 11.1636 40.5463 11.1636 40.9476 11.1082C41.111 11.1082 41.2204 11.0904 41.2749 11.2908C41.3111 11.4551 41.3298 11.7275 41.366 11.7819C41.4021 11.8547 41.4571 11.9096 41.5294 11.8547C41.6383 11.727 41.7294 11.5632 41.8392 11.5632C41.8933 11.5632 41.9482 11.6181 42.021 11.673C42.0397 11.7092 42.0937 11.673 42.0937 11.673C42.1853 11.5458 42.8585 11.0533 43.3863 11.1444C43.5872 11.1636 43.7872 11.2359 43.9872 11.4551C44.0962 11.5458 44.1328 12.019 43.8783 11.9824C43.8783 11.9824 43.8417 11.6007 43.7685 11.4725C43.6416 11.3632 43.5684 11.3453 43.4229 11.3087C43.4229 11.3087 43.3863 11.5096 43.3318 11.6007C43.3318 11.6007 43.2237 11.6007 43.1675 11.6185C43.1139 11.6551 43.1139 11.7096 43.1318 11.7275C43.1318 11.7819 43.1675 11.8186 43.2237 11.8735C43.2237 11.8735 42.713 11.8552 42.5491 11.9824C42.3857 12.1097 42.1486 12.4186 42.1486 12.4731C42.1486 12.528 42.3487 12.5829 42.4031 12.5829C42.4031 12.5829 41.4571 13.4022 41.366 13.9661L41.2017 13.9116C41.2204 13.7112 41.5124 13.1651 41.5124 13.1651C41.5124 13.1651 41.2575 13.0017 41.0932 12.9651C40.7472 12.9106 40.3467 12.3825 39.8185 12.491C39.7823 12.491 39.7279 12.5829 39.4542 12.7285C39.1997 12.8379 38.909 13.1102 38.7988 13.1102C38.5809 13.1647 38.5264 13.1647 38.4353 13.2017C38.2893 13.3464 38.3251 13.4018 38.2349 13.4562C38.1255 13.475 37.8706 13.529 37.7067 13.6746C37.5428 13.821 37.3428 14.1295 37.1968 14.2197C37.0883 14.2925 37.1066 14.4385 37.1968 14.4751C37.2883 14.5296 37.3973 14.5296 37.5067 14.6023C37.6518 14.6934 37.5611 14.7483 37.5067 14.8394C37.4156 14.9122 37.3428 15.0939 37.1968 15.1484C37.0338 15.2212 36.9972 15.1667 36.9428 15.2029C36.8879 15.2212 36.8334 15.2573 36.8508 15.3663L37.5978 19.6452C37.5978 19.6452 37.725 19.5895 37.9263 19.5895C37.7071 20.5552 37.9621 20.6275 38.3987 21.065C38.3987 21.065 37.5067 22.4665 37.0883 22.7214C37.0338 22.7759 37.0513 23.25 37.0513 23.25H37.0883C36.2141 24.3792 33.4465 24.4328 32.8647 22.3209C32.8647 22.3209 32.7736 22.2482 32.937 22.2482C34.9212 22.3754 34.9935 21.557 34.9935 21.557C34.6667 21.1378 34.1572 20.865 33.7014 20.8284C32.9741 20.7739 32.683 21.1927 32.5004 21.0288C32.1552 20.719 33.6108 20.1908 34.1211 19.827C34.8671 19.3175 34.8305 17.6245 34.8305 17.6245C34.0479 17.8973 33.5018 17.6973 32.883 18.208C32.1003 18.8809 31.991 20.1908 31.7543 20.0466C31.5905 19.9359 31.8637 19.0086 31.5534 18.7536C30.9721 18.2616 30.8082 17.9893 30.8082 17.9893C30.5533 18.3897 29.2608 20.2457 30.9355 21.6843C31.1172 21.8477 30.6256 22.6665 30.7712 23.3947C30.7712 23.3947 31.3172 25.5623 33.7018 26.0717C33.0473 26.7999 31.5905 26.9455 31.2266 26.4182C31.0627 26.1628 31.4266 26.0177 31.4266 26.0177C31.2815 25.8713 30.6609 25.6534 30.1886 25.9262C29.3331 26.4182 29.7881 27.5643 30.0613 27.7648C30.0613 27.7648 29.3157 28.0201 28.8781 28.6019C28.35 29.4033 27.895 29.9127 27.895 29.9127C29.1684 30.7137 31.1904 30.0949 31.2445 30.023C31.2445 30.023 31.1717 30.6958 31.3172 31.0231C31.4445 31.2772 31.5905 31.9888 31.5905 31.9888C31.991 31.7156 31.9003 31.8428 32.5557 31.4053C32.883 31.1512 33.0469 29.4216 33.5384 29.0573C34.1019 28.6385 35.0489 27.5107 35.3591 27.5469C35.3591 27.5469 35.4498 27.8554 35.7596 28.0384H34.6309V29.7672C34.23 30.077 33.7934 29.6582 33.6474 29.4216C33.6474 29.4216 33.3563 29.7127 33.2826 29.986C33.1737 30.2766 33.2286 30.7141 33.5559 31.0606C33.9572 31.4785 34.4666 31.3151 34.6309 31.1695V31.8433C34.3756 32.1888 32.937 33.3907 32.5004 32.4621C32.5004 32.4621 31.6441 33.1354 32.3004 33.9002C32.3731 33.9917 32.9183 34.264 33.3924 33.8819C33.538 33.7372 33.7384 34.1368 33.684 34.1555C33.4835 34.3551 30.7708 35.7941 32.7736 38.0693C33.0826 38.4153 33.0464 37.2871 33.8657 36.6678C34.0474 36.5223 34.4662 36.0486 34.539 34.6105H34.6305V34.7556C34.6305 37.905 35.2859 40.7272 36.7785 43.1126H33.9929C33.5554 43.1662 33.5554 43.7851 33.3014 44.186C33.0281 44.6048 32.6638 44.7861 32.5183 45.0968C32.3731 45.4602 32.6281 45.8433 32.9183 46.1344C33.392 46.6434 33.8657 47.1175 34.4117 47.5363L34.3751 47.5184C34.3751 47.5184 33.5554 48.5007 33.5014 48.756C33.4465 49.0105 33.3563 49.1748 33.684 49.4838C33.9929 49.7928 34.4117 49.9392 34.6305 50.3571C34.8841 50.7589 35.048 51.1402 35.2489 51.3411C35.3949 51.4858 35.723 51.4858 36.1771 51.2679C36.541 51.0679 36.6878 50.7589 36.578 50.5044C36.4686 50.2107 36.2865 49.9026 36.269 49.6481C36.2689 49.627 36.2737 49.6061 36.2831 49.5872C36.2925 49.5683 36.3062 49.5518 36.3231 49.5392C36.3776 49.4293 36.6691 49.2114 36.7968 49.1195C38.6903 50.1026 40.6927 50.558 42.4585 50.558C44.2975 50.558 46.3723 50.0481 48.3564 48.9739C48.4832 49.065 48.6662 49.2114 48.7207 49.2659C48.7743 49.3383 48.7743 49.3927 48.7394 49.4838C48.7207 49.5392 48.301 50.3214 48.2474 50.5044C48.1751 50.6312 48.1564 50.8857 48.2653 51.0313C48.4117 51.1402 48.685 51.3956 48.8297 51.4501C48.9395 51.5054 49.2484 51.6322 49.5038 51.3224C49.7404 50.9768 50.7959 49.8481 50.9968 49.7026C50.9968 49.7026 51.6522 49.065 51.1058 48.5194C50.8334 48.2462 50.4861 47.8819 50.3048 47.7184C50.887 47.2264 51.4879 46.7174 52.0157 46.1344C52.2702 45.8433 52.5443 45.4602 52.38 45.0968C52.2344 44.7861 51.9067 44.6048 51.6156 44.186C51.3602 43.7851 51.3602 43.1662 50.9423 43.1126H48.4296C49.4493 41.4907 49.9949 39.707 50.2137 37.9046C50.5235 37.7599 50.8334 37.3769 51.0879 36.8312C51.0879 36.8312 51.9791 37.7956 52.7988 38.251C52.8345 38.251 52.8532 38.3059 52.8898 38.251C53.5997 36.3576 52.4889 34.9739 52.4889 34.9739C52.4889 34.9739 53.1622 34.719 53.2908 34.2449C53.4185 33.5175 52.9809 33.0255 52.9809 33.0255C52.7988 32.9724 52.3255 33.5729 51.7246 32.8987ZM45.991 8.68744C46.2991 9.03258 45.9347 9.50672 45.9347 9.50672C46.208 9.43394 46.5187 9.43394 46.5187 9.43394C46.4089 9.59693 46.1901 9.79782 46.1901 9.79782C46.5536 9.90633 46.6089 10.0166 46.6089 10.0166C46.4633 10.1072 46.2624 10.18 46.2624 10.18C46.7544 10.3256 46.8277 10.7435 46.8277 10.7435C46.8277 10.7435 46.3178 10.6711 46.3544 10.6711C46.633 10.911 46.846 11.2178 46.9732 11.5627C46.9732 11.5627 46.4991 11.3998 46.4991 11.4176C46.8277 11.9092 46.8277 12.2186 46.8277 12.2186L46.4089 11.9096C46.5732 12.6012 46.4991 12.8566 46.4991 12.8566C46.4991 12.8566 46.2455 12.6561 46.1356 12.4191C46.1356 12.4191 46.0079 12.5284 45.8445 12.8017C45.7534 12.9481 45.6802 12.8017 45.6981 12.6383C45.7356 12.4374 45.8079 12.2735 45.8079 12.2735C45.8079 12.2735 45.5356 12.5284 45.4257 12.5467C45.2614 12.5467 45.1712 12.4374 45.3168 12.2369C45.5356 12.019 45.6981 11.8552 45.6802 11.7824C45.6436 11.7824 45.4445 11.9828 45.19 12.0373C45.0248 12.0735 44.8793 12.0735 44.915 12.019C44.9516 11.9284 45.0623 11.7275 45.2802 11.6011C45.5356 11.4185 45.7356 11.3636 45.7356 11.3636C45.7356 11.3636 45.499 11.3457 45.3883 11.3091C45.2802 11.3091 45.19 11.2363 45.3704 11.1448C45.4257 11.1448 45.5722 11.1087 45.6436 10.9814C45.6981 10.8354 45.8079 10.3813 45.7534 10.2353C45.6981 10.1081 45.59 10.0719 45.499 10.1626C45.2802 10.3264 44.915 10.363 44.915 10.363L45.6981 9.50759C45.6981 9.50759 45.7356 9.3433 45.7901 9.14371C45.8811 8.86829 45.991 8.68744 45.991 8.68744ZM44.5154 9.96168C44.552 9.81569 45.0627 8.57763 45.0627 8.6138C45.0806 8.86829 45.0065 9.59693 45.0065 9.59693C45.0065 9.59693 45.1717 9.56163 45.3351 9.43394C45.536 9.25135 45.6441 9.1058 45.6441 9.1058L45.6985 9.30582C45.6985 9.30582 45.4449 9.61479 45.2262 9.79739C45.0477 9.93884 44.8432 10.044 44.6243 10.1068C44.4618 10.1613 44.4618 10.0711 44.5154 9.96168ZM41.2209 7.75835L41.3302 7.79496C41.2304 8.12232 41.1573 8.45722 41.1115 8.79639C41.1115 8.79639 40.9664 8.79639 40.8391 8.83212C40.8387 8.83169 40.9481 8.10436 41.2209 7.75835ZM41.3115 10.8524C41.2209 10.8899 41.2209 10.8346 41.0025 10.8346C40.8016 10.8346 40.6378 10.9265 40.2369 10.8899C40.0734 10.8524 39.8185 10.8346 39.6542 10.6167C39.527 10.4345 39.5091 10.289 39.564 10.1617C39.6542 9.96211 39.764 10.18 39.7823 10.2162C40.0917 10.489 40.4922 10.4162 40.8012 10.3805C41.111 10.3256 41.0021 10.3256 41.111 10.3256C41.3115 10.3622 41.4026 10.7988 41.3115 10.8524ZM41.6754 10.9805C41.6754 10.9805 41.4205 10.6711 41.2753 10.1255C41.2209 10.1617 41.1664 10.1617 41.1115 10.1617C41.0025 10.1617 40.9119 10.1077 40.9119 10.0523C40.9119 9.97954 41.0025 9.96211 41.1115 9.96211C41.1664 9.96211 41.2021 9.96211 41.2209 9.97998C41.2021 9.76209 41.1664 9.54332 41.2021 9.28883C41.2575 8.324 41.4575 7.92264 41.7665 7.68688L41.8758 7.74092C41.5124 8.41508 41.3664 9.70718 42.0759 10.8354C42.0759 10.8346 41.9852 10.8899 41.6754 10.9805ZM41.9486 9.97911C41.8937 9.86973 41.9308 9.79739 41.9852 9.76122C42.0397 9.70587 42.1486 9.70587 42.204 9.59693C42.2946 9.50628 42.3312 9.3616 42.2402 9.28839C42.1491 9.19688 42.0401 9.19688 42.0214 9.08793C42.0214 8.97898 42.0759 8.92364 42.1491 8.8879C42.204 8.86873 42.4406 8.8879 42.5496 8.99685C42.6411 9.10623 42.6947 9.34243 42.6947 9.50715C42.6947 9.70674 42.6406 9.8706 42.5857 9.92551C42.5125 9.97998 42.4406 10.126 42.2585 10.126C42.1308 10.1613 42.0214 10.1072 41.9486 9.97911ZM43.0769 10.7988C42.9501 10.7988 42.7134 10.7435 42.6045 10.7805C42.4951 10.7988 42.3866 10.8346 42.2585 10.7435C42.1861 10.6711 42.1491 10.5805 42.1308 10.4166C42.0401 10.126 42.4036 10.2166 42.5496 10.2349C42.5496 10.2349 42.859 10.326 42.9679 10.3626C43.1322 10.4171 43.2599 10.4349 43.3322 10.5809C43.3867 10.6345 43.2599 10.8346 43.0769 10.7988ZM43.6233 9.43394C43.5689 9.59693 43.5135 9.65183 43.3688 9.67014C43.1679 9.70631 43.0045 9.67014 42.859 9.50672C42.75 9.39734 42.767 9.14284 42.8036 8.99641C42.8224 8.88747 42.9679 8.77765 43.0769 8.92364C43.1322 9.03258 43.1679 9.10623 43.1322 9.17857C43.1143 9.28839 43.1143 9.30626 43.059 9.34243C43.059 9.36204 43.1143 9.43438 43.2045 9.43438C43.2778 9.45137 43.3144 9.39734 43.3322 9.39734C43.3867 9.34243 43.442 9.23392 43.5689 9.25178C43.6421 9.25135 43.6421 9.34199 43.6233 9.43394ZM38.5996 14.5496C39.1086 14.0389 39.6542 14.3304 39.6542 14.3304C39.9828 13.875 40.6927 14.0389 40.8557 14.0933C41.0021 14.13 41.111 14.0755 41.2017 14.2389C41.3298 14.4938 41.3298 15.2586 41.4026 15.4225L41.566 15.477C41.5843 15.4042 41.4205 14.2759 41.4205 14.2759C41.4205 14.2759 41.566 14.221 41.6205 14.2938C41.7111 14.4028 41.7848 14.7858 41.7848 14.6586C41.8218 14.4764 41.7299 14.1849 41.6383 14.0393C41.6205 14.0214 41.6205 13.9665 41.6754 13.9121C41.7299 13.8388 41.8218 13.9299 41.9482 13.9848C42.0397 14.0214 42.0937 14.3853 42.0937 14.4764C42.0937 14.5853 41.8214 15.168 41.8214 15.3314C41.8388 15.4042 41.8388 15.4591 41.7656 15.5855C41.6749 15.7859 41.4566 16.1328 41.42 16.3873C41.3655 16.8052 41.2749 16.9521 41.1659 17.0057C41.0561 17.078 40.8918 17.1695 40.7646 17.3704C40.7646 17.3704 40.7097 17.5156 40.3833 17.5334C40.1279 17.5709 40.0913 17.2611 40.073 17.2611C40.0368 17.2611 40.019 17.5713 39.9645 17.5713C39.6542 17.6254 39.4189 17.7892 39.1627 18.0071C38.8903 18.2621 38.5992 18.2982 38.4711 18.2982C38.3434 18.2982 38.3809 18.2982 38.3809 18.2085C38.3434 18.0978 37.9259 14.9671 37.9259 14.9671C37.9799 14.9135 38.2349 14.8956 38.5996 14.5496ZM37.9263 18.8277C37.8706 18.9183 37.7795 18.7545 37.7612 18.7179C37.7067 18.6451 37.3066 15.4774 37.3066 15.3318C37.3066 15.2774 37.6522 15.0046 37.6522 15.0046C37.6522 15.0046 37.7612 15.0046 37.7795 15.0956C37.8161 15.1684 38.3251 18.2991 38.2715 18.2991C38.1808 18.3353 38.0714 18.7 37.9263 18.8277ZM38.1255 19.0818C38.0893 18.955 38.2893 18.4625 38.3434 18.4451C38.3809 18.4085 38.9086 18.4996 39.2176 18.0986C39.3086 18.0446 39.6538 17.7709 39.7636 17.7709C39.873 17.7709 39.9641 17.7897 40.0726 17.8267C40.0726 17.8441 40.1275 17.954 40.0909 18.0076C40.0909 18.0446 39.8176 18.4625 39.727 18.4996C39.6533 18.554 39.0528 18.7545 38.9622 18.7715C38.7988 18.8817 38.1621 19.1179 38.1255 19.0818ZM39.1082 20.9382C39.3993 20.8654 40.2913 20.9382 41.0021 20.6288C41.4021 20.4654 42.2942 20.3743 42.4947 20.4109C42.5853 20.4475 42.4947 20.556 42.4947 20.556C42.3857 20.6105 41.6754 20.6288 41.6383 20.756C41.566 21.374 41.5124 21.9932 39.9645 22.1214C39.764 22.1214 38.4353 22.2129 38.3809 22.1031C38.2893 21.903 38.9631 21.0123 39.1082 20.9382ZM33.8117 30.9146C33.3563 30.4413 33.6844 29.9132 33.6844 29.9132C33.6844 29.9132 33.8117 30.1502 34.1211 30.2766C34.3207 30.3503 34.5394 30.2413 34.5394 30.2413L34.5756 30.9508C34.3756 31.0968 33.9572 31.0968 33.8117 30.9146ZM46.9732 45.0602C47.0822 45.1146 48.101 45.9879 48.1564 46.0799C48.1751 46.1522 48.2108 46.2254 48.101 46.2969C47.9921 46.3889 46.9366 47.0077 46.7544 47.0809C46.5187 47.1532 46.5187 47.0809 46.4455 47.0622C46.3544 47.0264 45.7534 46.5532 45.6981 46.4978C45.6436 46.4433 45.5356 46.3531 45.6436 46.2433C45.6436 46.2433 45.6802 46.2433 45.6802 46.2254C46.1356 45.8433 46.5536 45.4602 46.9187 45.0602H46.9732ZM48.9207 45.4781C49.0484 45.4781 49.0305 45.5692 48.9761 45.6594C48.9207 45.7334 48.6662 45.879 48.5564 45.9709C48.4653 46.0254 48.4117 46.0254 48.3207 45.9709C48.2474 45.8977 48.0653 45.7334 48.0108 45.6245C47.9921 45.5147 48.0653 45.5147 48.101 45.4781H48.9207ZM47.9563 45.2602C47.9019 45.2602 47.7018 45.2236 47.7376 45.0968C47.7563 45.0048 48.4117 44.0949 48.5198 44.0396C48.5198 44.0396 49.6128 43.9672 50.1235 44.0217C50.2682 44.0396 50.2316 44.186 50.2316 44.186C50.2316 44.3494 49.7949 44.8593 49.6128 45.0602C49.5038 45.2048 49.4306 45.2048 49.2842 45.2048C49.085 45.2236 48.1206 45.2602 47.9563 45.2602ZM41.4575 47.8997C40.2739 47.9908 39.1448 47.4265 38.9997 47.3354C38.8546 47.2622 38.9452 47.1175 38.9997 47.0622C39.0537 47.0077 39.5091 46.6621 39.673 46.5344C39.71 46.4978 39.7279 46.4978 39.7823 46.4978C40.3707 46.9459 40.9846 47.3594 41.6209 47.7363C41.6209 47.7908 41.6209 47.8997 41.4575 47.8997ZM44.952 28.2755C44.952 28.4385 43.059 28.3291 42.8956 28.3291C42.8036 28.3291 42.8036 28.2385 42.9134 28.1661C43.3867 27.6746 43.8787 27.6746 44.2422 27.4737C44.4967 27.3468 44.952 27.984 44.952 28.2755ZM45.1717 27.4009C45.3887 27.7844 45.536 27.9286 45.5905 28.1291C45.6807 28.3844 45.3351 28.4197 45.2806 28.2934C44.952 27.7107 44.8797 27.8197 44.8065 27.5469C44.7163 27.3468 45.0627 27.1651 45.1717 27.4009ZM45.8811 27.2919C46.0446 27.2919 46.2991 27.4196 46.4991 27.6558C46.7187 27.875 46.7187 28.3291 46.6625 28.3291C46.5536 28.3478 46.1356 28.3849 46.0999 28.2938C45.9347 27.729 45.7901 27.729 45.6802 27.5111C45.5726 27.2919 45.7356 27.2919 45.8811 27.2919ZM37.9263 44.7137C38.0165 44.8414 37.8531 44.9691 37.7795 44.9691C37.6156 44.9691 35.7953 45.0048 35.5949 44.9691C35.4493 44.9512 35.3953 44.9691 35.2864 44.8414C35.1038 44.6414 34.8305 44.3315 34.8676 44.1672C34.8676 44.1672 34.7944 44.0396 34.9403 44.0217C35.4132 43.9315 37.1973 44.0217 37.3611 44.0217C37.5611 44.2775 37.725 44.4967 37.9263 44.7137ZM36.2137 45.2236H37.0338C37.0508 45.2236 37.2339 45.2789 37.1611 45.3691C37.1428 45.5147 36.833 45.7701 36.7419 45.8237C36.6878 45.879 36.6325 45.879 36.5235 45.7879C36.4146 45.7334 36.0686 45.5147 36.0137 45.4236C35.9775 45.3513 36.0686 45.2236 36.2137 45.2236ZM36.9428 46.0424C36.9781 45.9709 37.9799 45.1146 38.1255 45.0602C38.2166 45.0414 38.2349 45.1146 38.2893 45.1512C38.2893 45.1691 38.4894 45.3513 38.7264 45.5334C38.7988 45.6594 38.8898 45.7334 38.9626 45.7879C39.1993 45.9879 39.3631 46.1888 39.4185 46.2433C39.527 46.3531 39.4185 46.4433 39.3631 46.4978C39.3086 46.5344 38.7447 47.0077 38.6358 47.0622C38.5443 47.0809 38.5443 47.1532 38.3434 47.0622C38.1617 47.0077 37.0879 46.3889 36.9776 46.2969C36.8508 46.2254 36.8874 46.1522 36.9428 46.0424ZM43.4778 47.7184C43.7689 47.572 44.0966 47.3354 44.4618 47.0809C44.7594 46.9055 45.0452 46.7107 45.3172 46.4978C45.3351 46.4978 45.3887 46.5344 45.4262 46.5344C45.5726 46.6621 46.0084 47.0077 46.0629 47.0622C46.1361 47.1175 46.2084 47.2622 46.0629 47.3354C45.9539 47.4265 44.8065 48.0274 43.6233 47.9363C43.442 47.8997 43.442 47.7908 43.4778 47.7184ZM48.0653 36.4491C47.8108 42.8568 43.3688 44.9146 42.4585 45.4781V30.5878H48.0653V36.4491ZM50.6325 21.8486C51.1058 20.8114 52.4175 20.8659 52.4175 20.8659C51.5433 20.5016 51.2334 20.0653 51.0325 19.9006C50.3235 19.3737 50.5235 18.0803 50.5235 17.9535C50.5235 17.8803 51.7246 17.6441 52.4889 18.1531C53.1622 18.6089 53.5087 19.7925 53.5997 19.9363L53.7274 19.9546C53.5257 19.4456 54.3828 18.3902 54.5829 18.2085C54.7097 18.1344 54.8382 18.7536 54.9481 19.0635C55.4749 20.6284 54.2373 21.1748 54.2373 21.1748C54.5471 22.1575 54.1828 22.9768 54.09 22.9768C53.9641 22.9406 53.9819 22.012 52.7264 22.304C51.1057 22.6678 50.6325 21.8486 50.6325 21.8486ZM44.8252 20.7748L45.7905 20.7565C46.3548 21.2847 46.4459 21.0297 46.5191 21.0663C46.6281 21.1195 47.429 22.3584 47.0647 22.3584C46.6093 22.3223 46.6629 22.7406 46.5736 22.6674C46.3548 22.504 45.7905 21.1387 45.7905 21.1387L45.6441 21.2847C46.2629 23.8514 50.178 25.9266 52.7988 22.8313C53.3078 22.2133 54.1283 23.2326 53.673 23.9063C52.2702 26.1088 48.7211 25.9632 47.0281 24.4885C46.5736 24.1059 46.0629 22.8857 45.8816 22.8683C45.6807 22.8308 45.6262 22.8857 45.4449 22.9411C45.2806 22.9955 45.3351 21.5396 45.2262 21.7579C45.1342 21.9401 45.1717 22.7772 45.0065 23.1956C45.0065 23.2322 45.2806 23.3952 45.4262 23.6505C45.9914 24.6158 45.2619 25.1984 45.2619 25.1078C45.1904 24.9256 45.0065 24.1783 44.7163 24.0684C44.6065 24.0148 44.4966 24.2144 44.3154 24.3613C44.1511 24.4885 44.1877 25.0337 43.5689 25.2886C43.2599 25.4163 42.6947 25.3614 42.6947 25.2525C42.6947 24.9801 42.8224 24.5787 43.059 24.3796C43.2778 24.1778 44.0966 23.9604 43.9877 23.7046C43.8421 23.4313 43.2046 23.1773 43.2242 23.1407C43.2778 23.0871 44.952 23.3782 44.8252 20.7748ZM42.604 22.7772C42.8585 22.741 42.6585 22.9411 43.6229 23.7054C43.7685 23.7969 43.5684 23.8693 43.5684 23.8693C43.3318 24.0514 42.913 23.9063 42.5491 24.743C42.3857 25.1078 42.2942 25.3078 42.4402 25.4895C42.4947 25.544 43.5131 25.8534 44.1328 25.2895C44.4614 24.981 44.3149 24.6345 44.4962 24.4345C44.6239 24.3073 44.7158 24.4707 44.7158 24.4707C44.9516 24.8712 45.0248 25.3453 45.1712 25.3627C45.1712 25.3627 45.5722 25.3449 45.7356 24.8895C45.8445 24.5805 45.9347 24.2345 45.8445 23.9974C45.7534 23.7059 45.499 23.488 45.4802 23.342C45.4445 23.1237 45.6981 22.9419 45.8445 23.1237C46.2991 23.5603 46.2991 24.2345 46.3178 24.6167C46.3723 25.8722 47.1375 26.7468 47.1732 28.3853H47.1375C47.1188 28.1299 46.8821 27.4201 46.6089 27.1468C46.1901 26.6736 45.4445 26.4914 44.2417 26.9834C43.3318 27.3473 41.8928 28.2759 41.3111 28.5853C40.7467 28.8943 40.1828 29.1131 40.0913 29.0037C39.9275 28.7858 39.9275 27.7848 39.9275 27.7848C39.9275 27.7848 39.7096 24.9261 38.071 23.4326C38.3813 23.3956 42.3312 22.8313 42.604 22.7772ZM31.1712 21.503C29.7876 19.9551 30.6252 19.0639 30.8252 18.5728C30.8252 18.5728 31.3168 18.8273 31.3896 19.2273C31.444 19.5903 31.3896 20.4475 31.7896 20.3198C32.2088 20.1917 32.3731 18.8817 32.9366 18.4991C33.8653 17.8433 34.5211 18.1902 34.5211 18.1902C34.4117 19.5903 33.7568 19.5363 32.4097 20.556C31.8445 20.9744 32.3544 21.4842 32.6821 21.2842C34.1564 20.5739 34.6301 21.6302 34.6301 21.6302C34.3198 21.9932 33.8653 21.9579 32.9179 21.9579C32.6276 21.9579 31.6258 22.4129 31.0802 22.9768C30.935 23.1781 31.5351 21.903 31.1712 21.503ZM31.499 24.3617C31.2445 23.9063 31.0261 23.5599 31.7539 23.0505C32.5553 22.4678 33.0281 23.1777 33.0281 23.1777C34.1568 24.7984 36.3597 24.4885 37.4156 23.3411C37.4518 23.3411 37.5067 23.3777 37.5428 23.3777C37.7612 23.5594 38.3438 24.2144 38.9452 25.2891C39.5274 26.3633 39.5091 27.4196 39.5091 27.4196C37.8531 26.691 38.1808 25.0524 38.1808 25.0524C33.7572 27.2375 31.6815 24.7247 31.499 24.3617ZM35.4127 26.837C34.7216 27.7844 33.3563 28.7309 33.192 29.0033C32.683 29.7859 32.4647 30.9146 32.3004 31.2611C32.1182 31.5343 31.7901 31.5343 31.7539 31.479C31.3721 30.6967 31.4806 29.7859 31.7356 29.3676C31.845 29.1671 31.59 29.2586 31.59 29.2586C30.2064 30.5329 28.4594 29.7864 28.4594 29.7864C28.4955 29.514 28.6589 29.2586 29.1679 28.7313C29.3871 28.4947 30.1881 28.0755 30.8252 28.0393C31.0806 28.0393 31.0257 27.7661 30.8614 27.7852C30.443 27.7852 30.006 27.4205 30.006 26.9468C29.9877 25.9641 30.8614 26.1275 30.8614 26.1275C30.8074 26.6736 31.1895 26.8928 31.4257 26.9468C32.9179 27.2026 33.392 26.5472 33.9197 26.2369C34.047 26.182 34.1564 26.1641 34.3024 26.1275C34.4113 26.1641 34.5207 26.1641 34.6301 26.1641C35.085 26.182 35.7038 26.2735 36.6321 25.8726C37.0334 25.727 36.7231 26.2735 36.887 26.5472C37.1607 26.9838 37.6514 26.9468 37.7246 27.0557C37.8697 27.3107 37.3602 28.0393 36.4869 28.0214C35.1033 27.9661 35.7043 26.4914 35.4127 26.837ZM38.0353 27.2017L38.2349 27.0374C38.4894 27.3468 38.9448 27.5647 39.6189 27.729C39.6542 27.7844 39.6542 27.9112 39.673 28.0389H37.9263C37.8706 27.875 38.0353 27.2017 38.0353 27.2017ZM32.8281 33.7734C32.2093 33.6997 32.2093 33.172 32.4647 32.8264C32.4647 32.8264 32.5187 32.9532 32.7196 33.0622C32.8285 33.1354 33.3018 33.3358 34.3577 32.4978C34.3756 32.4621 34.5394 32.4072 34.5394 32.6072C34.5394 32.9175 33.3375 33.8278 32.8281 33.7734ZM34.3756 34.5743C34.23 34.7556 34.2666 35.1923 34.0662 35.7387C33.8661 36.3031 33.1737 36.7763 33.0826 36.8857C33.0281 36.9764 32.7736 37.5599 32.6638 37.4318C32.1552 36.758 32.6093 35.5928 32.8647 35.2829C33.4465 34.5739 34.0117 34.665 34.3028 34.2449C34.4666 33.9551 34.5216 34.319 34.3756 34.5743ZM34.6122 33.3912C34.576 33.5367 34.1755 33.9921 34.0121 33.9555C33.9206 33.9555 33.8121 33.6823 33.7934 33.5921C33.7934 33.5921 34.1211 33.4278 34.4666 33.1184C34.5394 33.0626 34.6662 33.172 34.6122 33.3912ZM34.9399 28.3849H39.71C39.7279 28.53 39.7279 28.6389 39.7279 28.7849C39.7279 29.222 39.8734 29.4033 40.0373 29.4033C40.6927 29.4761 42.2402 28.4938 42.3861 28.4938H42.4585V30.5878L36.833 30.5873V36.4486C37.1066 42.8564 41.5294 44.9146 42.4585 45.4781V47.8448C42.3491 47.7903 42.2402 47.7359 42.1308 47.6448C37.3433 45.0044 34.9935 40.7816 34.9403 34.7552L34.9399 28.3849ZM40.3284 37.4509C40.6016 37.4509 40.9659 37.4509 41.1664 37.8505C41.4205 38.3064 41.1115 38.4885 41.2021 38.8707C41.2209 38.998 41.2021 39.0895 41.1476 39.1435C41.0025 39.2533 40.8387 39.1435 40.6927 39.0529C40.4373 38.889 40.2369 39.0895 39.9649 38.7805C39.7283 38.4894 39.5644 38.1791 39.8189 37.7608C39.9649 37.5608 39.7828 37.4514 39.6194 37.4326C39.4546 37.4514 39.2725 37.5603 39.4193 37.7608C39.6734 38.1791 39.5095 38.489 39.2725 38.7805C39.0001 39.0899 38.7996 38.8895 38.5451 39.0529C38.4362 39.1435 38.2357 39.2533 38.0906 39.1435C38.0361 39.0895 38.0174 38.998 38.0361 38.8707C38.1268 38.489 37.8169 38.3068 38.0723 37.8505C38.2719 37.4509 38.6367 37.4509 38.9095 37.4509C39.2001 37.4509 39.1457 37.0866 38.8358 37.1402C38.5268 37.1956 38.3442 37.4867 37.9625 37.3224C37.562 37.1402 37.4718 36.8317 37.4165 36.504C37.3616 36.304 37.2526 36.3218 37.2892 36.1575C37.3075 35.9945 37.4165 36.1035 37.5982 35.9945C37.9268 35.8124 38.0719 35.6302 38.4898 35.7945C38.7452 35.9039 38.8546 36.1946 38.9997 36.3767C39.1448 36.5768 39.4542 36.3584 39.272 36.1946C39.1086 36.0486 38.7452 35.649 38.7992 35.3204C38.8354 34.9565 39.1452 34.7011 39.3457 34.5198C39.5274 34.3926 39.3635 34.2109 39.6189 34.1921C39.8734 34.2109 39.71 34.3926 39.9105 34.5198C40.0917 34.7016 40.4011 34.9565 40.4556 35.3204C40.4922 35.649 40.1283 36.0486 39.9649 36.1946C39.7828 36.3584 40.0922 36.5768 40.2373 36.3767C40.3842 36.1946 40.4927 35.9043 40.7476 35.7945C41.1668 35.6302 41.3119 35.8124 41.6388 35.9945C41.8222 36.1035 41.9308 35.9945 41.9486 36.1575C41.9852 36.3218 41.8758 36.304 41.8222 36.504C41.7665 36.8317 41.6758 37.1402 41.2753 37.3224C40.8923 37.4867 40.7101 37.1956 40.4011 37.1402C40.0917 37.0866 40.0373 37.4509 40.3284 37.4509ZM36.1592 49.2659C36.0498 49.3383 35.9775 49.3383 35.8681 49.2114C35.7592 49.0838 35.34 48.3551 34.9761 48.4641C34.9761 48.4641 34.9212 48.9016 34.6662 49.065C34.4122 49.2284 33.9934 48.8284 34.43 48.5194C34.4845 48.4641 34.7216 48.3917 34.6309 48.2087C34.5394 48.0998 34.43 48.1364 34.4122 48.1551C34.3207 48.2087 34.3756 48.3007 34.3756 48.3007C34.3756 48.3007 33.9206 48.6462 34.1572 49.0293C34.3207 49.3383 34.8305 49.4838 35.1399 48.8284C35.177 48.7739 35.231 48.8105 35.2864 48.8284C35.3953 48.9016 36.269 50.1571 36.378 50.4482C36.4686 50.667 36.378 50.9768 36.1056 51.1402C35.9601 51.1956 35.5056 51.3769 35.3042 51.1224C35.0858 50.7447 34.8551 50.3742 34.6126 50.0115C34.4305 49.7928 33.9576 49.4481 33.7938 49.3383C33.6482 49.2659 33.5389 48.9561 33.7393 48.6641C33.904 48.4096 34.413 47.8274 34.5403 47.6452C35.1504 48.1176 35.7953 48.5432 36.4695 48.9186C36.3776 49.0293 36.2324 49.2284 36.1592 49.2659ZM51.1058 48.8641C51.1968 49.065 51.1058 49.2284 50.9968 49.3927C50.8513 49.5392 49.7038 50.7036 49.4306 51.0679C49.2314 51.3224 48.9395 51.2313 48.9395 51.2313C48.8297 51.1777 48.5564 51.0313 48.4832 50.9215C48.4296 50.7768 48.4832 50.667 48.5198 50.5044C48.6118 50.249 49.0484 49.4481 49.5583 49.0838C49.5583 49.0838 49.6681 49.0105 49.7404 49.0293C49.7592 49.065 49.8503 49.7026 50.687 49.2114C50.778 49.1748 50.687 49.0838 50.687 49.0838C50.687 49.0838 49.9217 49.6302 49.8681 48.7007C49.8681 48.7007 49.7592 48.6641 49.6681 48.756C49.6128 48.8105 49.1761 49.1374 49.085 49.1374C49.0305 49.1748 48.9939 49.1748 48.9761 49.1374C48.9207 49.1195 48.8118 49.0105 48.7743 48.9739C48.7367 48.9162 48.6878 48.8667 48.6305 48.8284C49.1216 48.5551 49.5583 48.2462 50.0137 47.8997C50.0681 47.8997 50.1235 47.9363 50.178 47.9908C50.3048 48.0998 51.0879 48.7739 51.1058 48.8641ZM50.8334 43.2586C50.9968 43.222 51.0325 43.6578 51.0879 43.8221C51.179 43.9855 51.2334 44.1864 51.3433 44.3498C51.5067 44.5873 51.6701 44.7508 51.8156 44.8963C51.9246 45.0053 52.0344 45.1151 52.1076 45.224C52.18 45.424 51.9246 45.7339 51.7612 45.8982C49.3395 48.5198 45.736 50.1026 42.5496 50.2107V50.249C42.5496 50.249 42.5125 50.249 42.5125 50.2107C42.5125 50.249 42.5125 50.249 42.4951 50.249V50.2107C39.3091 50.1026 35.7047 48.5194 33.2826 45.8982C33.1192 45.7339 32.8647 45.424 32.9741 45.224C32.9924 45.1151 33.1192 45.0053 33.2286 44.8963C33.3563 44.7508 33.538 44.5873 33.7014 44.3498C33.8117 44.1864 33.8657 43.9855 33.9572 43.8221C34.0117 43.6578 34.0117 43.222 34.23 43.2586H36.8508C36.9781 43.4587 37.0883 43.6221 37.2339 43.7855H34.8841C34.739 43.7855 34.5756 43.8766 34.5211 43.9855C34.488 44.0405 34.4705 44.1035 34.4705 44.1677C34.4705 44.2319 34.488 44.2948 34.5211 44.3498C34.8301 44.8963 34.9931 45.0606 35.2859 45.316C37.3607 47.2269 39.9824 48.3377 42.4947 48.3556H42.5121C45.0248 48.3377 47.6465 47.2269 49.74 45.316C49.9945 45.0606 50.1775 44.8963 50.4856 44.3498C50.5189 44.2949 50.5366 44.2319 50.5366 44.1677C50.5366 44.1034 50.5189 44.0404 50.4856 43.9855C50.4142 43.8766 50.2677 43.7855 50.1043 43.7855H48.556C48.3202 43.7855 48.1559 44.04 48.1202 44.0953C48.0648 44.1864 47.446 45.0419 47.4282 45.0606C47.3737 45.0606 47.1728 44.915 47.1183 44.8597C47.5916 44.3498 47.9916 43.8221 48.3202 43.2586H50.8334ZM51.9246 34.7556C51.5067 34.8101 53.3078 35.4847 52.7988 37.7603C52.7443 37.997 52.1612 37.396 51.9067 37.2317C50.7236 36.4495 51.0879 35.649 50.9236 35.649C50.687 35.649 51.0513 37.2317 50.2682 37.2871C50.3593 36.4495 50.3593 35.5936 50.3048 34.756V29.5136C50.5414 29.7132 51.0879 30.0417 51.5603 29.4765C51.5969 29.4587 51.7978 29.7864 51.7612 30.1507C51.7246 30.5329 51.2888 31.1517 50.7959 30.8423C50.3593 30.5878 50.7959 32.2438 51.2888 32.7545C51.4513 32.9536 52.0157 33.7912 52.8345 33.3729C53.035 33.2818 53.6725 34.5194 51.9246 34.7556Z" fill="#E6E6E7"/>
<path fill-rule="evenodd" clip-rule="evenodd" d="M57.2594 29.9316C56.913 29.5677 56.5861 28.8029 55.9298 28.548C55.22 28.2756 54.5467 28.4203 54.5467 28.4203C54.6547 27.984 55.0548 27.7291 55.1655 27.3469C55.5289 25.9633 54.1824 25.9267 54.2368 25.9812C54.4002 26.2361 54.6003 27 53.5082 27.3099C52.5438 27.6019 51.7973 26.946 50.7954 26.2191C50.1775 25.7995 49.0846 26.0544 48.939 25.9812C48.7202 25.8718 48.63 25.9084 48.63 25.9084C48.8845 26.1263 48.8113 27.2559 47.9014 26.9996C47.9014 26.9996 47.8469 27.6738 48.2648 27.9104C48.7202 28.1653 49.5399 27.8742 49.7034 26.7272C49.7034 26.7272 50.0489 26.9826 50.632 27.7104C50.7231 27.8555 51.1419 28.0381 51.5598 28.4743C51.9241 28.8574 52.417 29.4213 52.3795 29.7668C52.2152 31.4782 53.3073 31.9514 53.3073 31.9514C53.4725 31.8786 53.9636 31.405 53.9636 30.6959C53.9636 30.295 53.618 30.0231 53.5082 29.8226C53.4529 29.7315 53.5252 29.3123 53.8734 29.5132C54.4369 29.8405 54.2726 30.0771 55.2557 30.2763C55.9665 30.4044 56.2388 30.0767 56.5861 29.9673C56.9674 29.8405 57.3318 30.0235 57.2594 29.9316ZM55.0012 29.9133C54.6003 29.7132 54.0189 29.0578 53.4725 29.2221C52.8894 29.4583 53.2171 30.0771 53.4725 30.3504C53.8538 30.7687 53.4529 31.5884 53.2537 31.6242C53.0894 31.6425 52.6894 31.1513 52.5991 30.7687C52.4715 30.2222 52.8528 29.7673 52.3438 29.0029C52.1071 28.5475 51.0321 27.6193 50.741 27.4193C50.4677 27.2371 49.8123 26.4183 49.6676 26.4906L49.3578 26.5272C49.3578 27.655 49.0846 27.6738 48.7202 27.7282C48.1746 27.8193 48.1746 27.2911 48.1746 27.2911C48.5559 27.2009 49.0479 26.9826 48.9203 26.2187C48.9203 26.2187 50.0132 26.1629 50.3775 26.2357C50.9963 26.4183 51.6696 27.4554 52.9081 27.5644C54.4369 27.7104 54.6922 26.6906 54.6922 26.3268C54.6922 26.3268 55.22 26.6906 54.8914 27.4005C54.7458 27.7282 53.8538 28.4747 54.4002 28.5846C54.4002 28.5846 55.1655 28.4939 55.5843 28.6573C56.4031 29.0025 56.6576 29.6579 56.6576 29.6579C56.4397 29.8405 55.7298 30.2954 55.0012 29.9133ZM39.1448 16.3325C39.3452 16.387 39.3997 16.241 39.564 16.1874C39.71 16.1329 39.764 16.2963 39.6189 16.3325C39.4738 16.3508 39.309 16.387 39.218 16.587C39.1448 16.824 39.309 16.9156 39.272 17.0781C39.272 17.1696 39.309 17.2058 39.3456 17.2241C39.4189 17.2607 39.5091 17.2058 39.564 17.1696C39.6729 17.0607 39.7823 17.1518 39.9104 16.9517C39.9828 16.8049 40.0372 16.6415 39.9104 16.4584C39.8185 16.3508 39.9104 16.2954 39.9649 16.2776C40.0377 16.2776 40.1466 16.2954 40.0921 16.4044C39.9832 16.6415 40.0921 16.8049 40.2373 16.9151C40.4016 17.0236 40.456 16.9151 40.6382 17.0053C40.6931 17.0236 40.7654 17.0602 40.8391 17.0053C40.8565 16.9687 40.8927 16.9151 40.8565 16.8598C40.802 16.6955 40.9123 16.587 40.7659 16.3508C40.6386 16.1869 40.4565 16.2052 40.3292 16.2405C40.1841 16.2405 40.1841 16.0771 40.3292 16.0771C40.4931 16.0771 40.6024 16.2048 40.7659 16.0954C40.9668 15.9682 40.9668 15.8226 41.0034 15.6409C41.0034 15.5311 41.0574 15.5311 41.0217 15.4766C41.0034 15.4038 40.9672 15.4587 40.8569 15.4038C40.6935 15.3311 40.6029 15.2583 40.4024 15.3672C40.293 15.4587 40.2381 15.5851 40.2207 15.7137C40.1479 15.8226 39.9841 15.732 40.0385 15.6222C40.1296 15.5315 40.2747 15.3311 40.2207 15.1493C40.1845 14.9672 39.9841 14.8582 39.9117 14.8029C39.7836 14.7493 39.8381 14.6582 39.7291 14.6582C39.6202 14.6944 39.7113 14.7855 39.6202 14.8582C39.5287 14.9493 39.401 15.0949 39.401 15.2761C39.401 15.4583 39.6202 15.6217 39.7113 15.6762C39.7836 15.7681 39.6742 15.8775 39.5836 15.7856C39.5104 15.7132 39.4202 15.5672 39.2733 15.5311C39.055 15.4766 39.0371 15.5851 38.8558 15.7137C38.7826 15.7686 38.7286 15.732 38.7286 15.8226C38.7286 15.895 38.7831 15.8775 38.8009 15.9682C38.8541 16.1329 38.9086 16.278 39.1448 16.3325ZM46.6625 46.334C46.6625 46.443 46.7544 46.5528 46.8821 46.5528C47.0277 46.5528 47.1187 46.443 47.1187 46.334C47.1187 46.1885 47.0277 46.0974 46.8821 46.0974C46.7544 46.0974 46.6625 46.1885 46.6625 46.334ZM38.1808 46.5341C38.325 46.5341 38.4353 46.443 38.4353 46.2966C38.4353 46.1885 38.325 46.0795 38.1808 46.0795C38.0714 46.0795 37.9616 46.1885 37.9616 46.2966C37.9616 46.443 38.0714 46.5341 38.1808 46.5341ZM34.5215 45.7152C34.5215 45.6786 34.5215 45.6786 34.4845 45.659C34.4666 45.6242 34.3577 45.5688 34.3206 45.5688H34.3032L34.3206 45.5867C34.3206 45.5867 34.3577 45.659 34.3206 45.7152C34.3032 45.7697 34.3032 45.7697 34.2666 45.8233H34.23V45.8429C34.2666 45.8429 34.2666 45.8429 34.3028 45.8233C34.3572 45.8233 34.43 45.7876 34.4845 45.7331C34.5215 45.7331 34.5215 45.7152 34.5215 45.7152ZM35.1769 46.4975C35.1399 46.4975 35.1399 46.5341 35.1399 46.5341V46.5528H35.1769C35.1769 46.5341 35.1952 46.4975 35.2314 46.4617L35.2863 46.4064C35.2493 46.4064 35.2314 46.4064 35.1952 46.3885L35.1769 46.3528L35.0314 46.243V46.2251L35.2493 45.9706H35.2863L35.4131 46.0974C35.4493 46.134 35.4863 46.1519 35.4493 46.1885V46.243H35.4131C35.4493 46.2796 35.4493 46.2796 35.4493 46.243C35.4859 46.243 35.5051 46.1885 35.5404 46.1885C35.5587 46.1519 35.5587 46.1519 35.5949 46.134C35.5587 46.134 35.5587 46.134 35.5587 46.0974C35.5404 46.0974 35.5404 46.0974 35.5046 46.0795C35.4859 46.0795 35.2859 45.8786 35.2488 45.8429C35.2068 45.7984 35.1576 45.7613 35.1033 45.7331L35.0854 45.7152V45.7331L35.1033 45.7697C35.1395 45.8233 35.1395 45.8429 35.1033 45.8786C35.0854 45.8974 35.0484 45.9331 34.9399 46.0795L34.776 46.2796C34.6849 46.3528 34.6309 46.443 34.6122 46.4617C34.576 46.4975 34.5394 46.4975 34.5215 46.4975L34.4845 46.4617H34.4666V46.4975C34.5215 46.5341 34.5756 46.5885 34.6122 46.6064C34.6309 46.6064 34.6849 46.6618 34.7394 46.7171L34.776 46.7537V46.7171C34.7394 46.6975 34.7394 46.6975 34.7215 46.6618C34.6849 46.643 34.7215 46.6064 34.7215 46.5885C34.776 46.5341 34.8305 46.4617 34.9211 46.3528L34.976 46.2966C34.976 46.2796 34.993 46.2796 34.993 46.2796C34.993 46.2966 35.1029 46.3885 35.1395 46.4064C35.1769 46.443 35.1769 46.4617 35.1769 46.4975ZM36.0136 46.4975L35.2488 46.9716C35.1944 47.0073 35.1395 47.0261 35.0854 47.0073L35.0484 46.9716H35.031L35.0484 47.0073C35.1033 47.0261 35.1765 47.0805 35.1765 47.0805C35.231 47.1171 35.2488 47.1529 35.2859 47.1716H35.3038V47.1529H35.2859C35.2488 47.1171 35.2488 47.0805 35.2859 47.0805C35.2859 47.0618 35.3038 47.0618 35.3399 47.0261L35.5046 46.9163L35.7591 47.0805V47.1171L35.6681 47.4083C35.6681 47.4083 35.6681 47.4261 35.6498 47.4083H35.6127C35.6127 47.4261 35.6498 47.4261 35.6498 47.4636C35.7225 47.5181 35.8132 47.5717 35.8494 47.5904L35.9038 47.627C35.9221 47.627 35.9038 47.5904 35.9038 47.5904L35.8677 47.5717C35.8494 47.5359 35.8132 47.5181 35.8494 47.3716C35.9038 47.1716 36.0681 46.6064 36.0681 46.5341V46.4617C36.0686 46.4617 36.0498 46.4617 36.0136 46.4975ZM35.8681 46.6975L35.7949 47.0261L35.5949 46.8984C35.5587 46.8984 35.5949 46.8618 35.5949 46.8618L35.8681 46.6975V46.6618C35.9043 46.6975 35.8681 46.6975 35.8681 46.6975ZM37.3066 47.3716C37.3066 47.335 37.3066 47.335 37.2883 47.335C37.2517 47.3163 37.2338 47.2806 37.1968 47.2618C37.1428 47.2074 37.1066 47.1716 37.0338 47.1529C36.8508 47.0261 36.7235 47.0073 36.5958 47.0261C36.4324 47.0618 36.323 47.1716 36.2864 47.2618C36.2464 47.3231 36.2192 47.392 36.2067 47.4641C36.1942 47.5363 36.1966 47.6103 36.2137 47.6815C36.2686 47.827 36.3775 47.936 36.5235 48.0449C36.5958 48.0815 36.6878 48.136 36.7418 48.136H36.7963C36.8325 48.0994 36.9061 47.9905 36.9061 47.9905V47.9547C36.9061 47.9547 36.8874 47.9547 36.8874 47.9905C36.8508 47.9905 36.8329 48.0271 36.7967 48.0271C36.724 48.0449 36.6695 48.0271 36.5414 47.9547C36.4146 47.8815 36.2869 47.627 36.4324 47.335C36.5235 47.2261 36.5959 47.1529 36.7235 47.1171C36.7963 47.1171 36.8874 47.1171 36.9776 47.1716C37.0878 47.2618 37.1611 47.335 37.1611 47.4083C37.1611 47.4261 37.1611 47.4806 37.1428 47.5181V47.5717C37.1611 47.5717 37.1611 47.5717 37.1611 47.5359C37.1968 47.5181 37.2338 47.4636 37.2517 47.4261C37.2883 47.3716 37.2883 47.3716 37.3066 47.3716ZM38.2348 47.7904C38.2165 47.7904 38.1808 47.7904 38.1255 47.7726L37.6522 47.5181C37.6156 47.4806 37.5615 47.4806 37.5428 47.4636C37.5066 47.4261 37.5066 47.4261 37.4709 47.4083V47.4261C37.4517 47.4261 37.3973 47.5359 37.3607 47.5359V47.5717H37.3973L37.4156 47.5359C37.4709 47.5181 37.5066 47.5359 37.5611 47.5717L37.725 47.6449L37.5066 48.136C37.4517 48.2458 37.3973 48.3369 37.3607 48.3548C37.3428 48.4092 37.3428 48.4092 37.3062 48.4092H37.2517C37.2517 48.3914 37.2338 48.3914 37.2338 48.4092H37.2517C37.3062 48.4459 37.3607 48.4637 37.3973 48.5003C37.4156 48.5191 37.5066 48.5548 37.5973 48.5744C37.5973 48.6093 37.6152 48.6093 37.6152 48.5744H37.5973C37.5973 48.5548 37.5611 48.5548 37.5424 48.5191C37.5062 48.5191 37.5062 48.5003 37.5424 48.4459C37.5424 48.3914 37.5973 48.3003 37.6518 48.1914L37.9071 47.7181L38.0348 47.7904C38.1255 47.8449 38.1621 47.8994 38.1621 47.936H38.1255V47.9547C38.1621 47.9905 38.1621 47.9547 38.1621 47.9547C38.1808 47.936 38.2165 47.8449 38.2348 47.827V47.7904ZM39.218 48.2458H39.272C39.272 48.2628 39.272 48.2628 39.309 48.2458H39.272C39.2328 48.2209 39.1898 48.2025 39.1448 48.1914C39.1448 48.1914 39.0537 48.136 38.9996 48.136C38.963 48.0994 38.963 48.0994 38.963 48.136C38.9883 48.1372 39.0131 48.1435 39.0358 48.1548C39.0503 48.1828 39.0565 48.2144 39.0537 48.2458C39.0358 48.3003 39.0358 48.3369 38.9452 48.5003L38.8907 48.6637C38.8358 48.7736 38.7992 48.9012 38.6907 48.9557C38.6366 48.9736 38.5451 48.9557 38.4902 48.9557C38.4719 48.9182 38.3996 48.9012 38.3817 48.828C38.3259 48.7557 38.3259 48.6637 38.3817 48.5003L38.4719 48.3369C38.5268 48.136 38.5447 48.0994 38.5813 48.0449C38.5813 48.0271 38.5996 47.9905 38.6362 48.0271H38.6902V47.9905C38.6362 47.9547 38.5447 47.9547 38.5264 47.936C38.4898 47.936 38.3991 47.8815 38.3438 47.8449H38.3255V47.8815C38.3438 47.8815 38.3813 47.8994 38.3813 47.8994C38.3956 47.9275 38.4018 47.959 38.3991 47.9905C38.3813 48.0449 38.3813 48.0815 38.2897 48.2458L38.2353 48.4459C38.1625 48.6093 38.1812 48.7182 38.217 48.8102C38.2714 48.9182 38.3813 48.9736 38.4715 49.0102C38.5264 49.0289 38.6362 49.0289 38.7447 49.0102C38.8903 48.9557 38.9447 48.8102 38.9992 48.7004L39.0532 48.5548C39.1443 48.3548 39.1443 48.3369 39.1626 48.3003C39.1626 48.2458 39.1997 48.2458 39.218 48.2458ZM40.3462 49.5388C40.3279 49.5201 40.3279 49.4835 40.3279 49.3924L40.4369 48.5744C40.4369 48.5548 40.4369 48.5191 40.4007 48.5191C40.4007 48.5191 40.3832 48.5191 40.3832 48.5548L39.8363 49.1745L39.6725 48.3548C39.6725 48.3369 39.6725 48.3369 39.6537 48.3369L39.6185 48.3548L39.2716 49.137C39.2541 49.1745 39.2175 49.2281 39.1992 49.2281H39.1443C39.1443 49.2281 39.1443 49.2656 39.1626 49.2656C39.1992 49.2656 39.2541 49.2656 39.2716 49.2834C39.3086 49.2834 39.3631 49.3192 39.4184 49.3192H39.4537C39.4537 49.3192 39.4537 49.2834 39.4184 49.2834H39.3993C39.3631 49.2656 39.3448 49.2656 39.3631 49.2281V49.1745L39.5635 48.6637H39.5818C39.5818 48.7736 39.6185 48.9736 39.6537 49.0102C39.6537 49.0289 39.7095 49.2656 39.7095 49.3192C39.7095 49.3745 39.7274 49.3924 39.7274 49.3924C39.7274 49.3924 39.7636 49.3924 39.7819 49.3379L40.2364 48.828L40.1462 49.429V49.4835H40.1279C40.1279 49.4835 40.1279 49.5201 40.1462 49.5201C40.219 49.5201 40.3833 49.5745 40.4007 49.5933C40.4369 49.5933 40.4369 49.5933 40.4552 49.5745H40.4369C40.4011 49.5745 40.3837 49.5388 40.3462 49.5388ZM41.6754 48.7557H41.4753C41.457 48.7557 41.3664 48.7182 41.3115 48.7182H41.2753V48.7557H41.3302C41.403 48.7736 41.403 48.7736 41.403 48.828C41.403 48.8638 41.403 48.9182 41.3668 49.1191L41.3306 49.3379C41.3306 49.4477 41.3119 49.5745 41.3119 49.6299C41.2757 49.6477 41.2757 49.6844 41.2579 49.6844H41.2025V49.7022C41.2579 49.7022 41.3306 49.7022 41.3668 49.7388H41.5847C41.5664 49.7388 41.5302 49.7022 41.5128 49.7022C41.4758 49.7022 41.4758 49.6844 41.4758 49.6299C41.4758 49.5745 41.4758 49.4835 41.5128 49.3745L41.5668 48.828V48.8102H41.6213C41.6392 48.8102 41.712 48.828 41.7303 48.8638C41.8222 48.9557 41.8222 49.0289 41.7852 49.0834C41.7848 49.1364 41.7636 49.1872 41.726 49.2246C41.6885 49.2621 41.6377 49.2832 41.5847 49.2834H41.5664L41.5847 49.3192H41.6209C41.7852 49.3192 41.9307 49.2111 41.9486 49.0289C41.9486 48.9557 41.9307 48.9012 41.8937 48.8638C41.8932 48.828 41.8396 48.7736 41.6754 48.7557ZM42.8036 49.6299C42.8036 49.6844 42.767 49.7022 42.75 49.7388H42.6044C42.4951 49.7388 42.4589 49.7022 42.4589 49.6299V49.3192H42.6594C42.7138 49.3192 42.7138 49.3379 42.7138 49.3745C42.7504 49.3924 42.7504 49.3924 42.7504 49.429V49.3924C42.7674 49.3924 42.7674 49.3379 42.7674 49.3192V49.2281V49.2111C42.7674 49.2111 42.7504 49.2111 42.7504 49.2281C42.7504 49.2281 42.7138 49.2281 42.6951 49.2656C42.6594 49.2656 42.4955 49.2281 42.4589 49.2281V48.9012H42.6589C42.75 48.9012 42.75 48.9182 42.75 48.9557C42.767 48.9557 42.767 48.9736 42.767 48.9736V49.0102H42.8036V48.9012V48.8102H42.767H42.1857C42.1857 48.828 42.1857 48.828 42.204 48.828H42.2401C42.2946 48.828 42.2946 48.8638 42.2946 48.9182V49.7022C42.2584 49.7388 42.2584 49.7567 42.2401 49.7567H42.1861V49.7924H42.3865C42.441 49.7924 42.5129 49.829 42.7138 49.829C42.7674 49.829 42.804 49.829 42.804 49.7924C42.804 49.7567 42.8228 49.6844 42.8228 49.6299H42.8036ZM44.0966 49.7022C44.0966 49.7022 44.0421 49.6844 43.951 49.6299C43.8573 49.5175 43.7539 49.4135 43.642 49.3192C43.7689 49.1745 43.7876 49.0834 43.7876 49.0102C43.7876 48.9012 43.7323 48.828 43.6787 48.828C43.6233 48.7736 43.5331 48.7736 43.442 48.7736C43.3867 48.7736 43.3143 48.8102 43.2599 48.8102H43.0768C43.059 48.8102 43.059 48.828 43.059 48.828H43.1143C43.1679 48.828 43.1679 48.8638 43.2045 48.9182C43.2045 48.9557 43.2045 48.9736 43.2241 49.2111V49.429C43.2599 49.5388 43.2599 49.6477 43.2599 49.7022C43.2599 49.7388 43.2599 49.7567 43.2241 49.7567C43.2045 49.7567 43.2045 49.7924 43.1679 49.7924H43.1322C43.1322 49.7924 43.1679 49.829 43.1679 49.7924H43.3322C43.3688 49.7924 43.442 49.7924 43.5331 49.7567H43.4778C43.4233 49.7388 43.4233 49.7022 43.4233 49.6844C43.3867 49.6299 43.3867 49.5388 43.3867 49.3924V49.3745H43.5331C43.5688 49.3924 43.6233 49.4835 43.6787 49.5388C43.7689 49.6477 43.8242 49.7022 43.8787 49.7022C43.8965 49.7388 43.951 49.7388 44.0064 49.7388H44.151V49.7022H44.0966ZM43.5876 49.2834C43.5688 49.2834 43.5331 49.3192 43.4778 49.3192H43.3867C43.3867 49.2834 43.3688 49.2834 43.3688 49.2834L43.3322 48.9012C43.3322 48.8638 43.3322 48.8638 43.3688 48.8638C43.3688 48.8638 43.3867 48.8638 43.4233 48.828C43.5135 48.828 43.6233 48.9012 43.642 49.0647C43.642 49.1745 43.6233 49.2281 43.5876 49.2834ZM44.4055 49.0289H44.2421C44.2064 49.0289 44.2064 49.0289 44.2064 49.0647H44.2421C44.2421 49.0647 44.2975 49.0834 44.2975 49.1745V49.3192C44.3153 49.3192 44.3153 49.3192 44.3153 49.2834C44.3877 49.2281 44.4421 49.1745 44.4618 49.0834V49.0289H44.4055ZM45.536 49.2111V49.2834C45.4994 49.3379 45.4449 49.3379 45.3887 49.3745C45.2806 49.3924 45.2619 49.3924 45.2261 49.3745C45.1904 49.3745 45.1716 49.2834 45.1163 49.1191L45.0627 48.9012C45.0065 48.7004 45.0065 48.6637 45.0065 48.6093C45.0065 48.5744 45.0065 48.5548 45.0252 48.5191H45.0806V48.5003H45.0627C45.0065 48.5003 44.9154 48.5191 44.8797 48.5548C44.8618 48.5548 44.7707 48.5744 44.7163 48.5744C44.6975 48.5744 44.6975 48.6093 44.6975 48.6093H44.752C44.8065 48.6093 44.8252 48.6093 44.8252 48.6637C44.8252 48.7004 44.8618 48.7557 44.9154 48.9182L44.9707 49.137C45.0065 49.2834 45.0252 49.3745 45.0252 49.429C45.0252 49.4477 45.0252 49.5201 45.0065 49.5201C45.0065 49.5201 44.9707 49.5201 44.9707 49.5388C45.0252 49.5388 45.1163 49.5201 45.1342 49.5201C45.2261 49.4835 45.3351 49.4477 45.4994 49.429C45.5726 49.3924 45.5904 49.3924 45.5904 49.3745C45.5904 49.3192 45.5726 49.2281 45.5726 49.2111C45.5726 49.2111 45.5726 49.1745 45.536 49.2111ZM46.1535 49.1745C46.0999 49.1745 46.0999 49.137 46.0624 49.1191C46.0445 49.0647 46.0079 48.9736 45.9909 48.8638L45.899 48.6459C45.8445 48.4459 45.8079 48.4092 45.8079 48.3914C45.79 48.3369 45.79 48.3003 45.8445 48.2628H45.8811V48.2458H45.8445C45.8079 48.2628 45.7355 48.3003 45.6981 48.3003C45.6802 48.3369 45.59 48.3369 45.5355 48.3548C45.4989 48.3548 45.4989 48.3548 45.4989 48.3914H45.59C45.6257 48.3548 45.6257 48.3914 45.6436 48.4092C45.6802 48.4637 45.6802 48.5003 45.7355 48.7004L45.8079 48.9182C45.8811 49.0289 45.899 49.1191 45.899 49.1745V49.2656C45.8811 49.2656 45.8811 49.2656 45.8445 49.2834C45.8445 49.3192 45.8445 49.3192 45.8811 49.2834C45.899 49.2834 45.9909 49.2656 46.0079 49.2281C46.0445 49.2281 46.1356 49.2111 46.2079 49.1745C46.2454 49.1745 46.2454 49.1745 46.2454 49.137H46.2079C46.1901 49.1745 46.1535 49.1745 46.1535 49.1745ZM46.9732 48.828C46.9366 48.828 46.9187 48.828 46.8821 48.8102C46.8501 48.7116 46.8138 48.6144 46.7732 48.5191L46.5731 48.0449L46.7187 47.9905C46.8276 47.936 46.8821 47.9547 46.8821 47.9905L46.9187 48.0271C46.9366 48.0271 46.9366 48.0271 46.9187 47.9905C46.9187 47.9547 46.8821 47.8815 46.8642 47.8449V47.827C46.8276 47.827 46.8089 47.8449 46.7544 47.8994L46.2624 48.0994C46.2079 48.0994 46.1901 48.136 46.1356 48.136C46.0999 48.1548 46.0999 48.1548 46.0624 48.1548V48.1914C46.0624 48.1914 46.0999 48.3003 46.0999 48.3369L46.1356 48.3548V48.3369V48.2628C46.1535 48.2458 46.1535 48.2084 46.2454 48.1914L46.4088 48.0994L46.6276 48.6093C46.6812 48.7182 46.7187 48.8102 46.7544 48.8638C46.7544 48.9012 46.7544 48.9182 46.7187 48.9557C46.7187 48.9557 46.6812 48.9557 46.6812 48.9736H46.6625C46.6625 49.0102 46.6812 49.0102 46.6812 48.9736C46.7544 48.9736 46.8276 48.9182 46.8642 48.9182C46.8821 48.9012 46.9732 48.8638 47.0643 48.828V48.8102H47.0277C47.0277 48.828 46.9919 48.828 46.9732 48.828ZM47.9384 48.3548C47.8652 48.3914 47.8652 48.3548 47.8474 48.3369C47.8108 48.2628 47.7563 48.1914 47.7018 48.0815L47.4464 47.5904L47.592 47.5359C47.7018 47.4806 47.7563 47.4806 47.7563 47.5181L47.792 47.5359C47.792 47.5717 47.792 47.5717 47.8108 47.5359C47.792 47.5181 47.7563 47.4261 47.7375 47.4083C47.7375 47.3716 47.7375 47.3716 47.7018 47.3716C47.7018 47.3716 47.6831 47.4083 47.6277 47.4636L47.1375 47.6815C47.1187 47.7181 47.0643 47.736 47.0277 47.736C46.9919 47.7726 46.9732 47.7726 46.9732 47.7726V47.7904C46.9732 47.7904 46.9919 47.8994 47.0277 47.936H47.0643C47.0277 47.8994 47.0277 47.8994 47.0643 47.8815C47.0643 47.8449 47.0821 47.827 47.1375 47.7904L47.3196 47.6815L47.5554 48.1548C47.6277 48.2628 47.6831 48.3548 47.6831 48.4092C47.7018 48.4459 47.7018 48.4637 47.6831 48.5003L47.6465 48.5191C47.6465 48.5548 47.6465 48.5548 47.6831 48.5191C47.7018 48.5191 47.792 48.4637 47.8108 48.4637C47.8474 48.4459 47.9384 48.4092 47.992 48.3548C48.0108 48.3548 48.0108 48.3548 48.0108 48.3369H47.992C47.9563 48.3548 47.9384 48.3548 47.9384 48.3548ZM48.8296 47.627V47.6449C48.8385 47.653 48.8455 47.6629 48.8503 47.6739C48.8552 47.6849 48.8576 47.6967 48.8576 47.7087C48.8576 47.7207 48.8552 47.7326 48.8503 47.7436C48.8455 47.7546 48.8385 47.7644 48.8296 47.7726C48.8296 47.7904 48.7743 47.827 48.7394 47.827C48.6305 47.8994 48.6117 47.8994 48.5564 47.827C48.5198 47.7904 48.4653 47.6815 48.4296 47.6449L48.3742 47.5717V47.5359C48.4117 47.5359 48.5198 47.4636 48.5564 47.4636C48.6117 47.4261 48.6117 47.4261 48.6305 47.4636L48.6662 47.4806C48.6662 47.5181 48.6849 47.5181 48.6849 47.5181V47.4806C48.6849 47.4636 48.6662 47.4261 48.6305 47.4083C48.6117 47.335 48.6117 47.3163 48.6117 47.3163C48.6117 47.3163 48.576 47.2806 48.576 47.3163V47.335C48.576 47.335 48.5564 47.3716 48.5198 47.3716C48.5198 47.4083 48.3742 47.4806 48.3564 47.4806L48.1563 47.2074C48.1751 47.1716 48.301 47.0805 48.3206 47.0805C48.3742 47.0618 48.4117 47.0618 48.4296 47.0805L48.4653 47.1171V47.1529L48.4832 47.1171C48.4653 47.0805 48.4296 47.0618 48.4296 47.0261C48.4117 46.9716 48.4117 46.9716 48.4117 46.9529H48.3742V46.9716C48.3742 46.9716 48.3564 46.9716 48.3206 47.0073C48.3206 47.0261 48.101 47.1529 48.0465 47.1716C48.0108 47.2074 47.9563 47.2261 47.9018 47.2806C47.8652 47.2806 47.8652 47.2806 47.8652 47.3163H47.9018C47.9018 47.2806 47.9384 47.2806 47.9384 47.2806C47.992 47.2618 48.0108 47.2806 48.0465 47.3163C48.0465 47.335 48.0653 47.3716 48.1751 47.5359L48.301 47.736C48.3742 47.8449 48.4296 47.936 48.4296 47.9905C48.4653 48.0271 48.4653 48.0449 48.4653 48.0815C48.4296 48.0815 48.4296 48.0815 48.4117 48.0994C48.4117 48.136 48.4117 48.136 48.4296 48.0994C48.4832 48.0815 48.5564 48.0449 48.576 48.0271C48.6305 47.9905 48.7207 47.936 48.885 47.827C48.9207 47.7904 48.9394 47.7904 48.9207 47.7726C48.914 47.7206 48.8957 47.6709 48.8671 47.627H48.8296ZM50.7235 46.3885C50.6869 46.4064 50.6682 46.4064 50.5235 46.3528C50.3592 46.2796 49.8502 45.9876 49.7591 45.9706C49.7404 45.9331 49.7404 45.9331 49.7038 45.9331V45.9876L49.9949 46.8439C50.0136 46.9163 50.0494 46.9716 49.9949 47.0073V47.0261C49.9592 47.0261 49.9038 47.0618 49.8127 47.0261C49.7038 47.0073 49.5582 46.9716 49.3582 46.9163C49.4306 46.7537 49.394 46.6618 49.3395 46.5885C49.2841 46.4975 49.1948 46.4975 49.1761 46.4975C49.0885 46.4968 49.004 46.5294 48.9394 46.5885C48.885 46.6064 48.8296 46.6618 48.7743 46.6975C48.7743 46.7171 48.6849 46.7537 48.6305 46.8073C48.6305 46.8073 48.6117 46.8073 48.6117 46.8439H48.6305C48.6662 46.8073 48.6849 46.8073 48.6849 46.8073C48.7207 46.7707 48.7394 46.7707 48.7743 46.8439C48.8118 46.8618 48.8296 46.8984 48.9394 47.0618L49.085 47.2261C49.1395 47.335 49.2314 47.4261 49.2484 47.4636C49.2484 47.5181 49.2841 47.5359 49.2484 47.5359C49.2484 47.5717 49.2314 47.5717 49.2314 47.5717L49.1948 47.5904H49.2314C49.2841 47.5717 49.3395 47.5181 49.3582 47.5181C49.3582 47.4806 49.4493 47.4261 49.5038 47.4083L49.5404 47.3716C49.5404 47.335 49.5404 47.335 49.5038 47.3716C49.5038 47.3716 49.4859 47.4083 49.4493 47.4083C49.4306 47.4261 49.394 47.4083 49.3582 47.3716C49.3235 47.2859 49.2672 47.2105 49.1948 47.1529V47.1171L49.2841 47.0618L49.3029 47.0261C49.3395 47.0618 49.4493 47.0805 49.5404 47.1171C49.6493 47.1529 49.7404 47.1716 49.7949 47.1716C49.8127 47.1529 49.8502 47.1529 49.9217 47.0805L50.0136 47.0261V47.0073C50.0681 46.9716 50.1047 46.9529 50.1047 46.9529C50.1235 46.9163 50.1779 46.8984 50.2137 46.8618V46.8439H50.1779V46.8618C50.1592 46.8984 50.1235 46.8618 50.1047 46.8618C50.1047 46.8439 50.1047 46.8073 50.0681 46.7707L50.0136 46.5885L50.2315 46.3885L50.5235 46.5341V46.5885L50.5414 46.5528C50.6325 46.4975 50.7235 46.443 50.7414 46.4064C50.778 46.3885 50.778 46.3528 50.778 46.3528C50.7414 46.3885 50.7414 46.3885 50.7235 46.3885ZM49.3029 46.9163C49.3029 46.9529 49.2841 46.9716 49.2484 47.0073C49.2314 47.0261 49.1761 47.0261 49.1395 47.0618V47.0261L48.885 46.7171V46.6975C48.9207 46.6975 48.9207 46.6618 48.9394 46.643C48.9939 46.6064 49.1395 46.5885 49.2484 46.7171C49.284 46.7774 49.3028 46.8462 49.3029 46.9163ZM49.9949 46.4975L49.8681 46.1885C49.8502 46.1885 49.8502 46.1519 49.8681 46.1519L50.1779 46.3528L49.9949 46.4975ZM50.378 45.6786C50.4682 45.7697 50.5414 45.7876 50.7414 45.7876L50.8334 45.7697C50.9789 45.7697 51.0325 45.7876 51.0512 45.8429C51.1057 45.8786 51.1057 45.9876 51.0325 46.0795C50.9789 46.134 50.887 46.1519 50.7959 46.0974C50.778 46.0974 50.778 46.0795 50.7414 46.0421H50.7235C50.7235 46.0421 50.7235 46.0795 50.7414 46.0974C50.7414 46.0974 50.7959 46.1519 50.8512 46.2251C50.887 46.243 50.887 46.243 50.9236 46.243C50.9789 46.2251 50.9968 46.1885 51.0512 46.134C51.1057 46.0795 51.1789 46.0251 51.1789 45.9331C51.1968 45.8233 51.1789 45.7331 51.1057 45.6786C51.0325 45.5867 50.9236 45.5688 50.7235 45.5867H50.6869C50.5414 45.6242 50.486 45.5867 50.4324 45.5688C50.378 45.5143 50.4146 45.4233 50.4682 45.3509C50.5235 45.2786 50.578 45.2786 50.6137 45.3152C50.6682 45.3152 50.6869 45.3509 50.6869 45.3509C50.7235 45.3509 50.7235 45.3688 50.7235 45.3509V45.3152L50.6137 45.2045H50.578C50.5414 45.2045 50.486 45.2232 50.4324 45.3152C50.3047 45.4233 50.3047 45.5867 50.378 45.6786ZM51.1968 45.2232C51.2513 45.2598 51.2513 45.2786 51.2887 45.3152L51.3066 45.3509V45.3152V45.0598L51.2887 45.0411H51.2513L51.2334 45.0598C51.1968 45.0964 51.0879 45.1688 51.0879 45.1688C51.0512 45.1688 51.0512 45.2045 51.0879 45.2045C51.1057 45.1688 51.1789 45.1688 51.1968 45.2232Z" fill="#E6E6E7"/>
<path fill-rule="evenodd" clip-rule="evenodd" d="M76.767 42.248H42.3867V76.9151H76.767V42.248Z" fill="#CC2131"/>
<path fill-rule="evenodd" clip-rule="evenodd" d="M49.8768 55.3351C49.6607 55.3351 49.5025 55.3555 49.2855 55.2575V54.9799C49.482 55.1381 49.6607 55.1577 49.9169 55.1577C50.3322 55.1773 50.5893 54.9799 50.5893 54.6435C50.5893 54.406 50.4115 54.2691 50.1936 54.1497L49.6999 53.8525C49.4428 53.7148 49.2855 53.5366 49.2855 53.2415C49.2641 52.8262 49.6803 52.5691 50.1339 52.5879C50.351 52.5879 50.4904 52.5879 50.6874 52.6681V52.9457C50.5301 52.7866 50.3714 52.7661 50.174 52.7474C49.8768 52.7474 49.5622 52.9456 49.5818 53.2224C49.6005 53.418 49.7204 53.5187 49.8986 53.6163L50.3122 53.8734C50.6477 54.0512 50.9044 54.1502 50.9249 54.6038C50.9445 55.1969 50.3714 55.3551 49.8768 55.3351ZM54.4417 52.7474C54.4221 52.7866 54.422 52.8071 54.4016 52.8463L53.513 55.3351L52.8014 53.459L52.1102 55.3555L51.1611 52.8071C51.1432 52.7661 51.1432 52.7474 51.1022 52.7073C51.0826 52.6681 51.063 52.6484 51.0033 52.628H51.4979C51.4783 52.6484 51.4783 52.6681 51.4783 52.7073C51.4578 52.7269 51.4578 52.7474 51.4783 52.7866L52.1294 54.6439L52.6828 53.1435L52.5652 52.8075C52.5438 52.7665 52.5046 52.7478 52.485 52.7077C52.4693 52.6724 52.441 52.6441 52.4057 52.6284H52.9003C52.8807 52.6489 52.8807 52.6685 52.8602 52.6872C52.8602 52.7478 52.8602 52.7665 52.8807 52.8267L53.5317 54.6439L54.1445 52.8463C54.1632 52.7866 54.1845 52.7661 54.1845 52.7077C54.1845 52.6685 54.1632 52.6489 54.1445 52.6088H54.5393C54.5014 52.6681 54.4809 52.6868 54.4417 52.7474ZM55.2901 52.7269C55.2509 52.8071 55.2509 52.8459 55.2509 52.8842V54.8409C55.2509 54.9795 55.2509 55.098 55.2714 55.1965C55.2714 55.2357 55.2901 55.2571 55.3106 55.2954H54.8953C54.9158 55.2571 54.9354 55.2357 54.9354 55.1965C54.9755 55.1573 54.9755 55.118 54.9755 55.0588V52.8842C54.9755 52.8262 54.955 52.8066 54.9354 52.7474C54.9315 52.7051 54.9178 52.6644 54.8953 52.6284H55.3311C55.3106 52.6681 55.2901 52.6868 55.2901 52.7269ZM58.294 52.7269V55.3943L56.1212 52.984V54.9799C56.1212 55.0592 56.1212 55.0592 56.1408 55.1773C56.1604 55.2174 56.1604 55.2575 56.18 55.2954H55.8445C55.8641 55.2571 55.8837 55.2357 55.8837 55.1965C55.9042 55.1376 55.9042 55.118 55.9042 55.0588V52.8262C55.9042 52.7657 55.9042 52.7469 55.8837 52.7073C55.868 52.6722 55.8401 52.644 55.8052 52.628H56.2009L58.0778 54.7624V53.0629C58.0778 52.9243 58.0778 52.8459 58.0565 52.7269C58.036 52.6868 58.036 52.6484 58.0181 52.6088H58.3323C58.3145 52.6681 58.3145 52.6868 58.294 52.7269ZM59.4798 55.2958H58.7681C58.7928 55.2737 58.8131 55.2471 58.8278 55.2174C58.8278 55.1773 58.8474 55.1381 58.8474 55.0788V52.8846C58.8474 52.8267 58.8278 52.7866 58.8073 52.7273C58.7922 52.6919 58.7724 52.6586 58.7485 52.6284H59.5586C59.9142 52.6284 60.1705 52.9051 60.1901 53.2607C60.2106 53.5187 60.092 53.6564 59.9142 53.7545L59.7953 53.8338L59.9142 53.8739C60.2106 53.9728 60.3679 54.1898 60.3679 54.5258C60.3683 55.0004 60.0319 55.2958 59.4798 55.2958ZM59.3808 52.8071H59.1237V53.7545H59.3612C59.756 53.7545 59.933 53.5579 59.9147 53.2607C59.9147 52.984 59.7164 52.8071 59.3808 52.8071ZM59.3808 53.9323C59.281 53.9323 59.2226 53.9323 59.1433 53.9519V55.0984C59.2423 55.1385 59.3007 55.1385 59.4004 55.1385C59.756 55.1189 60.0925 54.9206 60.0925 54.5258C60.072 54.0717 59.736 53.9519 59.3808 53.9323ZM62.9368 52.7474V54.4273C62.9368 54.9603 62.4823 55.3346 61.9293 55.3346C61.3371 55.3551 60.8629 54.9603 60.8629 54.4273V52.8842V52.7661C60.8629 52.7073 60.8425 52.6681 60.8229 52.6284H61.1981C61.1793 52.6685 61.1793 52.6872 61.1588 52.7273V54.3868C61.1588 54.803 61.5349 55.1189 61.9293 55.0984C62.3446 55.0984 62.6418 54.7825 62.6418 54.4064V52.8659C62.6418 52.8267 62.6418 52.7866 62.6205 52.7478C62.6205 52.6872 62.6017 52.6685 62.5812 52.6288H62.9564C62.9564 52.6681 62.9368 52.6868 62.9368 52.7474ZM64.9515 55.2958L63.8851 53.9127C63.845 53.8734 63.845 53.8333 63.8067 53.8137C63.8067 53.795 63.787 53.795 63.7657 53.795V55.1577C63.787 55.2174 63.8067 55.2361 63.8067 55.2954H63.411C63.4511 55.2571 63.4511 55.217 63.4707 55.1773V52.984C63.4707 52.8842 63.4707 52.8267 63.4511 52.7269C63.4471 52.6849 63.4334 52.6445 63.411 52.6088H64.2006C64.5562 52.6088 64.8722 52.8463 64.8722 53.242C64.8534 53.5967 64.5366 53.9323 64.1418 53.8734C64.1614 53.8734 64.1614 53.893 64.2006 53.9127C64.2603 53.9928 64.2995 54.0316 64.3793 54.1101L65.0116 54.9202C65.09 55.0383 65.1689 55.1185 65.2474 55.1969C65.2875 55.2361 65.3275 55.2575 65.3859 55.2958H64.9515ZM64.0442 52.7866C63.9444 52.7866 63.8664 52.7866 63.7657 52.8267V53.7545H64.0041C64.3793 53.7349 64.5963 53.5374 64.5767 53.242C64.5566 53.0241 64.4773 52.7866 64.0442 52.7866ZM68.0743 52.7269C68.0547 52.7866 68.0547 52.8267 68.0547 52.8842V55.3943L65.9006 52.984V54.9799C65.9006 55.0592 65.9006 55.0592 65.9202 55.1773C65.9202 55.2174 65.9398 55.2575 65.9398 55.2954H65.6038C65.6243 55.2571 65.6439 55.2357 65.6635 55.1965V52.8262C65.6635 52.7657 65.6635 52.7469 65.6439 52.7073C65.6279 52.6721 65.5998 52.644 65.5646 52.628H65.9594L67.8372 54.7624V53.0629C67.8372 52.9243 67.8372 52.8459 67.8185 52.7269C67.8185 52.6868 67.7971 52.6484 67.7971 52.6088H68.0935C68.0743 52.6681 68.0743 52.6868 68.0743 52.7269ZM70.1085 55.2958H68.5672C68.5876 55.2575 68.6073 55.2361 68.6073 55.1969C68.6277 55.1381 68.6277 55.1185 68.6277 55.0592V52.8071C68.6277 52.7661 68.6073 52.7474 68.6073 52.7073C68.5876 52.6681 68.5672 52.6484 68.5476 52.628H69.9111V52.8842C69.8805 52.8606 69.847 52.8411 69.8113 52.8262C69.7525 52.8066 69.7124 52.8262 69.6549 52.8262H68.9228V53.6952H69.9111V53.9514C69.8523 53.9318 69.8327 53.9122 69.7725 53.9122C69.7128 53.8926 69.6932 53.8926 69.6549 53.8926H68.9228V55.098H69.7926C69.9107 55.098 69.9695 55.0784 70.0889 55.0588C70.1273 55.0383 70.1682 55.0187 70.207 54.9999L70.1085 55.2958ZM48.5577 57.422V59.102C48.5577 59.6349 48.1228 60.0093 47.5702 60.0093C46.9771 60.0298 46.4834 59.6349 46.4834 59.102V57.5589C46.4834 57.5009 46.503 57.4813 46.4834 57.4412C46.4834 57.3815 46.4834 57.3423 46.4629 57.3026H46.8194C46.7997 57.3427 46.7997 57.3614 46.7997 57.4015C46.7793 57.4612 46.7793 57.4817 46.7793 57.5401V59.061C46.7793 59.4772 47.1545 59.7931 47.5698 59.7726C47.9655 59.7726 48.2609 59.4576 48.2609 59.0806V57.5401V57.422C48.2413 57.3615 48.2413 57.3427 48.2217 57.3031H48.5969C48.5773 57.3427 48.5773 57.3615 48.5577 57.422ZM51.5019 57.4015V60.069L49.329 57.6587V59.6545C49.329 59.7339 49.329 59.7339 49.3487 59.852C49.3691 59.892 49.3691 59.9321 49.3887 59.9701H49.0519C49.0715 59.9317 49.0928 59.9112 49.0928 59.8711C49.1125 59.8123 49.1125 59.7927 49.1125 59.7334V57.5009C49.1125 57.4412 49.0928 57.4216 49.0715 57.3819C49.0572 57.352 49.0372 57.325 49.0127 57.3026H49.4084L51.2657 59.4371V57.7375C51.2657 57.599 51.2853 57.5205 51.2657 57.4015C51.2461 57.3614 51.2461 57.3231 51.2256 57.2834H51.5424C51.5215 57.3427 51.5019 57.3614 51.5019 57.4015ZM52.4109 57.4015C52.3904 57.4817 52.3904 57.5205 52.3904 57.5589V59.5155C52.3904 59.6541 52.3904 59.7726 52.4109 59.8711C52.4109 59.9112 52.4305 59.9317 52.451 59.9701H52.0357C52.0544 59.9317 52.0749 59.9112 52.0749 59.8711C52.0954 59.8319 52.0954 59.7927 52.0954 59.7334V57.5589C52.0954 57.5009 52.0954 57.4813 52.0749 57.422C52.0749 57.3819 52.0544 57.3427 52.0161 57.3031H52.4697C52.451 57.3427 52.4305 57.3614 52.4109 57.4015ZM55.4331 57.422C55.3938 57.4612 55.3938 57.5013 55.3742 57.5401L54.1885 60.0298L52.9434 57.4608C52.9247 57.4412 52.9247 57.4011 52.9042 57.3815C52.8641 57.3423 52.8445 57.3227 52.8053 57.2826H53.2402C53.2206 57.3227 53.2206 57.3423 53.2206 57.361C53.2206 57.3815 53.2402 57.4011 53.2402 57.4216L54.2081 59.4576L55.1171 57.5205C55.1171 57.4608 55.1572 57.4412 55.1572 57.3819C55.1572 57.3614 55.1572 57.3231 55.1367 57.3026H55.5119C55.4789 57.3375 55.4522 57.3779 55.4331 57.422ZM57.4682 59.9701H55.9072C55.9473 59.9317 55.9473 59.9112 55.9669 59.8711V57.4813C55.9669 57.4412 55.9669 57.4216 55.9473 57.3815C55.9268 57.3423 55.9268 57.3227 55.8876 57.3022H57.2708V57.5584C57.2316 57.5397 57.2119 57.5201 57.1527 57.5005C57.0921 57.4809 57.0538 57.5005 56.9936 57.5005H56.2641V58.3694H57.2712V58.6257C57.2124 58.6061 57.1714 58.5873 57.113 58.5873C57.0729 58.5668 57.0337 58.5668 56.994 58.5668H56.2833V59.7722H57.1335C57.2525 59.7722 57.33 59.7526 57.4307 59.733C57.4887 59.7125 57.5083 59.6938 57.5484 59.6742L57.4682 59.9701ZM59.4641 59.9701L58.396 58.5877C58.3576 58.5477 58.3576 58.5076 58.3175 58.488C58.2979 58.4692 58.2979 58.4692 58.2774 58.4692V59.8319C58.2979 59.8916 58.2979 59.9112 58.3175 59.9696H57.9227C57.9446 59.9338 57.9581 59.8934 57.9619 59.8515C57.9815 59.7927 57.9815 59.6746 57.9815 59.5739V57.6582C57.9815 57.5584 57.9815 57.5009 57.9619 57.4011L57.9031 57.283H58.7123C59.0688 57.283 59.3839 57.5205 59.3643 57.9171C59.3643 58.2709 59.0483 58.6065 58.6535 58.5477C58.6731 58.5477 58.6731 58.5673 58.6936 58.5877C58.772 58.6671 58.8113 58.7058 58.891 58.7852L59.5225 59.5953C59.6018 59.7129 59.6815 59.7927 59.7591 59.8711C59.7992 59.9112 59.8393 59.9317 59.8977 59.9701H59.4641ZM58.5555 57.4608C58.4565 57.4608 58.3777 57.4608 58.2779 57.5009V58.4287H58.5162C58.871 58.4091 59.1076 58.2117 59.088 57.9171C59.0693 57.6983 58.9904 57.4608 58.5555 57.4608ZM60.5701 60.0093C60.3335 60.0093 60.1753 60.0298 59.9583 59.9317V59.6541C60.1557 59.8123 60.3335 59.8319 60.5906 59.8319C61.0246 59.8515 61.2809 59.6541 61.2809 59.3177C61.2809 59.0802 61.0834 58.9433 60.8664 58.8239L60.3727 58.5267C60.1164 58.389 59.9583 58.2108 59.9583 57.9166C59.9583 57.5005 60.3727 57.2434 60.8263 57.2621C61.0246 57.2621 61.1632 57.2621 61.361 57.3423V57.6199C61.2029 57.4608 61.0656 57.4412 60.8477 57.4216C60.5505 57.4216 60.235 57.6199 60.2537 57.8966C60.2751 58.0923 60.4128 58.1929 60.5705 58.2905L61.0054 58.5477C61.3214 58.7255 61.5977 58.8244 61.6173 59.2789C61.6373 59.8716 61.0447 60.0298 60.5701 60.0093ZM62.4278 57.4015C62.3886 57.4817 62.3886 57.5205 62.3886 57.5589V59.5155C62.3886 59.6541 62.3886 59.7726 62.4065 59.8711C62.4065 59.9112 62.4278 59.9317 62.4671 59.9701H62.0321C62.0518 59.9317 62.0722 59.9112 62.0722 59.8711C62.1106 59.8319 62.1106 59.7927 62.1106 59.7334V57.5589C62.1106 57.5009 62.0918 57.4813 62.0722 57.422C62.0722 57.3819 62.0518 57.3427 62.0321 57.3031H62.4671C62.4475 57.3427 62.4278 57.3614 62.4278 57.4015ZM64.7584 57.5205C64.6996 57.5009 64.6595 57.4813 64.6002 57.4813H64.008V59.7334C64.008 59.7931 64.008 59.7726 64.0285 59.8711C64.0285 59.9112 64.0481 59.9317 64.0677 59.9701H63.6533C63.672 59.9317 63.672 59.9112 63.672 59.8916C63.6934 59.8319 63.6934 59.7927 63.6934 59.7334V57.5009H63.0201C62.9809 57.5009 62.9612 57.5009 62.922 57.5205C62.896 57.5197 62.8702 57.5246 62.8463 57.5347C62.8224 57.5449 62.8009 57.5601 62.7834 57.5793L62.8431 57.3026H64.839L64.8783 57.5589C64.8382 57.5401 64.7985 57.5205 64.7584 57.5205ZM67.1286 57.3819C67.0894 57.4416 67.0689 57.4612 67.0502 57.5009L66.2993 58.6261V59.8127C66.2993 59.8323 66.319 59.852 66.319 59.8921C66.319 59.9321 66.3386 59.9518 66.3386 59.9705H65.983C66.004 59.949 66.018 59.9217 66.0231 59.8921V58.6261L65.2918 57.4813C65.2731 57.4412 65.2526 57.4216 65.233 57.3815C65.1929 57.3423 65.1741 57.3227 65.1528 57.3022H65.5681C65.5681 57.3227 65.5681 57.361 65.5877 57.3815C65.6073 57.4412 65.6073 57.4608 65.6474 57.5005L66.2009 58.4086L66.8127 57.4408C66.8338 57.4187 66.8478 57.3907 66.8528 57.3606V57.2821H67.2075C67.1687 57.3231 67.1491 57.3427 67.1286 57.3819ZM69.7547 59.9692C69.3946 59.9597 69.0526 59.8099 68.8016 59.5515C68.5507 59.2932 68.4107 58.947 68.4116 58.5869C68.4116 57.8343 69.043 57.2028 69.8144 57.2224C70.5848 57.2625 71.1379 57.8548 71.1379 58.5869C71.157 59.3966 70.5051 59.9879 69.7547 59.9692ZM69.7939 57.4399C69.142 57.4399 68.7275 57.9737 68.7275 58.5873C68.7079 59.1795 69.142 59.7312 69.7547 59.7526C70.387 59.7526 70.8611 59.1987 70.8611 58.5873C70.8398 57.9733 70.4262 57.4595 69.7939 57.4399ZM72.7973 58.5668C72.7171 58.5464 72.6993 58.5668 72.6391 58.5668H71.9079V59.5338C71.9079 59.6724 71.9275 59.7312 71.9275 59.8903C71.9471 59.9287 71.9471 59.9287 71.9667 59.9696H71.5719C71.5924 59.9287 71.612 59.9099 71.612 59.8707C71.6307 59.811 71.612 59.7718 71.612 59.7134V57.4809C71.612 57.4399 71.612 57.4015 71.5924 57.3619C71.5872 57.3321 71.5732 57.3044 71.5523 57.2826H72.9159V57.5593C72.8758 57.5201 72.8562 57.4996 72.7978 57.4996C72.7577 57.4809 72.6997 57.4809 72.6396 57.4809H71.9083V58.3694H72.9159V58.5873C72.8562 58.5668 72.8374 58.5668 72.7973 58.5668ZM49.1111 62.0936C49.0523 62.0749 49.0114 62.0749 48.9538 62.0749H48.3607V64.3074C48.3607 64.3662 48.3607 64.3662 48.3803 64.4647C48.3803 64.504 48.4 64.5236 48.4196 64.5637H48.0051C48.0247 64.5236 48.0247 64.504 48.0452 64.4647V62.0936H47.2748C47.2151 62.1141 47.175 62.1329 47.1362 62.1533L47.1959 61.8775H49.2105L49.2301 62.1329C49.1892 62.1141 49.1508 62.1141 49.1111 62.0936ZM51.2243 64.5637H49.6829C49.7034 64.5236 49.7239 64.504 49.7239 64.4647C49.7426 64.4059 49.7426 64.3658 49.7426 64.3261V62.0749C49.7426 62.0339 49.7239 61.9956 49.7239 61.9559C49.7034 61.9363 49.6829 61.9167 49.6642 61.8775H51.0269V62.1533C51.0176 62.1351 51.0035 62.1198 50.986 62.1093C50.9685 62.0987 50.9484 62.0933 50.9279 62.0936C50.8682 62.0749 50.829 62.0749 50.7697 62.0749H50.0394V62.9635H51.0269V63.2206C50.968 63.1813 50.9475 63.1813 50.8891 63.1609H50.0398V64.3466H50.9096C51.0273 64.3466 51.0866 64.3466 51.2051 64.3074C51.2452 64.3074 51.2844 64.2869 51.3241 64.2477L51.2243 64.5637ZM53.6355 64.5044C53.3988 64.6042 53.2398 64.6042 52.9827 64.6042C52.0932 64.6434 51.4413 64.0316 51.4413 63.2406C51.4413 62.4296 52.0932 61.837 52.963 61.837C53.2005 61.8574 53.3579 61.8574 53.5945 61.9559V62.213C53.3775 62.0941 53.2193 62.0548 52.963 62.0548C52.2318 62.0344 51.7381 62.5682 51.7381 63.2406C51.7184 63.9318 52.271 64.4068 52.9822 64.3863C53.2189 64.3863 53.5161 64.3471 53.7727 64.1479L53.6355 64.5044ZM55.8479 64.544C55.888 64.5039 55.888 64.4843 55.9068 64.4451V63.14H54.4639V64.2268C54.4639 64.3257 54.4443 64.3458 54.4639 64.4643C54.4852 64.5035 54.5048 64.5231 54.5245 64.5632H54.1092C54.1296 64.5231 54.1492 64.5035 54.1492 64.4839C54.1706 64.4242 54.1706 64.4055 54.1706 64.3462V62.1324C54.1706 62.0745 54.1706 62.0335 54.1492 61.9956C54.1492 61.9359 54.1296 61.9163 54.0895 61.8775H54.5245C54.4852 61.9167 54.4852 61.9363 54.4639 61.9755C54.4443 62.0548 54.4443 62.1141 54.4443 62.1943V62.9434H55.9063V62.1538C55.9063 62.0941 55.9063 62.0548 55.8876 62.0161C55.8883 61.9901 55.8833 61.9644 55.873 61.9406C55.8627 61.9168 55.8473 61.8956 55.8279 61.8784H56.2432C56.2227 61.9176 56.2227 61.9568 56.2014 61.9965C56.1826 62.0758 56.2014 62.1333 56.2014 62.2331V64.446C56.2227 64.4852 56.2227 64.5048 56.2432 64.5449H55.8479V64.544ZM59.2074 61.996V64.643L57.0346 62.2531V64.2481C57.0346 64.3266 57.0346 64.3266 57.0729 64.4456C57.0729 64.4848 57.0925 64.5044 57.0925 64.5637H56.757C56.7766 64.5236 56.7962 64.504 56.7962 64.4647C56.813 64.4141 56.82 64.3607 56.8167 64.3074V62.0749C56.8167 62.0339 56.8167 61.9956 56.7962 61.9559C56.781 61.9207 56.753 61.8926 56.7178 61.8775H57.1117L58.9895 64.0307V62.332C58.9895 62.1943 58.9895 62.1141 58.9699 61.9755C58.9699 61.9363 58.9503 61.9167 58.9503 61.8775H59.2466C59.2261 61.9167 59.2261 61.9559 59.2074 61.996ZM61.0041 64.5637C60.644 64.5544 60.3017 64.4046 60.0505 64.1463C59.7994 63.888 59.6593 63.5416 59.6602 63.1813C59.6602 62.4287 60.2934 61.7973 61.063 61.8169C61.8156 61.857 62.3873 62.4501 62.3873 63.1813C62.4074 63.991 61.7546 64.5824 61.0041 64.5637ZM61.0434 62.0344C60.3923 62.0344 59.9779 62.5682 59.9574 63.1818C59.9574 63.774 60.3718 64.3266 61.0041 64.3471C61.6177 64.3471 62.1106 63.7936 62.1106 63.1818C62.091 62.5678 61.6561 62.0544 61.0434 62.0344ZM64.4019 64.544H62.8418C62.8614 64.5236 62.8819 64.504 62.8819 64.4843C62.922 64.4246 62.9024 64.3854 62.9024 64.3261V62.1329C62.9024 62.0936 62.9024 62.0544 62.8819 61.996C62.8819 61.9559 62.8614 61.9167 62.8418 61.8779H63.2563C63.2367 61.9171 63.217 61.9367 63.217 61.976C63.1974 62.0758 63.1974 62.1145 63.1974 62.2135V64.3471H64.2246C64.2843 64.3471 64.3235 64.3471 64.3828 64.3266C64.4425 64.3078 64.4229 64.3266 64.5205 64.2481L64.4019 64.544ZM65.9041 64.5637C65.5439 64.5543 65.2017 64.4045 64.9506 64.1462C64.6995 63.8879 64.5593 63.5416 64.5601 63.1813C64.5601 62.4287 65.1933 61.7973 65.9638 61.8169C66.7334 61.857 67.2873 62.4501 67.2873 63.1813C67.3069 63.991 66.6536 64.5824 65.9041 64.5637ZM65.9433 62.0344C65.2923 62.0344 64.8778 62.5682 64.8778 63.1818C64.8573 63.774 65.2922 64.3266 65.9041 64.3471C66.5364 64.3471 67.0105 63.7936 67.0105 63.1818C66.9909 62.5678 66.5756 62.0544 65.9433 62.0344ZM70.1325 63.3195C70.112 63.3587 70.112 63.3988 70.112 63.4385V64.3261C69.9342 64.4451 69.5791 64.5824 69.2226 64.5824C68.3732 64.6225 67.7017 64.0111 67.7017 63.2206C67.7213 62.3507 68.3349 61.8365 69.1638 61.857C69.4414 61.857 69.5987 61.857 69.8549 61.9559V62.2326C69.5987 62.0753 69.3416 62.0548 69.1049 62.0548C68.3541 62.0753 67.9789 62.6676 67.9976 63.221C68.0189 63.8925 68.5332 64.3863 69.2426 64.3471C69.4597 64.3471 69.6375 64.3079 69.8357 64.1889V63.6755C69.8357 63.5574 69.8545 63.4772 69.8153 63.3587C69.7965 63.299 69.7752 63.2803 69.7359 63.221H70.1708C70.1512 63.2598 70.1325 63.2803 70.1325 63.3195ZM72.2848 61.9755C72.2663 62.0195 72.2397 62.0596 72.2064 62.0936L71.4743 63.2001V64.3859C71.4743 64.4251 71.4743 64.4456 71.4956 64.4848C71.4956 64.5044 71.4956 64.524 71.5152 64.5641H71.1588C71.1784 64.524 71.1784 64.5044 71.1784 64.4848C71.1989 64.4456 71.1784 64.4251 71.1784 64.4063V63.2001L70.4676 62.0544C70.4284 62.0152 70.4284 61.9956 70.3883 61.9555L70.3107 61.877H70.7439V61.9751C70.7635 62.0152 70.784 62.0544 70.8027 62.0932L71.3762 62.9826L71.9685 62.0335C71.9889 61.9951 72.0086 61.9747 72.0086 61.9354C72.0273 61.9158 72.0273 61.8954 72.0086 61.8766H72.3829C72.3509 61.9102 72.3182 61.9432 72.2848 61.9755Z" fill="white"/>
<path fill-rule="evenodd" clip-rule="evenodd" d="M8.00781 42.248H42.3868V76.9151H8.00781V42.248Z" fill="black"/>
<path fill-rule="evenodd" clip-rule="evenodd" d="M13.6417 53.8752C12.8608 53.8752 12.3801 53.8869 11.6484 53.6233V52.6741C12.3087 53.2145 12.8848 53.2751 13.7376 53.2868C15.1434 53.3352 15.9967 52.6977 15.9967 51.5921C15.9967 50.7393 15.3718 50.307 14.627 49.8873L13.0055 48.9621C12.1404 48.4453 11.6236 47.8565 11.6114 46.9083C11.5996 45.502 12.9815 44.6622 14.4828 44.7089C15.1918 44.7337 15.6359 44.7089 16.2725 44.9734V45.8986C15.7679 45.4175 15.2759 45.3094 14.5791 45.2867C13.606 45.2262 12.5366 45.8868 12.6089 46.8595C12.6691 47.4962 13.1009 47.8321 13.6653 48.1577L15.0829 48.9857C16.1523 49.5984 17.053 49.9348 17.1127 51.4478C17.1851 53.4189 15.2515 53.9109 13.6417 53.8752ZM28.0688 45.6955C27.9964 45.8145 27.9359 45.899 27.8879 46.031L25.0776 53.8752L22.8551 47.9045L20.6814 53.9235L17.6902 45.8872C17.6702 45.7698 17.6155 45.661 17.5333 45.5748C17.4374 45.4427 17.3655 45.3826 17.2335 45.2981H18.7831C18.723 45.3944 18.6872 45.4427 18.6755 45.5508C18.6511 45.634 18.6393 45.7064 18.6755 45.8027L20.7415 51.6653L22.5186 46.9431L22.0981 45.8868C22.038 45.743 21.9665 45.6707 21.8702 45.5626C21.7983 45.4545 21.7264 45.3939 21.6418 45.2981H23.168C23.1314 45.3822 23.1074 45.4179 23.0839 45.5151C23.0477 45.6707 23.0712 45.7787 23.12 45.9238L25.1983 51.6893L27.1201 45.9831C27.1794 45.8384 27.2282 45.743 27.2164 45.5983C27.2098 45.4882 27.1767 45.3814 27.1201 45.2867H28.3573C28.2503 45.415 28.1538 45.5517 28.0688 45.6955ZM29.3417 47.7493H28.3089L28.3333 47.7968C28.3934 47.8809 28.4296 47.9524 28.4658 48.0605C28.5015 48.1812 28.5133 48.2409 28.5133 48.3607V53.1901C28.5133 53.3099 28.5133 53.3823 28.4658 53.4904C28.4433 53.559 28.4105 53.6238 28.3686 53.6825L28.3451 53.73H29.3779L29.3539 53.6825C29.3452 53.6641 29.3327 53.6476 29.3173 53.6342C29.282 53.5745 29.2458 53.5379 29.2458 53.4655C29.2214 53.2742 29.2214 53.0093 29.2214 52.7099V48.3368C29.2214 48.2527 29.2214 48.2047 29.2694 48.0126C29.3055 47.9285 29.3299 47.8687 29.3657 47.7964L29.3897 47.7489L29.3417 47.7493ZM38.4348 45.6589C38.3991 45.8384 38.399 45.9474 38.399 46.1152L38.4113 54.0076L31.5886 46.476V52.7465C31.5886 52.9866 31.5886 52.9866 31.661 53.3583C31.6849 53.503 31.7207 53.5753 31.7686 53.7309H30.6996C30.7715 53.6111 30.8195 53.5387 30.8443 53.4185C30.8922 53.2507 30.8922 53.1417 30.8922 52.974V45.923C30.8922 45.7892 30.8678 45.682 30.7964 45.5621C30.7358 45.4301 30.6761 45.3691 30.5558 45.2976H31.8048L37.7027 52.0379V46.6917C37.7027 46.2829 37.7266 46.0184 37.6552 45.6101C37.6308 45.4902 37.6072 45.4179 37.5711 45.2867H38.5202C38.4732 45.4058 38.4444 45.5312 38.4348 45.6589ZM17.5699 63.6777H15.323C15.3958 63.5814 15.4202 63.5339 15.4555 63.4376C15.5156 63.2811 15.54 63.173 15.54 63.0044V56.0497C15.54 55.8575 15.5038 55.7373 15.4202 55.5568C15.376 55.4442 15.315 55.3388 15.2393 55.2444H17.7987C18.8912 55.2444 19.7436 56.1687 19.7924 57.2625C19.8163 58.067 19.4921 58.4879 18.8798 58.8483L18.5674 59.0287L18.9034 59.1608C19.8399 59.4741 20.3567 60.1701 20.3567 61.2752C20.3445 62.7643 19.2873 63.6777 17.5699 63.6777ZM17.2574 55.8087H16.4286V58.8483H17.1615C18.3987 58.8483 18.9631 58.1759 18.9273 57.2625C18.8798 56.4105 18.3024 55.8087 17.2574 55.8087ZM17.2091 59.3887C16.9328 59.3887 16.7528 59.3887 16.4765 59.4493V63.065C16.7768 63.1613 16.9811 63.1848 17.3054 63.173C18.4109 63.1016 19.4917 62.4758 19.456 61.2621C19.4193 59.8092 18.3273 59.4135 17.2091 59.3887ZM28.2492 55.6174C28.2248 55.773 28.237 55.8575 28.237 56.014V60.9497C28.237 62.5847 26.8556 63.7618 25.1142 63.7975C23.2512 63.8215 21.7377 62.6205 21.7377 60.9139V56.0615C21.7377 55.9177 21.7499 55.8214 21.7264 55.6767C21.7099 55.5283 21.6734 55.3829 21.6179 55.2444H22.771C22.7104 55.3642 22.6991 55.4496 22.6742 55.5935C22.6385 55.7373 22.6507 55.8327 22.6507 55.9891V60.8067C22.6507 62.1041 23.8151 63.1125 25.1133 63.065C26.3976 63.0292 27.2992 62.0675 27.2992 60.8773V56.038C27.2992 55.8693 27.2992 55.7734 27.2748 55.6174C27.2386 55.4618 27.2269 55.3764 27.1667 55.2448H28.3442C28.2987 55.3651 28.2668 55.4901 28.2492 55.6174ZM34.9041 63.6894L31.5163 59.2815C31.4208 59.1726 31.3842 59.0893 31.2879 59.0161C31.24 58.9686 31.1925 58.9446 31.1324 58.9089V62.7891C31.1324 62.9687 31.1324 63.065 31.1685 63.2454C31.1929 63.401 31.2404 63.4973 31.3006 63.6533H30.0516C30.1235 63.5212 30.1832 63.438 30.195 63.3051C30.2189 63.1373 30.2189 62.7647 30.2189 62.4405V56.3861C30.2189 56.0737 30.2072 55.8933 30.1592 55.5808C30.1231 55.437 30.0629 55.3529 30.0032 55.2326H32.5378C33.6429 55.2326 34.6395 55.9665 34.6042 57.1666C34.5798 58.3446 33.5588 59.3534 32.3094 59.1608C32.3817 59.2205 32.4179 59.258 32.4776 59.3172C32.7177 59.5451 32.8498 59.6894 33.0659 59.9657L35.084 62.5115C35.3372 62.8484 35.5407 63.1251 35.8048 63.3535C35.9608 63.4855 36.0576 63.5696 36.2376 63.6894H34.9041ZM32.0453 55.7373C31.6967 55.7373 31.4805 55.749 31.1441 55.8928V58.8122C31.3123 58.8361 31.6126 58.8479 31.8889 58.8361C33.042 58.7407 33.7501 58.1271 33.6786 57.1902C33.6303 56.5177 33.4019 55.7978 32.0453 55.7373ZM26.086 65.5394C26.0507 65.7198 26.0507 65.8278 26.0507 65.9965L26.0624 73.8872L19.2398 66.3565V72.6269C19.2398 72.8671 19.2398 72.8671 19.3117 73.2397C19.3361 73.3835 19.3723 73.4558 19.4198 73.5996H18.339C18.4231 73.4915 18.4715 73.4192 18.4955 73.2994C18.5317 73.1316 18.5317 73.0235 18.5317 72.8431V65.8043C18.5317 65.6605 18.5195 65.5633 18.4471 65.4435C18.3874 65.3114 18.3277 65.2522 18.2074 65.1798H19.4564L25.3547 71.9192V66.573C25.3547 66.1643 25.3783 65.9006 25.3068 65.4923C25.2846 65.3828 25.2565 65.2746 25.2227 65.1681H26.1723C26.1221 65.2992 26.0982 65.3951 26.086 65.5394ZM32.8615 73.5996H27.9842C28.0688 73.4915 28.1045 73.4074 28.1403 73.288C28.1769 73.1316 28.1529 73.0235 28.1529 72.8549V65.7921C28.1529 65.6474 28.1403 65.552 28.0928 65.4313C28.055 65.3427 28.0019 65.2614 27.9359 65.1912H32.2371V66.0322C32.1286 65.9359 32.0453 65.8758 31.9128 65.84C31.7202 65.7686 31.5764 65.8043 31.3838 65.8043H29.0898V68.5789H32.2371V69.3834C32.0859 69.3072 31.9239 69.2548 31.7568 69.2278C31.6244 69.2039 31.5285 69.2039 31.3842 69.2039H29.126V72.976H31.8287C32.2009 72.976 32.4175 72.9512 32.7657 72.8431C32.9047 72.8037 33.0351 72.7385 33.15 72.6509L32.8615 73.5996ZM12.9567 67.8577L13.0172 67.846C13.029 67.8577 13.185 67.9423 13.185 67.9423C13.185 67.9423 13.3175 67.954 13.3541 67.954C13.3659 67.954 13.45 67.9658 13.4617 67.9658C13.4744 67.9658 13.6657 68.0865 13.6779 68.0987C13.6905 68.1096 13.7502 68.2308 13.762 68.2543C13.7864 68.3149 13.762 68.3981 13.7746 68.4587C13.7733 68.4921 13.765 68.5249 13.7502 68.555C13.7502 68.5789 13.738 68.687 13.738 68.687C13.738 68.7476 13.8221 68.8191 13.8579 68.8308C13.9184 68.8435 14.0387 68.7594 14.0387 68.6988C14.0265 68.6748 14.0265 68.6748 14.0148 68.6631C14.0148 68.6147 13.894 68.4587 14.0148 68.1942C14.0749 68.0734 14.2191 67.9898 14.339 67.978C14.3995 67.9662 14.471 67.9898 14.5434 67.978C14.6035 67.9662 14.6514 67.9305 14.7116 67.9065C14.7116 67.9065 14.7473 67.9305 14.7473 67.9423C14.7591 67.9662 14.7351 68.0264 14.7351 68.0386C14.6998 68.134 14.7717 68.3271 14.7717 68.351C14.7957 68.3985 14.7473 68.5912 14.7116 68.6387C14.6876 68.687 14.6392 68.7476 14.5795 68.7707C14.4706 68.8313 14.1825 68.7707 14.1468 68.9637C14.1342 68.9755 14.1224 69.0235 14.1342 69.0361C14.1468 69.0592 14.2309 69.1076 14.2309 69.1076H14.2549C14.3507 69.0949 14.3991 69.0361 14.5072 68.9877C14.5547 68.9511 14.6994 68.9154 14.7473 68.9154L14.7591 68.9271C14.7713 68.9389 14.8074 68.9271 14.8314 68.9271C14.8554 68.9271 14.9399 68.9511 14.9513 68.9637C15.0232 69.0112 15.0833 69.1551 15.1073 69.2274C15.1317 69.2749 15.2036 69.4196 15.1796 69.4675C15.1434 69.5281 15.0349 69.5765 14.987 69.624C14.9513 69.6597 14.9029 69.7203 14.8432 69.7447C14.8192 69.7556 14.7347 69.7678 14.7111 69.7795C14.6031 69.7913 14.3991 69.6963 14.3141 69.5516C14.2788 69.4919 14.3024 69.4196 14.2305 69.3472C14.1943 69.3124 14.0618 69.2749 13.9899 69.3472C13.9899 69.359 13.9537 69.4435 13.9659 69.4562C13.9659 69.4793 13.9786 69.4793 13.9786 69.5037L13.9659 69.5394C13.9899 69.5991 14.1106 69.6357 14.1581 69.6841C14.1943 69.7316 14.2061 69.7795 14.2187 69.8161C14.2418 69.8645 14.2662 69.9839 14.2662 69.9839C14.2662 70.0314 14.2662 70.1046 14.2549 70.1404C14.2187 70.2245 14.1342 70.3081 14.0505 70.3556C13.9664 70.404 13.9302 70.4886 13.8579 70.5121C13.7742 70.5239 13.7019 70.404 13.63 70.3325C13.6182 70.3199 13.5703 70.2842 13.558 70.272C13.484 70.19 13.4452 70.0821 13.45 69.9717V69.8754C13.4744 69.8279 13.5463 69.7198 13.5703 69.6959C13.6182 69.6475 13.6901 69.6235 13.7136 69.576C13.7254 69.5512 13.7376 69.4788 13.7254 69.4671C13.7136 69.4313 13.6295 69.3716 13.6295 69.359C13.5698 69.3233 13.4378 69.4919 13.4378 69.5037C13.4251 69.5154 13.3175 69.6959 13.2931 69.7198C13.2569 69.7556 13.1733 69.7913 13.1253 69.8039C13.1127 69.8039 13.0055 69.8157 12.9811 69.8157C12.9092 69.8275 12.7763 69.7551 12.7174 69.6959C12.6695 69.6353 12.5492 69.563 12.5492 69.563H12.537C12.5126 69.5155 12.4891 69.5032 12.5126 69.4557C12.5248 69.4191 12.5727 69.3825 12.5971 69.335C12.6211 69.2875 12.6451 69.1795 12.6935 69.1189C12.7048 69.1071 12.7292 69.094 12.741 69.0831C12.7645 69.0583 12.8246 68.999 12.8608 68.9751C12.9205 68.9385 13.053 68.9385 13.1127 68.9633C13.1362 68.9751 13.2574 69.0356 13.2813 69.0465C13.2931 69.0583 13.3053 69.094 13.3175 69.1071C13.3297 69.1189 13.3659 69.1311 13.3898 69.1546L13.4016 69.1437C13.45 69.1437 13.5101 69.1437 13.5463 69.0945C13.5707 69.0705 13.582 69.023 13.5707 69.0112C13.5707 68.9873 13.3663 68.8548 13.3419 68.8548C13.3301 68.8439 13.294 68.8548 13.2696 68.8548C13.2343 68.8439 13.2216 68.8191 13.1855 68.7942C13.1737 68.7833 13.1258 68.7833 13.1018 68.7703C12.9937 68.687 12.8978 68.5301 12.8978 68.4103C12.8978 68.3149 12.9453 68.2181 12.9697 68.1336C12.9819 68.0495 12.934 68.0015 12.934 67.9301C12.9357 67.9045 12.9435 67.8797 12.9567 67.8577ZM37.7506 67.8577C37.7384 67.8577 37.6905 67.846 37.6783 67.846C37.6783 67.8577 37.5218 67.9423 37.5218 67.9423C37.5218 67.9423 37.3898 67.954 37.3414 67.954C37.3301 67.954 37.2577 67.9658 37.246 67.9658C37.2338 67.9658 37.0411 68.0865 37.0294 68.0987C36.9984 68.1489 36.9703 68.2009 36.9453 68.2543C36.9213 68.3149 36.9335 68.3981 36.9335 68.4587C36.9335 68.4818 36.9453 68.5419 36.9453 68.555C36.957 68.5789 36.9692 68.687 36.9692 68.687C36.9597 68.7178 36.9442 68.7463 36.9235 68.771C36.9029 68.7957 36.8775 68.816 36.849 68.8308C36.7888 68.8435 36.6686 68.7594 36.6686 68.6988C36.6686 68.6748 36.6803 68.6748 36.6803 68.6631C36.6925 68.6147 36.8128 68.4587 36.6925 68.1942C36.6324 68.0734 36.4881 67.9898 36.3683 67.978C36.3082 67.978 36.2236 67.9898 36.1644 67.978C36.1033 67.9662 36.0558 67.9305 35.9957 67.9065C35.9957 67.9065 35.9595 67.9305 35.9595 67.9423C35.9473 67.9662 35.9713 68.0264 35.9713 68.0386C35.9957 68.134 35.9351 68.3271 35.9234 68.351C35.9112 68.3985 35.9595 68.5912 35.9835 68.6387C36.0188 68.687 36.0558 68.7476 36.1277 68.7707C36.2358 68.8313 36.5239 68.7707 36.56 68.9637C36.56 68.9755 36.5722 69.0235 36.5722 69.0361C36.56 69.0592 36.4755 69.1076 36.4637 69.1076H36.4402C36.3443 69.0949 36.3077 69.0361 36.1992 68.9877C36.1517 68.9637 36.0075 68.9154 35.9591 68.9154L35.9469 68.9271C35.9351 68.9389 35.8872 68.9271 35.8754 68.9271C35.851 68.9271 35.7674 68.9511 35.7556 68.9637C35.6832 69.0112 35.6235 69.1551 35.5996 69.2274C35.5756 69.2749 35.5037 69.4196 35.5272 69.4675C35.5508 69.5281 35.671 69.5765 35.7194 69.624C35.7556 69.6597 35.8031 69.7203 35.8637 69.7447C35.8872 69.7556 35.9713 69.7678 35.9957 69.7795C36.1033 69.7913 36.3082 69.6963 36.3801 69.5516C36.4158 69.4919 36.4045 69.4196 36.4637 69.3472C36.5121 69.3124 36.6437 69.2749 36.7038 69.3472C36.7169 69.359 36.74 69.4435 36.74 69.4562C36.74 69.4793 36.7287 69.4793 36.7165 69.5037L36.74 69.5394C36.7038 69.5991 36.5962 69.6357 36.5478 69.6841C36.5117 69.7316 36.4999 69.7795 36.4755 69.8161C36.4549 69.8706 36.439 69.9267 36.428 69.9839C36.4402 70.0314 36.428 70.1046 36.4524 70.1404C36.4759 70.2245 36.5722 70.3081 36.6563 70.3556C36.74 70.404 36.7762 70.4886 36.8481 70.5121C36.9322 70.5239 37.0037 70.404 37.0642 70.3325C37.0886 70.3199 37.137 70.2842 37.1488 70.272C37.2227 70.1899 37.2614 70.0821 37.2569 69.9717C37.2569 69.936 37.2569 69.8994 37.2451 69.8754C37.2329 69.8279 37.1606 69.7198 37.137 69.6959C37.0891 69.6475 37.0167 69.6235 36.9928 69.576C36.9801 69.5512 36.9684 69.4788 36.9801 69.4671C36.9928 69.4313 37.0642 69.3716 37.0769 69.359C37.1248 69.335 37.2691 69.4919 37.2691 69.5037C37.2691 69.5154 37.3889 69.6959 37.4011 69.7198C37.449 69.7556 37.5327 69.7913 37.5815 69.8039C37.5937 69.8039 37.7014 69.8157 37.7253 69.8157C37.7855 69.8275 37.9297 69.7551 37.9781 69.6959C38.0382 69.6353 38.1463 69.563 38.1463 69.563H38.1698C38.1938 69.5155 38.206 69.5032 38.1938 69.4557C38.1825 69.4191 38.1337 69.3825 38.1097 69.3468C38.074 69.2871 38.0618 69.179 38.0143 69.1189C38.0016 69.1071 37.9781 69.094 37.9659 69.0831C37.9291 69.0438 37.889 69.0077 37.846 68.9751C37.7859 68.9385 37.6412 68.9385 37.5942 68.9633C37.558 68.9751 37.4495 69.0356 37.4259 69.0465C37.4137 69.0583 37.4015 69.094 37.3776 69.1071C37.3776 69.1189 37.3414 69.1311 37.3179 69.1546L37.3057 69.1437C37.2573 69.1437 37.1972 69.1437 37.1497 69.0945C37.1375 69.0681 37.1293 69.04 37.1253 69.0112C37.1375 68.9873 37.341 68.8548 37.3536 68.8548C37.3776 68.8439 37.4137 68.8548 37.4259 68.8548C37.4617 68.8439 37.4861 68.8191 37.5214 68.7942C37.5331 68.7833 37.582 68.7833 37.5942 68.7703C37.7018 68.687 37.8103 68.5301 37.8103 68.4103C37.8103 68.3149 37.7619 68.2181 37.738 68.1336C37.7131 68.0495 37.7741 68.0015 37.7741 67.9301C37.7746 67.9061 37.7506 67.8817 37.7506 67.8577Z" fill="white"/>
</g>
<defs>
<clipPath id="clip0_1400_10332">
<rect width="84" height="84" fill="white" transform="translate(0.387207)"/>
</clipPath>
</defs>
</svg>
