<svg width="84" height="84" viewBox="0 0 84 84" fill="none" xmlns="http://www.w3.org/2000/svg">
<g clip-path="url(#clip0_495_6102)">
<rect width="84" height="84" fill="white"/>
<path fill-rule="evenodd" clip-rule="evenodd" d="M0 0H84V84H0V0Z" fill="white"/>
<path fill-rule="evenodd" clip-rule="evenodd" d="M3.70605 27.7295H25.4033V56.2659H3.70605V27.7295Z" fill="black"/>
<path fill-rule="evenodd" clip-rule="evenodd" d="M12.0239 55.1225V54.5385H12.3742V55.1225H12.0239ZM12.6021 55.1225V54.5385H12.9002V55.1225H12.6021ZM14.0742 55.0689V54.4858H14.5296V55.0689H14.0742ZM14.775 55.0689V54.5921V54.4858H15.1253V55.0689H14.775ZM15.3532 55.0689V54.4858H15.7036C15.721 54.5564 15.7385 54.627 15.7559 54.7154V55.0689H15.3532ZM16.8079 55.0689V54.4152H17.1583C17.1757 54.5385 17.1936 54.6627 17.2284 54.8043C17.2284 54.8392 17.2284 54.8749 17.2459 54.9277C17.2284 54.9634 17.2284 55.0161 17.2284 55.0689H16.8079ZM17.4036 55.0689V54.4152H17.8067C17.8241 54.627 17.842 54.8392 17.8594 55.0689H17.4036ZM14.0742 54.274V53.7079H14.5296V54.3088C14.3719 54.2919 14.2145 54.274 14.0742 54.274ZM14.7052 54.3088V53.7079H15.1258V54.3088H14.7052ZM15.3532 54.3088L15.3005 53.7785C15.423 53.7436 15.5633 53.7258 15.7036 53.7079V54.3088H15.3532ZM10.7274 51.5342V51.4457H10.7976C10.8503 51.4636 10.9026 51.4815 10.9727 51.4993C10.8851 51.4993 10.7971 51.5163 10.7274 51.5342ZM10.9723 51.4993C10.9021 51.4815 10.8498 51.4636 10.7971 51.4457C11.4804 50.4029 11.4804 50.4029 12.5494 49.0071C12.5673 48.9535 12.5847 48.9186 12.6021 48.8829C12.8126 48.6005 13.0227 48.3177 13.2506 48.0523L13.3033 47.9468C13.5308 47.6466 13.7587 47.3459 14.0041 47.0626C14.0167 47.0163 14.0408 46.9738 14.0742 46.9393C14.1269 46.8508 14.1792 46.7802 14.2494 46.7096C14.2668 46.6569 14.2847 46.6212 14.3021 46.5863C14.4595 46.3567 14.6351 46.1266 14.8103 45.8969C15.1083 46.2325 15.406 46.5863 15.704 46.9397C15.7215 46.9755 15.7389 47.0103 15.7563 47.0631L16.1769 47.5934L16.2296 47.6997C16.5625 48.1068 16.8955 48.5125 17.2284 48.9374C17.2459 48.9722 17.2637 49.008 17.2812 49.0607C17.5086 49.3252 17.7365 49.6089 17.9819 49.8913C17.9993 49.927 18.0168 49.9619 18.0521 49.9976C18.1924 50.1916 18.3501 50.3859 18.5075 50.5977C18.5244 50.637 18.5481 50.673 18.5776 50.704C18.7528 50.9337 18.928 51.1638 19.1032 51.4113H18.8583C18.2098 50.5977 17.5614 49.8028 16.9303 49.0075C16.9129 48.9539 16.8955 48.9191 16.8781 48.8833C16.3874 48.2475 15.8967 47.6108 15.406 46.992L15.3532 46.8866C15.1825 46.6937 15.0071 46.5049 14.8273 46.3205C14.7463 46.4045 14.6704 46.4931 14.5998 46.5859C14.5662 46.6203 14.542 46.6628 14.5296 46.7092C13.3382 48.2998 12.1467 49.8904 10.9723 51.4993ZM17.5086 51.4993C17.4385 51.4815 17.3862 51.4815 17.3334 51.4815H14.88V50.9511H17.0528V50.2439V49.5902C17.5082 50.1911 17.9815 50.7921 18.4547 51.4109C18.1619 51.4244 17.8696 51.4479 17.5784 51.4815C17.5439 51.4815 17.5261 51.4815 17.5086 51.4993ZM13.0754 50.7036V50.5267V50.4212V49.3784C13.0754 48.9892 13.7234 48.9535 13.899 49.2372C13.9165 49.2721 13.9339 49.3078 13.9518 49.3605V50.7036H13.0754ZM14.3544 50.7036L14.3021 49.0071V48.8829V48.6532L14.3544 48.4415C14.4425 48.2654 14.5296 48.2118 14.7052 48.1769C14.7401 48.1591 14.7754 48.1412 14.8277 48.1233H14.9501C14.968 48.1233 14.9854 48.1233 15.0029 48.1412C15.0377 48.1412 15.073 48.1591 15.1253 48.1769C15.1606 48.1939 15.1955 48.2118 15.2304 48.2297C15.6335 48.8485 15.4936 49.9619 15.5284 50.704L14.3544 50.7036ZM15.8792 49.3605C15.8967 49.3078 15.9141 49.2721 15.9315 49.2372C16.0719 49.1487 16.2122 49.0781 16.3521 49.0075C17.0005 49.3252 16.79 50.0146 16.8075 50.704H15.8788L15.8792 49.3605ZM11.9014 49.0956C11.9193 48.9714 11.9367 48.848 11.9541 48.7417C11.972 48.6005 11.9894 48.4772 12.0243 48.3526C12.0417 48.2114 12.0592 48.0702 12.077 47.9464L12.1297 47.4161C12.1668 47.3937 12.209 47.3814 12.2522 47.3803H13.3038C13.1809 47.5394 13.0584 47.6984 12.9529 47.8758C12.9355 47.9107 12.9181 47.9464 12.9002 47.9991C12.5673 48.4231 12.2343 48.8476 11.9193 49.2716C11.9014 49.201 11.9014 49.1483 11.9014 49.0956ZM17.8067 49.201C17.6021 48.9047 17.4035 48.6042 17.211 48.2998H17.7544L17.8067 49.201ZM15.7563 48.5822C15.7412 48.517 15.7237 48.4523 15.704 48.3883C15.4408 48.0702 15.3885 48.017 15.0033 47.8758C14.9506 47.8579 14.9157 47.8579 14.8804 47.8579C14.863 47.4866 14.863 47.1158 14.863 46.7445C14.8983 46.7794 14.9506 46.833 15.0033 46.8857L15.056 46.9912C15.494 47.5751 15.9498 48.1582 16.4052 48.7591C16.2828 48.777 16.1599 48.794 16.0549 48.8297C15.9498 48.8825 15.8444 48.9361 15.7568 49.0067L15.7563 48.5822ZM17.5788 47.3459C17.5962 47.4165 17.6137 47.505 17.6315 47.5925V47.8758C17.3509 47.8579 17.0707 47.8579 16.7905 47.8579C16.6676 47.664 16.5625 47.4688 16.4575 47.2919C16.8253 47.3097 17.1936 47.328 17.5788 47.3459ZM12.3045 46.4085C12.5673 46.3907 12.8475 46.3737 13.1281 46.3558C13.4436 46.3558 13.7587 46.3558 14.0742 46.3737C13.9518 46.5149 13.8463 46.6739 13.7413 46.8334C13.2506 46.921 12.7076 46.8861 12.199 46.8683C12.2343 46.7092 12.2692 46.5497 12.3045 46.4085ZM16.0893 46.8861C15.7559 46.4612 15.7559 46.4613 15.7559 46.3558H17.4559L17.5086 46.8861H16.0893ZM17.2812 45.384L17.3339 45.6485V45.8782C15.3711 45.8603 15.3711 45.8603 15.2661 45.8076C15.1611 45.6664 15.0735 45.5252 14.9854 45.3836L17.2812 45.384ZM12.0766 45.1182C12.199 44.8715 12.199 44.8715 12.3045 44.8179H16.1769C16.2296 44.8 16.2823 44.783 16.3521 44.7652H17.4036C17.4389 44.8 17.4738 44.8358 17.5086 44.8715C17.5261 44.9064 17.5736 45.0332 17.6089 45.0859C15.7725 45.1861 13.9186 45.1182 12.0766 45.1182ZM13.3033 42.1317C13.3207 42.1845 13.3382 42.2381 13.3735 42.2908V44.5878H12.5498C12.5498 43.7572 12.5498 42.9266 12.5677 42.1134C12.8649 41.9195 13.0052 41.9016 13.3033 42.1317ZM13.7761 44.5878V42.2198C14.0041 41.8306 14.2847 41.9016 14.5296 42.2198V44.5878H13.7761ZM15.9315 42.1666V44.5177H15.1781C15.1785 44.1991 14.775 41 15.9315 42.1666ZM16.4048 44.5172V42.3793V42.0786C16.475 42.008 16.5447 41.9374 16.6148 41.8842C16.8602 41.9021 16.9831 41.9374 17.1055 42.1317L17.1583 44.4998C16.907 44.4962 16.6556 44.5021 16.4048 44.5172ZM15.8265 41.6898C15.7674 41.6746 15.709 41.6568 15.6513 41.6367H15.5284C15.4693 41.652 15.4109 41.6697 15.3532 41.6898C15.307 41.7027 15.2647 41.727 15.2304 41.7604L15.1253 41.8136C15.0029 41.9021 15.0029 41.9021 14.775 41.9374V41.1595C15.0556 41.1416 15.3532 41.1416 15.6513 41.1416C15.6692 41.1238 15.6862 41.1063 15.704 41.1063H17.4036V41.8659H17.2812C17.1757 41.7953 17.0707 41.7426 16.9831 41.6894C16.4571 41.6362 16.4571 41.6362 16.4571 41.6894C16.3739 41.7383 16.2973 41.7976 16.2292 41.8659C16.2117 41.9016 16.1943 41.9369 16.1764 41.9901C16.0544 41.8838 15.9315 41.7779 15.8265 41.6898ZM12.6021 40.0988H12.9525C12.9878 40.0814 13.0227 40.0814 13.0754 40.0814C13.0933 40.0635 13.1107 40.0461 13.1281 40.0461L16.7029 39.9929H16.7556C16.8083 40.0108 16.8606 40.0282 16.9308 40.0461C17.1234 40.2404 17.5091 40.488 17.3339 40.7882C15.6692 40.7882 14.0219 40.7882 12.3747 40.8061C12.3224 40.7882 12.2696 40.7882 12.2348 40.7882V40.4522C12.3568 40.3285 12.4797 40.2051 12.6021 40.0988ZM14.775 38.4202C14.7397 36.9886 14.7222 35.5571 14.7048 34.1255V32.3048C14.7222 32.3048 14.7397 32.3227 14.775 32.3401C14.8103 32.8352 14.8451 33.3476 14.88 33.8601V35.663C14.8978 36.246 14.9153 36.8295 14.9501 37.4305L15.0029 39.3392V39.5162H14.775V38.4202ZM15.3009 39.5157C15.2657 39.2861 15.2482 39.0734 15.2308 38.8616C15.1606 37.7656 15.1083 36.6701 15.0556 35.5745L15.0029 34.7792L14.9501 33.9133V33.0648H15.0029C15.0203 33.2239 15.0377 33.3829 15.0556 33.5599C15.1083 34.3905 15.1606 35.2211 15.2308 36.0695C15.2482 36.246 15.2661 36.4404 15.3009 36.6348L15.3537 37.271L15.4064 37.8009C15.4413 38.3666 15.4766 38.9322 15.5289 39.5157H15.3009ZM15.7563 38.4202C15.7389 38.2964 15.7215 38.1726 15.704 38.0663C15.6862 37.9251 15.6692 37.7839 15.6513 37.6597C15.616 37.536 15.5986 37.4122 15.5812 37.3059C15.5637 37.1647 15.5463 37.0409 15.5284 36.9171C15.4757 36.5284 15.4408 36.1397 15.406 35.7684C15.3885 35.6447 15.3707 35.5209 15.3532 35.415C15.3354 35.2912 15.3179 35.1675 15.3005 35.0611C15.2652 34.9195 15.2478 34.7783 15.2304 34.6546C15.1781 34.0715 15.1781 34.0715 15.2304 34.0715C15.2478 34.1246 15.2657 34.1952 15.3005 34.2658C15.3179 34.3543 15.3354 34.4602 15.3532 34.5661C15.3707 34.672 15.3885 34.7957 15.406 34.9195C15.4408 35.2202 15.4761 35.5379 15.5284 35.8564C15.5463 35.9449 15.5637 36.0508 15.5812 36.1567C15.599 36.2452 15.6165 36.3515 15.6513 36.4574C15.6692 36.5633 15.6862 36.687 15.704 36.8108L15.7563 37.1289C15.7916 37.4292 15.8265 37.7473 15.8792 38.0654C15.8967 38.1539 15.9141 38.2598 15.9315 38.3657C15.9494 38.4542 15.9668 38.56 16.0017 38.6659C16.0191 38.7544 16.037 38.8429 16.0544 38.9488C16.0719 39.1257 16.0897 39.3201 16.1071 39.5144H15.8797C15.8265 39.1444 15.7912 38.7731 15.7563 38.4202ZM16.4048 39.2861L16.3521 39.0738C16.3168 39.0032 16.2993 38.9326 16.2819 38.862C16.264 38.7736 16.2466 38.703 16.2292 38.6324L16.1764 38.3674C16.1241 38.1722 16.0893 37.9778 16.0544 37.7839L16.0017 37.5185C15.9703 37.4507 15.9467 37.3795 15.9315 37.3063C15.9165 37.2468 15.8991 37.1879 15.8792 37.1298C15.8265 36.9001 15.7912 36.6705 15.7563 36.4583C15.7408 36.3755 15.7233 36.2931 15.704 36.2112C15.6862 36.1401 15.6692 36.0695 15.6513 36.0164V35.8046C15.6862 35.8046 15.7215 35.822 15.7563 35.8399C15.7916 36.0342 15.8265 36.2286 15.8792 36.423L15.9315 36.6348C15.9494 36.6879 15.9668 36.7411 16.0017 36.8112C16.0191 36.847 16.037 36.8997 16.0544 36.9529C16.0897 37.1472 16.1246 37.3595 16.1769 37.5713L16.2296 37.7835C16.2475 37.8188 16.2649 37.8715 16.2823 37.9247C16.2998 37.9953 16.3172 38.0659 16.3525 38.1365C16.3704 38.1896 16.3878 38.2428 16.4052 38.3134C16.4401 38.4899 16.4754 38.6668 16.5281 38.8612L16.5808 39.1261L16.6336 39.3384V39.48H16.4405C16.4213 39.4169 16.4093 39.3518 16.4048 39.2861ZM14.7052 31.9688V31.0672H14.7754C14.8281 31.2084 14.8804 31.35 14.9506 31.5091L15.0033 31.6154L15.056 31.7745C15.0735 31.8276 15.0909 31.8982 15.1262 31.9692L14.7052 31.9688ZM14.7052 30.2013V30.0954C14.7445 30.0566 14.7902 30.0309 14.8804 30.0954C14.9188 30.1708 14.944 30.2505 14.8804 30.3603C14.8469 30.395 14.8228 30.4376 14.8103 30.4841C14.775 30.3782 14.7401 30.2897 14.7052 30.2013ZM9.15029 55.1225C9.13286 54.8749 9.11499 54.6448 9.09756 54.4152C9.07981 54.3798 9.06223 54.3444 9.04483 54.3088C8.76419 53.8848 8.93937 53.3549 8.6243 52.9479L8.57157 51.9408C8.51928 51.8345 8.51928 51.8345 8.32666 51.7111V51.5869H8.57157L10.2716 51.5342C10.5343 51.1102 10.5343 51.1102 10.6219 51.0566L10.6742 50.9511C11.025 50.4735 11.3928 50.0669 11.5506 49.5017C11.568 49.3605 11.5855 49.2193 11.6033 49.0956C11.6208 48.9535 11.6382 48.8302 11.673 48.7064C11.7042 48.4524 11.7392 48.1989 11.7781 47.946C11.8134 47.5568 11.8482 47.1681 11.901 46.7968C11.9188 46.6735 11.9363 46.5493 11.9537 46.4434C11.9716 46.3192 11.989 46.1959 12.0239 46.0895C12.0239 45.9662 12.0239 45.8429 12.0413 45.7361C11.9537 45.5949 11.8661 45.4716 11.7781 45.3469C11.7639 45.3045 11.7464 45.2633 11.7258 45.2236V45.0824C12.1289 44.5163 12.0587 43.986 12.0761 43.2796L12.0234 41.4942C11.9707 41.4589 11.9358 41.4236 11.9005 41.4062C11.8478 41.3704 11.8129 41.353 11.7776 41.3351C11.6767 41.2637 11.5713 41.1987 11.4621 41.1408C11.4621 40.593 12.1807 40.1511 12.5485 39.7798L12.6013 39.5676C12.6191 39.4965 12.6366 39.4259 12.654 39.3732C12.6714 39.3026 12.6893 39.2316 12.7242 39.161L12.7769 38.9488C12.8122 38.7365 12.847 38.5247 12.8993 38.313C12.9172 38.2419 12.9346 38.1892 12.9521 38.136L13.0048 37.9242C13.0227 37.8358 13.0401 37.7473 13.075 37.6593C13.1277 37.3943 13.18 37.1289 13.2501 36.864C13.268 36.7755 13.2854 36.7049 13.3029 36.6343C13.3203 36.5637 13.3377 36.4931 13.373 36.4225L13.4258 36.2107C13.4611 36.0159 13.4959 35.8216 13.5482 35.6272L13.601 35.3623L13.6537 35.1505C13.6716 35.0794 13.689 35.0088 13.7238 34.9557C13.7392 34.8962 13.7567 34.8373 13.7766 34.7792C13.8119 34.5495 13.8467 34.3373 13.8995 34.1255L13.9522 33.8605L14.0049 33.6483C14.0224 33.5777 14.0398 33.5067 14.0751 33.454C14.1278 33.1711 14.1801 32.8883 14.2503 32.6229L14.303 32.4107C14.3235 32.2503 14.3553 32.1457 14.303 32.1457H14.2503C14.1975 32.1283 14.1627 32.1104 14.1278 32.093C14.0054 31.9692 14.303 31.4921 14.3553 31.3504C14.3732 31.2973 14.3906 31.2441 14.4255 31.2088C14.4603 31.1029 14.4956 30.997 14.5305 30.9086C14.5483 30.8554 14.5658 30.8022 14.6006 30.7669C14.5009 30.641 14.3958 30.498 14.3871 30.3316C14.3753 30.1084 14.5248 29.9934 14.741 29.9912C14.9506 29.9895 15.077 30.1682 15.0456 30.373C15.0212 30.5294 14.9183 30.7063 14.846 30.743C14.9162 30.902 14.9166 30.997 15.0042 31.1561L15.0569 31.2624C15.1271 31.4393 15.2147 31.6158 15.3023 31.7928C15.3197 31.8459 15.3371 31.8987 15.355 31.9697C15.3197 32.0934 15.3197 32.0934 15.1624 32.1993C15.1981 32.4822 15.1768 32.4822 15.2325 32.8535C15.25 32.9241 15.2678 32.9946 15.3027 33.0652C15.3201 33.1005 15.3376 33.1537 15.3554 33.2064L15.4082 33.4187C15.443 33.613 15.4783 33.8074 15.5306 34.0017L15.5833 34.1608C15.6012 34.2493 15.6186 34.3373 15.6535 34.4258C15.6714 34.4611 15.6884 34.5142 15.7062 34.567L15.7585 34.7792C15.7938 34.9735 15.8287 35.1679 15.8814 35.3623L15.9337 35.5745C15.9516 35.6277 15.969 35.6983 16.0039 35.7689L16.0566 35.9279C16.0919 36.1223 16.1268 36.3166 16.1791 36.511L16.2318 36.7232C16.2497 36.7759 16.2671 36.847 16.2845 36.9176C16.3019 36.9886 16.3194 37.0592 16.3547 37.1298C16.3725 37.183 16.39 37.2357 16.4074 37.3063C16.4423 37.4832 16.4776 37.6776 16.5303 37.8719C16.5477 37.9251 16.5652 37.9957 16.583 38.0663L16.6358 38.2785C16.6532 38.3317 16.6706 38.3844 16.7059 38.4555C16.7586 38.6851 16.8109 38.9148 16.8811 39.1623L16.9334 39.3745C16.9513 39.4277 16.9687 39.4983 16.9861 39.5689C17.0036 39.6395 17.021 39.7105 17.0563 39.7811C17.3016 40.0282 17.5117 40.1698 17.6873 40.4527C17.7222 40.4705 17.7575 40.488 17.8098 40.5233C18.4055 41.2658 17.442 41.0536 17.6346 41.6371L17.6873 44.6423C17.74 44.7129 17.7923 44.7835 17.8625 44.8719C17.8804 44.9068 17.8974 44.9425 17.9327 44.9953C17.9327 45.0659 17.9505 45.1365 17.9679 45.2071H17.8625C17.776 45.3486 17.6999 45.4963 17.635 45.6489C17.5823 45.6489 17.5823 45.7901 17.635 45.7901C17.6524 45.8786 17.6699 45.9849 17.6877 46.0904C17.7405 46.5153 17.7928 46.9389 17.8629 47.3808C17.8808 47.4871 17.8978 47.6104 17.9331 47.7346L17.9858 48.0523C18.0032 48.1408 18.0207 48.2471 18.056 48.3526L18.161 49.3601C18.1789 49.4485 18.1963 49.537 18.2312 49.6425C18.5467 50.0665 18.8796 50.5088 19.2121 50.9507C19.23 50.9864 19.2474 51.0213 19.2823 51.0562C19.3873 51.1804 19.5098 51.3037 19.6326 51.4453C20.2458 51.4274 20.8594 51.4104 21.49 51.4104C21.49 51.5338 21.49 51.5338 21.4377 51.5338L21.3849 51.5865C21.3515 51.6213 21.3273 51.6641 21.3148 51.7107L21.262 51.7634L21.2093 52.771C21.1217 52.9122 21.0341 53.0534 20.9644 53.2129C20.9465 53.4425 20.9291 53.6726 20.9117 53.9193C20.8241 54.0783 20.7539 54.2374 20.6838 54.4147C20.6489 54.6265 20.631 54.8388 20.6136 55.0684H20.3334V54.362C20.421 54.1324 20.5086 53.9193 20.6136 53.7075V53.0717C20.6838 52.9305 20.7713 52.7884 20.8589 52.6468C20.9117 52.6468 20.9117 51.7992 20.8589 51.7992C16.0047 51.7813 16.0047 51.7813 16.0047 51.834C15.9694 51.834 15.952 51.834 15.9346 51.8519C14.7606 51.834 13.5866 51.834 12.43 51.834C12.3598 51.8519 12.3075 51.8698 12.2548 51.8868L8.8727 51.9404V52.0637C10.1522 52.0637 11.4312 52.0816 12.7281 52.0994C13.4463 52.0816 14.1649 52.0637 14.8835 52.0637V52.5413C15.4312 52.5064 15.8605 52.6272 16.4606 52.8237C16.4959 52.8416 16.5307 52.8586 16.5835 52.8943C17.4245 53.2477 17.9679 53.8661 18.5109 54.5917C18.5284 54.6265 18.5462 54.6623 18.5811 54.715C18.6334 54.8035 18.6861 54.9089 18.7389 55.0153C18.6164 55.0153 18.5109 55.0153 18.4059 55.0331C18.3357 54.9447 18.2835 54.8562 18.2307 54.7677C18.1954 54.7329 18.178 54.6971 18.1606 54.6623C18.0555 54.5202 17.9505 54.3969 17.8625 54.2731C17.7114 54.253 17.5594 54.2411 17.4071 54.2374C17.3369 53.707 17.3369 53.707 17.2846 53.6543C17.2846 53.6016 17.2846 53.6016 17.1617 53.6016V54.2374H16.8114C16.7733 53.9203 16.7441 53.6022 16.7238 53.2834L16.356 53.1244C16.3033 53.1065 16.2684 53.0895 16.2331 53.0895C16.0779 53.034 15.9199 52.9866 15.7598 52.9475L15.7075 53.5314H15.3044C15.2691 53.3018 15.2517 53.0717 15.2343 52.859C15.1641 52.859 15.1118 52.8769 15.0591 52.8947C15.0765 53.1065 15.094 53.3187 15.1293 53.5314H14.7087V52.8947C14.7087 52.7705 14.5549 52.8616 14.4947 52.8912C14.4947 53.086 14.4808 53.3362 14.4808 53.5314H14.0777C14.0424 53.3545 14.025 53.1776 14.0075 53.0011C13.8498 53.0538 13.692 53.1065 13.5517 53.1593C13.499 53.1593 13.4641 53.1593 13.4293 53.1771C13.2715 53.2477 13.1137 53.3362 12.956 53.4246C12.9386 53.707 12.9211 54.0077 12.9033 54.308H12.6052L12.5525 53.7776C12.4649 53.7955 12.4649 53.7955 12.43 53.8661C12.4126 54.0073 12.3947 54.1485 12.3773 54.308H11.9567L11.904 54.4143C11.8339 54.4849 11.7811 54.5734 11.7288 54.6618L11.6761 54.7673C11.5844 54.878 11.5024 54.9963 11.4312 55.1212C11.3262 55.1033 11.1967 55.1133 11.1091 55.0954C11.3684 54.4853 11.8129 53.9293 12.3524 53.49C12.9451 53.0089 13.6532 52.6694 14.3575 52.5579C14.4747 52.5282 14.5911 52.4982 14.7083 52.4694L14.6556 52.3631C14.1653 52.4014 13.7295 52.4855 13.3072 52.6577C12.861 52.8389 12.4383 53.0917 12.0888 53.4229C11.6225 53.8657 11.2678 54.355 10.9758 54.9438C10.9423 54.9783 10.9182 55.0207 10.9056 55.0671V55.1207C10.3064 55.1225 9.72858 55.1225 9.15029 55.1225Z" fill="white"/>
<path fill-rule="evenodd" clip-rule="evenodd" d="M29.4414 32.0205H29.9848C30.3177 32.0205 30.4576 31.9852 30.4576 32.445V32.692C30.4576 32.7452 30.4576 32.7979 30.5278 32.7979C30.6154 32.7979 30.6328 32.6742 30.6507 32.5861L30.8786 31.7555C30.8786 31.7024 30.896 31.6318 30.896 31.5791C30.896 31.5433 30.8786 31.5259 30.8433 31.5259C30.791 31.5259 30.7736 31.5612 30.7383 31.6322C30.7034 31.6854 30.6855 31.756 30.6158 31.7913C30.5108 31.827 30.3177 31.827 30.2127 31.827H28.0748C28.022 31.827 27.8468 31.8444 27.7941 31.8087C27.7239 31.7734 27.7239 31.7028 27.7239 31.6501C27.7239 31.5795 27.7239 31.5085 27.6538 31.5085C27.5662 31.5085 27.5488 31.6675 27.5313 31.756L27.3039 32.5866C27.3039 32.6219 27.2686 32.7456 27.2686 32.7809C27.2686 32.8162 27.3039 32.8515 27.3387 32.8515C27.3914 32.8515 27.4263 32.7631 27.4437 32.7099C27.5139 32.5508 27.6189 32.3739 27.7418 32.268C28.005 32.0209 28.2674 32.0209 28.6003 32.0209H28.9332L28.0046 35.644C27.9519 35.8031 27.8991 36.0332 27.7941 36.1387C27.7065 36.2276 27.5666 36.2097 27.4612 36.2276C27.391 36.2276 27.3034 36.2454 27.3034 36.3513C27.3034 36.4572 27.4612 36.4219 27.496 36.4219C27.6887 36.4041 27.8817 36.3866 28.0743 36.3866C28.3197 36.3866 28.565 36.4041 28.7929 36.4219C28.8627 36.4219 28.9154 36.4041 28.9154 36.3335C28.9154 36.2097 28.7929 36.2276 28.7402 36.2276C28.5999 36.2097 28.4247 36.2276 28.4247 35.9975C28.4247 35.909 28.4774 35.7504 28.4949 35.644L29.4414 32.0205ZM30.4049 36.1208C30.3875 36.174 30.3522 36.262 30.3522 36.3152C30.3522 36.4032 30.5273 36.3858 30.5622 36.3858C30.7727 36.3858 30.7548 36.3152 30.825 36.0855C31.0529 35.2196 31.3157 34.7071 31.561 34.318C31.7362 34.0351 32.2622 33.381 32.5424 33.381C32.7878 33.381 32.9107 33.6464 32.8754 34.0347C32.8052 34.8479 32.3847 36.3147 31.9641 36.3147C31.7362 36.3147 31.7715 35.8903 31.5785 35.8903C31.5504 35.8893 31.5225 35.8941 31.4964 35.9044C31.4703 35.9148 31.4467 35.9304 31.4269 35.9504C31.4072 35.9703 31.3918 35.9941 31.3817 36.0203C31.3717 36.0465 31.3671 36.0745 31.3684 36.1025C31.3684 36.3849 31.6312 36.4733 31.8064 36.4733C32.6126 36.4733 33.3133 34.8296 33.3312 34.0874C33.3486 33.5571 33.2083 33.0446 32.7355 33.0446C32.1397 33.0446 31.4037 34.2644 31.1932 34.6884H31.1754L31.999 31.5424C31.999 31.5246 32.0339 31.3834 32.0339 31.3481C32.0339 31.3302 32.0164 31.2949 31.999 31.2949C31.9816 31.2949 31.9641 31.3128 31.9463 31.3128C31.7183 31.4897 31.4377 31.5424 31.1749 31.5603C31.1222 31.5603 31.0525 31.5782 31.0525 31.6488C31.0525 31.7015 31.0699 31.7194 31.1052 31.7194L31.2277 31.7015C31.368 31.7015 31.4556 31.7372 31.4556 31.9312C31.4556 32.0375 31.3854 32.2493 31.368 32.3556L30.4049 36.1208ZM34.0145 35.0252H34.0847C34.7505 34.9368 36.1176 34.7956 36.1176 33.7349C36.1176 33.2756 35.7498 33.0455 35.399 33.0455C34.4529 33.0455 33.5238 34.1942 33.5238 35.3255C33.5238 35.9617 33.8572 36.4742 34.4002 36.4742C34.856 36.4742 35.2765 36.1561 35.5742 35.7674C35.5916 35.7142 35.7319 35.5377 35.7319 35.4845C35.7319 35.4493 35.7145 35.4314 35.6792 35.4314C35.6618 35.4314 35.6265 35.4493 35.609 35.4845C35.4164 35.8384 35.0133 36.1561 34.6455 36.1561C34.2075 36.1561 33.9971 35.7848 33.9971 35.3076V35.1486L34.0145 35.0252ZM34.0324 34.8836C34.1727 34.1942 34.6455 33.1867 35.3293 33.1867C35.5572 33.1867 35.6796 33.3279 35.6796 33.5932C35.6796 33.8408 35.592 34.0883 35.4696 34.2827C35.1889 34.7071 34.4878 34.8483 34.0324 34.8836ZM32.7006 42.9957C32.7006 43.6503 32.5781 44.8164 31.0359 44.8164C29.3533 44.8164 29.3533 43.4733 29.3533 42.7133V39.2846C29.3533 38.8606 29.3533 38.5777 29.8619 38.5424C30.072 38.5246 30.2123 38.5067 30.2123 38.3655C30.2123 38.1886 30.0894 38.1886 30.0197 38.1886C29.9495 38.1886 29.5115 38.2418 28.8282 38.2418C28.1623 38.2418 27.7767 38.1886 27.6717 38.1886C27.6015 38.1886 27.479 38.1886 27.479 38.3477C27.479 38.5067 27.6194 38.5241 27.8294 38.542C28.3201 38.5594 28.3201 38.8601 28.3201 39.3194V42.8898C28.3201 44.7275 29.5468 45.1341 30.8786 45.1341C33.0688 45.1341 33.0688 43.5614 33.0688 42.9426V39.5317C33.0688 38.63 33.1739 38.5594 33.6293 38.5241C33.7521 38.5063 33.9278 38.5063 33.9278 38.3477C33.9278 38.3124 33.9099 38.1886 33.77 38.1886C33.6297 38.1886 33.2092 38.2418 32.8235 38.2418C32.3681 38.2418 32.1576 38.1886 31.9999 38.1886C31.9123 38.1886 31.7724 38.1886 31.7724 38.3298C31.7724 38.4893 31.8948 38.5067 32.1053 38.5067C32.6313 38.5599 32.701 38.6836 32.701 39.6027L32.7006 42.9957ZM39.4644 43.2611L36.1524 38.5241C36.0823 38.4182 35.9947 38.1882 35.8195 38.1882C35.6792 38.1882 35.4517 38.2413 35.1711 38.2413C34.8556 38.2413 34.4176 38.1882 34.3126 38.1882C34.1374 38.1882 34.0145 38.206 34.0145 38.3472C34.0145 38.5063 34.1722 38.5063 34.3827 38.5237C34.8207 38.5237 34.8909 38.6296 34.8909 39.4781V43.1191C34.8909 44.6212 34.8386 44.6561 34.418 44.7267C33.9975 44.7803 33.9622 44.7981 33.9622 44.9215C33.9622 45.0626 34.1025 45.0626 34.1374 45.0626C34.3126 45.0626 34.7505 45.0269 35.2412 45.0269C35.5567 45.0269 35.9245 45.0626 36.03 45.0626C36.1176 45.0626 36.2753 45.0626 36.2753 44.9036C36.2753 44.7624 36.2226 44.7624 35.8374 44.7267C35.3994 44.6918 35.2765 44.5855 35.2591 42.9944L35.2238 39.2301L35.2412 39.1944L39.4117 45.0095C39.5694 45.257 39.6396 45.257 39.7272 45.257C39.8675 45.257 39.8675 45.0443 39.8675 44.9389L39.8496 39.2122C39.8322 38.6113 39.99 38.5934 40.3403 38.5407C40.6384 38.5228 40.726 38.4875 40.726 38.3638C40.726 38.1868 40.6035 38.1868 40.5508 38.1868C40.3931 38.1868 39.657 38.24 39.4997 38.24C39.3768 38.24 38.8338 38.1868 38.7284 38.1868C38.6582 38.1868 38.483 38.1868 38.483 38.3459C38.483 38.505 38.6233 38.505 38.921 38.5224C39.3062 38.5403 39.4112 38.5403 39.4465 39.8659L39.4818 43.2415L39.4644 43.2611ZM42.7241 39.2846C42.7241 38.8606 42.7241 38.5777 43.2143 38.5424C43.4074 38.5246 43.5651 38.5067 43.5651 38.3655C43.5651 38.1886 43.4248 38.1886 43.3551 38.1886C43.2148 38.1886 42.8997 38.2418 42.1985 38.2418C41.6024 38.2418 41.2346 38.1886 41.0419 38.1886C40.9544 38.1886 40.8319 38.1886 40.8319 38.3477C40.8319 38.5067 40.9722 38.5241 41.1823 38.542C41.673 38.5773 41.673 38.8601 41.673 39.3194V43.9501C41.673 44.392 41.673 44.6744 41.1823 44.7271C40.9722 44.7271 40.8319 44.745 40.8319 44.904C40.8319 45.0631 40.9544 45.0631 41.0419 45.0631C41.1295 45.0631 41.6202 45.0273 42.1811 45.0273C42.8291 45.0273 43.1446 45.0631 43.3551 45.0631C43.4248 45.0631 43.5651 45.0631 43.5651 44.904C43.5651 44.745 43.4248 44.7271 43.2143 44.7271C42.7241 44.6922 42.7241 44.3915 42.7241 43.9322V39.2846Z" fill="black"/>
<path fill-rule="evenodd" clip-rule="evenodd" d="M48.9446 39.5504C49.2248 38.7198 49.3473 38.5786 49.5752 38.5429C49.9609 38.4897 49.9957 38.4718 49.9957 38.3306C49.9957 38.1895 49.8733 38.1895 49.8206 38.1895C49.6802 38.1895 49.207 38.2426 48.9446 38.2426C48.6287 38.2426 48.1733 38.1895 48.1206 38.1895C48.0151 38.1895 47.8574 38.1895 47.8574 38.3485C47.8574 38.5076 47.9798 38.5076 48.2779 38.525C48.4361 38.5429 48.6814 38.5956 48.6814 38.861C48.6814 39.0732 48.5938 39.3203 48.5062 39.5857L47.1919 43.3326L45.7194 39.3913C45.5621 38.9495 45.5094 38.8614 45.5094 38.8083C45.5094 38.5607 45.6497 38.5607 46.1051 38.4906C46.1927 38.4906 46.2803 38.4553 46.2803 38.3489C46.2803 38.2252 46.1757 38.1899 46.0881 38.1899C45.895 38.1899 45.5969 38.2431 45.054 38.2431C44.3706 38.2431 43.8447 38.1899 43.6699 38.1899C43.5993 38.1899 43.5117 38.2252 43.5117 38.3311C43.5117 38.4906 43.6172 38.4906 43.8277 38.508C44.1257 38.5437 44.2133 38.579 44.4761 39.268L46.6132 44.9947C46.6838 45.1716 46.7365 45.2243 46.8062 45.2243C46.876 45.2243 46.9466 45.0831 46.9636 45.0295L48.9446 39.5504Z" fill="black"/>
<path fill-rule="evenodd" clip-rule="evenodd" d="M50.8017 43.9335C50.8017 44.3932 50.8017 44.6756 50.3106 44.7113C50.1184 44.7283 49.9607 44.7462 49.9607 44.9053C49.9607 45.0643 50.0831 45.0643 50.1707 45.0643C50.2405 45.0643 50.3102 45.0465 50.4688 45.0465C50.6261 45.0286 50.8715 45.0286 51.275 45.0286H51.3975C51.4502 45.0286 51.9056 45.0286 52.4664 45.0465C53.0273 45.0465 53.7106 45.0643 54.2187 45.0643C54.4989 45.0643 54.6044 44.941 54.6044 44.7283C54.6393 44.34 54.7438 43.6328 54.7438 43.4916C54.7438 43.421 54.709 43.3325 54.6214 43.3325C54.5338 43.3325 54.5168 43.3682 54.3412 43.7565C53.9207 44.6756 53.3071 44.6756 52.8687 44.6756C52.0625 44.6756 51.8524 44.5701 51.8524 43.7923V41.901C51.8524 41.565 51.923 41.565 52.3954 41.565C53.2025 41.565 53.4644 41.5828 53.6749 42.4309C53.7276 42.6248 53.7803 42.6963 53.8679 42.6963C53.9734 42.6963 53.9734 42.5372 53.9734 42.4666C53.9734 42.3781 53.9555 42.0064 53.9555 41.9184C53.9555 41.6883 54.0252 40.557 54.0252 40.3984C54.0252 40.2746 53.9734 40.2393 53.9207 40.2393C53.8679 40.2393 53.8152 40.2746 53.7633 40.4158C53.5882 40.9815 53.5001 41.229 52.4133 41.229C51.8524 41.229 51.8524 41.1405 51.8524 40.7871V39.1965C51.8524 38.6487 51.8882 38.5781 52.3784 38.5781C53.7633 38.5781 54.0082 39.0021 54.1128 39.285C54.288 39.6915 54.3059 39.7268 54.4288 39.7268C54.5164 39.7268 54.5164 39.6031 54.5164 39.5499V38.5424C54.5164 38.2774 54.5164 38.1885 54.3939 38.1885C54.376 38.1885 54.3582 38.2064 54.1128 38.2238C53.8496 38.2238 53.3415 38.2417 52.3431 38.2417H51.8699C51.0458 38.2417 50.6257 38.2238 50.3982 38.2238C50.1873 38.2064 50.1703 38.1885 50.1524 38.1885C50.0827 38.1885 49.9602 38.1885 49.9602 38.3476C49.9602 38.5066 50.1006 38.5241 50.3102 38.5419C50.8013 38.5594 50.8013 38.8601 50.8013 39.3194L50.8017 43.9335ZM55.8133 43.9513C55.8133 44.4111 55.8133 44.6935 55.323 44.7283C55.13 44.7462 54.9722 44.7641 54.9722 44.9053C54.9722 45.0822 55.1125 45.0643 55.1822 45.0643C55.3574 45.0643 56.1458 45.0286 56.3209 45.0286C56.3558 45.0286 57.3023 45.0643 57.4954 45.0643C57.5651 45.0643 57.6876 45.0822 57.6876 44.9231C57.6876 44.7641 57.5651 44.7462 57.3368 44.7283C56.8465 44.7113 56.8465 44.4106 56.8465 43.9513V41.9716C56.8465 41.7951 56.8814 41.724 57.0396 41.724C57.4771 41.724 57.5298 41.7772 57.7399 42.237L58.9313 44.7283C59.0359 44.9759 59.0716 45.0643 59.2472 45.0643C59.3348 45.0643 59.7026 45.0286 59.7724 45.0286C59.9297 45.0286 60.5616 45.0643 60.684 45.0643C60.7537 45.0643 60.8592 45.0465 60.8592 44.941C60.8592 44.7998 60.7716 44.7819 60.4557 44.7283C60.1755 44.6935 60.0351 44.4285 59.843 44.0398L58.8964 42.1485C58.6685 41.6887 58.5635 41.6181 58.4232 41.5297C58.7561 41.4591 59.7724 41.1937 59.7724 39.9212C59.7724 39.5325 59.615 38.189 57.8972 38.189C57.5991 38.189 56.3031 38.2421 56.0399 38.2421C55.9174 38.2421 55.4442 38.189 55.3387 38.189C55.0236 38.189 54.9709 38.189 54.9709 38.348C54.9709 38.5071 55.1112 38.5071 55.3217 38.5245C55.812 38.5598 55.812 38.8605 55.812 39.3024V43.9513H55.8133ZM56.8474 39.1969C56.8474 38.7729 56.8652 38.5075 57.3206 38.5075C58.5291 38.5075 58.6698 39.6741 58.6698 40.0628C58.6698 41.4412 57.6884 41.4412 57.3376 41.4412C56.8474 41.4412 56.8474 41.4233 56.8474 41.0346V39.1969ZM64.6985 42.8911C64.6985 41.6539 63.6643 41.1235 63.1214 40.8581C62.35 40.5047 61.7713 40.2219 61.7713 39.4445C61.7713 39.02 62.0345 38.4012 62.8403 38.4012C63.646 38.4012 63.8217 39.02 63.9441 39.4445C64.0496 39.7804 64.0844 39.851 64.172 39.851C64.3124 39.851 64.3124 39.7626 64.3124 39.515C64.3124 38.5607 64.3124 38.4548 64.2069 38.3838C64.0666 38.3132 63.4887 38.1362 62.9104 38.1362C61.6833 38.1362 60.9995 39.0021 60.9995 40.0097C60.9995 41.1763 61.7709 41.6003 62.5596 42.0069C63.2599 42.3607 63.9267 42.7843 63.9267 43.6328C63.9267 44.5161 63.1728 44.8525 62.7701 44.8525C62.0689 44.8525 61.4031 44.1631 61.2109 43.173C61.193 43.0846 61.1751 42.9961 61.0876 42.9961C60.9651 42.9961 60.9481 43.1552 60.9481 43.1909C60.9302 43.58 60.9302 44.1278 60.9302 44.1806C60.9302 44.4451 60.9302 44.6046 61.0357 44.693C61.2109 44.8342 61.8419 45.1349 62.5949 45.1349C63.8914 45.1354 64.6985 44.1108 64.6985 42.8911ZM66.941 39.2854C66.941 38.8614 66.941 38.5785 67.4143 38.5432C67.6243 38.5254 67.7821 38.5075 67.7821 38.3663C67.7821 38.1894 67.6418 38.1894 67.572 38.1894C67.4147 38.1894 67.1166 38.2426 66.3985 38.2426C65.8027 38.2426 65.4519 38.1894 65.2589 38.1894C65.1713 38.1894 65.0488 38.1894 65.0488 38.3485C65.0488 38.5075 65.1892 38.5249 65.3996 38.5428C65.8899 38.5781 65.8899 38.8609 65.8899 39.3203V43.9509C65.8899 44.3928 65.8899 44.6752 65.3996 44.7279C65.1896 44.7279 65.0488 44.7458 65.0488 44.9048C65.0488 45.0639 65.1713 45.0639 65.2589 45.0639C65.3465 45.0639 65.8376 45.0282 66.3985 45.0282C67.046 45.0282 67.362 45.0639 67.572 45.0639C67.6418 45.0639 67.7821 45.0639 67.7821 44.9048C67.7821 44.7458 67.6418 44.7279 67.4143 44.7279C66.941 44.693 66.941 44.3923 66.941 43.933V39.2854ZM71.2871 38.9494C71.2871 38.5781 71.3389 38.5781 71.8998 38.5781C72.5304 38.5781 73.0036 38.5781 73.1793 39.6384C73.2141 39.868 73.2847 39.868 73.3374 39.868C73.4599 39.868 73.4769 39.7443 73.4769 39.5146L73.5475 38.189C73.5475 37.924 73.5475 37.7471 73.4242 37.7471C73.3375 37.7471 73.3017 37.8177 73.2847 37.9061C73.2141 38.1005 73.1623 38.2421 72.163 38.2421H69.0267C68.7988 38.2421 68.6231 38.2243 68.5713 37.9414C68.5713 37.8355 68.5355 37.7824 68.4658 37.7824C68.3782 37.7824 68.3434 37.853 68.3085 37.9767L67.905 39.5142C67.905 39.5848 67.888 39.6379 67.888 39.6907C67.888 39.7613 67.9398 39.8323 68.0104 39.8323C68.098 39.8323 68.1499 39.7966 68.2375 39.6201C68.7286 38.5772 69.377 38.5772 69.9728 38.5772C70.1649 38.5772 70.2351 38.5772 70.2351 38.8601V43.9505C70.2351 44.3923 70.2351 44.6747 69.7448 44.7105C69.5527 44.7275 69.4119 44.7453 69.4119 44.9044C69.4119 45.0635 69.5344 45.0635 69.622 45.0635C69.7971 45.0635 70.5855 45.0277 70.7607 45.0277C71.0766 45.0277 71.5847 45.0635 71.9172 45.0635C71.987 45.0635 72.1094 45.0635 72.1094 44.9044C72.1094 44.7275 71.987 44.7275 71.7765 44.7105C71.2862 44.6747 71.2862 44.3923 71.2862 43.9326V38.9494H71.2871ZM76.4738 41.9899C76.5614 42.1132 76.5614 42.2017 76.5614 42.2544V43.9518C76.5614 44.3937 76.5614 44.676 76.0703 44.7288C75.8602 44.7288 75.7203 44.7466 75.7203 44.9057C75.7203 45.0648 75.8428 45.0648 75.9125 45.0648C75.9822 45.0648 76.5779 45.029 77.192 45.029C77.5079 45.029 77.9633 45.0648 78.2261 45.0648C78.3137 45.0648 78.4361 45.0648 78.4361 44.9057C78.4361 44.7288 78.2958 44.7288 78.0853 44.7118C77.5942 44.676 77.5942 44.3937 77.5942 43.9339V41.972C77.5942 41.8308 77.6299 41.7776 77.6648 41.7245L78.8732 39.692C79.4519 38.738 79.6624 38.508 80.1004 38.508C80.1522 38.508 80.2926 38.4552 80.2926 38.3489C80.2926 38.2604 80.2228 38.1898 80.1352 38.1898C80.0477 38.1898 79.6441 38.243 79.2763 38.243C78.7155 38.243 78.5581 38.1898 78.3477 38.1898C78.2422 38.1898 78.0666 38.1898 78.0666 38.3668C78.0666 38.508 78.2418 38.5258 78.3124 38.5258C78.6453 38.5437 78.8554 38.5437 78.8554 38.8086C78.8554 39.0209 78.6104 39.4623 78.5394 39.5865L77.4186 41.5131L75.9988 39.1446C75.8066 38.8265 75.8066 38.7733 75.8066 38.7202C75.8066 38.5964 75.8933 38.5437 76.1565 38.5437C76.4546 38.5258 76.5601 38.4905 76.5601 38.3493C76.5601 38.1903 76.4546 38.1903 76.3143 38.1903C76.2097 38.1903 75.9992 38.2434 75.088 38.2434C74.3345 38.2434 74.1942 38.1903 73.9672 38.1903C73.7741 38.1903 73.6342 38.1903 73.6342 38.3493C73.6342 38.491 73.6691 38.5084 74.0369 38.5437C74.1593 38.5611 74.3877 38.5964 74.8261 39.3211L76.4738 41.9899ZM40.5504 48.7946C40.8484 47.964 40.9535 47.822 41.1988 47.7871C41.5666 47.7344 41.6193 47.7165 41.6193 47.5932C41.6193 47.4511 41.479 47.4511 41.4442 47.4511C41.2864 47.4511 40.831 47.4868 40.5682 47.4868C40.2527 47.4868 39.7969 47.4511 39.7446 47.4511C39.6221 47.4511 39.4639 47.4511 39.4639 47.5932C39.4639 47.7514 39.6043 47.7692 39.8845 47.7692C40.0597 47.7871 40.2876 47.8398 40.2876 48.1052C40.2876 48.317 40.2174 48.5641 40.1124 48.8295L38.8155 52.5764L37.3439 48.6356C37.1687 48.1937 37.1338 48.1052 37.1338 48.0516C37.1338 47.822 37.2737 47.805 37.7295 47.7339C37.8171 47.7339 37.9047 47.6982 37.9047 47.5927C37.9047 47.4685 37.7997 47.4507 37.7121 47.4507C37.5195 47.4507 37.2214 47.4864 36.6606 47.4864C35.9772 47.4864 35.4691 47.4507 35.2935 47.4507C35.2233 47.4507 35.1357 47.4685 35.1357 47.5927C35.1357 47.7339 35.2408 47.7339 35.4512 47.7688C35.7493 47.7867 35.8365 47.8215 36.0818 48.5109L38.2372 54.2554C38.3074 54.4145 38.3422 54.4851 38.4124 54.4851C38.5 54.4851 38.5702 54.326 38.5876 54.2733L40.5504 48.7946ZM42.5306 53.1769C42.5306 53.6366 42.5306 53.9369 42.0403 53.9548C41.8303 53.9905 41.6899 53.9905 41.6899 54.1496C41.6899 54.3077 41.8124 54.3077 41.8826 54.3077C41.9527 54.3077 42.0403 54.3077 42.1981 54.2907C42.3384 54.2729 42.5833 54.2729 42.9868 54.2729H43.1093C43.162 54.2729 43.6344 54.2729 44.1783 54.2907C44.7561 54.3077 45.4399 54.3077 45.9306 54.3077C46.2108 54.3077 46.3153 54.1844 46.3332 53.9901C46.3511 53.583 46.4557 52.8758 46.4557 52.7346C46.4557 52.664 46.4387 52.5755 46.3511 52.5755C46.2635 52.5755 46.2456 52.6112 46.053 53.0004C45.6325 53.9365 45.0189 53.9365 44.5984 53.9365C43.7743 53.9365 43.5642 53.8131 43.5642 53.0352V51.1439C43.5642 50.8084 43.6518 50.8084 44.1072 50.8084C44.9134 50.8084 45.1941 50.8263 45.4046 51.6747C45.4394 51.8865 45.5091 51.9393 45.5797 51.9393C45.7022 51.9393 45.7022 51.7802 45.7022 51.7096C45.7022 51.6211 45.6673 51.2498 45.6673 51.1614C45.6673 50.9317 45.7371 49.8004 45.7371 49.6414C45.7371 49.518 45.6843 49.4832 45.6325 49.4832C45.5797 49.4832 45.527 49.518 45.4922 49.6592C45.317 50.2423 45.2111 50.472 44.143 50.472C43.5642 50.472 43.5642 50.3844 43.5642 50.0301V48.4573C43.5642 47.9091 43.5991 47.8207 44.0902 47.8207C45.4922 47.8207 45.7192 48.2455 45.8425 48.5279C46.0168 48.935 46.0347 48.9698 46.1397 48.9698C46.2452 48.9698 46.2452 48.8465 46.2452 48.7938V47.7862C46.2452 47.5387 46.2452 47.4502 46.1227 47.4502C46.0879 47.4502 46.0879 47.4502 45.8247 47.4681C45.5614 47.4681 45.0712 47.486 44.0545 47.486H43.5821C42.758 47.486 42.3379 47.4681 42.1275 47.4681C41.9 47.4502 41.9 47.4502 41.8821 47.4502C41.812 47.4502 41.6895 47.4502 41.6895 47.5923C41.6895 47.7684 41.812 47.7684 42.0399 47.7862C42.5301 47.8211 42.5301 48.1044 42.5301 48.5632L42.5306 53.1769ZM47.6297 53.1947C47.6297 53.6545 47.6297 53.9369 47.1394 53.9905C46.9472 53.9905 46.7886 54.0075 46.7886 54.1665C46.7886 54.3256 46.9289 54.3077 46.9987 54.3077C47.1738 54.3077 47.963 54.2729 48.1382 54.2729C48.1731 54.2729 49.1196 54.3077 49.3118 54.3077C49.3815 54.3077 49.504 54.3256 49.504 54.1665C49.504 54.0075 49.3815 53.9905 49.154 53.9905C48.6629 53.9548 48.6629 53.6545 48.6629 53.1947V51.215C48.6629 51.0389 48.6978 50.9683 48.856 50.9683C49.2935 50.9683 49.3462 51.0211 49.5563 51.4808L50.7477 53.9909C50.8532 54.2206 50.888 54.3086 51.0637 54.3086C51.1512 54.3086 51.519 54.2737 51.5888 54.2737C51.747 54.2737 52.378 54.3086 52.5004 54.3086C52.5702 54.3086 52.6756 54.3086 52.6756 54.1853C52.6756 54.0441 52.588 54.0262 52.2721 53.9914C51.9919 53.9378 51.8515 53.6732 51.6594 53.2841L50.7128 51.3928C50.4849 50.933 50.362 50.8803 50.2396 50.7918C50.5725 50.7034 51.5888 50.4384 51.5888 49.1664C51.5888 48.7772 51.4315 47.4511 49.7145 47.4511C49.4164 47.4511 48.1195 47.4868 47.8563 47.4868C47.7338 47.4868 47.2606 47.4511 47.156 47.4511C46.84 47.4511 46.7873 47.4511 46.7873 47.5932C46.7873 47.7514 46.9276 47.7692 47.1381 47.7692C47.6284 47.805 47.6284 48.1052 47.6284 48.5471V53.1947H47.6297ZM48.6638 48.4403C48.6638 48.0163 48.6817 47.7509 49.137 47.7509C50.3463 47.7509 50.4862 48.918 50.4862 49.3245C50.4862 50.6846 49.5049 50.6846 49.1549 50.6846C48.6638 50.6846 48.6638 50.6676 48.6638 50.2785V48.4403Z" fill="black"/>
<path fill-rule="evenodd" clip-rule="evenodd" d="M58.337 48.4231H58.3548L58.4245 53.1596C58.4424 53.6721 58.4246 53.9366 57.9862 53.9902C57.6881 54.0072 57.6005 54.0072 57.6005 54.1663C57.6005 54.3075 57.7059 54.3075 57.7757 54.3075C57.9687 54.3075 58.4938 54.2726 58.985 54.2726C59.3528 54.2726 59.8609 54.3075 60.0182 54.3075C60.1058 54.3075 60.264 54.3075 60.264 54.1663C60.264 54.043 60.1764 53.9902 59.9659 53.9902C59.5275 53.9902 59.5097 53.849 59.5097 53.1596L59.3702 48.5107C59.3523 47.9276 59.3702 47.7864 59.8256 47.7507C60.1058 47.7337 60.1934 47.7337 60.1934 47.5925C60.1934 47.4504 60.0539 47.4504 59.9485 47.4504C59.8439 47.4504 59.5807 47.4862 59.3528 47.4862C59.1427 47.4862 58.7571 47.4504 58.5466 47.4504C58.3893 47.4504 58.2834 47.4683 58.1609 47.8217L56.6017 52.2759L54.954 47.6984C54.8494 47.4509 54.7797 47.4509 54.6738 47.4509C54.5692 47.4509 54.3578 47.4866 54.0083 47.4866C53.7451 47.4866 53.2021 47.4509 53.0967 47.4509C52.9393 47.4509 52.8866 47.5045 52.8866 47.5929C52.8866 47.6984 52.9393 47.769 53.2723 47.7868C53.7107 47.7868 53.7277 47.7868 53.7277 48.3351C53.7277 49.7845 53.5176 53.001 53.5176 53.0895C53.5006 53.8495 53.3603 53.9201 53.0274 53.9728C52.7642 54.0077 52.6587 54.0434 52.6587 54.1667C52.6587 54.2909 52.7642 54.3079 52.8339 54.3079C52.9921 54.3079 53.3599 54.2731 53.7107 54.2731C54.1312 54.2731 54.4463 54.3079 54.5866 54.3079C54.6921 54.3079 54.8668 54.3079 54.8668 54.1497C54.8668 53.9907 54.7095 53.9907 54.499 53.9907C54.0088 53.9728 53.9212 53.9201 53.9212 52.2048C53.9212 51.0735 53.9909 49.8189 54.0606 48.5996H54.0785L56.0064 53.8665C56.0761 54.0613 56.1288 54.1497 56.2334 54.1497C56.3389 54.1497 56.3738 54.0434 56.4613 53.7776L58.337 48.4231ZM67.0108 50.7563C67.0108 48.882 65.5392 47.3798 63.7167 47.3798C61.8058 47.3798 60.3342 48.882 60.3342 50.8617C60.3342 52.9478 61.964 54.3785 63.681 54.3785C65.3461 54.3785 67.0108 52.8942 67.0108 50.7563ZM65.8372 50.809C65.8372 52.3996 65.1361 54.0961 63.752 54.0961C62.4377 54.0961 61.5086 52.3996 61.5086 50.6321C61.5086 49.0772 62.2276 47.6635 63.5947 47.6635C65.1539 47.6631 65.8372 49.5008 65.8372 50.809ZM72.4956 52.5229L69.1836 47.7685C69.1139 47.6801 69.0263 47.4504 68.8507 47.4504C68.7282 47.4504 68.4829 47.4862 68.2201 47.4862C67.9042 47.4862 67.4666 47.4504 67.3612 47.4504C67.1681 47.4504 67.0452 47.4504 67.0452 47.5925C67.0452 47.7685 67.2034 47.7685 67.4139 47.7685C67.8514 47.7685 67.922 47.8749 67.922 48.7233V52.3818C67.922 53.866 67.8872 53.9018 67.4488 53.9724C67.0452 54.0251 66.9934 54.043 66.9934 54.1663C66.9934 54.3075 67.1328 54.3075 67.1677 54.3075C67.3429 54.3075 67.7813 54.2726 68.2894 54.2726C68.5875 54.2726 68.9548 54.3075 69.0786 54.3075C69.1483 54.3075 69.3056 54.3075 69.3056 54.1663C69.3056 54.0072 69.2529 54.0072 68.8672 53.9902C68.4297 53.9366 68.3073 53.8312 68.3073 52.2401L68.2545 48.4754L68.2894 48.4575L72.4429 54.2548C72.6172 54.5023 72.6878 54.5023 72.7579 54.5023C72.8982 54.5023 72.8983 54.3075 72.8983 54.1842L72.8804 48.4575C72.8804 47.8566 73.0207 47.8387 73.3885 47.786C73.6696 47.7681 73.7572 47.7332 73.7572 47.609C73.7572 47.45 73.6347 47.45 73.582 47.45C73.4238 47.45 72.6882 47.4857 72.5479 47.4857C72.4076 47.4857 71.8646 47.45 71.7595 47.45C71.6889 47.45 71.5138 47.45 71.5138 47.5921C71.5138 47.7502 71.672 47.7681 71.9522 47.7681C72.3557 47.786 72.4603 47.786 72.4782 49.1112L72.513 52.4876L72.4956 52.5229ZM77.087 48.1934C77.087 47.8213 77.1397 47.8213 77.7006 47.8213C78.3312 47.8213 78.8223 47.8213 78.9801 48.882C79.0149 49.1116 79.0855 49.1116 79.1374 49.1116C79.2598 49.1116 79.2777 48.9883 79.2956 48.7761L79.3653 47.433C79.3653 47.1676 79.3653 46.9902 79.225 46.9902C79.1552 46.9902 79.1204 47.0617 79.0855 47.1493C79.0149 47.3441 78.9801 47.4853 77.9638 47.4853H74.8275C74.6174 47.4853 74.4418 47.4674 74.3891 47.185C74.3712 47.0787 74.3542 47.026 74.2666 47.026C74.179 47.026 74.1612 47.0966 74.1263 47.2208L73.7236 48.7756C73.7058 48.8284 73.6879 48.8811 73.6879 48.9347C73.6879 49.0053 73.7406 49.0938 73.8282 49.0938C73.9158 49.0938 73.9507 49.0402 74.0383 48.8641C74.5464 47.8204 75.1948 47.8204 75.7727 47.8204C75.9657 47.8204 76.0538 47.8204 76.0538 48.1037V53.2115C76.0538 53.6355 76.0538 53.9358 75.5626 53.9536C75.3526 53.9894 75.2118 53.9894 75.2118 54.1484C75.2118 54.3066 75.3522 54.3066 75.4227 54.3066C75.6149 54.3066 76.4041 54.2717 76.5614 54.2717C76.8944 54.2717 77.4025 54.3066 77.718 54.3066C77.8047 54.3066 77.9281 54.3066 77.9281 54.1484C77.9281 53.9894 77.7877 53.9715 77.5773 53.9536C77.0861 53.9358 77.0861 53.6355 77.0861 53.1758V48.1934H77.087Z" fill="black"/>
<path d="M27.4956 56.2695H80.2063" stroke="black" stroke-width="7.30198" stroke-miterlimit="2.613"/>
<path fill-rule="evenodd" clip-rule="evenodd" d="M30.2118 50.0842C30.2118 49.3957 29.8087 48.7411 29.213 48.7411C28.4068 48.7411 27.6533 49.6781 27.6533 50.6324C27.6533 51.2861 28.0216 51.9585 28.6173 51.9585C29.0204 51.9585 29.4758 51.6762 29.7564 51.3397C30.0188 51.0212 30.2118 50.5435 30.2118 50.0842ZM29.8261 49.7665C29.8261 50.5087 29.4056 51.799 28.6696 51.799C28.1963 51.799 28.0739 51.3214 28.0739 50.8442C28.0739 50.0842 28.477 48.8823 29.2479 48.8823C29.6863 48.8823 29.8261 49.3072 29.8261 49.7665ZM31.7013 49.0235H32.1567C32.192 49.0235 32.2622 49.0414 32.297 48.9887C32.3145 48.9538 32.3145 48.9181 32.3145 48.9002C32.3145 48.8296 32.2094 48.8475 32.192 48.8475H31.754L31.8591 48.4405C31.9292 48.1402 32.0343 47.7341 32.2094 47.5044C32.2622 47.4159 32.3846 47.3096 32.4901 47.3096C32.7354 47.3096 32.525 47.8221 32.8758 47.8221C33.0335 47.8221 33.1211 47.6988 33.1211 47.5223C33.1211 47.222 32.9111 47.1152 32.7006 47.1152C32.4374 47.1152 32.0347 47.3798 31.8421 47.6099C31.6142 47.9101 31.4917 48.352 31.3867 48.7411L31.3693 48.8475H31.0363C30.9309 48.8475 30.8611 48.8475 30.8611 48.9887C30.8611 49.0414 30.9662 49.0235 31.0014 49.0235H31.317L30.5809 51.9045C30.4933 52.2226 30.3534 52.8057 30.2131 53.0715C30.143 53.1949 30.0379 53.3191 29.915 53.3191C29.7921 53.3191 29.7921 53.2127 29.7921 53.1064C29.81 52.9125 29.7394 52.7172 29.5472 52.7172C29.4069 52.7172 29.3019 52.8414 29.3019 53.0005C29.3019 53.3186 29.6 53.4245 29.8274 53.4245C30.1783 53.4245 30.4585 53.177 30.6336 52.8414C30.8088 52.5233 30.879 52.2226 30.9845 51.8696L31.7013 49.0235Z" fill="black"/>
</g>
<defs>
<clipPath id="clip0_495_6102">
<rect width="84" height="84" fill="white"/>
</clipPath>
</defs>
</svg>
