<svg width="84" height="84" viewBox="0 0 84 84" fill="none" xmlns="http://www.w3.org/2000/svg">
<g clip-path="url(#clip0_495_6089)">
<rect width="84" height="84" fill="white"/>
<path fill-rule="evenodd" clip-rule="evenodd" d="M0 0H84V84H0V0Z" fill="white"/>
<path fill-rule="evenodd" clip-rule="evenodd" d="M10.5461 46.4903V46.584C9.75517 46.6768 9.70854 47.1884 9.66192 48.3049L9.61529 50.2132C9.61529 51.3297 9.10368 52.4923 7.19581 52.4923C4.497 52.4923 4.77634 50.5383 4.77634 49.8401V47.8861C4.77634 47.0028 4.77634 46.7234 3.70605 46.584V46.4903H6.68377V46.584C5.56729 46.7696 5.56729 46.9561 5.56729 47.8861V49.6549C5.56729 49.8406 5.28795 52.074 7.66123 52.074C9.52246 52.074 9.33638 50.306 9.33638 49.2362V48.3049C9.33638 47.235 9.24356 46.7234 8.03339 46.584V46.4903H10.5461ZM19.0143 51.0037L18.9677 47.8399C18.9677 47.0023 18.7349 46.7692 17.7579 46.5835V46.4898H20.1308V46.5835C19.5259 46.6764 19.4326 47.0023 19.3398 47.5606C19.2004 48.5376 19.247 50.6315 19.2936 52.4919L19.2004 52.5385C17.8045 50.9104 16.2688 49.3747 14.7802 47.7924V49.3747C14.7802 51.5615 14.7336 51.9803 15.9899 52.2592V52.352H13.4306V52.2592C14.5937 52.1197 14.5471 51.3288 14.5471 49.3747V48.0717C14.5471 47.1875 14.4076 46.8624 13.2907 46.5831V46.4894H14.7331L19.0143 51.0037ZM24.8307 50.9571C24.8307 51.8413 24.8307 52.1206 25.901 52.2601V52.3529H22.9695V52.2601C23.9931 52.1206 24.0397 51.8413 24.0397 50.9571V47.8861C24.0397 47.0028 23.9931 46.7234 22.9695 46.584V46.4903H25.901V46.584C24.8307 46.7234 24.8307 47.0028 24.8307 47.8861V50.9571ZM34.9274 46.4903V46.584C34.0898 46.6768 33.8571 47.3745 33.2988 48.6308L31.6703 52.586H31.5309L29.5768 47.8861C29.3441 47.235 29.1114 46.6768 28.3671 46.584V46.4903H31.1125V46.584C29.9028 46.7234 30.2749 47.4215 30.5076 47.9798L31.9035 51.3301L32.9271 48.8636C33.6714 47.0956 33.8113 46.8167 32.4621 46.5844V46.4907L34.9274 46.4903ZM37.3473 52.2601C38.3709 52.1206 38.4176 51.8413 38.4176 50.9571V47.8861C38.4176 47.0028 38.3714 46.7234 37.3473 46.584V46.4903H42.0001L41.9073 47.7933H41.7679C41.7212 46.6768 40.8837 46.6768 40.0461 46.6768H39.2085V49.1425H40.0923C40.7438 49.1425 41.2554 49.0967 41.3486 48.3519H41.4415V50.306H41.3486C41.2092 49.5155 40.7438 49.5155 40.0923 49.5155H39.2081V50.9575C39.2081 51.47 39.0686 52.1677 40.5111 52.1677C41.5814 52.1677 42.1396 51.7489 42.3257 50.6324H42.4651C42.4651 51.3305 42.3257 51.8417 42.1862 52.3533H37.3473V52.2601ZM47.3507 46.6297C48.2349 46.6297 49.1195 47.0485 49.1195 48.0726C49.1195 49.003 48.1425 49.3756 47.3507 49.4218V46.6297ZM46.5602 50.9571C46.5602 51.8413 46.5136 52.1206 45.4903 52.2601V52.3529H48.5142V52.2601C47.3507 52.0735 47.3507 51.8879 47.3507 50.9571V49.5612C47.956 49.6549 48.2349 49.4684 48.6071 50.1665C48.7936 50.5387 49.2124 51.283 49.8172 51.8883C50.2818 52.3999 50.9799 52.3999 51.9112 52.4466V52.3071C50.5154 52.0278 49.6778 50.5383 48.9797 49.3756L48.933 49.2819C49.5841 49.0026 50.0029 48.5838 50.0029 47.8861C50.0029 47.4673 49.8634 46.3975 47.6767 46.4441L45.5361 46.5369V46.6297C46.5131 46.7234 46.5602 46.9557 46.5602 48.2587V50.9571ZM57.4478 47.9798H57.3084C57.1689 47.2817 56.9833 46.6297 56.0991 46.6297C55.5408 46.6297 55.075 47.0023 55.075 47.561C55.075 49.0963 57.8209 49.003 57.8209 50.7714C57.8209 51.8879 56.7044 52.4923 55.7269 52.4923C55.1812 52.4878 54.6483 52.3266 54.1916 52.0278L53.9585 50.5383H54.0979C54.3311 51.3759 54.8893 52.2134 55.8197 52.2134C56.4708 52.2134 56.9833 51.8413 56.9833 51.1436C56.9833 49.6083 54.3311 49.7478 54.3311 48.026C54.3311 47.0028 55.3543 46.3508 56.2851 46.3508C56.7039 46.3508 57.1685 46.4903 57.5415 46.6768L57.4478 47.9798ZM62.7988 50.9571C62.7988 51.8413 62.7988 52.1206 63.8687 52.2601V52.3529H60.9371V52.2601C61.9612 52.1206 62.0079 51.8413 62.0079 50.9571V47.8861C62.0079 47.0028 61.9612 46.7234 60.9371 46.584V46.4903H63.8687V46.584C62.7988 46.7234 62.7988 47.0028 62.7988 47.8861V50.9571ZM72.1054 46.2109H72.1982L72.2911 47.8399H72.1982C71.8723 46.7692 71.4077 46.7234 70.3836 46.7234H69.872V50.7248C69.872 51.7946 69.9178 52.1206 71.0813 52.2601V52.3529H67.9175V52.2601C69.0802 52.1206 69.1268 51.7946 69.1268 50.7248V46.7234H68.6152C67.5911 46.7234 67.1257 46.7692 66.7997 47.8399H66.7069L66.7997 46.2109H66.8934L66.9863 46.3046C67.2194 46.4903 67.2194 46.4903 67.4987 46.4903H71.5001C71.7794 46.4903 71.8261 46.4903 72.0117 46.3046L72.1054 46.2109ZM80.2942 46.4903V46.584C79.5495 46.6768 79.1778 47.0956 78.8056 47.7004L77.7815 49.7473V50.7244C77.8281 51.7014 77.8281 52.0735 78.9451 52.2596V52.3524H75.8741V52.2596C76.9906 52.0731 77.0367 51.7014 77.0367 50.7244V50.0262L76.1534 48.0722C75.7808 47.3274 75.5481 46.723 74.7105 46.5835V46.4898H77.0834V46.5835C76.3853 46.6764 76.4781 47.0023 76.7574 47.6068L77.595 49.468L78.3864 48.0251C78.898 47.0481 78.8509 46.6759 78.0604 46.5831V46.4894H80.2942V46.4903ZM14.4542 58.5881C14.6869 58.5881 14.7336 58.9602 14.7336 59.0997C14.7336 59.8444 14.222 61.0537 13.8494 61.0537C13.6167 61.0537 13.57 60.7278 13.57 60.5421C13.5705 59.9373 14.0359 58.5881 14.4542 58.5881ZM14.5941 58.4948C13.7099 58.4948 13.1517 59.6584 13.1517 60.4489C13.1517 60.8685 13.2911 61.1936 13.7565 61.1936C14.6407 61.1936 15.1524 60.0772 15.1524 59.2862C15.1524 58.9132 15.0595 58.4948 14.5941 58.4948ZM19.0143 58.8208L18.9677 59.0531H18.1767L17.8045 60.7748C17.7117 61.1474 17.5718 61.7061 17.3396 62.0312C17.2001 62.2177 16.7347 62.5437 16.4554 62.5437C16.0366 62.5437 15.9437 62.1249 16.2226 61.9384C16.4554 62.0778 16.6414 62.2644 16.8275 62.2644C17.1068 62.2644 17.2463 61.473 17.2929 61.2403L17.7583 59.0526H17.2463L17.2929 58.9132L17.8045 58.7737C17.9906 58.0298 18.5027 57.0986 19.3398 57.0986C19.6191 57.0986 19.9447 57.1923 19.9447 57.5174C19.9447 57.7505 19.7586 57.89 19.5725 57.9361L19.5259 57.8904V57.7967C19.5259 57.5174 19.4331 57.2851 19.1537 57.2851C18.6417 57.2851 18.3628 58.3092 18.2229 58.8203H19.0143V58.8208ZM28.2738 58.2621H26.552L27.3896 55.9821L28.2738 58.2621ZM28.4133 58.6343C28.5993 59.2396 28.9253 60.0772 28.9253 60.4489C28.9253 60.8215 28.5993 60.9143 28.2738 60.9614V61.1008H30.8332V60.9614C30.1351 60.8685 29.9956 60.5888 29.7629 59.9843L27.855 54.8652C27.6689 55.0983 27.4362 55.2378 27.2035 55.3777C27.2964 55.5171 27.2035 55.7498 27.1103 55.9359L26.5987 57.3779L25.6216 59.9373C25.3423 60.5883 25.2495 60.7748 24.5052 60.9614V61.1008H26.878V60.9614C26.5058 60.9147 25.901 60.9147 25.901 60.4031C25.901 59.9843 26.2731 59.0531 26.4126 58.6343H28.4133ZM33.2993 60.9614C34.3696 60.8219 34.3696 60.5888 34.3696 59.705V56.634C34.3696 55.7498 34.3696 55.4705 33.2993 55.331V55.2382H36.2308V55.331C35.1605 55.4705 35.1605 55.7498 35.1605 56.634V59.4718C35.1605 59.9373 35.1605 60.3561 35.2538 60.7748L36.3241 60.8685C37.6271 60.9614 37.8593 60.5426 38.5113 59.4257L38.6507 59.5185L38.1391 61.1008H33.2993V60.9614ZM44.5591 58.2621H42.8382L43.6757 55.9821L44.5591 58.2621ZM44.6985 58.6343C44.9317 59.2396 45.2568 60.0772 45.2568 60.4489C45.2568 60.8215 44.8846 60.9143 44.5586 60.9614V61.1008H47.118V60.9614C46.4199 60.8685 46.2804 60.5888 46.0481 59.9843L44.1398 54.8656C43.9542 55.0988 43.7211 55.2382 43.4888 55.3781C43.5816 55.5175 43.4888 55.7503 43.396 55.9363L42.8835 57.3783L41.9065 59.9377C41.6271 60.5888 41.5805 60.7753 40.79 60.9618V61.1012H43.1628V60.9618C42.7907 60.9152 42.1858 60.9152 42.1858 60.4036C42.1858 59.9848 42.5584 59.0535 42.6978 58.6347H44.6985V58.6343ZM53.0747 56.7268H52.9353C52.7958 56.0287 52.5627 55.3777 51.7251 55.3777C51.1669 55.3777 50.701 55.7498 50.701 56.3081C50.701 57.7967 53.4469 57.7509 53.4469 59.5185C53.4469 60.635 52.3304 61.1936 51.3063 61.1936C50.7947 61.1936 50.2365 61.0542 49.771 60.7748L49.5388 59.2862H49.6782C49.9105 60.1238 50.5158 60.9614 51.4462 60.9614C52.0981 60.9614 52.6097 60.5888 52.6097 59.8906C52.6097 58.3554 49.9576 58.4948 49.9576 56.7739C49.9576 55.7498 50.9346 55.0988 51.865 55.0988C52.3304 55.0988 52.7492 55.2382 53.1214 55.4238L53.0747 56.7268ZM58.3791 59.705C58.4248 60.5883 58.4248 60.8215 59.5418 60.9614V61.1008H56.5645V60.9614C57.5877 60.8219 57.5877 60.5888 57.6343 59.705V56.634C57.5877 55.7498 57.5877 55.4705 56.5645 55.331V55.2382H59.3095V55.331C58.4253 55.4705 58.4253 55.7498 58.3791 56.634V59.705ZM62.2876 55.2382V55.331C61.3106 55.4705 60.6587 56.3081 60.0076 56.9591L59.2171 57.8433L60.938 59.7507C61.4963 60.3561 62.1016 60.8681 62.8921 61.1008L62.8463 61.1936C61.311 61.1008 61.0775 61.0542 60.287 60.1695L58.519 58.2155L59.9148 56.7268C60.7981 55.7027 60.6587 55.4239 60.0542 55.331V55.2382H62.2876ZM68.3363 58.2621H66.6145L67.4051 55.9821L68.3363 58.2621ZM68.4291 58.6343C68.6614 59.2396 68.9874 60.0772 68.9874 60.4489C68.9874 60.8215 68.6152 60.9143 68.3363 60.9614V61.1008H70.8948V60.9614C70.1967 60.8685 70.0115 60.5888 69.7783 59.9843L67.8709 54.8656C67.7315 55.0988 67.4987 55.2382 67.2656 55.3781C67.3593 55.5175 67.2198 55.7503 67.1728 55.9363L66.6603 57.3783L65.6833 59.9377C65.4039 60.5888 65.3111 60.7753 64.5668 60.9618V61.1012H66.9405V60.9618C66.5208 60.9152 65.9164 60.9152 65.9164 60.4036C65.9164 59.9848 66.3352 59.0535 66.4746 58.6347H68.4291V58.6343ZM16.3621 66.6374H16.3155L14.6403 69.1502C14.5937 69.1502 14.5471 69.2896 14.5009 69.2896C14.4542 69.2896 14.4542 69.2439 14.4542 69.1968V69.104L14.2682 66.6374L13.57 68.4063C13.3373 69.0574 13.4306 68.9645 14.0354 69.1502V69.1968H12.6858V69.1502C13.1512 69.0107 13.1512 69.0107 13.3839 68.4063L13.9888 66.871C14.2215 66.2191 14.2215 66.1263 13.5238 66.0334L13.57 65.9398H14.5937L14.8264 68.5457L15.9895 66.8706C16.2192 66.5885 16.4072 66.2749 16.5477 65.9393H17.4786V66.033C16.8271 66.1258 16.8271 66.3581 16.641 67.1029L16.315 68.4059C16.1756 69.0103 16.2222 69.0103 16.7804 69.1497L16.7338 69.1964H15.1053L15.1519 69.1497C15.7102 69.104 15.8034 68.8246 15.8962 68.4059L16.3621 66.6374ZM17.5252 68.9175C17.6185 68.5453 17.9906 67.2423 18.2233 67.2423C18.3628 67.2423 18.6421 67.5217 18.7816 67.5683C18.456 68.0799 18.0834 68.5915 17.5718 68.9641L17.5252 68.9175ZM19.247 67.2894C19.2936 67.1957 19.3864 66.9634 19.2004 66.9634C19.0609 66.9634 19.0143 67.2428 18.9677 67.2894C18.8282 67.1957 18.5955 67.0562 18.4094 67.0562C18.27 67.0562 18.0373 67.1957 17.8978 67.2894C17.7117 67.4288 17.6185 67.6145 17.5256 67.801C17.4328 68.0333 17.1535 68.8708 17.1535 69.104C17.1535 69.2434 17.3396 69.2896 17.3862 69.2896C17.6655 69.2896 18.2238 68.5457 18.782 67.801L18.317 69.1502C18.2704 69.2439 18.4098 69.2896 18.5031 69.2896C18.8753 69.2896 19.3873 68.5915 19.5734 68.3592L19.4801 68.3126C19.2941 68.4991 19.0151 68.8251 18.7358 68.9179L19.247 67.2894ZM21.5736 67.8476C21.6198 67.7082 21.8063 67.2423 21.6198 67.2423C21.2477 67.2423 20.3168 69.2892 20.0379 69.2892C19.8052 69.2892 19.9917 68.7776 20.0379 68.731L20.55 67.3351C20.224 67.3818 20.0379 67.6611 19.8985 67.8934L19.8523 67.8476C19.9451 67.5216 20.2244 67.0562 20.6432 67.0562C20.7361 67.0562 20.8759 67.1029 20.9226 67.2427L20.3643 68.6386L20.597 68.2664C20.8298 67.9404 21.3414 67.0562 21.7602 67.0562C22.2256 67.0562 21.9929 67.6145 21.8996 67.8476L21.5274 68.8708V68.9175C21.8068 68.778 22.0391 68.5453 22.2256 68.3122L22.2722 68.4059C22.1327 68.6381 21.5741 69.2892 21.2485 69.2892C21.0158 69.2892 21.1557 68.917 21.2019 68.8246L21.5736 67.8476ZM22.5507 68.0333C22.5507 67.801 22.7367 67.0562 23.0623 67.0562C23.4811 67.0562 23.5739 68.4521 23.5739 68.8708V68.9175C23.76 68.452 23.8999 67.9871 23.946 67.4746C23.946 67.3351 23.946 67.0558 24.1321 67.0558C24.2716 67.0558 24.3182 67.1495 24.3182 67.2423C24.3182 67.6145 23.76 68.731 23.5273 69.1035C23.3412 69.3829 22.7363 70.4057 22.3175 70.4057C22.1781 70.4057 22.0848 70.2662 22.0848 70.1263C22.0848 70.0335 22.1776 69.8941 22.3175 69.8941C22.4108 69.8941 22.5036 70.0335 22.5502 70.0806C22.8296 69.9411 23.0618 69.6618 23.2484 69.3824C23.295 68.5449 23.1551 67.4284 22.969 67.4284C22.8296 67.4284 22.6897 67.9866 22.6431 68.0795L22.5507 68.0333ZM29.1114 65.9393L28.8787 66.7769H28.7859C28.7859 66.1258 28.7392 66.0788 28.3204 66.0788H27.7622L27.204 68.4059C27.0645 69.0103 27.1107 69.0103 27.7156 69.1497V69.1964H26.0404V69.1497C26.5987 69.104 26.6919 68.8246 26.7847 68.4059L27.3896 66.0788H26.878C26.3664 66.0788 26.1799 66.3581 25.9476 66.7769H25.901L26.0871 65.9393H29.1114ZM29.0648 68.778L29.6696 67.7539C29.7629 67.5683 30.0884 67.0558 30.3211 67.0558C30.4606 67.0558 30.5072 67.1495 30.5072 67.2889C30.5072 67.5212 30.3673 67.7077 30.1351 67.7535L30.0884 67.7077C30.1351 67.6611 30.2279 67.4284 30.0884 67.4284C29.9023 67.4284 29.2047 68.7305 29.1114 68.9637C29.0652 69.0565 28.9719 69.2888 28.8321 69.2888C28.5527 69.2888 28.7392 68.87 28.7859 68.7771L29.2508 67.3343C28.9715 67.3809 28.7859 67.6602 28.646 67.8467L28.5527 67.8001C28.6922 67.4742 28.9715 67.0554 29.3437 67.0554C29.4365 67.0554 29.5764 67.102 29.5764 67.2419L29.0648 68.778ZM30.926 68.9175C30.9722 68.5453 31.3448 67.2423 31.5775 67.2423C31.7169 67.2423 31.9963 67.5217 32.1357 67.5683C31.8098 68.0799 31.4376 68.5915 30.9726 68.9641L30.926 68.9175ZM32.6012 67.2894C32.6473 67.1957 32.7406 66.9634 32.5545 66.9634C32.4617 66.9634 32.3684 67.2428 32.3218 67.2894C32.1824 67.1957 31.9497 67.0562 31.8098 67.0562C31.6237 67.0562 31.391 67.1957 31.2515 67.2894C31.0655 67.4288 30.9722 67.6145 30.926 67.801C30.8327 68.0333 30.5538 68.8708 30.5538 69.104C30.5538 69.2434 30.6933 69.2896 30.7399 69.2896C31.0193 69.2896 31.5775 68.5457 32.1357 67.801L31.6703 69.1502C31.6703 69.2439 31.8098 69.2896 31.8564 69.2896C32.2286 69.2896 32.7406 68.5915 32.9267 68.3592L32.8805 68.3126C32.6478 68.4991 32.3684 68.8251 32.0895 68.9179L32.6012 67.2894ZM33.5316 68.9175C33.8109 68.0333 33.997 67.2894 34.1831 67.2894C34.3225 67.2894 34.6018 67.475 34.7413 67.5687C34.4158 68.0333 34.0898 68.6386 33.5782 68.9645L33.5316 68.9175ZM35.6255 65.7999L35.5327 65.7541L34.8812 66.0334L34.835 66.1263C35.1605 66.3128 35.1143 66.2657 35.0677 66.4056L34.835 67.2432C34.7417 67.1504 34.5556 67.0567 34.4162 67.0567C34.1369 67.0567 33.858 67.2898 33.6719 67.4755C33.4858 67.7086 33.1136 68.8255 33.1136 69.1044C33.1136 69.1972 33.2997 69.2901 33.3463 69.2901C33.4858 69.2901 33.9046 68.9179 33.9978 68.7785L34.696 67.8942V67.9409L34.37 68.9179C34.3234 69.0574 34.2306 69.2901 34.4628 69.2901C34.835 69.2901 35.3004 68.6856 35.4865 68.4067L35.4398 68.3601C35.2071 68.5924 35.0211 68.7789 34.7417 68.9654L34.6955 68.9188L35.6255 65.7999ZM37.0213 68.3592C36.8352 68.6852 36.4164 69.2896 35.9977 69.2896C35.9048 69.2896 35.8582 69.1968 35.8582 69.104C35.8582 68.8246 36.277 67.8938 36.4631 67.3822H36.4169C36.2308 67.475 35.9515 67.7082 35.8582 67.8938L35.7654 67.8481C35.9515 67.5221 36.3703 67.0567 36.6962 67.0567C36.789 67.0567 36.8357 67.1033 36.8357 67.1961C36.8357 67.4755 36.4169 68.2668 36.1842 68.9179H36.2308C36.5101 68.7785 36.7424 68.5457 36.9289 68.3126L37.0213 68.3592ZM37.0679 66.0792C37.0679 66.2187 36.9751 66.3585 36.8352 66.3585C36.6953 66.3585 36.6025 66.2657 36.6025 66.1263C36.6025 65.9868 36.6958 65.8469 36.8819 65.8469C37.0213 65.8469 37.0679 65.9393 37.0679 66.0792ZM38.9758 67.1499L38.8825 67.3356H38.1844L37.719 68.9179H37.7656C38.0916 68.7785 38.3239 68.5457 38.5566 68.3126L38.6028 68.3592C38.4167 68.6852 37.8585 69.2896 37.4863 69.2896C37.4397 69.2896 37.3468 69.1968 37.3468 69.104C37.3468 69.0574 37.3468 68.9645 37.3935 68.9645L37.8585 67.3356H37.3935L37.4397 67.1961L37.9517 67.1033C37.9979 66.9638 38.0912 66.5917 38.231 66.5917C38.4171 66.5917 38.4171 66.6374 38.3705 66.7773L38.2772 67.1033L38.9758 67.1499ZM39.9995 65.8469C39.86 65.8469 39.7668 65.9864 39.7668 66.1263C39.7668 66.2662 39.8596 66.3585 39.9995 66.3585C40.1393 66.3585 40.2322 66.2191 40.2322 66.0792C40.2322 65.9393 40.1389 65.8469 39.9995 65.8469ZM40.0923 68.3126C39.9062 68.5457 39.6735 68.778 39.3942 68.9179H39.3475C39.5802 68.2668 39.999 67.475 39.999 67.1961C39.999 67.1033 39.9528 67.0567 39.8129 67.0567C39.5336 67.0567 39.0686 67.5221 38.9287 67.8481L39.0216 67.8938C39.1148 67.7082 39.3937 67.475 39.5798 67.3822H39.6264C39.4403 67.8938 39.0216 68.8251 39.0216 69.104C39.0216 69.1968 39.0682 69.2896 39.161 69.2896C39.5798 69.2896 39.9986 68.6852 40.1847 68.3592L40.0923 68.3126ZM41.5814 67.1499C41.7674 67.1499 41.7674 67.4293 41.7674 67.5687C41.7674 68.1731 41.3953 69.1968 41.0693 69.1968C40.8832 69.1968 40.8366 68.8708 40.8366 68.778C40.8366 68.2198 41.2092 67.1499 41.5814 67.1499ZM41.6742 67.0562C40.9299 67.0562 40.5111 68.0333 40.5111 68.6386C40.5111 69.0107 40.6039 69.2896 40.9761 69.2896C41.7204 69.2896 42.1392 68.3592 42.1392 67.7082C42.1396 67.3822 42.0468 67.0562 41.6742 67.0562ZM44.234 67.8476C44.2797 67.7082 44.4662 67.2423 44.234 67.2423C43.8614 67.2423 42.931 69.2892 42.6516 69.2892C42.4194 69.2892 42.6516 68.7776 42.6983 68.731L43.2099 67.3351C42.8839 67.3818 42.6983 67.6611 42.5588 67.8934L42.5122 67.8476C42.5588 67.5216 42.8843 67.0562 43.2569 67.0562C43.3964 67.0562 43.5363 67.1029 43.582 67.2427L43.0238 68.6386L43.2569 68.2664C43.4892 67.9404 44.0008 67.0562 44.4196 67.0562C44.8384 67.0562 44.6528 67.6145 44.5591 67.8476L44.1869 68.8708V68.9175C44.4662 68.778 44.6985 68.5453 44.885 68.3122L44.9317 68.4059C44.7452 68.6381 44.2335 69.2892 43.9076 69.2892C43.6753 69.2892 43.8148 68.917 43.8609 68.8246L44.234 67.8476ZM46.0019 68.0333C46.0948 68.2198 46.1885 68.4059 46.1885 68.5915C46.1885 68.8708 45.676 69.2896 45.3971 69.2896C45.2114 69.2896 44.9783 69.1968 44.9783 68.9645C44.9783 68.8708 45.1177 68.778 45.2576 68.778C45.3513 68.8708 45.4441 69.0574 45.6302 69.0574C45.7697 69.0574 45.8159 68.9179 45.8159 68.778C45.8159 68.6381 45.723 68.452 45.6302 68.2664C45.5365 68.0333 45.4437 67.8476 45.4437 67.7082C45.4437 67.3356 45.9553 67.0562 46.2813 67.0562C46.3741 67.0562 46.5606 67.1499 46.5606 67.2894C46.5606 67.3822 46.4212 67.475 46.3284 67.5216C46.2347 67.4288 46.049 67.2423 45.9558 67.2423C45.8629 67.2423 45.8163 67.3818 45.8163 67.4746C45.8154 67.6615 45.9091 67.8476 46.0019 68.0333ZM50.0029 65.9864C50.6082 65.9864 50.8405 66.5917 50.8405 67.1029C50.8405 67.8934 50.236 69.1497 49.3518 69.1497C48.7465 69.1497 48.5613 68.5915 48.5613 68.0799C48.5613 66.9168 49.3052 65.9864 50.0029 65.9864ZM49.9571 65.8936C48.8864 65.8936 48.0488 66.8706 48.0488 67.8938C48.0488 68.6852 48.5613 69.2896 49.3518 69.2896C50.4683 69.2896 51.3529 68.4063 51.3529 67.3356C51.3529 66.498 50.7947 65.8936 49.9571 65.8936ZM53.2142 67.8476C53.2599 67.7082 53.4935 67.2423 53.2599 67.2423C52.8878 67.2423 51.9578 69.2892 51.6785 69.2892C51.4453 69.2892 51.6318 68.7776 51.6785 68.731L52.1901 67.3351C51.9107 67.3818 51.7247 67.6611 51.5382 67.8934L51.4924 67.8476C51.5852 67.5216 51.8646 67.0562 52.2829 67.0562C52.3766 67.0562 52.516 67.1029 52.5622 67.2427L52.004 68.6386H52.0506L52.2372 68.2664C52.4694 67.9404 53.0277 67.0562 53.3998 67.0562C53.8652 67.0562 53.633 67.6145 53.5393 67.8476L53.1671 68.8708V68.9175C53.4464 68.778 53.6787 68.5453 53.8652 68.3122L53.9581 68.4059C53.7724 68.6381 53.2142 69.2892 52.8882 69.2892C52.6559 69.2892 52.7954 68.917 52.8416 68.8246L53.2142 67.8476ZM54.7499 68.0803C54.7956 67.8938 54.9355 67.2427 55.1687 67.2427C55.3081 67.2427 55.4938 67.3822 55.4938 67.5221C55.4938 67.6149 55.3543 67.6615 55.2615 67.7544L54.7499 68.0803ZM55.6332 67.6615C55.6798 67.6149 55.8664 67.475 55.8664 67.3822C55.8664 67.2428 55.587 67.0562 55.4938 67.0562C55.2144 67.0562 54.7033 67.4288 54.5634 67.6615C54.3769 67.9875 54.2374 68.6386 54.2374 69.0107C54.2374 69.1502 54.4239 69.2901 54.5167 69.2901C54.8893 69.2901 55.448 68.8255 55.6803 68.4525L55.6337 68.4067C55.448 68.639 54.9355 68.965 54.7033 68.965C54.471 68.965 54.6566 68.3597 54.7033 68.2668L55.6332 67.6615ZM59.6355 67.6145H58.7042L59.5884 66.3123L59.6355 67.6145ZM59.6355 68.4063C59.6355 68.9179 59.5888 69.0574 59.0772 69.1502L59.0306 69.1968H60.6587V69.1502C60.0542 69.1044 60.1004 68.8708 60.0542 68.3597L59.9605 66.6845V65.8936L59.8677 65.8469C59.7749 65.9398 59.6812 65.9864 59.5418 65.9864C59.496 66.1258 59.4023 66.2657 59.3095 66.3585L58.1459 68.1274C57.8208 68.639 57.5877 69.0578 56.9366 69.1506L56.89 69.1972H58.3795L58.4253 69.1506C58.2858 69.1049 57.9607 69.0578 57.9607 68.9183C57.9607 68.7318 58.3795 68.1278 58.4723 67.9879L58.519 67.8485H59.6355V68.4063ZM61.3102 68.8708V68.9175C61.5895 68.778 61.7747 68.5915 62.0083 68.3592L62.1011 68.4059C61.9146 68.6852 61.3564 69.2892 61.0313 69.2892C60.9376 69.2892 60.8918 69.1964 60.8918 69.1035C60.8918 69.0099 60.9376 68.917 60.9846 68.7776L61.7294 66.4047C61.7752 66.2653 61.8222 66.3119 61.4963 66.1254L61.5429 66.0326L62.1939 65.7532L62.2876 65.799L61.3102 68.8708ZM62.6127 68.9175C62.6594 68.5453 63.0315 67.2423 63.2647 67.2423C63.4041 67.2423 63.6835 67.5217 63.8229 67.5683C63.4969 68.0799 63.171 68.5915 62.6594 68.9641L62.6127 68.9175ZM64.3345 67.2894C64.3345 67.1957 64.4273 66.9634 64.2417 66.9634C64.148 66.9634 64.0552 67.2428 64.0085 67.2894C63.8691 67.1957 63.6364 67.0562 63.4969 67.0562C63.3104 67.0562 63.0781 67.1957 62.9387 67.2894C62.7522 67.4288 62.7064 67.6145 62.6127 67.801C62.5199 68.0333 62.2406 68.8708 62.2406 69.104C62.2406 69.2434 62.38 69.2896 62.4271 69.2896C62.7064 69.2896 63.2647 68.5457 63.8229 67.801L63.3575 69.1502C63.3575 69.2439 63.4969 69.2896 63.544 69.2896C63.9162 69.2896 64.4273 68.5915 64.6139 68.3592L64.5672 68.3126C64.3349 68.4991 64.0556 68.8251 63.7767 68.9179L64.3345 67.2894ZM65.5909 68.0333C65.6837 68.2198 65.7774 68.4059 65.7774 68.5915C65.7774 68.8708 65.312 69.2896 65.0326 69.2896C64.8461 69.2896 64.6139 69.1968 64.6139 68.9645C64.6139 68.8708 64.7533 68.778 64.8461 68.778C64.9856 68.8708 65.0793 69.0574 65.2649 69.0574C65.4044 69.0574 65.4514 68.9179 65.4514 68.778C65.4514 68.6381 65.3586 68.452 65.2649 68.2664C65.1721 68.0333 65.0793 67.8476 65.0793 67.7082C65.0793 67.3356 65.5438 67.0562 65.9168 67.0562C66.0097 67.0562 66.1962 67.1499 66.1962 67.2894C66.1962 67.3822 66.0097 67.475 65.963 67.5216C65.8702 67.4288 65.6837 67.2423 65.5909 67.2423C65.4514 67.2423 65.4044 67.3818 65.4044 67.4746C65.4044 67.6615 65.4981 67.8476 65.5909 68.0333ZM66.5208 68.8251C66.5208 68.7785 67.1728 67.3356 67.5449 67.3356C67.6844 67.3356 67.7315 67.4293 67.7315 67.5221C67.7315 67.7544 67.5449 67.9409 67.3593 68.0803C67.0333 68.3126 66.8002 68.4991 66.5208 68.8251ZM67.4055 65.7999L67.3597 65.7541L66.6607 66.0334V66.1263C66.9409 66.3128 66.8939 66.2657 66.8939 66.4056L66.1957 68.8713C66.1957 68.965 66.0563 69.2901 66.2886 69.2901C66.428 69.2901 66.5679 68.8713 67.0333 68.4525C67.0333 68.6856 67.08 69.2901 67.4055 69.2901C67.6386 69.2901 67.918 68.965 68.0574 68.8255L68.0108 68.7318C67.9642 68.8255 67.7315 69.0112 67.6386 69.0112C67.3593 69.0112 67.3593 68.4529 67.3593 68.1736C67.6844 67.9879 68.1032 67.8014 68.1032 67.3831C68.1032 67.2436 67.9637 67.0571 67.7781 67.0571C67.3593 67.0571 66.8939 67.8019 66.7074 68.1736L66.6607 68.1278L67.4055 65.7999ZM68.7085 68.9175C68.8013 68.5453 69.1739 67.2423 69.4066 67.2423C69.5461 67.2423 69.8254 67.5217 69.9648 67.5683C69.6389 68.0799 69.2667 68.5915 68.7555 68.9641L68.7085 68.9175ZM70.4303 67.2894C70.476 67.1957 70.5697 66.9634 70.3836 66.9634C70.2442 66.9634 70.1971 67.2428 70.1514 67.2894C70.0119 67.1957 69.7788 67.0562 69.5931 67.0562C69.4537 67.0562 69.2205 67.1957 69.0806 67.2894C68.895 67.4288 68.8013 67.6145 68.7085 67.801C68.6157 68.0333 68.3363 68.8708 68.3363 69.104C68.3363 69.2434 68.522 69.2896 68.5686 69.2896C68.8479 69.2896 69.4062 68.5457 69.9644 67.801L69.499 69.1502C69.4532 69.2439 69.5927 69.2896 69.6855 69.2896C70.0577 69.2896 70.5697 68.5915 70.7554 68.3592L70.6625 68.3126C70.476 68.4991 70.1971 68.8251 69.9178 68.9179L70.4303 67.2894Z" fill="#0C0E0F"/>
<path d="M3.75244 64.1719H80.294" stroke="#0C0E0F" stroke-width="5.25275" stroke-miterlimit="2.613"/>
<path fill-rule="evenodd" clip-rule="evenodd" d="M29.1577 13.5938H53.4932V39.9299H29.1577V13.5938Z" fill="#0C0E0F"/>
<path fill-rule="evenodd" clip-rule="evenodd" d="M53.4932 25.2265V25.087C51.2132 24.2494 45.2569 22.7604 38.5567 26.2968C37.6259 25.413 36.7417 24.4355 35.8579 23.3652C35.8579 23.3652 36.6955 24.7144 38.324 26.4362C35.2997 28.0647 32.1821 30.6703 29.1577 34.9048V35.0909C31.2517 32.3921 34.4621 29.0884 38.7428 26.9016C39.8131 27.9253 41.1156 29.0422 42.7442 30.0192C40.6968 32.206 38.9755 35.3702 38.1845 39.9303H38.4173C39.0688 37.0454 40.5112 33.4162 43.3965 30.3914C46.0487 31.9266 49.4448 33.0436 53.4936 32.8575V32.2526C50.4689 32.2992 47.1186 31.741 43.7687 30.0192C46.0483 27.7854 49.165 26.0174 53.4932 25.2265ZM43.1168 29.6466C41.7671 28.9023 40.3713 27.9253 39.0683 26.7617C42.9302 24.8539 47.6297 23.9235 53.2139 25.1798C51.4455 25.2727 46.8388 25.9242 43.1168 29.6466Z" fill="white"/>
</g>
<defs>
<clipPath id="clip0_495_6089">
<rect width="84" height="84" fill="white"/>
</clipPath>
</defs>
</svg>
