<svg width="85" height="26" viewBox="0 0 85 26" fill="none" xmlns="http://www.w3.org/2000/svg">
<g clip-path="url(#clip0_1399_9276)">
<rect width="84" height="24.4119" transform="translate(0.387207 0.793945)" fill="white"/>
<path fill-rule="evenodd" clip-rule="evenodd" d="M30.4294 19.7326H31.9757C33.6511 19.7326 34.496 20.8636 34.496 21.9653C34.496 23.0813 33.9518 24.2545 32.0617 24.2545C30.8587 24.2545 30.4294 23.8679 30.4294 22.7807V19.7326ZM29.2412 23.1954C29.2412 24.0977 29.012 24.3691 27.8382 24.3691H27.5083V24.6408H32.7489C35.0546 24.6408 35.8418 23.0526 35.8418 21.9222C35.8418 20.8062 35.0546 19.933 33.7089 19.5325V19.5034C34.6683 19.3319 35.3409 18.5738 35.3409 17.7583C35.3409 17.0709 35.0546 16.5841 34.4674 16.17C33.9518 15.7976 32.8494 15.6113 31.5895 15.6113C31.3171 15.6113 30.229 15.6255 29.4411 15.6546C29.0263 15.6689 28.0381 15.7261 27.6372 15.74V16.0121H28.1385C29.1406 16.0121 29.2412 16.4413 29.2412 17.2568V23.1954ZM30.4294 15.9262C30.7873 15.9118 31.3749 15.8832 31.6894 15.8832C33.4508 15.8832 34.052 16.7991 34.052 17.801C34.052 18.9171 33.3648 19.4607 31.9902 19.4607H30.4294V15.9262ZM39.7658 20.6343C39.4359 20.6343 39.2211 20.6483 38.8776 20.6057V15.9118C39.1352 15.8832 39.3213 15.8832 39.5934 15.8832C41.8002 15.8832 42.4005 16.9139 42.4005 18.2442C42.4005 19.9616 41.3564 20.6343 39.7658 20.6343ZM50.3463 16.0121V15.7402H46.8665V16.0121C47.6682 16.0547 47.9409 16.2693 47.9409 17.0423V23.1387C47.9409 24.0683 47.7636 24.3107 46.9442 24.364C45.8519 24.3069 45.3881 23.8786 44.6046 23.096L43.4743 21.9653C42.8022 21.2926 42.3726 20.8917 41.8426 20.4768C43.0168 20.1335 43.7464 19.2318 43.7464 18.1588C43.7464 16.699 42.5582 15.6113 39.9088 15.6113C38.9775 15.6113 38.6912 15.6255 38.1041 15.6547C37.5173 15.6828 36.6436 15.74 36.2999 15.74V16.0121H36.6152C37.4457 16.0121 37.6892 16.2693 37.6892 17.1571V23.1815C37.6892 24.1405 37.3882 24.3691 36.5436 24.3691H36.3001V24.6408H40.3531V24.3691H40.0232C39.2211 24.3691 38.8776 24.1544 38.8776 23.2958V20.8772C39.1069 20.8917 39.2929 20.9065 39.608 20.9065C39.9951 20.9065 40.2242 20.8917 40.5824 20.8772C40.9263 21.1064 41.4279 21.5211 42.0578 22.1508L43.0024 23.096C44.2403 24.3342 44.7684 24.7253 47.1002 24.6408H50.3463V24.3691C49.3583 24.3691 49.1293 24.0828 49.1293 23.2386V17.1715C49.1293 16.2128 49.4444 16.0121 50.3463 16.0121ZM51.3197 22.4659C51.6207 23.7397 52.6227 24.4838 53.7396 24.4838C54.6992 24.4838 55.7154 23.9256 55.7154 22.7953C55.7154 20.7341 51.1192 20.1051 51.1192 17.6009C51.1192 16.4126 52.2076 15.5254 53.6683 15.5254C54.8705 15.5254 55.1144 15.8834 55.6157 15.8834C55.7298 15.8834 55.787 15.8546 55.8732 15.7402H56.1022L56.3455 17.5574H56.1022C55.7012 16.5272 54.785 15.8695 53.7966 15.8695C52.8515 15.8695 52.1926 16.4126 52.1926 17.2141C52.1926 19.2459 56.7894 19.7907 56.7894 22.423C56.7894 23.8253 55.5433 24.8704 53.8682 24.8704C53.0808 24.8704 52.0788 24.4838 51.8785 24.4838C51.7494 24.4838 51.6489 24.5549 51.5918 24.6408H51.3485L51.0482 22.4659H51.3197ZM62.3025 23.3248C62.3025 24.0977 62.5595 24.3693 63.433 24.3693H63.9636V24.6408H59.4526V24.3691H59.9829C60.8564 24.3691 61.1135 24.0977 61.1135 23.3248V16.2557H58.6221C58.05 16.2557 57.792 16.5841 57.5765 17.8433H57.3192L57.5483 15.5254H57.8201C57.8353 15.6113 57.8923 15.6691 57.978 15.6972C58.0638 15.7261 58.1643 15.74 58.2643 15.74H65.1519C65.3525 15.74 65.5671 15.6972 65.5962 15.5254H65.8677L66.0971 17.8433H65.8389C65.6245 16.5841 65.3666 16.2557 64.7941 16.2557H62.3027L62.3025 23.3248ZM76.581 19.9473C76.581 17.3717 74.2613 15.5254 71.5552 15.5254C68.5055 15.5254 66.3138 17.5431 66.3138 20.3906C66.3138 23.0671 68.6772 24.8702 71.4836 24.8702C74.2613 24.8702 76.581 22.838 76.581 19.9473ZM75.2346 20.4194C75.2346 22.4511 74.1182 24.5116 71.7845 24.5116C69.4787 24.5116 67.6606 22.6235 67.6606 19.9473C67.6606 18.23 68.6621 15.8832 71.1824 15.8832C73.5454 15.8832 75.2346 17.7583 75.2346 20.4194Z" fill="#231F20"/>
<mask id="mask0_1399_9276" style="mask-type:luminance" maskUnits="userSpaceOnUse" x="76" y="15" width="9" height="10">
<path d="M84.3357 15.7402V24.6407H76.833V15.7402H84.3357Z" fill="white"/>
</mask>
<g mask="url(#mask0_1399_9276)">
<path fill-rule="evenodd" clip-rule="evenodd" d="M83.2336 24.6407H76.833V24.3692H77.3052C77.9641 24.3692 78.2071 24.1545 78.2071 23.4244V17.0851C78.2071 16.327 77.9783 16.0122 77.0764 16.0122H76.8761V15.7402H81.0999V16.0122H80.5698C79.6397 16.0122 79.3954 16.1123 79.3954 16.9995V23.5962C79.3954 23.9825 79.5535 24.126 79.9685 24.126H82.0731C82.918 24.126 83.1754 23.7968 84.0783 22.5521H84.3357L83.2336 24.6407Z" fill="#231F20"/>
</g>
<mask id="mask1_1399_9276" style="mask-type:luminance" maskUnits="userSpaceOnUse" x="12" y="0" width="13" height="13">
<path d="M12.9067 0.793945H24.2728V12.6116H12.9067V0.793945Z" fill="white"/>
</mask>
<g mask="url(#mask1_1399_9276)">
<path fill-rule="evenodd" clip-rule="evenodd" d="M16.3437 11.6494C16.3334 10.8164 16.0505 9.11392 14.0566 8.14795C16.0812 8.7907 17.0551 10.5003 17.1546 11.7757C19.2803 12.1991 21.1666 13.1987 24.2296 12.1433L24.2401 12.1367C24.2401 12.1367 20.2096 12.1733 18.5241 10.9547C19.3945 10.9876 20.3967 10.7906 20.725 10.2981C21.075 9.77351 21.1112 9.23166 21.9734 9.20384C22.4578 9.18824 24.1006 9.31076 24.2728 6.90016C23.7472 7.78672 23.178 8.15321 22.3182 7.93443C21.7694 7.7946 20.7675 7.37496 20.0516 8.22984C19.4604 8.93562 18.8254 9.30211 17.8123 9.19287C18.2177 8.64577 24.2566 0.810323 24.2566 0.810323C24.2566 0.810323 16.5203 7.01527 16.0933 7.37635C16.0112 6.24367 16.3505 5.8279 16.8049 5.32992C17.1767 4.92265 17.8231 4.37091 17.3086 3.20686C16.8926 2.26577 16.9473 1.69657 18.0806 0.793945C17.1771 0.85961 15.7985 1.46682 15.9616 3.12482C16.0602 4.12601 15.3504 4.21254 15.091 4.35592C14.4177 4.72797 14.3299 5.81136 14.3081 6.65404C14.2317 6.38041 13.2518 2.16982 12.9069 0.807387C12.9066 0.80816 12.9068 12.1365 12.9068 12.1365H12.9328C14.2456 11.6197 15.3379 11.5409 16.3437 11.6494Z" fill="#BE2F37"/>
</g>
<path fill-rule="evenodd" clip-rule="evenodd" d="M35.5868 5.53445V5.73593C34.8756 5.74643 34.6206 6.03304 34.6206 6.7124V9.57725C34.6206 10.893 33.7816 12.3043 31.4776 12.3043C29.4497 12.3043 28.409 11.1475 28.409 9.63024V6.53178C28.409 5.85258 28.2179 5.74643 27.4961 5.73608V5.5343H30.2248V5.73593H30.1291C29.5454 5.73593 29.2904 5.89522 29.2904 6.51062V9.46044C29.2904 10.893 30.1291 11.7525 31.7112 11.7525C32.911 11.7525 34.1323 11.2536 34.1323 9.44978V6.97753C34.1323 5.95888 33.973 5.77857 33.0918 5.73608V5.53445H35.5868ZM36.9822 11.2113C36.9822 11.7949 37.1201 11.9328 37.6934 11.9328V12.1345H35.5592V11.9328C36.0264 11.9328 36.2707 11.6782 36.2707 11.2643V9.03601C36.2707 8.64341 36.2282 8.5691 35.9522 8.51595L35.5911 8.44178V8.27183L36.8121 7.82639H36.9822V8.65392C37.6934 8.20833 38.288 7.81557 38.8084 7.81557C39.5305 7.81557 39.9444 8.3463 39.9444 9.40744C39.9444 10.8187 39.8702 11.0945 39.8595 11.5084C39.849 11.7949 40.0189 11.9328 40.4541 11.9328H40.6877V12.1345H38.4049V11.9328C38.7127 11.922 38.8934 11.8479 39.01 11.7312C39.2117 11.5296 39.2331 10.7547 39.2331 9.34363C39.2331 8.49478 38.8189 8.22949 38.3942 8.22949C38.0544 8.22949 37.5343 8.52661 36.9822 8.9087V11.2113ZM42.2831 5.375C42.5377 5.375 42.7501 5.55546 42.7501 5.77841C42.7501 6.00121 42.5377 6.18167 42.2832 6.18167C42.0283 6.18167 41.8265 6.00121 41.8265 5.77841C41.8265 5.55546 42.0283 5.375 42.2831 5.375ZM42.7183 11.328C42.7183 11.6994 42.9203 11.9328 43.4826 11.9328V12.1345H41.1259V11.9328C41.7736 11.9328 42.0072 11.7207 42.0072 11.1583V9.02551C42.0072 8.61159 41.9541 8.55844 41.6781 8.50544L41.179 8.4098V8.24015L42.5593 7.76273H42.7186V11.328M45.9077 12.23L44.3679 8.70722C44.2086 8.33564 44.0706 8.20833 43.901 8.1765L43.571 8.1235V7.93253H45.7375V8.1235C45.0897 8.14467 44.8881 8.22949 45.1427 8.72839L46.2684 11.3704L47.3515 8.91936C47.5428 8.48412 47.4471 8.1765 46.6719 8.12366V7.93238H48.5194V8.12335C48.1162 8.19751 47.8821 8.43097 47.6808 8.89788L46.2157 12.2298L45.9077 12.23ZM52.4803 9.43927V9.19515C52.13 8.84489 52.1618 7.81557 50.7284 7.81557C49.433 7.81557 48.6793 8.96169 48.6793 10.0865C48.6793 11.3173 49.4858 12.2619 50.5268 12.2619C51.3018 12.2619 51.9708 11.7312 52.4166 11.1688L52.2997 11.0415C51.8964 11.5189 51.4824 11.7312 50.9516 11.7312C50.1124 11.7312 49.3373 10.9883 49.3373 9.88502C49.3373 9.74689 49.3589 9.59857 49.3798 9.43927H52.4803ZM49.4115 9.16317C49.656 8.1765 50.187 8.01736 50.5376 8.01736C51.047 8.01736 51.4715 8.47361 51.5883 9.16317H49.4115ZM54.5279 11.3599C54.5279 11.7949 54.6871 11.9328 55.2179 11.9328H55.6215V12.1345H53.1048V11.9328C53.6465 11.922 53.8164 11.6994 53.8164 11.137V8.6859L53.1048 8.43097V8.25081L54.3153 7.82639H54.5279V8.95103H54.5491C55.0798 8.08101 55.2074 7.87938 55.5575 7.87938C55.6852 7.87938 55.7169 7.89004 55.9187 7.97502C56.0247 8.01736 56.2161 8.05969 56.4709 8.13401L56.2161 8.77057C56.0211 8.74272 55.8313 8.68552 55.6534 8.60092C55.5367 8.54793 55.4093 8.49478 55.2819 8.49478C55.0905 8.49478 54.9736 8.62225 54.8675 8.77057C54.7296 8.9617 54.6128 9.142 54.5279 9.3013V11.3599ZM57.2042 11.0627C57.3313 11.6994 57.7348 12.0602 58.213 12.0602C58.6374 12.0602 58.9667 11.7417 58.9667 11.3599C58.9667 11.137 58.9136 10.999 58.6266 10.7126C57.8727 9.95918 57.0341 9.88502 57.0341 9.00403C57.0341 8.30381 57.5865 7.81557 58.3931 7.81557C58.6799 7.81557 58.9775 7.87938 59.2428 7.98553L59.2638 8.95103H59.0836C59.009 8.4098 58.6584 8.07035 58.2339 8.07035C57.8834 8.07035 57.5865 8.31432 57.5865 8.66458C57.5865 9.59857 59.5608 9.75755 59.5608 11.0522C59.5608 11.7417 58.9879 12.2618 58.2447 12.2618C58.0431 12.2618 57.8942 12.23 57.7773 12.1875C57.6604 12.1558 57.5759 12.1238 57.4908 12.1238C57.427 12.1238 57.3636 12.1663 57.3103 12.2513H57.151L57.0341 11.0627H57.2042ZM61.3687 5.375C61.6238 5.375 61.8361 5.55546 61.8361 5.77841C61.8361 6.00121 61.6238 6.18167 61.3687 6.18167C61.1144 6.18167 60.9127 6.00121 60.9127 5.77841C60.9127 5.55546 61.1144 5.375 61.3687 5.375ZM61.8044 11.328C61.8044 11.6994 62.0062 11.9328 62.5688 11.9328V12.1345H60.2117V11.9328C60.8596 11.9328 61.0929 11.7207 61.0929 11.1583V9.02551C61.0929 8.61159 61.0399 8.55844 60.7636 8.50544L60.2647 8.4098V8.24015L61.645 7.76273H61.8044V11.328ZM65.5948 7.93253L65.4247 8.39929H64.0768V10.8718C64.0768 11.5401 64.5545 11.763 64.7773 11.763C65.0107 11.763 65.2233 11.5827 65.4246 11.2325L65.5946 11.3916C65.3399 11.9433 64.9258 12.2618 64.4373 12.2618C63.8107 12.2618 63.365 11.7417 63.365 11.031V8.39929H62.8767V8.22949C63.2908 8.02786 63.6519 7.53978 63.8959 6.88189H64.0768V7.93253H65.5948ZM69.7949 9.11033C70.1134 8.30381 69.9115 8.14467 69.2848 8.1235V7.93253H71.0475V8.1235C70.6123 8.1765 70.3683 8.47361 70.1665 8.9722L68.3616 13.4716C68.0426 14.2568 67.7988 14.6067 67.4273 14.6067C67.1722 14.6067 66.9918 14.4477 66.9918 14.2354C66.9918 13.8002 67.6073 13.9063 67.873 13.6414C67.9894 13.5242 68.149 13.2486 68.2337 13.0365L68.5523 12.2405L66.9066 8.7494C66.7053 8.31432 66.5139 8.13401 66.0679 8.12366V7.93238H68.202V8.12335C67.5544 8.13385 67.4803 8.32498 67.6926 8.77042L68.8923 11.3599L69.7949 9.11033ZM73.4305 10.0653C73.4305 11.3068 74.439 12.2618 75.7556 12.2618C77.0193 12.2618 78.0068 11.2961 78.0068 10.0442C78.0068 8.78123 77.0193 7.81557 75.7239 7.81557C74.6196 7.81557 73.4305 8.60108 73.4305 10.0653ZM74.2267 9.7044C74.2267 8.79189 74.8745 8.07035 75.575 8.07035C76.4671 8.07035 77.2104 9.09967 77.2104 10.3094C77.2104 11.3703 76.4991 12.0072 75.8725 12.0072C74.9594 12.0072 74.2267 10.9883 74.2267 9.7044Z" fill="#231F20"/>
<path fill-rule="evenodd" clip-rule="evenodd" d="M81.0854 8.39948H79.9386V11.307C79.9386 11.7952 80.1297 11.933 80.7243 11.933H81.1278V12.1347H78.5056V11.933C79.1212 11.933 79.2274 11.795 79.2274 11.2008V8.39963H78.4414V8.21902C78.7386 8.15567 78.9938 8.05987 79.2274 7.93272C79.2274 7.05203 79.4187 6.38333 80.0451 5.75728C80.5652 5.23736 81.0639 5.00391 81.5525 5.00391C82.1471 5.00391 82.6463 5.34351 82.6463 5.50265C82.6463 5.58763 82.4445 6.0119 82.3597 6.0119C82.2108 6.0119 81.8179 5.49214 81.1171 5.49214C80.3529 5.49214 79.9386 6.09688 79.9386 7.1262V7.93272H81.0112L81.0854 8.39948Z" fill="#231F20"/>
<mask id="mask2_1399_9276" style="mask-type:luminance" maskUnits="userSpaceOnUse" x="0" y="0" width="12" height="13">
<path d="M0.421875 12.612V0.807617H11.7297V12.6119L0.421875 12.612Z" fill="white"/>
</mask>
<g mask="url(#mask2_1399_9276)">
<path fill-rule="evenodd" clip-rule="evenodd" d="M8.7517 6.93547C8.6642 6.46484 8.70795 5.53472 9.16789 4.61556C7.47051 5.89595 7.44871 6.93547 7.44871 6.93547C7.44871 6.93547 7.77724 6.68378 8.7517 6.93547ZM7.96339 4.13397C7.96339 4.13397 5.9047 4.42954 5.3135 4.48423C4.9055 4.72495 4.43752 5.39798 4.43752 5.39798C4.43752 5.39798 3.95562 5.46905 2.99214 5.64426C2.32209 6.08105 1.91889 7.09955 2.75112 7.93126C2.48829 7.87656 2.48829 7.87656 2.10503 7.8109C1.28378 8.33622 1.66704 9.31022 3.37525 8.97093C2.8935 8.95455 2.65248 8.71924 2.65804 8.4127C2.64707 8.07896 3.29872 7.66319 4.0926 7.87656C3.3369 6.44847 4.17454 5.88483 4.17454 5.88483C4.17454 5.88483 3.7313 7.06402 4.70034 8.02968C4.78785 7.88753 5.07804 7.48813 5.89388 7.47176C6.70662 7.45538 7.21727 7.85431 7.22964 8.31428C7.24062 8.71924 6.72595 9.14598 6.05806 9.14598L6.04709 8.17847C6.04709 8.17847 5.82956 8.2568 5.76787 8.34255C5.7688 8.38705 5.76246 9.15695 5.76246 9.15695C5.49948 9.15695 4.96317 9.04756 4.67839 8.59331C4.45932 8.57153 3.23842 8.39091 3.23842 8.39091L3.30413 8.71367C3.30413 8.71367 3.7313 8.7849 3.81323 9.21165C3.91264 9.728 4.20747 10.202 4.4703 10.3936C4.9794 10.3334 5.8226 9.69324 7.37218 9.71502C5.9486 9.91202 4.50323 11.433 2.42259 10.8531C5.72953 11.9804 6.06904 9.47431 10.2081 10.2623C9.56213 9.86829 8.59849 9.74793 8.59849 9.74793C8.59849 9.74793 9.11301 9.18971 9.13496 8.33622C9.20067 8.33204 9.28833 8.32525 9.45267 8.30887C9.5074 8.03524 9.54559 7.75759 9.54559 7.75759C9.54559 7.75759 8.64224 7.7562 7.88407 7.7562C6.03889 5.89039 7.96339 4.13397 7.96339 4.13397ZM3.34247 4.10122C3.86255 4.12841 4.49472 3.80549 4.536 3.7783C4.536 3.7783 4.31693 4.33097 4.80965 4.29821C5.34457 4.26252 5.96035 3.98843 6.04709 3.9481V3.2366C5.99947 3.27167 5.47815 3.63986 4.88649 3.77289C4.67035 3.82141 4.7441 3.63059 4.7659 3.5212C4.78785 3.41181 4.80254 3.32235 4.41557 3.48288C2.83321 4.13953 2.75112 3.69085 2.75112 3.636C2.68556 3.71279 2.71324 4.068 3.34247 4.10122ZM11.7297 0.807617V12.1367C7.16888 10.342 5.26897 13.8221 0.412598 12.1367V0.807617H2.72313V2.03053H4.04823L4.04808 0.807617H5.35122L5.35138 2.03068L6.66519 2.03053V0.807617H7.97931V2.03053L9.40815 2.03068V0.807617H11.7297Z" fill="#BE2F37"/>
</g>
<path fill-rule="evenodd" clip-rule="evenodd" d="M16.082 16.2173C16.082 16.2173 16.0279 16.1904 16.1308 16.1046C16.1435 16.094 16.1633 16.1175 16.2231 16.1181C16.3037 16.1192 16.3459 16.0913 16.4127 16.011C16.5138 15.8889 16.303 15.8418 16.2349 15.9007C16.1596 15.9647 16.1058 16.0316 16.0416 16.0903C16.0416 16.0903 15.9334 16.1864 16.082 16.2173ZM19.986 21.9403C19.8054 22.0879 19.247 22.3695 19.1072 22.4352C18.9678 22.501 18.9229 22.5407 18.82 22.7445C18.694 22.9936 18.5735 23.4452 18.6063 23.4775C18.9512 23.4231 19.1977 23.1331 19.1977 23.1331C19.1977 23.1331 19.2031 23.062 19.1265 22.9412C19.0632 22.8417 19.1868 22.7337 19.2634 22.7964C19.3217 22.8443 19.403 22.8541 19.4523 22.8127C19.5015 22.7717 20.5773 22.088 20.6267 22.0083C20.4891 21.8716 20.3602 21.7264 20.2406 21.5737C20.2406 21.5737 20.1667 21.7925 19.986 21.9403ZM15.7813 18.9418C15.3213 18.7553 15.2185 18.6313 15.1324 18.5942C15.0557 18.5617 14.7391 18.6962 14.6862 18.8321C14.544 19.1988 14.2264 19.7978 14.1799 19.8828C14.1547 19.9283 14.1278 19.9813 14.1332 20.0416C14.1388 20.1015 14.1565 20.337 14.1511 20.3916C14.1456 20.4466 14.1538 20.5178 14.1756 20.5723C14.1975 20.627 14.2266 20.862 14.3467 21.0976C14.6151 20.8294 14.6544 20.4339 14.6369 20.5121C14.6364 20.5141 14.7219 20.3673 14.5083 20.3013C14.4475 20.2828 14.4565 20.1246 14.5219 20.1043C14.6013 20.0799 14.6425 20.0577 14.6808 19.9158C14.7191 19.7732 14.8635 19.2623 14.9107 19.1634C14.918 19.1482 14.9313 19.1226 14.9578 19.1102C14.9996 19.0917 15.0436 19.0786 15.0888 19.0713C15.1089 19.0682 15.1475 19.09 15.1591 19.1019C15.2321 19.1756 15.6115 19.4832 15.6115 19.4832C15.6115 19.4832 15.7813 19.467 15.8853 19.4233C15.8194 19.3191 15.7922 19.0673 15.7813 18.9418ZM15.3171 16.7803C15.3171 16.7803 15.157 16.9774 15.3377 17.0267C15.3419 17.0839 15.3645 17.1971 15.3872 17.2565C15.4172 17.3357 15.4691 17.3098 15.5266 17.2441C15.5841 17.1785 15.6766 17.0538 15.7443 16.9815C15.8058 16.9159 16.0203 16.9394 15.9332 17.0715C15.8757 17.1591 15.8306 17.1828 15.7567 17.199C15.6982 17.2118 15.6806 17.1619 15.6171 17.2484C15.5501 17.339 15.4785 17.4023 15.5965 17.4023C15.658 17.4023 15.7751 17.4597 15.8531 17.4471C15.9266 17.4357 15.9348 17.3878 15.9428 17.322C15.9509 17.2537 15.9376 17.214 16.0141 17.1717C16.1124 17.1166 16.2576 16.9856 16.3017 16.9391C16.3517 16.8857 16.4164 16.898 16.4821 16.898C16.5478 16.898 16.8652 16.9363 17.0543 16.6531C17.1874 16.4535 17.2021 16.1814 17.1527 15.9351C17.243 16.0254 17.3645 16.3092 17.3005 16.5751C17.1868 17.049 16.9535 17.0754 16.7174 17.1251C16.6189 17.2644 16.367 17.6228 16.233 18.2742C16.1755 18.3124 15.6992 18.772 16.0974 19.5262C15.9948 19.5598 15.6921 19.6893 15.513 19.7293C15.3926 19.7572 15.2919 19.7633 15.2434 19.8213C15.1887 19.8868 15.0627 20.1005 15.1284 20.2068C15.1749 20.2826 15.4733 20.9496 15.4979 21.1551C15.5226 21.36 15.5968 21.4088 15.6703 21.4753C15.7525 21.549 15.8058 21.5448 15.9209 21.6313C16.0371 21.7181 16.1338 21.8751 16.2412 21.9593C16.3561 22.0496 16.4849 22.0907 16.5751 22.0822C16.5532 21.7487 16.4819 21.4204 16.378 21.3112C16.27 21.1971 16.1344 21.36 16.1016 21.3685C16.0688 21.3765 16.0229 21.3449 16.003 21.2534C15.9824 21.1588 16.0688 21.081 15.9866 20.958C15.8743 20.7884 15.7687 20.6145 15.6703 20.4365C15.5636 20.2279 15.7448 20.1718 15.7895 20.1825C15.8963 20.2068 16.5368 20.2933 16.6353 20.3015C16.7338 20.3094 16.7883 20.3262 16.8326 20.2764C16.968 20.125 17.0459 20.0141 17.124 19.8579C17.2678 19.965 17.1691 20.1701 17.1282 20.4133C17.1691 20.4492 18.0972 20.917 19.373 20.5777C19.9056 20.4362 19.845 20.5478 19.8957 20.646C20.2051 21.2455 20.4241 21.4773 20.791 21.7705C20.9005 21.8581 20.977 22.0003 21.0263 22.0822C21.0758 22.1645 21.0881 22.3105 21.0483 22.4054C20.9989 22.5228 20.714 23.0336 20.665 23.1054C20.5719 23.2423 20.4504 23.3573 20.3473 23.4118C20.0243 23.5843 19.9438 23.7391 19.9082 23.8596H20.7375C20.7375 23.8596 20.7568 23.8163 20.7471 23.7128C20.7333 23.568 20.8647 23.5436 20.9059 23.5351C20.9468 23.5269 21.0209 23.5595 21.0864 23.4038C21.2101 23.1105 21.6916 22.2931 21.7327 22.219C21.7737 22.1452 21.9241 21.9479 21.7764 21.8607C21.4971 21.697 21.3332 21.4269 21.2782 21.1245C21.2562 21.0043 21.2693 20.8062 21.541 20.4682C22.1214 19.7462 21.6888 18.2578 20.3969 18.2852C19.6641 18.3006 19.2563 18.2382 18.7788 18.143C18.6043 18.1077 18.5745 18.014 18.6119 17.9073C18.6502 17.798 18.6872 17.5806 18.6884 17.4916C18.5626 17.3768 18.371 17.3058 18.2778 17.273C18.1776 17.2376 18.1272 17.1577 18.2286 17.1499C18.3299 17.1415 18.7131 17.1826 18.7131 17.1826C18.7131 17.1826 18.7267 16.9774 18.672 16.6765C18.4833 16.5964 18.2843 16.5429 18.0808 16.5176C18.0232 16.5105 17.9726 16.4458 18.119 16.4249C18.3107 16.3976 18.4859 16.4276 18.623 16.4192C18.631 16.403 18.5571 16.02 18.4216 15.8653C18.3273 15.8367 18.2772 15.8236 17.9494 15.7847C17.8344 15.7709 17.8288 15.738 17.9055 15.7131C17.9947 15.685 18.1423 15.6561 18.3273 15.668C18.2561 15.5699 17.7797 14.7013 16.7914 14.9627C16.9021 15.0979 16.9556 15.1608 16.9884 15.2539C17.0179 15.3374 16.9298 15.3638 16.8489 15.2788C16.5368 14.9502 16.3725 14.9584 16.1713 14.9213C16.3027 15.0487 16.3602 15.1762 16.4054 15.3031C16.1797 15.4631 15.8593 15.8448 15.814 15.9186C15.7281 16.0592 15.847 16.1349 15.847 16.1349L15.3171 16.7803ZM21.7024 14.5809C20.6924 14.9336 20.8412 16.0218 21.114 16.4413C21.4699 16.9884 21.771 16.9994 21.9983 17.6421C22.1753 18.1436 21.8585 18.4054 21.5464 18.5203C22.0802 18.849 22.6305 18.5095 22.8276 18.1812C23.1906 17.6977 22.7793 17.0698 23.1671 16.7421C23.2708 16.6545 23.4463 16.5944 23.6819 16.5835C23.4461 16.2497 22.8934 16.288 22.6716 16.6C22.5156 16.2387 22.0774 15.9229 22.2364 15.3633C22.3404 14.9967 22.9207 14.8599 23.1396 15.1609C23.2594 15.3255 23.2765 15.6478 22.9262 15.812C23.1451 15.7956 23.5612 15.418 23.2765 14.9038C23.0766 14.5424 22.7401 14.5149 22.4664 14.5149C21.968 14.5149 21.1415 15.0844 21.6698 16.3126C21.3658 16.0419 20.8731 15.0979 21.7024 14.5809ZM24.2226 13.3021V24.6448C17.9483 26.1715 17.7673 22.8391 12.9057 24.6448C12.9061 24.792 12.9035 13.301 12.9057 13.3021C17.3732 11.4307 19.1145 14.9763 24.2226 13.3021Z" fill="#BE2F37"/>
<mask id="mask3_1399_9276" style="mask-type:luminance" maskUnits="userSpaceOnUse" x="0" y="12" width="12" height="14">
<path d="M0.421875 12.7402V25.0577H11.7304V12.7402H0.421875Z" fill="white"/>
</mask>
<g mask="url(#mask3_1399_9276)">
<path fill-rule="evenodd" clip-rule="evenodd" d="M4.52951 19.7729C4.52951 19.7729 4.331 19.9024 4.57975 20.4478C4.8282 20.9926 5.13694 21.5 4.5997 22.0987C4.90427 22.1024 5.56906 21.701 4.85773 20.5045C4.69416 20.229 4.5176 20.0382 4.52951 19.7729ZM3.85652 20.0299C4.02102 20.0186 4.04189 19.8174 4.01205 19.7116C3.97696 19.5864 3.76825 19.571 3.718 19.7301C3.66822 19.8877 3.71166 20.0407 3.71166 20.0407C3.75294 20.1924 3.92393 20.2358 3.93862 20.2205C3.84369 20.1354 3.86936 20.0866 3.85652 20.0299ZM4.01468 20.754C3.97495 21.2356 3.69852 21.3065 3.69852 21.3065C3.21616 21.0851 2.95736 21.6919 3.36226 21.8705C3.87523 22.0971 4.18923 21.4345 4.21969 21.3119C4.30611 20.9646 4.3143 20.719 4.27534 20.155C4.24257 19.6743 4.3613 19.6016 4.44046 19.5886C4.5193 19.575 4.68442 19.5685 4.84907 20.0696C5.01403 20.5702 5.36962 20.6426 5.36962 20.6426C5.36962 20.6426 4.85464 19.8052 5.57091 19.0321C5.90393 18.6727 6.58309 18.4684 6.4574 17.965C6.4574 17.965 6.35227 18.1455 6.14789 18.1983C5.9435 18.2509 5.54788 18.3104 5.54788 18.3104C5.54788 18.3104 6.49744 17.8621 6.66874 17.3484C6.66874 17.3484 6.96543 17.8425 6.5698 18.5671C6.5698 18.5671 6.94656 18.4326 7.35193 18.6154C8.38514 19.0732 8.27553 20.5436 6.96805 20.8946C5.10741 21.3935 5.78303 22.832 6.84855 22.9202C6.73414 22.8476 6.70832 22.414 6.89539 22.1563C6.98893 22.0733 7.1559 21.9056 7.2618 22.2583C7.44887 22.8816 7.99492 22.9322 8.24816 22.8544C8.18168 22.7981 8.05723 22.6087 8.07269 22.4995C8.10392 22.2813 8.37664 22.508 8.47574 22.5359C9.20855 22.7439 9.59815 22.5622 9.6399 22.4525C9.47633 22.4188 9.50493 22.4375 9.40088 22.4114C9.3041 22.3867 9.11595 22.2532 9.4686 22.1724C10.1158 22.0241 10.4718 21.3566 10.0456 20.8427C9.63866 20.3514 9.12569 20.4266 8.95918 20.4941C9.66092 20.6453 9.69617 21.2095 9.33858 21.4969C9.02674 21.7308 8.25218 21.8241 7.98704 21.3047C7.81945 21.4258 7.76086 21.6193 7.78961 21.8606C7.71927 21.8343 7.42552 21.4167 7.86212 21.0711C9.8868 19.7666 9.56012 17.5745 7.84651 16.6723L7.82533 16.663C6.2708 15.7706 4.91076 16.5852 4.91076 16.5852C5.87192 15.623 7.53282 16.1953 7.77183 16.3148C7.77183 16.3148 7.58074 16.1487 7.47902 15.9962C7.34729 15.7989 7.35224 15.6102 7.35224 15.6102C6.69302 15.9779 6.5228 15.4129 6.5228 15.4129C6.5228 15.4129 5.95185 15.9273 5.58127 15.509C5.25722 15.1428 5.78179 14.6464 5.78179 14.6464C2.43712 15.7434 3.07099 17.631 3.07099 17.631C3.07099 17.631 2.58662 18.0755 2.47824 19.1472C2.35502 20.3642 2.96168 21.2296 3.7197 20.9918C3.89332 20.9376 3.97943 20.8548 4.01298 20.7634L4.01468 20.754ZM11.7298 13.3021C11.7317 13.301 11.729 24.792 11.7298 24.6448C6.86756 22.8392 6.68699 26.1713 0.412598 24.6448V13.3021C5.52067 14.9763 7.26195 11.4307 11.7298 13.3021Z" fill="#BE2F37"/>
</g>
</g>
<defs>
<clipPath id="clip0_1399_9276">
<rect width="84" height="24.4119" fill="white" transform="translate(0.387207 0.793945)"/>
</clipPath>
</defs>
</svg>
