<svg width="84" height="84" viewBox="0 0 84 84" fill="none" xmlns="http://www.w3.org/2000/svg">
<g clip-path="url(#clip0_1400_10358)">
<rect width="84" height="84" fill="white"/>
<path fill-rule="evenodd" clip-rule="evenodd" d="M0 0H84V84H0V0Z" fill="white"/>
<path fill-rule="evenodd" clip-rule="evenodd" d="M4.66391 60.3022V58.7137H5.118V58.5625H3.70605V58.7137H4.13443V62.1935H3.70605V62.3194H5.118V62.1935H4.66391V60.4782H6.27762V62.1935H5.8488V62.3194H7.26075V62.1935H6.83193V58.7137H7.26075V58.5625H5.8488V58.7137H6.27762V60.3022H4.66391ZM10.7902 62.3194L10.8407 61.487H10.7148C10.6141 62.1425 10.4123 62.2183 9.83231 62.2183H9.27755V60.8316C9.73164 60.8316 9.9077 60.9075 9.93297 61.3864H10.0336V60.2516H9.93297C9.88242 60.7053 9.73164 60.731 9.27755 60.731V59.445H9.85758C10.2607 59.445 10.5383 59.5208 10.6137 60.0503H10.7143V59.3447H8.44521V59.445H8.84874V62.2179H8.44521V62.319L10.7902 62.3194ZM14.2943 62.3194L14.3449 61.487H14.2695C14.2189 61.7646 14.0424 62.2183 13.6642 62.2183H12.8828V59.4454H13.2859V59.3452H12.0757V59.4454H12.4287V62.2183H12.0757V62.3194H14.2943ZM15.6557 62.1425C15.8575 62.3194 16.1098 62.3952 16.3617 62.3952C16.9417 62.3952 17.3195 62.0165 17.3195 61.3868C17.3195 60.1766 15.6308 60.6556 15.6308 59.9248C15.6308 59.5713 15.9586 59.37 16.261 59.37C16.6641 59.37 16.9164 59.6476 17.0171 60.0254H17.1177V59.3452H17.0424L16.8659 59.4711C16.79 59.3953 16.4876 59.2693 16.2858 59.2693C15.9581 59.2693 15.7311 59.4201 15.6051 59.5713C15.4792 59.7474 15.4286 59.899 15.4286 60.1008C15.4286 60.3527 15.5293 60.6055 15.7816 60.7815C15.857 60.8316 16.5377 61.0591 16.7142 61.1092C17.0419 61.2609 17.1173 61.3611 17.1173 61.6387C17.1173 62.0165 16.7395 62.2684 16.3612 62.2684C15.9328 62.2684 15.6304 61.9664 15.504 61.5629H15.4034V62.3194H15.4792L15.6557 62.1425ZM19.6388 62.2179H19.2605V59.445H19.6388V59.3447H18.4539V59.445H18.8321V62.2179H18.4539V62.3194H19.6388V62.2179ZM21.1766 62.2179H20.8489V62.3194H21.6556V62.2179H21.3279V59.5208L23.017 62.3952H23.1176V59.445H23.4706V59.3447H22.6387V59.445H22.9917V61.487H22.9664L21.7061 59.3447H20.8489V59.445H21.1766V62.2179ZM26.7481 59.5465C26.5716 59.3696 26.2941 59.2689 25.9916 59.2689C25.3615 59.2689 24.6808 59.9243 24.6808 60.8068C24.6808 61.664 25.1597 62.3952 25.9663 62.3952C26.8741 62.3952 27.1011 61.8649 27.126 61.3611H27.4036V61.2609H26.1934V61.3611H26.6218C26.647 61.8649 26.5965 62.2684 25.9916 62.2684C25.2856 62.2684 25.185 61.7145 25.185 60.9332C25.185 60.6804 25.2103 60.0507 25.3863 59.723C25.4617 59.5713 25.6887 59.3696 25.9663 59.3696C26.4705 59.3696 26.7983 59.6973 26.8741 60.1261H26.9747V59.3696H26.8994L26.7481 59.5465ZM29.6722 62.3194V62.2183H29.294V60.8573C29.6971 60.8573 29.874 60.9075 29.9241 61.3611H30.0248V60.2769H29.9241C29.8736 60.7057 29.6971 60.7314 29.294 60.7314V59.4454H29.8487C30.4288 59.4454 30.5042 59.5713 30.6301 60.1261H30.7059L30.6807 59.3447H28.4874V59.445H28.8652V62.2179H28.4874V62.319L29.6722 62.3194ZM33.1515 62.3952C33.9076 62.3952 34.4371 61.613 34.4371 60.8316C34.4371 60.0246 33.9076 59.2689 33.1515 59.2689C32.3702 59.2689 31.866 60.0246 31.866 60.8316C31.866 61.613 32.3698 62.3952 33.1515 62.3952ZM33.1515 62.2684C32.5214 62.2684 32.3702 61.7389 32.3702 60.8316C32.3702 59.8986 32.5214 59.3696 33.1515 59.3696C33.7564 59.3696 33.9076 59.8991 33.9076 60.8316C33.9076 61.7389 33.7564 62.2684 33.1515 62.2684ZM36.7816 62.3194V62.2183H36.4286V60.7562H36.7058C37.2606 60.7562 37.3107 61.0839 37.3107 61.311C37.3612 61.5629 37.3865 61.9407 37.4113 62.0165C37.4619 62.2183 37.6384 62.3952 37.9661 62.3952C38.0668 62.3695 38.1931 62.3442 38.3444 62.2941V62.1939C38.2184 62.244 38.0419 62.2688 37.9661 62.2187C37.8654 62.1686 37.8401 61.9668 37.8401 61.7394C37.8907 61.0338 37.5377 60.8578 37.0335 60.7318V60.7061C37.4366 60.6804 37.9661 60.5802 37.9661 59.9749C37.9661 59.7731 37.8401 59.3452 36.9577 59.3452H35.6473V59.4454H36.0003V62.2183H35.6473V62.3194H36.7816ZM36.4286 59.445H36.857C37.2854 59.445 37.4619 59.5709 37.4619 59.9997C37.4619 60.605 37.1595 60.6551 36.6805 60.6551H36.4282L36.4286 59.445ZM39.7062 62.1425C39.8827 62.3194 40.1346 62.3952 40.3869 62.3952C40.9669 62.3952 41.37 62.0165 41.37 61.3868C41.37 60.1766 39.6809 60.6556 39.6809 59.9248C39.6809 59.5713 40.0086 59.37 40.3115 59.37C40.6893 59.37 40.9669 59.6476 41.0676 60.0254H41.143V59.3452H41.0924L40.9159 59.4711C40.8405 59.3953 40.5381 59.2693 40.3363 59.2693C39.9833 59.2693 39.782 59.4201 39.6304 59.5713C39.5044 59.7474 39.4539 59.899 39.4539 60.1008C39.4539 60.3527 39.5545 60.6055 39.8321 60.7815C39.8827 60.8316 40.5882 61.0591 40.7399 61.1092C41.0928 61.2609 41.143 61.3611 41.143 61.6387C41.143 62.0165 40.79 62.2684 40.4117 62.2684C39.9576 62.2684 39.6552 61.9664 39.5293 61.5629H39.4539V62.3194H39.5044L39.7062 62.1425ZM44.4706 59.3447V59.445H44.824V61.5624C44.824 62.0662 45.2019 62.3948 45.7814 62.3948C46.4377 62.3948 46.7654 62.0414 46.7654 61.3358V59.4445H47.0932V59.3443H46.2861V59.4445H46.6395V61.209C46.6395 61.7638 46.5384 62.2431 45.883 62.2431C45.3282 62.2431 45.2533 61.7638 45.2533 61.6635V59.4445H45.6058V59.3443L44.4706 59.3447ZM48.6812 62.2179H48.3277V62.3194H49.1596V62.2179H48.8319V59.5208L50.4958 62.3952H50.6217V59.445H50.9751V59.3447H50.1432V59.445H50.4958V61.487H50.4709L49.2106 59.3447H48.3277V59.445H48.6812V62.2179ZM53.3201 62.2179H52.9409V59.445H53.3201V59.3447H52.1352V59.445H52.513V62.2179H52.1352V62.3194H53.3201V62.2179ZM54.4034 59.445H54.7311L55.7395 62.3952H55.8411L56.7985 59.445H57.1262V59.3447H56.269V59.445H56.6726L55.9413 61.664L55.1848 59.445H55.5378V59.3447H54.4034V59.445ZM60.6046 62.3194L60.6805 61.487H60.5545C60.4286 62.1425 60.2525 62.2183 59.6472 62.2183H59.1177V60.8316C59.5466 60.8316 59.7475 60.9075 59.7732 61.3864H59.8743V60.2516H59.7732C59.6973 60.7053 59.5714 60.731 59.1177 60.731V59.445H59.6973C60.1009 59.445 60.378 59.5208 60.4539 60.0503H60.5541V59.3447H58.2858V59.445H58.6885V62.2179H58.2858V62.319L60.6046 62.3194ZM63.0254 62.3194V62.2183H62.672V60.7562H62.9248C63.5043 60.7562 63.5292 61.0839 63.5545 61.311C63.5802 61.5629 63.6046 61.9407 63.6303 62.0165C63.6804 62.2183 63.8822 62.3952 64.1842 62.3952C64.3101 62.3695 64.4369 62.3442 64.5877 62.2941V62.1939C64.4369 62.244 64.2857 62.2688 64.1842 62.2187C64.0839 62.1686 64.0582 61.9668 64.0839 61.7394C64.1096 61.0338 63.7562 60.8578 63.2525 60.7318V60.7061C63.6804 60.6804 64.1846 60.5802 64.1846 59.9749C64.1846 59.7731 64.0587 59.3452 63.2015 59.3452H61.8906V59.4454H62.2183V62.2183H61.8906V62.3194H63.0254ZM62.672 59.445H63.0755C63.5043 59.445 63.7061 59.5709 63.7061 59.9997C63.7061 60.605 63.4032 60.6551 62.899 60.6551H62.672V59.445ZM65.9748 62.1425C66.1766 62.3194 66.4293 62.3952 66.6555 62.3952C67.2608 62.3952 67.6386 62.0165 67.6386 61.3868C67.6386 60.1766 65.95 60.6556 65.95 59.9248C65.95 59.5713 66.2777 59.37 66.5797 59.37C66.9832 59.37 67.2351 59.6476 67.3362 60.0254H67.4364V59.3452H67.3606L67.1845 59.4711C67.1087 59.3953 66.8067 59.2693 66.6049 59.2693C66.2772 59.2693 66.0502 59.4201 65.9243 59.5713C65.7983 59.7474 65.7225 59.899 65.7225 60.1008C65.7225 60.3527 65.8236 60.6055 66.1003 60.7815C66.1513 60.8316 66.8568 61.0591 67.0085 61.1092C67.361 61.2609 67.4364 61.3611 67.4364 61.6387C67.4364 62.0165 67.0586 62.2684 66.6808 62.2684C66.252 62.2684 65.9243 61.9664 65.8236 61.5629H65.7225V62.3194H65.7983L65.9748 62.1425ZM69.9579 62.2179H69.58V59.445H69.9579V59.3447H68.773V59.445H69.1512V62.2179H68.773V62.3194H69.9579V62.2179ZM72.7565 62.3194V62.2183H72.4031V59.4454H72.6048C73.0585 59.4454 73.2101 59.7731 73.2602 60.2019H73.3613L73.3356 59.3447H71.0417L70.9916 60.2019H71.1175C71.1933 59.7474 71.2434 59.4454 71.647 59.4454H71.9747V62.2183H71.5969V62.3194H72.7565ZM76.7644 62.3194L76.8402 61.487H76.7143C76.5883 62.1425 76.4123 62.2183 75.807 62.2183H75.2775V60.8316C75.7054 60.8316 75.9072 60.9075 75.9329 61.3864H76.0331V60.2516H75.9329C75.8571 60.7053 75.7311 60.731 75.2775 60.731V59.445H75.8571C76.2606 59.445 76.5378 59.5208 76.6136 60.0503H76.7138V59.3447H74.4447V59.445H74.8482V62.2179H74.4447V62.319L76.7644 62.3194ZM79.6889 62.3194V62.2183H79.3111V59.4454H79.5129C79.9665 59.4454 80.1182 59.7731 80.1683 60.2019H80.2942L80.2685 59.3447H77.9493L77.8992 60.2019H78.0251C78.1009 59.7474 78.151 59.4454 78.5799 59.4454H78.8819V62.2183H78.504V62.3194H79.6889Z" fill="black"/>
<path fill-rule="evenodd" clip-rule="evenodd" d="M38.6218 31.5879L38.2187 31.4115L38.0418 31.3108L37.8405 31.235L37.4369 30.9578L37.0591 30.6048L36.8822 30.4789L36.7314 30.3024L36.5296 29.9995L36.3026 29.647L36.1261 29.294L35.8738 28.6386L35.6977 28.3357L35.5208 28.0337L35.1682 27.6807L34.9412 27.4537L34.6893 27.2772L34.4117 27.0754L34.1093 26.8484L33.8069 26.6723L33.504 26.5459H33.4539L33.4033 26.4453H33.4539L33.504 26.42L34.3363 26.2688L34.8153 26.2435H35.6472L35.9496 26.2688L36.6556 26.42L37.0086 26.4954L37.3868 26.6213L37.8405 26.7477L38.3194 26.9743L38.5713 27.1007L38.8489 27.2519L39.4537 27.6302L40.059 28.0337L40.3868 28.2097L40.6892 28.3862L40.9415 28.5122L41.2439 28.588L41.42 28.6386H41.8235L42 28.588L42.126 28.5627L42.2523 28.5122L42.3783 28.4115L42.479 28.2856L42.6049 28.1596L42.8319 27.8066L42.9579 27.5038L43.008 27.3273V27.1512L42.9579 26.7477L42.8821 26.42L42.7308 26.0164L42.5543 25.714L42.4284 25.5375L42.353 25.4116L42.126 25.1845V25.0586H42.1765L42.6559 25.0839L43.0838 25.2351L43.5632 25.4116L44.0927 25.5881L44.5716 25.7898L45.0509 26.067L45.5294 26.3694L45.9831 26.7224L46.2358 26.9242L46.5121 27.2013L46.8913 27.6302L47.1174 27.9073L47.2944 28.1091L47.4203 28.3862L47.5968 28.588L47.874 29.1175L48.0757 29.647L48.3023 30.1764L48.5294 30.756L48.7059 31.3108L48.8828 31.9157L49.0336 32.4957L49.2105 33.0753L49.3107 33.3276L49.4367 33.5546L49.614 33.756L49.74 33.9325L49.9662 34.0837L50.1936 34.2096L50.3954 34.2602L50.6974 34.2855H51.2269L51.4029 34.2602H51.5045V34.336L51.5799 34.8149L51.6805 35.2939L51.8065 35.6974L51.9834 36.0757L52.0592 36.3023L52.21 36.4788L52.336 36.6552L52.4628 36.8317L52.6388 36.9577L52.8149 37.1342L53.1927 37.4366L53.4703 37.5878L53.7222 37.7138L53.9998 37.8401L54.2525 37.9155L54.7811 38.092L55.0339 38.2432L55.3106 38.4202L55.7394 38.7222L56.143 39.025L56.5208 39.378L56.8742 39.7306L57.2019 40.1093L57.5039 40.4618L57.7057 40.8654L57.9327 41.2179V41.2937H57.8573L57.4037 41.1172L56.9243 40.9155L56.3704 40.7643L56.0419 40.6889H54.9581L54.7062 40.7394L54.4791 40.7643L54.2015 40.8148L53.9998 40.9155L53.7736 40.9412H53.6978V40.9155L53.4202 40.5629L53.2942 40.3359L53.1683 40.1594L52.9408 40.0334L52.7648 39.857L52.5377 39.7558L52.2854 39.6805L52.0335 39.6299L51.7564 39.5798H51.328L50.8743 39.7306L50.4956 39.8064L50.1431 39.9829L49.916 40.0334L49.74 40.0836L49.5382 40.1093L49.3107 40.1594H49.0846L48.8318 40.1093L48.4793 40.0836L48.1764 39.9829L47.8988 39.9075L47.6469 39.8064L47.5968 39.857V39.9323L47.874 40.2099L48.1263 40.5878L48.4793 41.0418L48.8318 41.5713L49.1347 42.1261L49.3866 42.6556L49.4872 42.9074L49.5626 43.185L49.614 43.4369V43.7141H49.5382L49.4872 43.6631L49.3613 43.5371L49.2105 43.3611L48.8828 43.0591L48.7059 42.8817L48.5294 42.7314L48.0757 42.4786L47.6469 42.2263L47.1684 41.9997L46.8913 41.8986L46.588 41.8232L46.3361 41.7474L46.0341 41.6973L45.4536 41.5713L44.874 41.4702L44.3947 41.2937L43.8652 41.1172L43.6634 41.0418L43.4372 40.9412L43.0337 40.7394L42.706 40.4618L42.5543 40.3359L42.3783 40.2099V40.1594L42.353 40.2099H42.3025V40.4117L42.353 40.6383L42.4284 40.9155L42.5543 41.1678L42.706 41.3948L42.8821 41.6467L43.0838 41.8738L43.3113 41.9997L43.7392 42.252L44.1428 42.5296L44.4456 42.7314L44.7481 43.0077L45.0252 43.2604L45.2771 43.5629L45.5294 43.8906L45.8066 44.2684L46.0341 44.5713L46.2358 44.899L46.3618 45.2014L46.5378 45.5043L46.7649 46.0839L46.9414 46.6386V46.6892L46.8913 46.7393H46.8656V46.6892L46.462 46.3859L46.0585 46.0839L45.6305 45.8063L45.2017 45.5544L44.6723 45.3273L44.0927 45.1007L43.4874 44.9238L42.7308 44.8489L42.5543 44.7979H42.3783L42.0506 44.8489L41.7229 44.7979H41.5464L41.3699 44.7478L41.2182 44.6719L41.1176 44.6218L41.0422 44.5713L40.891 44.4453L40.7646 44.3194L40.6892 44.1926L40.5881 44.0666L40.4116 43.7389L40.2355 43.4369L40.0338 43.185L39.9327 43.0591L39.8067 42.9576L39.6302 42.9074L39.4537 42.8817H39.1513L38.8489 42.9074L38.5464 42.9576L38.1935 43.0591L37.4875 43.2351L37.185 43.2604H36.8822L36.6556 43.2351L36.4285 43.185L36.0507 43.0835L35.6472 42.9074L35.2942 42.7314L34.9412 42.5296L34.5882 42.3021L34.3363 42.0503L34.0335 41.7474L33.555 41.1678L33.3279 40.8654L33.1514 40.5629L32.8486 39.9829L32.622 39.504V39.4029H32.7226L32.8486 39.504L32.9244 39.5798L33.2015 39.7558L33.504 39.9323L33.8069 40.0836L34.1598 40.2099L34.3363 40.2352L34.5128 40.2853L34.8654 40.3359H35.2441L35.6472 40.2853L36.0507 40.2099L36.3784 40.0836L36.7057 39.9075L36.7314 39.857L36.7057 39.8064L36.1261 39.378L35.6977 39.025L35.5208 38.798L35.2942 38.571L35.1177 38.3191L34.9412 38.0672L34.8153 37.7395L34.7647 37.6131L34.7142 37.4872L34.6893 37.2353L34.6388 37.0082L34.5882 36.7559L34.5128 36.4788L34.4117 36.2517L34.2352 35.9998L34.1093 35.924L34.0335 35.8233L33.8069 35.6974L33.5798 35.5963L33.378 35.571H32.8738L32.3696 35.6974L31.8402 35.8233L31.3111 35.924L31.0588 35.9493L30.7311 35.924H30.4792L30.2269 35.8233L29.5967 35.571L29.3444 35.4198L29.1178 35.2939L28.8908 35.1174L28.689 34.9914L28.336 34.6384L28.16 34.4619L28.0336 34.2855L27.7564 33.9325L27.5799 33.5546L27.3782 33.2012L27.0505 32.4451L26.9245 32.0921L26.748 31.7392L26.5715 31.4115L26.3698 31.0837L26.1432 30.8314L25.8403 30.5795L25.5378 30.403L25.2607 30.2266L25.0084 30.0753L24.7818 29.9995L24.3529 29.8736L23.9498 29.7729H23.8993L23.874 29.7476V29.647H23.8993L24.1765 29.521L24.4288 29.4199L24.7308 29.3441L25.0589 29.294H25.7143L26.0926 29.3441L26.4456 29.3946L26.8992 29.521L27.2771 29.647L27.63 29.8235L28.0336 30.0501L28.336 30.2518L28.5883 30.4789L29.1679 30.9073L29.4202 31.0837L29.5462 31.1343L29.7227 31.1848L29.8739 31.235L30.0504 31.1848L30.1768 31.1343L30.3528 31.0837L30.5293 30.9578L30.6051 30.8314L30.6553 30.7055L30.7058 30.529L30.6553 30.3525L30.5546 30.1764L30.4287 29.9995L30.3027 29.7729L30.1262 29.5964L29.8992 29.4199L29.4704 29.1175L29.2185 28.9915L28.9919 28.9157L28.7143 28.8151L28.462 28.7645L28.4118 28.7392L28.3866 28.6887L28.4118 28.6386L28.462 28.588L28.5631 28.5627H28.689L28.9413 28.5122L29.2185 28.4621H29.8238L30.1262 28.5122L30.4792 28.5627L30.7816 28.588L31.4371 28.8151L32.0925 29.0417L32.3949 29.2182L32.7226 29.3946L33.0255 29.5711L33.2774 29.7476L33.6809 30.0501L33.9833 30.3525L34.2858 30.6554L34.5882 30.9073L34.8906 31.1848L35.2441 31.4115L35.6472 31.6132L35.8738 31.6638L36.0755 31.7392L36.4285 31.8398L36.7815 31.8904H37.7394L38.0418 31.8398L38.3695 31.7897L38.6218 31.7139L38.6724 31.6638L38.7225 31.6132L38.6724 31.5879H38.6218Z" fill="#BCA828"/>
<path fill-rule="evenodd" clip-rule="evenodd" d="M43.3614 22.1099V19.1348H40.3867V22.1099H43.3614Z" fill="#1879BF"/>
<path fill-rule="evenodd" clip-rule="evenodd" d="M40.3867 37.084H43.3614V34.1094H40.3867V37.084Z" fill="white"/>
<path fill-rule="evenodd" clip-rule="evenodd" d="M43.3614 52.1097V49.085H40.3867V52.1097H43.3614Z" fill="#1879BF"/>
</g>
<defs>
<clipPath id="clip0_1400_10358">
<rect width="84" height="84" fill="white"/>
</clipPath>
</defs>
</svg>
