<svg width="78" height="84" viewBox="0 0 78 84" fill="none" xmlns="http://www.w3.org/2000/svg">
<g clip-path="url(#clip0_1399_9307)">
<rect width="77.2258" height="84" transform="translate(0.386719)" fill="white"/>
<path d="M38.8925 45.6067L23.1758 23.9642V39.6782H29.4625V55.1779H0.386719V39.6782H6.24474V15.5358H0.386719V0.0361328H23.2473L38.9639 21.8214L54.752 0.0361328H77.6125V15.5358H71.7545V39.6782H77.6125V55.1779H48.4653V39.6782H54.752V23.9642L38.8925 45.6067Z" fill="#F3C300"/>
<path d="M62.0388 83.6779V83.1065C62.7532 83.0351 63.3247 83.035 63.3247 82.4636C63.3247 82.2494 63.2532 82.0351 63.1818 81.8208L62.896 80.7494H59.2526L58.9669 81.6779C58.8954 81.8922 58.824 82.1065 58.824 82.3208C58.824 83.035 59.6098 83.1065 60.2528 83.1065V83.6779H55.9664V83.1065C57.038 83.0351 57.3952 82.8208 57.8239 81.7494L60.61 74.0352L60.4671 73.8209C61.1815 73.6067 61.8959 73.3209 62.5388 72.8924C62.7532 73.6067 62.7532 73.6781 63.0389 74.3924L65.325 81.4636C65.7536 82.6779 65.8965 83.0351 67.0395 83.1065V83.6779H62.0388ZM61.1815 75.3209L59.6813 79.6065H62.6103L61.1815 75.3209ZM29.0339 81.3208C28.1766 82.9636 26.462 83.9636 24.6046 83.8922C21.4613 83.8922 19.461 81.6065 19.461 78.5351C19.461 75.7495 21.1755 72.9638 24.6761 72.9638C25.962 72.9638 27.1764 73.3924 28.1051 74.1781L28.8195 73.5352L28.891 76.678L28.3909 76.7495C28.1766 76.0352 27.7479 75.3923 27.2479 74.8924C26.6764 74.2495 25.8905 73.8924 25.1047 73.8924C23.2473 73.8924 21.747 75.3923 21.747 78.1066C21.747 80.3922 22.9615 82.5351 25.3904 82.5351C26.6764 82.5351 27.8194 81.8922 28.4623 80.7494L29.0339 81.3208ZM29.7482 83.6779V83.1065C30.9627 83.0351 30.9627 82.7493 30.9627 81.7494V76.3209C30.9627 75.6066 30.9627 74.9638 30.8913 74.6781C30.8198 74.0352 30.5341 73.9638 29.7482 73.8924V73.3209H34.1775V73.8924C33.3202 73.9638 32.963 74.0352 32.8916 74.6066C32.8201 75.1781 32.7487 75.7495 32.8201 76.3209V77.7494C33.7488 77.8209 34.3204 77.8209 35.1776 77.8209C36.0349 77.8209 36.7493 77.8209 37.6066 77.7494V76.0352C37.6066 74.1067 37.6066 74.0352 36.1778 73.9638V73.3924H40.6784V73.9638C39.464 74.1066 39.464 74.1066 39.464 76.1066V80.4637C39.464 80.8922 39.464 82.1779 39.5354 82.4636C39.6069 83.035 39.8926 83.1065 40.6784 83.1779V83.7493H36.1778V83.1779C37.2494 83.035 37.4637 83.035 37.6066 82.3208V78.9637C36.7493 78.9637 36.1063 78.8923 35.2491 78.8923C34.3918 78.8923 33.6774 78.8923 32.7487 78.9637V80.8208C32.7487 82.9636 32.8201 82.9636 34.106 83.1065V83.6779H29.7482ZM41.5357 83.6779V83.1065C42.5359 82.9636 42.7502 82.8208 42.7502 81.7494V76.2495C42.7502 74.1066 42.7502 74.0352 41.5357 73.8924V73.3209H45.8221V73.8924C44.6076 74.0352 44.6076 74.0352 44.6076 76.2495V80.4637C44.6076 80.8208 44.6076 81.9636 44.679 82.3208C44.7505 82.9636 45.0362 83.1065 45.8221 83.1779V83.7493H41.5357V83.6779ZM14.9603 83.6779V83.1065C15.9605 82.9636 16.1748 82.8208 16.1748 81.7494V76.2495C16.1748 74.1066 16.1748 74.0352 14.9603 73.8924V73.3209H19.2467V73.8924C18.0322 74.0352 18.0322 74.0352 18.0322 76.2495V80.4637C18.0322 80.8208 18.0322 81.9636 18.1036 82.3208C18.1751 82.9636 18.4608 83.1065 19.2467 83.1779V83.7493H14.9603V83.6779ZM9.38806 83.6779V83.1065C10.674 83.0351 10.674 82.9636 10.674 81.0351V75.8209L7.03057 83.8208H6.10186L2.74421 75.7495L2.67277 81.8208C2.67277 82.8208 2.81565 83.0351 3.88724 83.1065V83.6779H0.386719V83.1065C1.24399 83.0351 1.52975 82.9636 1.60119 82.2493C1.60119 81.9636 1.67262 81.1065 1.67262 80.5351L1.8155 76.178V74.9638C1.8155 73.9638 1.60119 73.8924 0.672476 73.8209V73.2495H3.88724L7.10201 81.1065L10.674 73.2495H13.8173V73.8924C12.6028 73.9638 12.5314 74.1066 12.6028 75.7495V80.0351C12.6028 80.7494 12.6028 81.6065 12.6743 82.1779C12.7457 82.9636 13.0315 83.1065 13.8173 83.1779V83.7493L9.38806 83.6779ZM66.6109 83.6779V83.1065C67.4682 83.0351 67.8254 83.035 67.8968 82.4636C68.0397 81.7494 68.1111 75.6066 68.1111 74.5352C67.7539 74.1067 67.1824 73.8209 66.6109 73.8209V73.2495H69.7542C70.6115 74.4638 70.8258 74.7495 72.326 76.678L75.1836 80.2494V75.6066C75.1836 73.9638 75.1122 73.8924 73.4691 73.8209V73.2495H77.6125V73.8209C76.4695 73.8209 76.3981 74.0352 76.3981 75.7495L76.2552 83.7493H75.6122L74.6835 82.6065C74.1834 82.0351 73.7548 81.4636 73.2547 80.8922L69.1827 75.8209V81.1779C69.1827 82.8208 69.3256 82.8922 70.8972 83.035V83.6065L66.6109 83.6779ZM56.3951 79.0351V79.6065C55.4664 79.678 55.4664 79.8923 55.4664 81.8922V82.6779C54.3233 83.4636 52.8946 83.8922 51.4658 83.8922C47.8938 83.8922 46.1793 81.1779 46.1793 78.4637C46.1793 75.1066 48.4653 72.9638 51.2515 72.9638C52.5374 72.9638 53.8233 73.3924 54.8949 74.1781L55.4664 73.5352L55.5378 76.8209L55.1092 76.8923C54.8234 76.1066 54.3948 75.3923 53.8233 74.8209C53.2518 74.3209 52.5374 74.0352 51.7515 74.0352C49.9655 74.0352 48.4653 75.5352 48.4653 78.5351C48.4653 80.8922 49.6798 82.9636 51.6801 82.9636C52.3945 82.9636 53.0374 82.6779 53.4661 82.1065C53.6804 81.8208 53.7518 81.4636 53.6804 81.1065C53.6089 79.8208 53.4661 79.7494 52.323 79.678V79.1066L56.3951 79.0351ZM72.0403 66.6068C72.1832 68.4639 70.7544 70.0353 68.9684 70.1782H68.6112C66.6823 70.2496 65.1107 68.7496 65.0392 66.8211V66.5354C65.0392 64.6068 66.6109 63.0354 68.5397 63.0354C70.3972 63.0354 71.9688 64.6068 72.0403 66.6068ZM68.6112 69.5353C69.1827 69.4639 69.6828 69.1782 69.9685 68.6782C70.3972 67.9639 70.6115 67.1782 70.54 66.3211C70.54 65.5354 70.2543 64.7497 69.7542 64.1783C69.1827 63.5354 68.254 63.3926 67.5396 63.964L67.3253 64.1783C66.8252 64.8211 66.5395 65.6068 66.6109 66.3925C66.5395 67.1782 66.7538 68.0353 67.2538 68.6782C67.5396 69.2496 68.0397 69.5353 68.6112 69.5353ZM72.326 69.6782V70.0353H75.1836V69.6782C74.4692 69.6067 74.3978 69.5353 74.3978 68.821V66.8925H75.1836C75.9694 66.8925 76.3266 66.9639 76.3981 67.7496H76.7553V65.464H76.3981C76.3266 66.1782 76.1837 66.2497 75.3265 66.2497H74.3978V63.8926H75.1836C76.5409 63.8926 76.9696 63.8926 77.1124 64.964H77.4697L77.3268 63.3211H72.326V63.6069C72.8261 63.6783 73.0404 63.6783 73.1119 64.0354C73.1833 64.464 73.1833 64.8925 73.1833 65.2497V68.821C73.1119 69.5353 73.0404 69.6067 72.326 69.6782ZM16.2462 69.9639V69.6067C16.8892 69.5353 17.0321 69.4639 17.0321 68.7496V65.1068C17.0321 63.6783 17.0321 63.6783 16.2462 63.5354V63.1783H19.1038V63.5354C18.2465 63.6783 18.2465 63.6783 18.2465 65.1068V69.1067C18.318 69.5353 18.4608 69.6067 19.0324 69.6782V70.0353H16.2462V69.9639ZM44.679 69.9639V69.6067C45.322 69.5353 45.4649 69.4639 45.4649 68.7496V65.1068C45.4649 63.6783 45.4649 63.6783 44.679 63.5354V63.1783H47.5366V63.5354C46.7508 63.6069 46.7508 63.6068 46.7508 65.1068V69.1067C46.8222 69.5353 46.9651 69.6067 47.5366 69.6782V70.0353H44.679V69.9639ZM8.31647 69.9639V69.6067C8.88799 69.6067 9.1023 69.5353 9.17374 69.1782C9.24518 68.821 9.31662 64.6783 9.31662 63.964C9.1023 63.6783 8.74511 63.5354 8.31647 63.5354V63.1783H10.3168C10.8883 63.964 11.0312 64.1783 12.0313 65.464L13.9602 67.8211V64.7497C13.9602 63.6783 13.9602 63.6069 12.8171 63.5354V63.1783H15.5318V63.5354C14.8174 63.5354 14.746 63.6783 14.6746 64.8211V70.0353H14.2459L13.603 69.321C13.3172 68.9639 12.96 68.5353 12.6743 68.1782L9.95958 64.8211V68.3925C9.95958 69.5353 10.031 69.5353 11.1026 69.6782V70.0353L8.31647 69.9639ZM39.3925 67.8211L39.7497 67.7496C40.1069 68.8925 40.7499 69.4639 41.75 69.4639C42.4644 69.4639 43.1074 69.1782 43.1074 68.3925C43.1074 67.6068 42.393 67.3211 42.0358 67.1782C41.6786 67.0354 41.4643 66.9639 41.1785 66.8925C40.2498 66.6782 39.6069 65.8925 39.5354 64.8925C39.5354 63.7497 40.4641 62.8926 41.5357 62.8926H41.75C42.3215 62.8926 42.8216 63.0354 43.3217 63.3926L43.7503 63.1069L43.9646 65.1068L43.6075 65.1782C43.536 64.8211 43.3931 64.464 43.1074 64.1783C42.8216 63.7497 42.3215 63.5354 41.8215 63.5354C41.1071 63.5354 40.6784 63.8926 40.6784 64.464C40.6784 65.2497 41.4643 65.5354 42.2501 65.8211C42.6073 65.8925 42.8931 66.0354 43.2503 66.2497C43.8932 66.6068 44.2504 67.2496 44.2504 67.9639C44.179 69.1782 43.1788 70.1782 41.8929 70.1067H41.8215C41.1785 70.1067 40.607 69.8924 40.0355 69.5353L39.464 69.1067L39.3925 67.8211ZM49.9655 69.9639V69.6782C50.6085 69.6782 50.7514 69.4639 50.7514 68.8925V63.8211H49.8941C49.1083 63.8211 48.6082 63.8211 48.5368 65.0354H48.1796L48.251 63.1069H54.4662L54.5377 65.0354H54.1805C54.109 63.8211 53.6089 63.8211 52.8231 63.8211H51.9658V68.8925C51.9658 69.4639 52.1087 69.6782 52.7517 69.6782V69.9639H49.9655ZM3.38717 63.1069V63.464C2.5299 63.5354 2.5299 63.6069 2.45846 65.0354V66.6782C2.38702 67.4639 2.5299 68.1782 2.88709 68.8925C3.17285 69.2496 3.67292 69.4639 4.173 69.4639C5.03027 69.5353 5.74466 68.9639 5.95898 68.1782C6.10186 67.3211 6.1733 66.3925 6.1733 65.5354V64.2497C6.10186 63.6069 5.8161 63.6069 5.17315 63.5354V63.1783H7.74496V63.5354C7.10201 63.5354 6.95913 63.6783 6.95913 64.3211C6.95913 64.464 6.88769 66.3925 6.88769 66.6782C6.88769 67.1782 6.81625 67.6782 6.74481 68.2496C6.38761 69.4639 5.31603 70.2496 4.03012 70.1782C3.38717 70.1782 2.74421 70.0353 2.24414 69.6782C1.24399 68.9639 1.24399 67.9639 1.24399 66.8211V65.2497V64.0354C1.17255 63.6068 0.958233 63.5354 0.458158 63.464V63.1069H3.38717ZM26.6049 63.1069V63.464C25.962 63.5354 25.8191 63.7497 25.319 65.1068L23.2473 70.1067H22.8901L20.9612 65.0354C20.4611 63.7497 20.4611 63.6069 19.7467 63.464V63.1069H22.9615V63.464C22.39 63.464 22.0328 63.5354 22.0328 63.8926C22.0328 64.1783 22.1757 64.5354 22.2471 64.8211L23.4616 68.321L24.8904 64.7497C24.9618 64.5354 25.0333 64.2497 25.1047 64.0354C25.1047 63.5354 24.6046 63.5354 24.176 63.5354V63.1783L26.6049 63.1069ZM56.9666 69.9639V69.6067C57.4667 69.5353 57.681 69.5353 57.8239 69.3925C57.9667 69.2496 57.9667 69.0353 57.9667 68.321V67.1068L56.1093 64.2497C55.6092 63.5354 55.6092 63.464 54.9663 63.464V63.1069H58.5383V63.464C57.8239 63.464 57.4667 63.5354 57.4667 63.8211C57.5381 64.1068 57.6095 64.3211 57.7524 64.5354L58.824 66.2497L59.8242 64.5354C59.967 64.3211 60.0385 64.1068 60.1099 63.8211C60.1099 63.464 59.8242 63.464 59.3241 63.464V63.1069H62.0388V63.464C61.3244 63.464 61.1101 63.6783 60.3957 64.964L59.3241 66.7496V68.1782C59.3241 69.3925 59.3241 69.5353 60.3242 69.6067V69.9639H56.9666ZM32.1057 69.9639C32.1057 69.4639 32.1772 68.6782 32.2486 68.1782H31.8914C31.6771 69.3925 30.9627 69.321 29.9626 69.321C28.9624 69.321 28.891 69.1067 28.891 68.6068V66.6782H29.6054C30.4626 66.6782 30.677 66.7496 30.677 67.5353H31.0341V65.2497H30.677C30.6055 65.8211 30.4626 66.0354 29.6054 66.0354H28.891V63.6069H29.7482C30.8913 63.6069 31.3199 63.6783 31.4628 64.6068H31.82L31.7485 62.964H26.8192V63.3211C27.3193 63.3926 27.5336 63.3926 27.6051 63.7497C27.6765 64.1783 27.6765 64.6068 27.6765 64.964V68.6068C27.6765 69.321 27.5336 69.3925 26.8907 69.4639V69.821L32.1057 69.9639ZM34.9633 66.3211C35.1776 66.3925 35.3919 66.3925 35.6063 66.3925C36.3207 66.4639 36.8922 65.9639 37.035 65.2497C37.1065 64.464 36.6778 63.7497 35.3919 63.7497H34.9633V66.3211ZM34.9633 67.8211C34.9633 69.3925 34.9633 69.6067 35.8206 69.6067V69.9639H32.963V69.6067C33.6774 69.5353 33.7488 69.4639 33.8203 68.6782V65.3211C33.8203 64.8925 33.8203 64.464 33.7488 63.964C33.6774 63.6069 33.5345 63.5354 32.963 63.464V63.1069H36.0349C37.7494 63.1069 38.2495 63.8926 38.2495 64.8211C38.2495 65.6782 37.678 66.3925 36.8922 66.6068L38.1066 68.7496C38.5353 69.5353 38.7496 69.7496 39.3211 69.821V70.0353H38.8925C37.6066 70.0353 37.035 69.6067 36.535 68.4639L36.1063 67.6782C35.6777 66.8211 35.5348 66.8925 34.8919 66.8211L34.9633 67.8211Z" fill="#00274C"/>
</g>
<defs>
<clipPath id="clip0_1399_9307">
<rect width="77.2258" height="84" fill="white" transform="translate(0.386719)"/>
</clipPath>
</defs>
</svg>
