<svg width="85" height="52" viewBox="0 0 85 52" fill="none" xmlns="http://www.w3.org/2000/svg">
<g clip-path="url(#clip0_1400_9348)">
<rect width="84" height="51.234" transform="translate(0.387207 0.382812)" fill="white"/>
<path fill-rule="evenodd" clip-rule="evenodd" d="M57.24 15.4103L51.2885 5.53228H52.9301V0.382812H43.0225V5.53228H44.6622L42.3864 9.30509L40.1125 5.53035H41.7522V0.382812H31.8446V5.53035H33.4862L27.5347 15.4103H25.4097V20.5578H35.5145V15.4103H33.6989L36.8003 10.2628L38.0011 12.2592H36.8486V17.4087H47.9261V12.2592H46.7736L47.9744 10.2628L51.0758 15.4103H49.2602V20.5578H59.3631V15.4103H57.24Z" fill="#862334"/>
<path fill-rule="evenodd" clip-rule="evenodd" d="M52.2609 1.05078V4.87958H50.1127L56.8589 16.0802H58.6958V19.9071H49.9135V16.0802H52.2357L47.9683 8.9922L45.5959 12.9291H47.2568V16.756H37.502V12.9291H39.1629L36.7885 8.9922L32.5191 16.0783H34.8433V19.9071H26.061V16.0783H27.896L34.6441 4.87958H32.4979V1.05078H41.081V4.87958H38.9347L42.3765 10.5928L45.8202 4.87958H43.672V1.05078H52.257H52.2609Z" fill="#FBB93C"/>
<path fill-rule="evenodd" clip-rule="evenodd" d="M51.5978 1.71094V4.22099H48.943L56.4859 16.7384H58.0347V19.2466H50.573V16.7384H53.4057L47.9666 7.71383L44.4282 13.5873H46.5957V16.0974H38.1615V13.5873H40.3309L36.7906 7.71383L31.3534 16.7384H34.1841V19.2466H26.7244V16.7384H28.2713L35.8141 4.22099H33.1593V1.71094H40.4218V4.22099H37.767L42.3786 11.8747L46.9901 4.22099H44.3354V1.71094H51.5978ZM13.8372 26.5006V26.2303H17.3466V26.5006H16.9734C16.5829 26.5006 16.2812 26.6628 16.0705 26.991C15.968 27.1436 15.9177 27.495 15.9177 28.0491V32.0884C15.9177 33.0885 15.8191 33.8628 15.6219 34.415C15.4227 34.9672 15.0321 35.4403 14.4521 35.8341C13.872 36.228 13.085 36.425 12.0854 36.425C10.9987 36.425 10.1731 36.2377 9.61042 35.8592C9.04582 35.4827 8.64557 34.9749 8.41354 34.3378C8.25499 33.9014 8.17765 33.0847 8.17765 31.8837V27.9893C8.17765 27.3772 8.09257 26.9775 7.92435 26.7864C7.75613 26.5952 7.4835 26.5006 7.10645 26.5006H6.73327V26.2303H11.0393V26.5006H10.6584C10.2466 26.5006 9.95266 26.6319 9.77864 26.8887C9.65489 27.0644 9.59495 27.4332 9.59495 27.9893V32.3317C9.59495 32.7178 9.62976 33.1619 9.7013 33.662C9.77477 34.1601 9.90239 34.5502 10.088 34.8301C10.2756 35.1082 10.5443 35.3379 10.8943 35.5214C11.2462 35.7009 11.6755 35.7917 12.184 35.7917C12.8356 35.7917 13.4215 35.6488 13.9358 35.365C14.4501 35.0811 14.802 34.7162 14.9896 34.274C15.1772 33.83 15.2738 33.0789 15.2738 32.0208V27.9854C15.2738 27.3637 15.2062 26.9756 15.0689 26.8192C14.8775 26.6029 14.5952 26.4967 14.2181 26.4967H13.8449L13.8372 26.5006ZM33.3914 43.9957H33.2889C32.9776 43.9957 32.7494 44.0884 32.6063 44.2698C32.5116 44.3915 32.4652 44.6792 32.4652 45.1368V50.0893C32.4652 50.4755 32.4903 50.7323 32.5387 50.8539C32.5754 50.9485 32.6547 51.0296 32.7765 51.0972C32.9389 51.1879 33.1071 51.2323 33.2889 51.2323H33.5654V51.4409H30.2822V51.2323H30.5548C30.8719 51.2323 31.102 51.1397 31.247 50.9582C31.3379 50.8365 31.3824 50.5488 31.3824 50.0912V45.1387C31.3824 44.7526 31.3572 44.4958 31.3089 44.3722C31.2702 44.2776 31.1929 44.1965 31.0749 44.1289C30.916 44.0402 30.7369 43.9937 30.5548 43.9937H30.2822V43.7852H35.4119L40.1066 49.5313V45.1117C40.1066 44.6406 40.0525 44.3471 39.9462 44.2293C39.805 44.071 39.5826 43.9918 39.2771 43.9918H39.0084V43.7833H43.4227L48.1174 49.5294V45.1097C48.1174 44.6386 48.0633 44.3451 47.9569 44.2274C47.8158 44.069 47.5934 43.9899 47.2879 43.9899H47.0191V43.7814H49.7126V43.9899H49.44C49.1113 43.9899 48.8792 44.0884 48.74 44.2834C48.6569 44.405 48.6143 44.6792 48.6143 45.1078V51.5567H48.4094L43.3647 45.3936V50.1067C43.3647 50.5778 43.4169 50.8713 43.5194 50.9891C43.6644 51.1474 43.8868 51.2246 44.1903 51.2246H44.463V51.4332H41.7695V51.2246H42.0402C42.3708 51.2246 42.6048 51.1262 42.744 50.9311C42.8272 50.8095 42.8697 50.5353 42.8697 50.1067V44.7854C42.6473 44.5266 42.4791 44.3548 42.365 44.2718C42.249 44.1888 42.0808 44.1115 41.8604 44.0382L41.8546 44.0362L41.8507 44.0343L41.8468 44.0324H41.8449L41.841 44.0304H41.8391L41.8352 44.0285H41.8333L41.8294 44.0266H41.7985L41.7946 44.0246H41.7927L41.7869 44.0227L41.7811 44.0208L41.7753 44.0188L41.7695 44.0169H41.7637L41.7579 44.015H41.756L41.7502 44.0131H41.3016L41.2919 44.015H41.288L41.2784 44.0169H41.261L41.2513 44.0188H41.2474L41.2378 44.0208H41.2339L41.2242 44.0227H41.2223L41.2126 44.0246H41.2107L41.201 44.0266H41.1991L41.1875 44.0285H41.1856L41.174 44.0304H41.172L41.1604 44.0324H41.1585L41.1469 44.0343H41.145L41.1334 44.0362L41.1218 44.0382L41.1102 44.042L41.0986 44.0459L41.0754 44.0536H41.0734L41.0638 44.0575H41.0618L41.0522 44.0613H41.0502L41.0406 44.0652H41.0386L41.0289 44.069H41.027L41.0173 44.0729L41.0154 44.0748L41.0077 44.0787L41.0057 44.0806L40.998 44.0845L40.9961 44.0864L40.9883 44.0903L40.9864 44.0922L40.9787 44.0961L40.9748 44.098L40.9671 44.1019L40.9632 44.1038L40.9574 44.1077L40.9535 44.1096L40.9477 44.1135L40.9439 44.1154L40.9381 44.1192L40.9342 44.1212L40.9284 44.125L40.9245 44.127L40.9187 44.1308L40.9149 44.1328L40.9091 44.1366L40.9052 44.1386L40.8994 44.1424L40.8955 44.1443L40.8917 44.1482L40.8878 44.1521L40.8839 44.1559L40.8801 44.1598L40.8762 44.1617L40.8704 44.1656L40.8665 44.1675L40.8607 44.1714L40.8569 44.1733L40.8511 44.1772L40.8472 44.1791L40.8414 44.183L40.8395 44.1849L40.8337 44.1888L40.8317 44.1907L40.8259 44.1965L40.824 44.1984L40.8182 44.2042L40.8163 44.2061L40.8105 44.2119L40.8085 44.2139L40.8027 44.2196L40.8008 44.2216L40.795 44.2274L40.7931 44.2293L40.7873 44.2351L40.7853 44.237L40.7795 44.2428L40.7776 44.2447L40.7718 44.2525L40.7699 44.2544L40.764 44.2621V44.2641L40.7583 44.2718L40.7524 44.2795L40.7467 44.2872L40.7408 44.2949L40.735 44.3046C40.6519 44.4262 40.6094 44.7004 40.6094 45.1291V51.578H40.4044L35.3617 45.4148V50.1279C35.3617 50.599 35.4139 50.8925 35.5163 51.0103C35.6614 51.1686 35.8837 51.2459 36.1873 51.2459H36.4599V51.4544H33.7665V51.2459H34.0372C34.3678 51.2459 34.6018 51.1474 34.741 50.9524C34.8241 50.8307 34.8667 50.5566 34.8667 50.1279V44.8066C34.6443 44.5479 34.4761 44.376 34.362 44.293C34.246 44.21 34.0778 44.1328 33.8573 44.0594L33.8515 44.0575L33.8457 44.0555L33.8419 44.0536L33.838 44.0517H33.8361L33.8322 44.0497H33.8303L33.8264 44.0478H33.8245L33.8206 44.0459H33.8187L33.8148 44.0439H33.7819L33.7781 44.042H33.7761L33.7723 44.0401H33.7703L33.7665 44.0382H33.751L33.7452 44.0362L33.7394 44.0343H33.7336L33.7278 44.0324H33.3991L33.3914 43.9957ZM16.3818 28.5994H18.441L23.1357 34.3455V29.9259C23.1357 29.4547 23.0816 29.1613 22.9752 29.0435C22.8341 28.8852 22.6117 28.806 22.3062 28.806H22.0355V28.5975H24.729V28.806H24.4563C24.1257 28.806 23.8956 28.9045 23.7564 29.0995C23.6733 29.2211 23.6307 29.4953 23.6307 29.9239V36.3728H23.4258L18.383 30.2097V34.9228C18.383 35.3939 18.4352 35.6893 18.5377 35.8071C18.6827 35.9654 18.9051 36.0427 19.2086 36.0427H19.4813V36.2512H16.7878V36.0427H17.0566C17.3872 36.0427 17.6212 35.9442 17.7604 35.7492C17.8435 35.6275 17.8861 35.3534 17.8861 34.9228V29.6015C17.6637 29.3428 17.4955 29.1709 17.3814 29.0879C17.2654 29.0049 17.0991 28.9276 16.8768 28.8543C16.7666 28.8214 16.6022 28.8041 16.3798 28.8041V28.5955L16.3818 28.5994ZM4.21577 43.6153C5.20769 43.6153 6.06812 43.9918 6.79515 44.7468C7.5241 45.5017 7.88761 46.442 7.88761 47.5696C7.88761 48.7319 7.52217 49.6954 6.78741 50.4639C6.05459 51.2323 5.16708 51.6147 4.12489 51.6147C3.07303 51.6147 2.18939 51.2401 1.47204 50.4909C0.754683 49.7418 0.396973 48.7744 0.396973 47.587C0.396973 46.3725 0.810756 45.382 1.63832 44.6155C2.35761 43.9493 3.21611 43.6172 4.21577 43.6172V43.6153ZM22.5943 51.6147L18.7388 43.2272V49.8866C18.7388 50.5006 18.8065 50.8848 18.9399 51.0373C19.1236 51.242 19.4136 51.3463 19.8139 51.3463H20.1696V51.6166H16.6602V51.3463H17.0198C17.4472 51.3463 17.7469 51.2188 17.9286 50.962C18.0369 50.8037 18.091 50.4465 18.091 49.8866V43.3759C18.091 42.9357 18.0408 42.6132 17.9422 42.4182C17.8726 42.2753 17.743 42.1575 17.5574 42.0591C17.3698 41.9645 17.0701 41.9162 16.6583 41.9162V41.6459H19.52L23.1183 49.4406L26.6857 41.6459H29.5184V41.9162H29.1704C28.7373 41.9162 28.4318 42.0436 28.2519 42.3004C28.1437 42.4588 28.0895 42.8179 28.0895 43.3759V49.8866C28.0895 50.5006 28.1591 50.8848 28.2983 51.0373C28.482 51.242 28.7721 51.3463 29.1723 51.3463H29.5204V51.6166H25.2433V51.3463H25.603C26.0341 51.3463 26.3358 51.2188 26.5117 50.962C26.62 50.8037 26.6741 50.4465 26.6741 49.8866V43.2272L22.8341 51.6147H22.5924H22.5943ZM81.4521 48.8903H78.4841L77.9717 50.0893C77.8441 50.3867 77.7783 50.6087 77.7783 50.7554C77.7783 50.8713 77.8344 50.9736 77.9465 51.0624C78.0568 51.1493 78.2965 51.2072 78.6658 51.2343V51.4428H76.2508V51.2343C76.5699 51.1783 76.7767 51.1049 76.8715 51.0142C77.0629 50.8327 77.2756 50.4658 77.5096 49.9136L80.205 43.6153H80.3964L83.0608 49.9812C83.2755 50.4929 83.4688 50.823 83.6448 50.9775C83.8207 51.13 84.0624 51.215 84.3776 51.2323V51.4409H81.3574V51.2323C81.6609 51.2169 81.8678 51.1667 81.9761 51.0798C82.0844 50.9929 82.1366 50.8867 82.1366 50.7632C82.1366 50.5971 82.0612 50.3365 81.9104 49.9793L81.4579 48.8903H81.4521ZM81.2781 48.4752L79.9865 45.3878L78.662 48.4752H81.2781ZM77.0474 43.7891L77.1286 45.5886H76.914C76.8715 45.2739 76.8154 45.046 76.7439 44.9109C76.6259 44.6927 76.4732 44.5324 76.2779 44.4301C76.0826 44.3258 75.8293 44.2737 75.5122 44.2737H74.4333V50.1144C74.4333 50.5855 74.4835 50.879 74.586 50.9968C74.7291 51.1551 74.9476 51.2323 75.2454 51.2323H75.5103V51.4409H72.2503V51.2323H72.5268C72.8535 51.2323 73.0856 51.1339 73.2248 50.9389C73.3079 50.8172 73.3505 50.5431 73.3505 50.1144V44.2737H72.432C72.0743 44.2737 71.8191 44.3007 71.6683 44.3529C71.471 44.4243 71.3067 44.5614 71.1655 44.7641C71.0263 44.9669 70.9432 45.241 70.9161 45.5867H70.7015L70.7827 43.7871H77.0474V43.7891ZM66.5656 43.6153C67.5575 43.6153 68.4179 43.9918 69.145 44.7468C69.8739 45.5017 70.2374 46.442 70.2374 47.5696C70.2374 48.7319 69.872 49.6954 69.1372 50.4639C68.4044 51.2323 67.5169 51.6147 66.4747 51.6147C65.4228 51.6147 64.5392 51.2401 63.8218 50.4909C63.1045 49.7418 62.7468 48.7744 62.7468 47.587C62.7468 46.3725 63.1606 45.382 63.9881 44.6155C64.7074 43.9493 65.5659 43.6172 66.5656 43.6172V43.6153ZM66.4573 44.0188C65.7747 44.0188 65.2256 44.2737 64.8138 44.7796C64.2994 45.4129 64.0403 46.3377 64.0403 47.558C64.0403 48.8073 64.3052 49.7688 64.8389 50.4426C65.2488 50.9543 65.7883 51.2092 66.4612 51.2092C67.1805 51.2092 67.7721 50.9292 68.24 50.3693C68.708 49.8074 68.9419 48.925 68.9419 47.7163C68.9419 46.4073 68.6828 45.4283 68.1704 44.7873C67.7586 44.2756 67.1882 44.0188 66.4573 44.0188ZM61.5557 43.6153V46.2586H61.3469C61.2792 45.7508 61.1574 45.3472 60.9834 45.046C60.8074 44.7468 60.558 44.5073 60.2312 44.3297C59.9083 44.1521 59.5719 44.0633 59.2257 44.0633C58.8332 44.0633 58.5084 44.183 58.2532 44.4205C57.996 44.6599 57.8684 44.9321 57.8684 45.2372C57.8684 45.4708 57.9496 45.6832 58.112 45.8763C58.346 46.1562 58.9009 46.5347 59.7807 47.0039C60.498 47.3881 60.9872 47.6835 61.2483 47.8863C61.5093 48.0929 61.7123 48.3323 61.8535 48.6122C61.9946 48.8922 62.0662 49.1818 62.0662 49.4869C62.0662 50.0661 61.8399 50.5643 61.3913 50.9833C60.9408 51.4023 60.3608 51.6127 59.6531 51.6127C59.4288 51.6127 59.2219 51.5953 59.0247 51.5606C58.9067 51.5413 58.667 51.4718 58.2976 51.3521C57.9322 51.2324 57.6982 51.1725 57.5996 51.1725C57.5049 51.1725 57.4295 51.2015 57.3753 51.2574C57.3212 51.3154 57.2806 51.4332 57.2535 51.6108H57.0447V48.9907H57.2535C57.3521 49.539 57.4836 49.9503 57.648 50.2225C57.8142 50.4948 58.0675 50.7226 58.4098 50.9022C58.7501 51.0837 59.1252 51.1725 59.5313 51.1725C60.0011 51.1725 60.3743 51.047 60.6469 50.7998C60.9196 50.5488 61.0568 50.2554 61.0568 49.9175C61.0568 49.7282 61.0046 49.539 60.9022 49.3459C60.7977 49.1529 60.6373 48.9752 60.4207 48.8073C60.2738 48.6933 59.8716 48.4558 59.2141 48.089C58.5567 47.726 58.0888 47.4325 57.8123 47.2163C57.5339 47 57.3231 46.7567 57.18 46.4941C57.035 46.2296 56.9635 45.94 56.9635 45.6253C56.9635 45.0769 57.1762 44.6039 57.5977 44.2081C58.0192 43.8122 58.5587 43.6134 59.2103 43.6134C59.6183 43.6134 60.0494 43.7138 60.5077 43.9107C60.7204 44.0053 60.8674 44.0517 60.9544 44.0517C61.053 44.0517 61.1342 44.0227 61.1941 43.9648C61.256 43.9049 61.3063 43.7891 61.3449 43.6134H61.5538L61.5557 43.6153ZM51.942 44.2042V47.2278H53.63C54.067 47.2278 54.359 47.1622 54.504 47.0309C54.7012 46.8571 54.8076 46.554 54.8308 46.1196H55.0396V48.786H54.8308C54.7785 48.4134 54.7244 48.172 54.6722 48.0658C54.6045 47.9345 54.4924 47.8303 54.3396 47.7569C54.1849 47.6816 53.9491 47.643 53.6281 47.643H51.9401V50.1665C51.9401 50.5044 51.9555 50.711 51.9845 50.7844C52.0155 50.8578 52.0677 50.9176 52.1431 50.9601C52.2185 51.0045 52.3635 51.0258 52.5723 51.0258H53.8698C54.301 51.0258 54.6161 50.9949 54.8114 50.935C55.0067 50.8752 55.1943 50.7554 55.3741 50.5797C55.6081 50.3461 55.8459 49.9947 56.0914 49.5255H56.3235L55.6622 51.4409H49.7571V51.2323H50.0278C50.2095 51.2323 50.3797 51.1879 50.5421 51.1011C50.6639 51.0412 50.7471 50.9504 50.7896 50.8288C50.8341 50.7072 50.8553 50.462 50.8553 50.0893V45.1136C50.8553 44.629 50.807 44.3316 50.7084 44.2196C50.5711 44.069 50.3468 43.9937 50.0278 43.9937H49.7571V43.7852H55.6641L55.7453 45.4708H55.5249C55.4456 45.0653 55.3586 44.7854 55.2639 44.6348C55.1672 44.4822 55.0241 44.3664 54.8385 44.2872C54.6877 44.2312 54.4228 44.2023 54.0419 44.2023H51.942V44.2042ZM10.7087 44.2042V47.2047H12.0951C12.416 47.2047 12.6539 47.1352 12.8027 46.9962C12.9536 46.8552 13.0502 46.5772 13.1005 46.1543H13.3093V48.7513H13.1005C13.0966 48.4558 13.058 48.2357 12.9845 48.0967C12.9091 47.9558 12.8066 47.8515 12.6771 47.782C12.5456 47.7106 12.3542 47.6758 12.0951 47.6758H10.7087V50.0874C10.7087 50.4735 10.7338 50.7303 10.7822 50.852C10.8189 50.9466 10.8982 51.0277 11.0161 51.0953C11.1805 51.186 11.3526 51.2304 11.5324 51.2304H11.805V51.4389H8.52182V51.2304H8.79445C9.11156 51.2304 9.34165 51.1377 9.48667 50.9562C9.57755 50.8346 9.62202 50.5469 9.62202 50.0893V45.1368C9.62202 44.7506 9.59688 44.4938 9.54854 44.3703C9.50987 44.2756 9.43253 44.1945 9.31458 44.127C9.15599 44.0374 8.97667 43.9908 8.79445 43.9918H8.52182V43.7833H14.2084L14.2897 45.4689H14.0924C13.9938 45.1097 13.8797 44.8452 13.7521 44.6772C13.6206 44.5093 13.4621 44.3876 13.2726 44.3123C13.0812 44.237 12.7892 44.1984 12.3909 44.1984H10.7068L10.7087 44.2042ZM4.10555 44.0188C3.42301 44.0188 2.87387 44.2737 2.46202 44.7796C1.94769 45.4129 1.69053 46.3377 1.69053 47.558C1.69053 48.8073 1.95543 49.7688 2.48909 50.4426C2.89901 50.9543 3.43847 51.2092 4.11136 51.2092C4.83064 51.2092 5.42231 50.9292 5.89024 50.3693C6.35816 49.8074 6.59212 48.925 6.59212 47.7163C6.59212 46.4073 6.33302 45.4283 5.8187 44.7873C5.40685 44.2756 4.83644 44.0188 4.10555 44.0188ZM74.7059 28.5994H77.3781V28.8079H77.2311C77.1325 28.8079 76.9894 28.8523 76.8019 28.9392C76.6124 29.0261 76.4442 29.1516 76.2876 29.3119C76.1329 29.4741 75.9453 29.7386 75.7191 30.1035L73.8764 32.9785V34.9247C73.8764 35.3958 73.9305 35.6913 74.0369 35.809C74.1819 35.9674 74.4101 36.0446 74.7233 36.0446H74.9747V36.2531H71.6915V36.0446H71.966C72.2928 36.0446 72.5248 35.9461 72.664 35.7511C72.7472 35.6295 72.7897 35.3553 72.7897 34.9247V33.1349L70.6937 29.8988C70.4443 29.5262 70.278 29.2906 70.1891 29.1979C70.1001 29.1033 69.9164 28.9914 69.638 28.862C69.5626 28.8253 69.4543 28.806 69.3112 28.806V28.5975H72.579V28.806H72.4088C72.2309 28.806 72.0685 28.8485 71.9196 28.9315C71.7707 29.0145 71.6973 29.1381 71.6973 29.3022C71.6973 29.4393 71.8133 29.6826 72.0434 30.0378L73.6289 32.5035L75.139 30.144C75.3672 29.7907 75.4774 29.5262 75.4774 29.3543C75.4774 29.2481 75.4503 29.1535 75.3962 29.0705C75.3401 28.9875 75.2628 28.9218 75.1603 28.8755C75.0578 28.8272 74.9051 28.8041 74.704 28.8041V28.5955L74.7059 28.5994ZM68.8162 28.5994L68.8975 30.3989H68.6828C68.6403 30.0842 68.5842 29.8564 68.5127 29.7212C68.3947 29.5049 68.242 29.3428 68.0467 29.2404C67.8514 29.1362 67.5981 29.084 67.281 29.084H66.2021V34.9247C66.2021 35.3958 66.2523 35.6913 66.3548 35.809C66.4979 35.9674 66.7164 36.0446 67.0142 36.0446H67.2791V36.2531H64.0191V36.0446H64.2956C64.6223 36.0446 64.8544 35.9461 64.9936 35.7511C65.0767 35.6295 65.1193 35.3553 65.1193 34.9247V29.084H64.2008C63.8431 29.084 63.5879 29.1111 63.4371 29.1632C63.2398 29.2346 63.0755 29.3717 62.9343 29.5745C62.7951 29.7772 62.712 30.0514 62.6849 30.3989H62.4703L62.5515 28.5994H68.8162ZM61.8457 36.0446V36.2531H58.5625V36.0446H58.8352C59.1523 36.0446 59.3824 35.9519 59.5274 35.7704C59.6183 35.6488 59.6627 35.3611 59.6627 34.9035V29.951C59.6627 29.5648 59.6376 29.308 59.5893 29.1844C59.5506 29.0898 59.4733 29.0087 59.3553 28.9411C59.1963 28.8525 59.0173 28.8059 58.8352 28.806H58.5625V28.5975H61.8457V28.806H61.5692C61.2579 28.806 61.0298 28.8987 60.8867 29.0802C60.7919 29.2018 60.7455 29.4895 60.7455 29.9471V34.8996C60.7455 35.2858 60.7707 35.5426 60.819 35.6642C60.8558 35.7588 60.935 35.8399 61.0568 35.9075C61.2193 35.9983 61.3875 36.0427 61.5692 36.0427H61.8457V36.0446ZM57.151 28.4256V31.0689H56.9422C56.8745 30.5611 56.7527 30.1576 56.5787 29.8564C56.4027 29.5571 56.1533 29.3177 55.8265 29.14C55.5036 28.9624 55.1672 28.8736 54.8211 28.8736C54.4286 28.8736 54.1037 28.9933 53.8485 29.2308C53.5933 29.4683 53.4637 29.7424 53.4637 30.0475C53.4637 30.2811 53.5449 30.4935 53.7074 30.6866C53.9432 30.9666 54.4982 31.345 55.376 31.8142C56.0934 32.1984 56.5826 32.4938 56.8436 32.6966C57.1046 32.9032 57.3077 33.1426 57.4488 33.4226C57.59 33.7025 57.6596 33.9921 57.6596 34.2972C57.6596 34.8765 57.4353 35.3746 56.9847 35.7936C56.5342 36.2126 55.9542 36.423 55.2465 36.423C55.0222 36.423 54.8153 36.4057 54.6181 36.3709C54.5001 36.3516 54.2604 36.2821 53.891 36.1624C53.5256 36.0427 53.2916 35.9828 53.193 35.9828C53.0983 35.9828 53.0229 36.0118 52.9687 36.0678C52.9146 36.1257 52.874 36.2435 52.8469 36.4211H52.6381V33.801H52.8469C52.9455 34.3493 53.077 34.7606 53.2414 35.0329C53.4076 35.3051 53.6609 35.5329 54.0013 35.7125C54.3416 35.894 54.7167 35.9828 55.1227 35.9828C55.5926 35.9828 55.9658 35.8573 56.2384 35.6102C56.511 35.3592 56.6483 35.0657 56.6483 34.7278C56.6483 34.5386 56.5961 34.3493 56.4936 34.1563C56.3892 33.9632 56.2287 33.7856 56.0122 33.6176C55.8652 33.5037 55.463 33.2662 54.8056 32.8993C54.1482 32.5363 53.6803 32.2428 53.4038 32.0266C53.1273 31.8084 52.9146 31.567 52.7715 31.3045C52.6265 31.0399 52.5549 30.7503 52.5549 30.4356C52.5549 29.8872 52.7676 29.4142 53.1892 29.0184C53.6107 28.6226 54.1501 28.4237 54.8018 28.4237C55.2097 28.4237 55.6409 28.5241 56.0992 28.721C56.3119 28.8156 56.4588 28.862 56.5458 28.862C56.6444 28.862 56.7257 28.833 56.7875 28.7751C56.8494 28.7152 56.8997 28.5994 56.9383 28.4237H57.1472L57.151 28.4256ZM51.9536 36.2512H49.9021L47.2995 32.6734C47.1119 32.6811 46.9611 32.685 46.8432 32.685C46.7948 32.685 46.7426 32.6831 46.6885 32.6811C46.6324 32.6792 46.5764 32.6773 46.5164 32.6734V34.9016C46.5164 35.3823 46.5686 35.6797 46.675 35.7955C46.8181 35.9616 47.0307 36.0427 47.3169 36.0427H47.6147V36.2512H44.3315V36.0427H44.6177C44.9406 36.0427 45.1726 35.9365 45.3118 35.7279C45.3911 35.6121 45.4297 35.336 45.4297 34.9016V29.949C45.4297 29.4683 45.3775 29.169 45.2712 29.0551C45.1242 28.889 44.9077 28.8079 44.6177 28.8079H44.3315V28.5994H47.1216C47.9356 28.5994 48.5351 28.6593 48.9218 28.777C49.3085 28.8967 49.6372 29.1169 49.904 29.4335C50.1747 29.7521 50.3081 30.1305 50.3081 30.5708C50.3081 31.0419 50.1535 31.4493 49.8479 31.7968C49.5405 32.1424 49.0649 32.3876 48.421 32.5325L50.0065 34.7239C50.3681 35.2279 50.6794 35.5638 50.9385 35.7299C51.1956 35.8979 51.536 36.0021 51.9536 36.0465V36.2551V36.2512ZM46.5164 32.3143C46.588 32.3143 46.6498 32.3143 46.702 32.3162C46.7542 32.3181 46.7968 32.3201 46.8297 32.3201C47.5528 32.3201 48.0981 32.1617 48.4635 31.847C48.8309 31.5304 49.0146 31.1268 49.0146 30.6383C49.0146 30.1614 48.8657 29.7733 48.5718 29.4721C48.274 29.1748 47.8815 29.0242 47.3943 29.0242C47.1777 29.0242 46.8857 29.0589 46.5183 29.1284V32.3143H46.5164ZM39.4898 29.0126V32.0362H41.1778C41.6148 32.0362 41.9068 31.9706 42.0518 31.8393C42.249 31.6655 42.3554 31.3624 42.3786 30.928H42.5874V33.5944H42.3786C42.3264 33.2218 42.2722 32.9804 42.22 32.8742C42.1524 32.7429 42.0402 32.6406 41.8875 32.5653C41.7328 32.49 41.4969 32.4514 41.1759 32.4514H39.4879V34.9749C39.4879 35.3128 39.5034 35.5194 39.5324 35.5928C39.5633 35.6662 39.6155 35.726 39.6909 35.7685C39.7663 35.8129 39.9113 35.8341 40.1202 35.8341H41.4176C41.8488 35.8341 42.164 35.8032 42.3592 35.7434C42.5545 35.6835 42.7421 35.5638 42.9219 35.3881C43.1559 35.1545 43.3937 34.8031 43.6393 34.3339H43.8713L43.21 36.2493H37.3049V36.0407H37.5775C37.7593 36.0407 37.9294 35.9963 38.0919 35.9094C38.2137 35.8496 38.2968 35.7588 38.3394 35.6372C38.3838 35.5156 38.4051 35.2703 38.4051 34.8977V29.922C38.4051 29.4374 38.3568 29.14 38.2581 29.028C38.1209 28.8774 37.8966 28.8021 37.5775 28.8021H37.3049V28.5936H43.2119L43.2932 30.2792H43.0727C42.9935 29.8737 42.9064 29.5938 42.8117 29.4432C42.715 29.2906 42.5739 29.1748 42.3863 29.0956C42.2355 29.0396 41.9706 29.0107 41.5897 29.0107H39.4898V29.0126ZM36.9279 28.5975V28.806C36.6591 28.8562 36.4522 28.9431 36.313 29.0667C36.1138 29.252 35.9379 29.5358 35.7832 29.9181L33.1226 36.423H32.9138L30.0482 29.8332C29.9013 29.4934 29.7969 29.2848 29.7389 29.2095C29.6441 29.0918 29.5281 28.9991 29.3908 28.9334C29.2535 28.8678 29.0698 28.8253 28.8359 28.806V28.5975H31.9605V28.806C31.6067 28.8407 31.3766 28.9006 31.2702 28.9875C31.1658 29.0744 31.1117 29.1844 31.1117 29.3196C31.1117 29.5069 31.1987 29.8004 31.3708 30.1981L33.3179 34.6776L35.1258 30.2522C35.3037 29.8158 35.3926 29.5127 35.3926 29.3447C35.3926 29.2366 35.3365 29.1304 35.2282 29.0338C35.118 28.9334 34.9343 28.862 34.6753 28.8214C34.6559 28.8176 34.623 28.8118 34.5786 28.8041V28.5955H36.924L36.9279 28.5975ZM28.4492 36.0427V36.2512H25.166V36.0427H25.4367C25.7557 36.0427 25.9839 35.95 26.1289 35.7685C26.2198 35.6469 26.2642 35.3592 26.2642 34.9016V29.949C26.2642 29.5629 26.2391 29.3061 26.1908 29.1825C26.1521 29.0879 26.0747 29.0068 25.9568 28.9392C25.7978 28.8505 25.6188 28.804 25.4367 28.8041H25.166V28.5955H28.4492V28.8041H28.1727C27.8614 28.8041 27.6332 28.8967 27.4901 29.0782C27.3954 29.1999 27.349 29.4876 27.349 29.9452V34.8977C27.349 35.2839 27.3741 35.5407 27.4224 35.6623C27.4592 35.7569 27.5385 35.838 27.6603 35.9056C27.8227 35.9963 27.9909 36.0407 28.1727 36.0407H28.4492V36.0427Z" fill="#862334"/>
</g>
<defs>
<clipPath id="clip0_1400_9348">
<rect width="84" height="51.234" fill="white" transform="translate(0.387207 0.382812)"/>
</clipPath>
</defs>
</svg>
