<svg width="85" height="84" viewBox="0 0 85 84" fill="none" xmlns="http://www.w3.org/2000/svg">
<g clip-path="url(#clip0_1399_9227)">
<rect width="84" height="84" transform="translate(0.387207)" fill="white"/>
<path d="M0.387207 0.0078125H84.3872V83.9919H0.387207V0.0078125Z" fill="#002147"/>
<path d="M19.1705 69.4199C19.1705 72.6029 16.7205 74.9098 13.658 74.9098C10.5372 74.9098 8.14551 72.5737 8.14551 69.5367C8.14551 66.3537 10.5955 64.0468 13.658 64.0468C16.7788 64.0468 19.1705 66.3829 19.1705 69.4199ZM17.4205 69.4783C17.4205 66.5873 16.0205 64.5724 13.658 64.5724C11.0913 64.5724 9.89551 66.9961 9.89551 69.4783C9.89551 72.3692 11.2955 74.3842 13.658 74.3842C16.2247 74.355 17.4205 71.9604 17.4205 69.4783ZM52.7997 69.4199C52.7997 72.6029 50.3497 74.9098 47.2872 74.9098C44.1663 74.9098 41.7747 72.5737 41.7747 69.5367C41.7747 66.3537 44.2247 64.0468 47.2872 64.0468C50.408 64.0468 52.7997 66.3829 52.7997 69.4199ZM51.0497 69.4783C51.0497 66.5873 49.6497 64.5724 47.2872 64.5724C44.7205 64.5724 43.5247 66.9961 43.5247 69.4783C43.5247 72.3692 44.9247 74.3842 47.2872 74.3842C49.8538 74.355 51.0497 71.9604 51.0497 69.4783ZM57.058 69.5367H58.3705C60.3538 69.5367 60.7913 68.281 60.7913 67.0837C60.7913 66.1785 60.383 65.3316 59.4497 64.9228C58.9538 64.7184 58.4872 64.7184 57.8455 64.7184H57.058V69.5367ZM59.4788 71.2012C58.8663 70.3251 58.633 70.0039 57.8747 70.0039H57.058V73.5665C57.058 73.8585 57.1747 74.0045 57.4955 74.0629L58.6913 74.3258V74.7054H53.9955V74.3258L55.0747 74.0629C55.3955 73.9753 55.5122 73.8585 55.5122 73.5665V65.3316C55.5122 65.0396 55.3955 64.9228 55.0747 64.8352L53.9955 64.5724V64.1928H58.5747C59.5372 64.1928 60.208 64.2804 60.7622 64.4848C61.8997 64.9228 62.5413 66.0033 62.5413 67.0253C62.5413 68.3102 61.5788 69.3907 59.9747 69.7703V69.8287C60.2955 69.9747 60.4705 70.1791 61.608 71.6684L63.0372 73.5665C63.2413 73.8585 63.5038 74.0337 63.8247 74.0921L64.8747 74.3258V74.7054H62.3663C62.0747 74.7054 61.9288 74.6178 61.6663 74.2674L59.4788 71.2012ZM38.9163 67.8138H39.3538V71.318H38.9163L38.6538 70.2667C38.5663 69.8871 38.333 69.7411 37.983 69.7411H35.4455V73.5957C35.4455 73.8877 35.5622 74.0337 35.883 74.0921L37.0788 74.355V74.7346H32.383V74.355L33.4622 74.0921C33.783 74.0045 33.8997 73.8877 33.8997 73.5957V65.3608C33.8997 65.0688 33.783 64.952 33.4622 64.8644L32.383 64.6016V64.222H40.3163V66.8501H39.8788L39.383 65.2732C39.2663 64.8644 39.0913 64.7184 38.7413 64.7184H35.4455V69.2447H37.983C38.333 69.2447 38.5372 69.0987 38.6538 68.719L38.9163 67.8138ZM65.7205 74.7054V74.3258L66.7997 74.0629C67.1205 73.9753 67.2372 73.8585 67.2372 73.5665V65.3316C67.2372 65.0396 67.1205 64.9228 66.7997 64.8352L65.7205 64.5724V64.1928H70.6497C71.9913 64.1928 72.9538 64.368 73.7413 64.7184C75.7247 65.6236 76.6288 67.5802 76.6288 69.5075C76.6288 71.3764 75.9288 73.1285 74.1497 74.0629C73.333 74.501 72.1955 74.7054 70.708 74.7054H65.7205ZM68.783 64.7184V73.7709C68.783 74.1505 68.8705 74.2382 69.2497 74.2382H70.533C71.758 74.2382 72.6622 74.0629 73.3038 73.5957C74.383 72.8073 74.8788 71.3764 74.8788 69.5659C74.8788 67.7846 74.383 66.0325 72.9247 65.1856C72.3122 64.8352 71.5247 64.7184 70.2997 64.7184H68.783ZM23.283 74.3258V74.7054H19.5788V74.3258L20.5122 74.0921C20.8622 74.0045 21.0955 73.8877 21.3288 73.6249L24.5372 69.5951L21.3288 65.3316C21.1247 65.0396 20.8622 64.8936 20.5413 64.806L19.6663 64.5724V64.1928H24.2747V64.5724L23.283 64.7768C22.933 64.8352 23.0205 64.9812 23.1955 65.2148L25.558 68.6022H25.6163L28.0372 65.2148C28.2122 64.9812 28.2705 64.8936 27.9497 64.806L27.0163 64.5724V64.1928H30.7205V64.5724L29.7872 64.806C29.4372 64.8936 29.2038 65.0104 28.9705 65.2732L25.9372 69.0987L29.3205 73.5665C29.5247 73.8585 29.7872 74.0045 30.108 74.0921L30.983 74.3258V74.7054H26.3455V74.3258L27.3372 74.1213C27.6872 74.0629 27.6288 73.9461 27.4538 73.7125L24.8872 70.0915H24.8288L22.2622 73.7125C22.0872 73.9461 22.0288 74.0337 22.3497 74.1213L23.283 74.3258ZM12.2288 59.2577C11.9372 59.5497 11.4997 59.7541 10.8872 59.7541C10.3622 59.7541 9.86634 59.5789 9.54551 59.2577C9.07884 58.7904 9.10801 58.2356 9.10801 57.6224V54.7022H9.69134V57.8268C9.69134 58.2356 9.69134 58.6152 9.98301 58.9073C10.1872 59.1117 10.508 59.2285 10.8872 59.2285C11.2663 59.2285 11.558 59.1117 11.733 58.9073C12.083 58.5568 12.0538 58.2064 12.0538 57.3012V54.673H12.6372V57.1552C12.6663 58.0896 12.7247 58.7904 12.2288 59.2577ZM17.508 59.6665L15.1163 55.5783L15.1455 59.6665H14.5913V54.7022H15.2038L17.5955 58.8196V54.673H18.1497V59.6373H17.508V59.6665ZM20.1913 59.6665V54.7022H20.8038V59.6665H20.1913ZM24.508 59.6665H23.8372L22.1163 54.7022H22.7288L24.1872 59.0825L25.6747 54.7022H26.258L24.508 59.6665ZM27.6288 59.6665V54.7022H30.3413V55.1986H28.2122V56.8339H30.1955V57.3304H28.2122V59.1701H30.3997V59.6957L27.6288 59.6665ZM34.1622 55.4323C33.8705 55.1402 33.5205 55.1694 33.1122 55.1694H32.558V57.0383H32.7622C33.258 57.0383 33.8122 57.0675 34.133 56.7171C34.308 56.5419 34.3955 56.3083 34.3955 56.0747C34.3955 55.7827 34.2788 55.5491 34.1622 55.4323ZM34.7163 59.6665L34.133 58.3816C33.783 57.5932 33.608 57.5056 32.908 57.5056H32.558V59.6665H31.9747V54.7022H33.0538C33.7247 54.7022 34.2205 54.7022 34.5997 55.0818C34.8622 55.3446 34.9788 55.6659 34.9788 56.0747C34.9788 56.4251 34.8913 56.7171 34.658 56.9215C34.483 57.1259 34.1913 57.272 33.8705 57.3012C34.0455 57.3012 34.1913 57.418 34.2788 57.5056C34.4247 57.6516 34.5122 57.856 34.658 58.1772L35.3288 59.6665H34.7163ZM41.133 59.6665V54.7022H41.7455V59.6665H41.133ZM45.1288 55.1694V59.6373H44.5163V55.1694H43.0288V54.673H46.5872V55.1694H45.1288ZM49.4747 57.6808V59.6373H48.8913V57.6808L47.3163 54.673H47.9872L49.2122 57.0091L50.408 54.673H51.0497L49.4747 57.6808ZM56.6205 55.0818C55.658 55.0818 55.0163 55.8995 55.0163 57.1552C55.0163 58.3816 55.7163 59.2285 56.6497 59.2285C57.6997 59.2285 58.2538 58.3524 58.2538 57.0967C58.283 55.8995 57.583 55.0818 56.6205 55.0818ZM56.6205 59.7541C55.3372 59.7541 54.4038 58.7028 54.4038 57.1844C54.4038 55.6367 55.3372 54.5854 56.6788 54.5854C57.9913 54.5854 58.8955 55.6367 58.8955 57.1552C58.8955 58.6736 57.9913 59.7541 56.6205 59.7541ZM61.1413 55.1694V56.8047H63.0663V57.3012H61.1413V59.6665H60.558V54.7022H63.2122V55.1986H61.1413V55.1694ZM36.5247 55.8995C36.5247 55.1402 37.1372 54.5854 38.0413 54.5854C38.9455 54.5854 39.383 55.0526 39.4413 55.111L39.1497 55.4614C39.033 55.3738 38.6538 55.0818 38.0997 55.0818C37.458 55.0818 37.108 55.403 37.108 55.8703C37.108 56.0747 37.1955 56.2499 37.3413 56.3667C37.5163 56.5127 37.7497 56.6295 38.0413 56.7463C38.3622 56.8923 38.8288 57.0675 39.1497 57.3888C39.3538 57.6224 39.5288 57.8852 39.5288 58.294C39.5288 59.1117 38.9455 59.7541 37.9247 59.7541C37.0497 59.7541 36.4955 59.2577 36.4372 59.2285L36.6997 58.8196C36.8455 58.9365 37.3997 59.2577 37.8955 59.2577C38.6538 59.2577 38.9163 58.8489 38.9163 58.3524C38.9163 58.1188 38.7997 57.9436 38.6538 57.7976C38.4205 57.564 38.0705 57.418 37.7205 57.272C37.3997 57.1259 37.0788 56.9507 36.8455 56.7171C36.6705 56.5419 36.5247 56.2791 36.5247 55.8995ZM65.8955 19.8938V27.3402H60.5288L60.4705 27.4862C60.383 27.7198 60.208 27.9242 59.6247 27.9242C59.0413 27.9242 58.8663 27.7198 58.7788 27.4862L58.7205 27.3402H53.3538V19.8938H52.858V20.1274L52.3913 19.9814C52.333 19.8062 52.158 19.6602 51.983 19.6602C51.7497 19.6602 51.5455 19.8646 51.5455 20.0982C51.5455 20.3318 51.7497 20.5362 51.983 20.5362C52.0997 20.5362 52.1872 20.507 52.2747 20.4194L52.8872 20.5946V21.1786L52.4205 21.091C52.3622 20.945 52.1872 20.8282 52.0122 20.8282C51.7788 20.8282 51.5747 21.0326 51.5747 21.2663C51.5747 21.4999 51.7788 21.7043 52.0122 21.7043C52.1288 21.7043 52.2455 21.6459 52.333 21.5583L52.8872 21.6459V22.2591L52.4205 22.2299C52.333 22.1131 52.2163 22.0255 52.0413 22.0255C51.808 22.0255 51.6038 22.2299 51.6038 22.4635C51.6038 22.6971 51.808 22.9015 52.0413 22.9015C52.1872 22.9015 52.3038 22.8139 52.3913 22.7263L52.8872 22.7555V23.4272L52.3913 23.4564C52.3038 23.3396 52.1872 23.2812 52.0413 23.2812C51.808 23.2812 51.6038 23.4856 51.6038 23.7192C51.6038 23.9528 51.808 24.1572 52.0413 24.1572C52.1872 24.1572 52.333 24.0696 52.4205 23.9528L52.8872 23.9236V24.5368L52.3622 24.6244C52.2747 24.5368 52.158 24.4784 52.0413 24.4784C51.808 24.4784 51.6038 24.6829 51.6038 24.9165C51.6038 25.1501 51.808 25.3545 52.0413 25.3545C52.2163 25.3545 52.3913 25.2377 52.4497 25.0917L52.8872 25.0041V25.6173L52.3038 25.7925C52.2163 25.7341 52.1288 25.6757 52.0122 25.6757C51.7788 25.6757 51.5747 25.8801 51.5747 26.1137C51.5747 26.3473 51.7788 26.5518 52.0122 26.5518C52.2163 26.5518 52.3913 26.4058 52.4205 26.2305L52.858 26.0845V26.6686L52.2163 26.9606C52.158 26.9022 52.0705 26.873 51.983 26.873C51.7497 26.873 51.5455 27.0774 51.5455 27.311C51.5455 27.5446 51.7497 27.749 51.983 27.749C52.1872 27.749 52.3913 27.603 52.4205 27.3694L52.8872 27.165V27.6906H58.458C58.6913 28.0995 59.0705 28.3039 59.6538 28.3039C60.2372 28.3039 60.6455 28.0995 60.8497 27.6906H66.4205V19.8938H65.8955Z" fill="white"/>
<path d="M55.9499 18.2007C57.0775 18.2007 57.9915 18.0307 57.9915 17.821C57.9915 17.6114 57.0775 17.4414 55.9499 17.4414C54.8223 17.4414 53.9082 17.6114 53.9082 17.821C53.9082 18.0307 54.8223 18.2007 55.9499 18.2007Z" fill="white"/>
<path d="M58.7498 14.9883L57.5831 15.806V15.8936L57.8748 16.0104C57.9331 16.0396 57.9331 16.0688 57.9039 16.098L57.1748 16.7112H57.1164L56.5914 15.952C56.5623 15.8936 56.5623 15.8644 56.6206 15.8352L56.9706 15.7768V15.6892L56.0664 14.4043H55.9206L55.0164 15.6892V15.7768L55.3664 15.8352C55.4248 15.8352 55.4539 15.8936 55.3956 15.952L54.8706 16.7112H54.8123L54.1123 16.098C54.0831 16.0688 54.0831 16.0396 54.1414 16.0104L54.4331 15.8936V15.806L53.2081 14.9883L53.1206 15.0175L53.8498 17.2077C54.2289 17.0325 55.0456 16.9156 56.0373 16.9156C57.0289 16.9156 57.8456 17.0325 58.2248 17.2077L58.9539 15.0175L58.7498 14.9883Z" fill="white"/>
<path d="M59.5954 32.9184C60.723 32.9184 61.637 32.7485 61.637 32.5388C61.637 32.3291 60.723 32.1592 59.5954 32.1592C58.4678 32.1592 57.5537 32.3291 57.5537 32.5388C57.5537 32.7485 58.4678 32.9184 59.5954 32.9184Z" fill="white"/>
<path d="M62.3953 29.7354L61.2286 30.553V30.6407L61.5203 30.7575C61.5786 30.7867 61.5786 30.8159 61.5494 30.8451L60.8203 31.4583H60.7619L60.2369 30.6991C60.2078 30.6407 60.2078 30.6115 60.2661 30.5822L60.6161 30.5238V30.4362L59.7119 29.1514H59.5661L58.6619 30.4362V30.5238L59.0119 30.5822C59.0703 30.5822 59.0994 30.6407 59.0411 30.6991L58.5161 31.4583H58.4578L57.7578 30.8451C57.7286 30.8159 57.7286 30.7867 57.7869 30.7575L58.0786 30.6407V30.553L56.8536 29.7354L56.7661 29.7646L57.4953 31.9547C57.8744 31.7795 58.6911 31.6627 59.6828 31.6627C60.6744 31.6627 61.4911 31.7795 61.8703 31.9547L62.5994 29.7646L62.3953 29.7354Z" fill="white"/>
<path d="M63.2414 18.2007C64.369 18.2007 65.283 18.0307 65.283 17.821C65.283 17.6114 64.369 17.4414 63.2414 17.4414C62.1138 17.4414 61.1997 17.6114 61.1997 17.821C61.1997 18.0307 62.1138 18.2007 63.2414 18.2007Z" fill="white"/>
<path d="M66.0412 14.9883L64.8745 15.806V15.8936L65.1662 16.0104C65.2245 16.0396 65.2245 16.0688 65.1954 16.098L64.4662 16.7112H64.4079L63.8829 15.952C63.8537 15.8936 63.8537 15.8644 63.912 15.8352L64.262 15.7768V15.6892L63.3579 14.4043H63.212L62.3079 15.6892V15.7768L62.6579 15.8352C62.7162 15.8352 62.7454 15.8936 62.687 15.952L62.162 16.7112H62.1037L61.4037 16.0688C61.3745 16.0396 61.3745 16.0104 61.4329 15.9812L61.7245 15.8644V15.7768L60.4995 14.9591L60.412 14.9883L61.1412 17.1785C61.5204 17.0032 62.337 16.8864 63.3287 16.8864C64.3204 16.8864 65.137 17.0032 65.5162 17.1785L66.2454 14.9883H66.0412ZM59.362 21.0039C59.362 20.3906 59.1579 19.865 58.6912 19.6022C58.3995 19.427 58.0204 19.3686 57.5245 19.3686H54.0537V26.4062H57.8454C58.7204 26.4062 59.2454 26.6106 59.2745 27.3991H59.362V21.0039ZM56.7954 21.4419C56.8829 21.4419 56.912 21.4127 56.912 21.3543C56.912 21.2959 56.9412 21.2375 56.9412 21.0915L56.9704 20.7703C56.9704 20.5659 56.9704 20.5659 56.8537 20.5367V20.4783H57.2037L57.4662 21.0915L57.6995 20.4783H58.0787V20.5367C57.962 20.5367 57.962 20.5659 57.962 20.7119L57.9912 21.2375C57.9912 21.4127 57.9912 21.4127 58.1079 21.4127V21.4711H57.612V21.4127C57.7287 21.4127 57.7287 21.3835 57.7287 21.2375V20.6827L57.437 21.4711H57.3495L57.0579 20.7411V21.3543C57.0579 21.4127 57.087 21.4127 57.2037 21.4419V21.5003H56.8245L56.7954 21.4419ZM57.6995 22.9896C57.5537 22.9312 57.4079 22.8436 57.4079 22.6684C57.4079 22.4932 57.5245 22.3472 57.787 22.3472C57.8454 22.3472 57.8745 22.3472 57.9329 22.3764C57.962 22.3764 57.9912 22.4056 58.0204 22.4056C58.0204 22.464 58.0495 22.5516 58.0495 22.6392H57.9912C57.962 22.5516 57.9037 22.4348 57.787 22.4348C57.6995 22.4348 57.6412 22.4932 57.6412 22.5808C57.6412 22.6684 57.6995 22.6976 57.787 22.756L57.8162 22.7852C57.962 22.8436 58.0787 22.9312 58.0787 23.1064C58.0787 23.3108 57.9329 23.4276 57.6995 23.4276C57.6412 23.4276 57.5829 23.4276 57.5245 23.3984C57.4662 23.3692 57.437 23.3692 57.437 23.3692C57.437 23.3108 57.4079 23.2232 57.3787 23.1064L57.437 23.0772C57.4662 23.1648 57.5537 23.34 57.6995 23.34C57.787 23.34 57.8454 23.2816 57.8454 23.194C57.8454 23.0772 57.787 23.0188 57.6995 22.9896ZM56.6787 22.4932C56.7079 22.5808 56.8245 22.8728 56.8829 23.048C56.9412 22.902 57.0287 22.61 57.0579 22.5516C57.087 22.464 57.087 22.4348 56.9995 22.4348H56.9412V22.3764H57.3204V22.4348C57.2329 22.4348 57.2037 22.464 57.1454 22.5808C57.1454 22.61 56.9412 23.0772 56.8245 23.3692H56.7079C56.5912 23.0772 56.4454 22.6976 56.387 22.5516C56.3287 22.4056 56.2995 22.4056 56.2412 22.4056V22.3472H56.737V22.4056H56.6787C56.6495 22.4348 56.6495 22.464 56.6787 22.4932ZM56.212 20.4783C56.5037 20.4783 56.7079 20.6827 56.7079 21.0039C56.7079 21.3251 56.4745 21.5295 56.1829 21.5295C55.862 21.5295 55.6579 21.2959 55.6579 21.0039C55.687 20.7703 55.862 20.4783 56.212 20.4783ZM54.4912 21.5003V21.4419C54.6079 21.4419 54.6079 21.4127 54.6079 21.2667V20.7411C54.6079 20.5659 54.6079 20.5659 54.4912 20.5659V20.5075H54.9579C55.162 20.5075 55.3079 20.5367 55.4245 20.6535C55.512 20.7119 55.5704 20.8287 55.5704 20.9747C55.5704 21.3543 55.2787 21.5295 54.9287 21.5295H54.4912V21.5003ZM55.5412 24.2745C55.4245 24.2745 55.4245 24.3037 55.4245 24.4497V24.9753C55.4245 25.1505 55.4245 25.1505 55.5412 25.1505V25.2089H55.0454V25.1505C55.162 25.1505 55.162 25.1213 55.162 24.9753V24.4497C55.162 24.2745 55.162 24.2745 55.0454 24.2745V24.2161H55.5412V24.2745ZM55.5412 23.3692H55.162V23.3108C55.2204 23.3108 55.2787 23.2816 55.2787 23.2232V22.6392C55.2787 22.5224 55.2787 22.4932 55.2495 22.464C55.2204 22.4348 55.1912 22.4348 55.1329 22.4056V22.3472H55.4829L56.0079 22.9896V22.7852V22.4932C56.0079 22.4348 55.9495 22.4056 55.862 22.4056V22.3472H56.2704V22.4056C56.1829 22.4056 56.1537 22.4348 56.1537 22.4932V23.3692H56.0079L55.4245 22.6392V23.2232C55.4245 23.2816 55.4829 23.3108 55.5704 23.3108L55.5412 23.3692ZM56.387 25.2381H55.6287V25.1797C55.7454 25.1797 55.7454 25.1505 55.7454 25.0045V24.4789C55.7454 24.3037 55.7454 24.3037 55.6287 24.3037V24.2453H56.1245V24.3037C56.0079 24.3037 56.0079 24.3329 56.0079 24.4789V25.0045C56.0079 25.0921 56.0079 25.1213 56.037 25.1505H56.1537C56.212 25.1505 56.2704 25.1505 56.2995 25.0921C56.3287 25.0629 56.3579 25.0337 56.387 24.9461H56.4454C56.4454 25.0337 56.4162 25.1797 56.387 25.2381ZM57.262 25.2381H56.5037V25.1797C56.6204 25.1797 56.6204 25.1505 56.6204 25.0045V24.4789C56.6204 24.3037 56.6204 24.3037 56.5037 24.3037V24.2453H56.9995V24.3037C56.8829 24.3037 56.8829 24.3329 56.8829 24.4789V25.0045C56.8829 25.0921 56.8829 25.1213 56.912 25.1505H57.0287C57.087 25.1505 57.1454 25.1505 57.1745 25.0921C57.2037 25.0629 57.2329 25.0337 57.262 24.9461H57.3204C57.3204 25.0337 57.262 25.1797 57.262 25.2381ZM58.2245 24.2745C58.137 24.2745 58.1079 24.3037 58.0495 24.4205C58.0495 24.4497 57.8454 24.9169 57.7287 25.2089H57.612C57.4954 24.9169 57.3495 24.5373 57.2912 24.3913C57.2329 24.2453 57.2037 24.2453 57.1454 24.2453V24.1869H57.6412V24.2453H57.5829C57.5245 24.2453 57.5245 24.2745 57.5537 24.3329C57.5829 24.4205 57.6995 24.7125 57.7579 24.8877C57.8162 24.7417 57.9037 24.4497 57.9329 24.3913C57.962 24.3037 57.962 24.2745 57.8745 24.2745H57.8162V24.2161H58.1954L58.2245 24.2745ZM58.7204 20.5659C58.6037 20.5659 58.6037 20.5951 58.6037 20.7411V21.2667C58.6037 21.4419 58.6037 21.4419 58.7204 21.4419V21.5003H58.2245V21.4419C58.3412 21.4419 58.3412 21.4127 58.3412 21.2667V20.7411C58.3412 20.5659 58.3412 20.5659 58.2245 20.5659V20.5075H58.7204V20.5659Z" fill="white"/>
<path d="M54.9582 20.5945H54.8999V21.2662C54.8999 21.4122 54.9291 21.4414 55.0166 21.4414C55.1624 21.4414 55.2791 21.2954 55.2791 21.0326C55.2499 20.6821 55.1041 20.5945 54.9582 20.5945ZM56.2416 21.4414C56.3874 21.4414 56.4457 21.3246 56.4457 21.0326C56.4457 20.7113 56.3291 20.5361 56.2124 20.5361C56.0957 20.5361 56.0082 20.6821 56.0082 20.945C55.9791 21.237 56.0666 21.4414 56.2416 21.4414ZM63.6207 24.5368L63.5332 24.8288H63.7374L63.6207 24.5368ZM63.9999 20.8281L63.8832 21.1202H64.0874L63.9999 20.8281ZM63.1249 22.8431C63.1249 23.1351 63.2416 23.3395 63.3874 23.3395C63.5332 23.3395 63.5916 23.2227 63.5916 22.9307C63.5916 22.6095 63.4749 22.4342 63.3582 22.4342C63.2124 22.4342 63.1249 22.551 63.1249 22.8431Z" fill="white"/>
<path d="M61.6661 19.3975C61.1994 19.3975 60.7911 19.4559 60.4994 19.6311C60.0328 19.8939 59.8286 20.3903 59.8286 21.0328V27.4279H59.9161C59.9744 26.6395 60.4703 26.4351 61.3453 26.4351H65.1661V19.3975H61.6661ZM62.4828 20.5071H62.8328L63.3578 21.1496V20.9452V20.6531C63.3578 20.5947 63.2994 20.5655 63.2119 20.5655V20.5071H63.6203V20.5655C63.5328 20.5655 63.5036 20.5947 63.5036 20.6531V21.5292H63.3578L62.7744 20.7991V21.3832C62.7744 21.4416 62.8328 21.4708 62.9203 21.4708V21.5292H62.5119V21.4708C62.5703 21.4708 62.6286 21.4416 62.6286 21.3832V20.7991C62.6286 20.6823 62.6286 20.6531 62.5994 20.6239C62.5703 20.5947 62.5411 20.5947 62.4828 20.5655V20.5071ZM63.8828 22.8433C63.8828 23.1645 63.6494 23.3689 63.3578 23.3689C63.0369 23.3689 62.8328 23.1353 62.8328 22.8433C62.8328 22.5804 63.0078 22.2884 63.3578 22.2884C63.6494 22.3468 63.8828 22.5512 63.8828 22.8433ZM62.7161 23.3105V23.3689H62.2203V23.3105C62.3369 23.3105 62.3369 23.2813 62.3369 23.1353V22.6096C62.3369 22.4344 62.3369 22.4344 62.2203 22.4344V22.376H62.7161V22.4344C62.5994 22.4344 62.5994 22.4636 62.5994 22.6096V23.1353C62.5994 23.2813 62.5994 23.3105 62.7161 23.3105ZM61.8994 21.4416C62.0161 21.4416 62.0161 21.4124 62.0161 21.2664V20.7407C62.0161 20.5655 62.0161 20.5655 61.8994 20.5655V20.5071H62.3953V20.5655C62.2786 20.5655 62.2786 20.5947 62.2786 20.7407V21.2664C62.2786 21.4416 62.2786 21.4416 62.3953 21.4416V21.5H61.8994V21.4416ZM61.9286 23.3105V23.3689H61.3744V23.3105C61.4911 23.3105 61.5203 23.2813 61.5203 23.1353V22.4636H61.4911C61.3744 22.4636 61.3453 22.4928 61.3161 22.522C61.2869 22.5512 61.2869 22.5804 61.2578 22.6681H61.1994C61.1994 22.5512 61.2286 22.4344 61.2286 22.3468H61.2869C61.3161 22.376 61.3161 22.376 61.3744 22.376H61.9869C62.0161 22.376 62.0453 22.376 62.0744 22.3468H62.1328C62.1328 22.4052 62.1328 22.5512 62.1619 22.6681H62.1036C62.0744 22.5804 62.0744 22.522 62.0453 22.522C62.0161 22.4928 61.9578 22.4928 61.8994 22.4928H61.8703V23.1645C61.7828 23.2813 61.7828 23.3105 61.9286 23.3105ZM60.8786 21.5H60.4994V21.4416C60.5869 21.4416 60.6161 21.4124 60.6161 21.354C60.6161 21.2956 60.6453 21.2372 60.6453 21.0912L60.6744 20.7699C60.6744 20.5655 60.6744 20.5655 60.5578 20.5363V20.4779H60.9078L61.1703 21.0912L61.4036 20.4779H61.7828V20.5363C61.6661 20.5363 61.6661 20.5655 61.6661 20.7115L61.6953 21.2372C61.6953 21.4124 61.6953 21.4124 61.8119 21.4124V21.4708H61.3161V21.4124C61.4328 21.4124 61.4328 21.3832 61.4328 21.2372V20.6823L61.1411 21.4708H61.0536L60.7619 20.7407V21.354C60.7619 21.4124 60.7911 21.4124 60.9078 21.4416L60.8786 21.5ZM62.2494 25.2378H61.7536V25.1794C61.8703 25.1794 61.8703 25.1502 61.8703 25.0042V24.4494L61.5786 25.2378H61.4911L61.1994 24.5078V25.121C61.1994 25.1794 61.2286 25.1794 61.3453 25.2086V25.267H60.9661V25.2086C61.0536 25.2086 61.0828 25.1794 61.0828 25.121C61.0828 25.0626 61.1119 25.0042 61.1119 24.8582L61.1411 24.537C61.1411 24.3325 61.1411 24.3325 61.0244 24.3033V24.2449H61.3744L61.6369 24.8582L61.8703 24.2449H62.2494V24.3033C62.1328 24.3033 62.1328 24.3326 62.1328 24.4786L62.1619 25.0042C62.1619 25.1794 62.1619 25.1794 62.2786 25.1794L62.2494 25.2378ZM63.1244 25.2378H62.3369V25.1794C62.4536 25.1794 62.4828 25.1502 62.4828 25.0042V24.4786C62.4828 24.3033 62.4828 24.3033 62.3661 24.3033V24.2449H63.0953C63.0953 24.2741 63.0953 24.391 63.1244 24.5078H63.0661C63.0369 24.4202 63.0369 24.391 63.0078 24.3618C62.9786 24.3325 62.9203 24.3326 62.8619 24.3326H62.8036C62.7453 24.3326 62.7453 24.3325 62.7453 24.391V24.683H62.8328C62.9786 24.683 62.9786 24.683 62.9786 24.5662H63.0369V24.9458H62.9786C62.9494 24.7998 62.9494 24.7998 62.8328 24.7998H62.7453V25.0626C62.7453 25.1502 62.7453 25.1794 62.7744 25.2086H62.8911C62.9494 25.2086 63.0078 25.2086 63.0661 25.1502C63.0953 25.121 63.1244 25.0626 63.1536 25.0042H63.2119C63.1828 25.0334 63.1536 25.1794 63.1244 25.2378ZM64.2036 25.2378H63.7078V25.1794H63.7661C63.8244 25.1794 63.8244 25.1502 63.7953 25.0918L63.7369 24.9458H63.4744L63.4161 25.0918C63.3869 25.1502 63.3869 25.1794 63.4744 25.1794H63.5328V25.2378H63.1828V25.1794C63.2703 25.1794 63.2994 25.1502 63.3286 25.0334L63.6494 24.2449L63.7661 24.2157L63.8828 24.5078C63.9411 24.683 64.0286 24.8874 64.0869 25.0334C64.1453 25.1794 64.1744 25.1794 64.2328 25.1794L64.2036 25.2378ZM64.5828 21.5H64.0869V21.4416H64.1453C64.2036 21.4416 64.2036 21.4124 64.1744 21.354L64.1161 21.208H63.8536L63.7953 21.354C63.7661 21.4124 63.7661 21.4416 63.8536 21.4416H63.9119V21.5H63.5619V21.4416C63.6494 21.4416 63.6786 21.4124 63.7078 21.2956L64.0286 20.5071L64.1453 20.4779L64.2619 20.7699C64.3203 20.9452 64.4078 21.1496 64.4661 21.2956C64.5244 21.4416 64.5536 21.4416 64.6119 21.4416L64.5828 21.5Z" fill="white"/>
<path d="M57.8165 38.1165C58.0421 38.1165 58.2249 37.9334 58.2249 37.7077C58.2249 37.4819 58.0421 37.2988 57.8165 37.2988C57.591 37.2988 57.4082 37.4819 57.4082 37.7077C57.4082 37.9334 57.591 38.1165 57.8165 38.1165Z" fill="white"/>
<path d="M61.8995 38.7874C62.1251 38.7874 62.3079 38.6043 62.3079 38.3785C62.3079 38.1528 62.1251 37.9697 61.8995 37.9697C61.674 37.9697 61.4912 38.1528 61.4912 38.3785C61.4912 38.6043 61.674 38.7874 61.8995 38.7874Z" fill="white"/>
<path d="M59.5953 9.46902C59.8209 9.46902 60.0037 9.28598 60.0037 9.06019C60.0037 8.8344 59.8209 8.65137 59.5953 8.65137C59.3698 8.65137 59.187 8.8344 59.187 9.06019C59.187 9.28598 59.3698 9.46902 59.5953 9.46902Z" fill="white"/>
<path d="M69.2203 13.2649C69.4459 13.2649 69.6287 13.0819 69.6287 12.8561C69.6287 12.6303 69.4459 12.4473 69.2203 12.4473C68.9948 12.4473 68.812 12.6303 68.812 12.8561C68.812 13.0819 68.9948 13.2649 69.2203 13.2649Z" fill="white"/>
<path d="M49.329 30.2898C49.4748 30.5234 49.5623 30.757 49.5623 30.9907C49.5623 31.2827 49.4748 31.5163 48.9498 31.8667L47.4915 32.918L47.229 32.5383C47.229 32.5383 48.7165 31.4579 48.7456 31.4579C49.0081 31.2827 49.1248 31.1367 49.1248 30.9322C49.1248 30.8154 49.0665 30.6694 48.979 30.5234C48.8331 30.319 48.6581 30.2314 48.4831 30.2314C48.3373 30.2314 48.1623 30.3482 47.8706 30.5526L46.4998 31.4871L46.2373 31.1075L47.5498 30.2314C47.8998 29.9686 48.1915 29.7934 48.4831 29.7934C48.8623 29.7642 49.154 30.027 49.329 30.2898ZM44.6331 27.428L47.404 26.4644L47.5498 26.8732L45.9456 28.8297L47.9581 28.0413L48.104 28.4501L45.3623 29.5014L45.2165 29.0925L46.8206 27.136L44.779 27.8661L44.6331 27.428ZM44.2248 25.2087L47.1415 24.7707L47.1998 25.2379L44.2831 25.6759L44.2248 25.2087ZM44.1373 21.6753V21.1789L47.054 22.3761L47.0248 22.8726L44.0498 23.7778V23.2814L46.4706 22.6098L44.1373 21.6753ZM46.7915 15.0757C46.3831 15.0757 46.179 15.3093 45.9165 15.8058L45.5665 16.419L48.1623 17.8207L48.3956 17.4119L47.3165 16.8278L47.3748 16.711C47.5498 16.3898 47.6081 16.3314 48.0748 16.3606L48.9206 16.4482L49.154 16.0102L48.1915 15.9226C47.9873 15.8934 47.8415 15.8934 47.7248 15.9226C47.6956 15.9226 47.6373 15.9518 47.579 15.981C47.579 15.9226 47.6081 15.8642 47.6081 15.835C47.6081 15.7474 47.6081 15.6598 47.579 15.6014C47.5206 15.4261 47.404 15.2801 47.1998 15.1925C47.0831 15.1341 46.9373 15.0757 46.7915 15.0757ZM46.2665 15.981C46.4415 15.6598 46.5581 15.5429 46.7331 15.5429C46.7915 15.5429 46.879 15.5722 46.9665 15.6014C47.0831 15.6598 47.1706 15.7766 47.1998 15.8642C47.1998 15.8934 47.229 15.9518 47.229 15.981C47.229 16.1562 47.1415 16.3314 47.0248 16.5066L46.9665 16.6234L46.1498 16.1854L46.2665 15.981ZM50.029 10.9291L50.4081 10.6371L52.1873 12.9732L51.8081 13.2652L50.029 10.9291ZM51.6331 9.76101L53.529 8.76815L53.704 9.11857L52.9748 9.4982L54.1415 11.7467L53.7331 11.9511L52.5665 9.70261L51.8081 10.0822L51.6331 9.76101ZM56.3873 7.8921L56.8831 7.74609L56.4748 9.73181L56.7956 10.8415L56.3581 10.9583L56.0373 9.84862L54.6373 8.38853L55.1331 8.24252L56.1248 9.29378L56.3873 7.8921ZM65.3706 11.9219L66.8581 9.38139L68.2581 10.199L68.054 10.5495L67.0623 9.96542L66.654 10.6663L67.5873 11.2211L67.3831 11.5715L66.4498 11.0167L65.779 12.1556L65.3706 11.9219ZM72.954 18.4923L74.0331 17.2074L74.2081 17.7039L73.4206 18.6091L74.6165 18.8719L74.7623 19.3392L73.129 18.9595L71.9623 20.332L71.7873 19.8356L72.6623 18.8135L71.3498 18.5215L71.204 18.0251L72.954 18.4923ZM72.1081 21.3833L75.054 21.1497L75.1998 22.785L74.7915 22.8142L74.704 21.6461L73.8873 21.7045L73.9748 22.8142L73.5956 22.8434L73.5081 21.7337L72.1665 21.8505L72.1081 21.3833ZM73.3915 24.0114C73.0415 24.0114 72.7498 24.099 72.4873 24.2743C72.0498 24.5955 71.9623 25.0627 71.9623 25.3255C71.9623 26.3184 72.8956 26.7272 73.5956 26.7272C73.9456 26.7272 74.2373 26.6396 74.4998 26.4644C74.9956 26.114 75.0248 25.5591 75.0248 25.3839C75.0248 24.5079 74.2373 24.0114 73.3915 24.0114ZM73.6248 26.26C73.0415 26.26 72.3706 25.9388 72.3706 25.3547C72.3706 25.1503 72.4581 24.8583 72.6915 24.6831C72.8665 24.5663 73.0998 24.4787 73.3623 24.4787C73.654 24.4787 74.179 24.5663 74.4706 24.9459C74.5581 25.0627 74.6165 25.2379 74.6165 25.3839C74.6165 25.6175 74.529 25.8804 74.2956 26.0556C74.1206 26.2016 73.8873 26.26 73.6248 26.26ZM71.6998 14.1997C71.4081 14.1997 71.0873 14.2873 70.7665 14.4917C70.2123 14.8421 70.0081 15.3677 70.0081 15.7474C70.0081 15.981 70.0665 16.2438 70.2123 16.4482C70.5331 16.9446 70.9998 17.0614 71.3206 17.0614C71.6123 17.0614 71.9331 16.9738 72.254 16.7694C72.604 16.5358 73.0123 16.0978 73.0123 15.5137C73.0123 15.2801 72.954 15.0465 72.8081 14.8129C72.5456 14.4041 72.1373 14.1997 71.6998 14.1997ZM71.2331 16.5942C70.9706 16.5942 70.7373 16.4774 70.5623 16.2146C70.4748 16.0686 70.4456 15.9518 70.4456 15.8058C70.4456 15.4845 70.6498 15.1341 71.029 14.8713C71.2915 14.6961 71.5248 14.6377 71.7581 14.6377C72.0498 14.6377 72.2831 14.7545 72.429 15.0173C72.5165 15.1633 72.5748 15.3093 72.5748 15.4553C72.5748 15.7766 72.3706 16.0978 71.9915 16.3314C71.729 16.5066 71.4665 16.5942 71.2331 16.5942ZM63.6498 8.12572C63.0373 8.12572 62.5123 8.53454 62.279 9.26458C62.2206 9.43979 62.1915 9.5858 62.1915 9.73181C62.1915 10.0238 62.2498 10.2574 62.3665 10.4911C62.629 10.9875 63.1248 11.1627 63.504 11.1627C63.7081 11.1627 63.9123 11.1043 64.1165 11.0167C64.6123 10.7539 64.9331 10.1114 64.9331 9.4982C64.9331 9.23538 64.8748 9.00177 64.7581 8.76815C64.554 8.35933 64.1165 8.12572 63.6498 8.12572ZM63.504 10.7539C63.2998 10.7539 62.979 10.6371 62.804 10.345C62.7165 10.199 62.6873 9.99462 62.6873 9.81941C62.6873 9.29378 63.0373 8.56374 63.679 8.56374C64.029 8.56374 64.4956 8.82656 64.4956 9.4982C64.4956 9.87782 64.204 10.7539 63.504 10.7539ZM47.3456 18.8135L47.754 18.9303L47.3165 20.5364L44.4581 19.748L44.954 18.1127L45.3331 18.2295L44.9831 19.3976L45.7706 19.602L46.0623 18.5215L46.4415 18.6383L46.1498 19.7188L47.0248 19.9524L47.3456 18.8135ZM48.104 12.652C48.5123 12.1848 48.9206 12.214 48.9206 12.214L48.979 12.5936C48.979 12.5936 48.6581 12.5936 48.3956 12.8856C48.279 13.0024 48.2206 13.1484 48.2206 13.2652C48.2206 13.3528 48.2498 13.4404 48.3373 13.4988C48.5415 13.674 48.8915 13.4696 49.0956 13.382C49.2706 13.3236 49.504 13.2068 49.7373 13.2068C49.9123 13.2068 50.0873 13.2652 50.2623 13.4112C50.4665 13.5864 50.554 13.82 50.554 14.0245C50.554 14.2873 50.4665 14.4917 50.2623 14.7253C49.8831 15.1341 49.3873 15.1925 49.3873 15.1925L49.2998 14.7837C49.5915 14.7253 49.8248 14.6085 49.9706 14.4333C50.0873 14.3165 50.1165 14.1705 50.1165 14.0537C50.1165 13.9369 50.0581 13.8493 49.9706 13.7616C49.8831 13.7032 49.7956 13.674 49.7081 13.674C49.5331 13.674 49.2998 13.7908 49.0956 13.8493C48.7456 13.9953 48.3665 14.1121 48.0165 13.82C47.8415 13.674 47.754 13.4696 47.754 13.2652C47.8123 13.1192 47.8998 12.8564 48.104 12.652ZM71.3206 27.8369L72.429 28.3333L72.3706 28.4501C72.2248 28.8005 72.1665 28.8589 71.6998 28.8589H70.854L70.6498 29.3262H71.6123C71.8165 29.3262 71.9623 29.3262 72.079 29.2678C72.1081 29.2386 72.1665 29.2386 72.1956 29.1801V29.2678C72.1956 29.3846 72.2248 29.4722 72.254 29.589C72.3998 29.9102 72.7498 30.0562 73.0123 30.0562C73.479 30.0562 73.654 29.7642 73.8873 29.2678C73.8873 29.2386 74.1498 28.6253 74.1498 28.6253L71.4665 27.428L71.3206 27.8369ZM73.0706 29.5598C72.9248 29.5598 72.7206 29.4722 72.6331 29.2678C72.604 29.2093 72.604 29.1509 72.604 29.0925C72.604 28.9173 72.6915 28.7713 72.7498 28.5961L72.8081 28.4793L73.654 28.8589L73.5665 29.0925C73.3915 29.4722 73.2748 29.5598 73.0706 29.5598ZM69.7748 30.611C69.4831 30.9907 69.2498 31.3411 69.2498 31.7791C69.2498 32.1587 69.4248 32.5675 69.8623 32.918C70.154 33.1516 70.4748 33.2684 70.7956 33.2684C71.204 33.2684 71.5248 33.1516 72.0498 32.5091L72.5165 31.9251L70.2123 30.0854L69.7748 30.611ZM70.8248 32.8304C70.5915 32.8304 70.3581 32.7428 70.154 32.5675C69.9206 32.3923 69.6873 32.1003 69.6873 31.7207C69.6873 31.4579 69.8331 31.2243 70.0373 30.9615L70.2415 30.7278L71.9331 32.0711L71.8165 32.2463C71.4373 32.5967 71.2331 32.8304 70.8248 32.8304Z" fill="white"/>
<path d="M76.483 23.1647C76.483 13.8786 68.8997 6.28613 59.5955 6.28613C50.2913 6.28613 42.708 13.8494 42.708 23.1647C42.708 28.7422 45.4497 33.9401 50.058 37.0939C50.5247 38.7876 52.0705 40.0433 53.8788 40.0433C54.3747 40.0433 54.8705 39.9557 55.308 39.7805C55.9205 39.9849 56.5622 40.1601 57.2038 40.2769C57.0288 40.8025 56.7663 41.2698 56.5038 41.7078C56.2413 42.1458 56.5038 41.7078 56.4747 41.7078L56.8247 42.0582C56.9122 41.9998 57.0288 41.9706 57.1163 41.9706C57.4663 41.9706 57.758 42.2626 57.758 42.6131C57.758 42.9635 57.4663 43.2555 57.1163 43.2555C56.8247 43.2555 56.533 43.0511 56.4163 42.8467C56.4163 42.8467 56.3288 43.1387 56.3288 43.5183C56.3288 44.7156 57.6413 46.1173 59.4788 46.7013C61.3163 46.1173 62.6288 44.7448 62.6288 43.5183C62.6288 43.1095 62.5413 42.8467 62.5413 42.8467C62.3955 43.0219 62.1622 43.2555 61.8413 43.2555C61.4913 43.2555 61.1997 42.9635 61.1997 42.6131C61.1997 42.2626 61.4913 41.9706 61.8413 41.9706C61.958 41.9706 62.0747 41.9998 62.1622 42.0582L62.5122 41.7078C62.308 41.2406 62.1913 40.8317 62.0747 40.4229C65.108 40.0141 67.6747 38.7292 69.7163 36.5975C74.0622 33.3561 76.483 28.4794 76.483 23.1647ZM53.9372 39.5469C52.0122 39.5469 50.4663 37.97 50.4663 36.0719C50.4663 35.4586 50.6122 34.9038 50.8747 34.4074C51.0497 34.5826 51.2538 34.7286 51.4288 34.9038C51.2538 35.2542 51.1663 35.663 51.1663 36.0719C51.1663 37.1231 51.6913 37.97 52.683 38.5832C53.2663 38.9336 53.908 39.2257 54.5788 39.4885C54.4038 39.5469 54.1705 39.5469 53.9372 39.5469ZM59.5955 34.495C58.8663 34.495 58.1663 34.4366 57.4663 34.2906C56.7955 32.9765 55.4247 32.1296 53.9372 32.1296C53.558 32.1296 53.208 32.188 52.8872 32.2757C50.0288 30.1439 48.308 26.7565 48.308 23.1939C48.308 16.9448 53.383 11.8637 59.6247 11.8637C65.8663 11.8637 70.9413 16.9448 70.9413 23.1939C70.9413 29.4431 65.8372 34.495 59.5955 34.495ZM62.133 34.6702C61.783 35.1666 61.5788 35.8383 61.5205 36.5099C60.4413 36.2471 59.4788 35.8675 58.633 35.4878C58.808 35.1666 59.2455 34.9622 59.5955 34.9622C60.4705 34.9622 61.3163 34.8454 62.133 34.6702ZM58.5455 34.9038C58.3997 35.0206 58.283 35.1374 58.1955 35.2834C57.758 35.079 57.233 34.8162 56.883 34.6118C57.3788 34.7286 58.0205 34.8746 58.5455 34.9038ZM53.9372 32.5677C55.1038 32.5677 56.183 33.1517 56.8247 34.1154C56.2705 33.9694 55.7163 33.7941 55.1913 33.5605H55.1622C54.783 33.3853 54.3747 33.2977 53.9663 33.2977C53.033 33.2977 52.2163 33.7649 51.7205 34.4366C51.5163 34.3198 51.283 34.203 51.0788 34.057C51.7205 33.1809 52.7413 32.5677 53.9372 32.5677ZM61.9288 41.4742C61.3163 41.4742 60.7913 41.9122 60.7913 42.5839C60.7913 43.2555 61.3163 43.6935 61.9288 43.6935C62.0163 43.6935 62.1038 43.6643 62.1913 43.6643C62.0747 44.5988 60.9663 45.65 59.5663 46.1173C58.1663 45.65 57.0872 44.5988 56.9413 43.6643C57.0288 43.6935 57.1163 43.6935 57.2038 43.6935C57.8747 43.6935 58.3413 43.2263 58.3413 42.5839C58.3413 41.9706 57.8455 41.4742 57.233 41.4742C57.4372 41.1238 57.6122 40.7441 57.7288 40.3645C58.5163 40.5105 59.2747 40.5689 59.9747 40.5689C60.558 40.5689 61.1122 40.5397 61.6663 40.4813C61.7538 40.8026 61.8413 41.1238 61.9872 41.4742H61.9288ZM60.0038 40.1017C57.7288 40.1017 54.9288 39.3425 52.9747 38.1744C52.3913 37.824 51.6913 37.1815 51.6913 36.0719C51.6913 35.7799 51.7497 35.4878 51.8663 35.225C52.5955 35.8383 53.3538 36.3931 53.8205 36.6559C53.9372 36.7143 53.9955 36.7435 54.1122 36.7435C54.4038 36.7435 54.6663 36.5099 54.6663 36.1887C54.6663 35.9551 54.5497 35.7799 54.3455 35.6923C53.9372 35.517 53.0913 35.1666 52.1872 34.6994C52.5955 34.1446 53.2663 33.7941 53.9955 33.7941C54.3455 33.7941 54.6663 33.8817 54.958 33.9986L55.5705 34.349C57.5538 35.5462 62.6288 38.6416 68.7247 36.9479C66.3913 39.0504 63.533 40.1017 60.0038 40.1017ZM69.483 36.2179C66.7413 37.1815 64.1747 37.1231 61.9872 36.6267C62.0455 35.6631 62.4538 34.6118 63.0663 34.4074C67.8788 32.9181 71.3788 28.421 71.3788 23.1355C71.3788 16.6235 66.0705 11.338 59.5663 11.338C53.0622 11.338 47.8122 16.6527 47.8122 23.1647C47.8122 26.7857 49.5038 30.2315 52.333 32.4509C51.6622 32.7429 51.0788 33.2393 50.6705 33.8233C50.4663 33.6773 50.233 33.5313 50.058 33.3561L49.9413 33.4729C50.058 33.6189 50.2622 33.8233 50.4955 34.057C50.1455 34.641 49.9413 35.3418 49.9413 36.0719C49.9413 36.1887 49.9413 36.3055 49.9705 36.4223C45.7413 33.3269 43.233 28.421 43.233 23.1647C43.233 14.1122 50.583 6.78256 59.5955 6.78256C68.608 6.78256 75.958 14.1414 75.958 23.1647C75.9872 28.3334 73.6247 33.0933 69.483 36.2179Z" fill="white"/>
</g>
<defs>
<clipPath id="clip0_1399_9227">
<rect width="84" height="84" fill="white" transform="translate(0.387207)"/>
</clipPath>
</defs>
</svg>
