<svg width="85" height="26" viewBox="0 0 85 26" fill="none" xmlns="http://www.w3.org/2000/svg">
<g clip-path="url(#clip0_1400_9384)">
<rect width="84" height="24.7753" transform="translate(0.387207 0.612305)" fill="white"/>
<path d="M6.84865 6.71021C6.84865 6.71021 7.60431 6.51447 8.19204 6.62632C8.77978 6.73817 8.30399 7.1017 8.30399 7.1017C8.30399 7.1017 7.71626 7.43725 7.12853 7.52114C6.54079 7.63299 6.84865 6.85002 6.84865 6.85002" fill="#B59B0C"/>
<path d="M6.84865 6.71021C6.84865 6.71021 7.60431 6.51447 8.19204 6.62632C8.77978 6.73817 8.30399 7.1017 8.30399 7.1017C8.30399 7.1017 7.71626 7.43725 7.12853 7.52114C6.54079 7.63299 6.84865 6.85002 6.84865 6.85002" stroke="#B59B0C" stroke-width="3.54007"/>
<path d="M4.74946 4.19318C4.74946 4.19318 4.27367 5.53541 5.00135 6.06671C5.70103 6.57004 6.31675 5.89893 6.4287 5.89893C6.51266 5.87096 6.2048 5.70319 6.2048 5.70319C6.2048 5.70319 6.06487 5.87097 5.72902 5.95486C4.86141 6.20652 4.58153 5.06004 4.86141 4.27707C4.86141 4.24911 4.80544 4.13725 4.74946 4.19318Z" fill="#B59B0C" stroke="#B59B0C" stroke-width="4.87946"/>
<path d="M5.86943 3.6619C5.86943 3.6619 4.97382 5.00413 5.61753 5.67525C6.23326 6.3184 7.07288 5.67525 7.18483 5.67525C7.26879 5.67525 6.98892 5.45154 6.98892 5.45154C6.98892 5.45154 6.79301 5.61932 6.40119 5.64728C5.39364 5.7871 5.42162 4.55672 5.9254 3.77375C5.98137 3.77375 5.95339 3.63394 5.86943 3.6619Z" fill="#B59B0C" stroke="#B59B0C" stroke-width="4.87946"/>
<path d="M6.62479 6.57003C6.62479 6.57003 6.37291 4.89225 7.29649 3.82965C8.22007 2.76705 8.77982 2.4315 8.97573 1.84427C9.17164 1.28501 9.22762 0.75371 9.17165 0.697783C9.11567 0.641857 9.0597 0.921488 9.0597 0.977414C9.0597 1.17316 8.91976 1.70446 8.66788 2.01205C8.05216 2.87891 7.32448 3.29835 6.96065 3.85761C6.70876 4.27706 6.20498 5.08799 6.34492 6.20651C6.48486 7.32503 6.62479 6.57003 6.62479 6.57003Z" fill="#B59B0C" stroke="#B59B0C" stroke-width="4.87946"/>
<path d="M8.19226 2.65496C7.71647 2.17959 7.82842 1.39663 8.19226 1.08903C8.22024 1.08903 8.19225 0.949219 8.13628 0.949219C8.13628 0.949219 7.35263 1.59237 7.85641 2.48719C7.91238 2.59904 7.99635 2.71089 8.08031 2.79477L8.19226 2.65496Z" fill="#B59B0C" stroke="#B59B0C" stroke-width="4.87946"/>
<path d="M6.96068 4.22084C6.59684 3.74547 6.70879 3.0464 7.07263 2.76677C7.07263 2.76677 7.07262 2.62695 7.01665 2.62695C7.01665 2.62695 6.233 3.2701 6.73678 4.16492C6.76476 4.22085 6.82075 4.30473 6.84873 4.36066L6.96068 4.22084Z" fill="#B59B0C" stroke="#B59B0C" stroke-width="4.87946"/>
<path d="M10.8229 3.07466C10.8229 3.07466 11.1587 4.75245 10.2072 5.14393C9.31158 5.50745 8.72384 4.5567 8.61189 4.50077C8.52793 4.44485 8.91976 4.33299 8.91976 4.33299C8.91976 4.33299 9.05969 4.5567 9.42352 4.7804C10.3751 5.33967 10.9069 4.10929 10.7109 3.13059C10.7109 3.13059 10.7949 2.99077 10.8229 3.07466Z" fill="#B59B0C" stroke="#B59B0C" stroke-width="4.87946"/>
<path d="M6.79291 6.62608C6.79291 6.62608 7.35266 4.92033 8.97592 4.47292C10.5992 4.02551 11.3828 4.05348 11.9426 3.57811C12.5023 3.10274 13.0901 2.12403 12.9781 2.12403C12.8662 2.09606 12.6423 2.3757 12.5863 2.45959C12.4464 2.65533 11.9426 3.27052 11.5228 3.46626C10.7391 3.82978 9.08787 3.96959 8.55611 4.22126C8.02435 4.50089 7.01681 5.00423 6.48505 6.40238C5.95329 7.80054 6.79291 6.62608 6.79291 6.62608Z" fill="#B59B0C" stroke="#B59B0C" stroke-width="4.87946"/>
<path d="M11.7747 3.52158C11.4668 2.73862 11.8307 1.87176 12.4744 1.5362C12.5024 1.50824 12.6703 1.34046 12.5863 1.3125C12.5863 1.3125 11.159 1.92768 11.4668 3.3538C11.4948 3.46565 11.5228 3.54954 11.5508 3.6614L11.7747 3.52158Z" fill="#B59B0C" stroke="#B59B0C" stroke-width="4.87946"/>
<path d="M8.52776 3.74533C8.52776 3.74533 9.36738 5.14348 8.61172 5.95441C7.91203 6.70941 7.04443 6.09423 6.93248 6.09423C6.84852 6.09423 7.15637 5.8146 7.15637 5.8146C7.15637 5.8146 7.35229 5.95441 7.74411 5.98238C8.80763 6.0383 8.91958 4.66811 8.4158 3.88515C8.4158 3.88515 8.4438 3.71737 8.52776 3.74533Z" fill="#B59B0C" stroke="#B59B0C" stroke-width="4.87946"/>
<path d="M29.4066 4.24902C29.1827 4.52865 29.1827 4.9481 29.1827 5.31162V8.33163C29.1827 8.69515 29.1827 9.1146 29.4066 9.39423L28.2311 9.45016L28.2591 8.91886C28.2591 8.8909 28.2311 8.89089 28.2031 8.89089C28.1752 8.89089 28.1472 8.94682 28.0912 8.97478C27.6994 9.25441 27.0837 9.53404 26.1601 9.53404C25.0126 9.53404 24.2289 9.14256 24.201 8.16385V5.31162C24.201 4.9481 24.2009 4.52865 23.9771 4.24902H25.3204C25.0966 4.52865 25.0965 4.9481 25.0965 5.31162V7.66052C25.1245 8.52738 25.5723 9.05867 26.6918 9.05867C27.8393 9.05867 28.2031 8.47145 28.2311 7.52071C28.2311 7.21311 28.2591 6.90551 28.2591 6.59792V5.33958C28.2591 4.97606 28.2591 4.55662 28.0352 4.27699" fill="#002868"/>
<path d="M30.3301 9.39458C30.6659 8.72347 30.6659 7.74476 30.6659 7.04569V5.33994C30.6659 4.94845 30.6379 4.50105 30.3581 4.27734H31.3656C31.5615 4.27734 31.6455 4.27734 31.7574 4.41716C31.9533 4.64086 32.597 5.50771 32.9049 5.87123L34.892 8.13624C34.948 8.22013 35.032 8.33199 35.0879 8.33199C35.1719 8.33199 35.1719 8.2481 35.1719 8.19217V5.33994C35.1719 4.78068 35.0599 4.52901 34.92 4.30531H35.9555C35.7037 4.66883 35.6477 5.08827 35.6477 5.50772V8.72347C35.6477 9.0031 35.6477 9.22681 35.6757 9.47848H34.976L31.3376 5.28402C31.3096 5.22809 31.2537 5.20012 31.2257 5.20012C31.1977 5.20012 31.1697 5.25605 31.1697 5.31197V7.38125C31.1697 8.0244 31.1417 8.83532 31.4776 9.45051" fill="#002868"/>
<path d="M37.075 5.31162C37.075 4.9481 37.075 4.52865 36.8511 4.24902H38.1945C37.9706 4.52865 37.9706 4.9481 37.9706 5.31162V8.33163C37.9706 8.69515 37.9706 9.1146 38.1945 9.39423H36.8511C37.075 9.1146 37.075 8.69515 37.075 8.33163" fill="#002868"/>
<path d="M40.6576 9.42184L40.5177 9.00239C40.0419 7.71609 39.3422 5.73071 38.6425 4.50033L38.4746 4.2207H39.3702C39.5661 4.2207 39.6221 4.41645 39.6781 4.5283C40.2098 5.78664 40.7696 7.01701 41.1894 8.30331C41.2454 8.44313 41.3013 8.52701 41.3573 8.52701C41.4133 8.52701 41.4693 8.3872 41.5252 8.27535C41.8051 7.57627 43.0365 5.25534 43.0365 4.50033C43.0365 4.38848 43.0086 4.30459 42.9806 4.2207H44.212L44.0441 4.47237C43.0925 5.84256 42.3369 7.46442 41.6652 8.94646L41.4693 9.39387" fill="#002868"/>
<path d="M45.6952 9.08699H46.8427C47.4584 9.08699 48.1021 8.97514 48.5779 8.63958L48.41 9.39458C48.1301 9.42254 47.8222 9.42255 47.4584 9.42255H44.5757C44.7996 9.14292 44.8276 8.72347 44.8276 8.35995V5.33994C44.8276 4.97642 44.8276 4.55697 44.6037 4.27734H48.0741L48.1021 4.89253C47.7662 4.64086 47.2065 4.58494 46.6188 4.58494H45.6952V6.51439C46.4508 6.51439 47.2625 6.51439 48.0461 6.45846C47.7103 6.90587 46.5628 6.90587 45.9471 6.90587H45.6952" fill="#002868"/>
<path d="M50.313 6.57048C50.4529 6.59844 50.6209 6.59844 50.7608 6.59844C51.7404 6.59844 52.2441 6.179 52.2441 5.424C52.2441 4.61307 51.6844 4.52917 50.7888 4.50121H50.313C50.313 4.61306 50.285 4.75288 50.285 4.89269V6.57048H50.313ZM53.3916 8.63975C53.6715 8.94734 53.8114 9.08716 54.2312 9.39475H53.4196C52.9998 9.39475 52.8039 9.19901 52.58 8.94734L51.3765 7.54918C50.9567 7.07381 50.9007 6.934 50.313 6.87807V8.33216C50.313 8.69568 50.313 9.11512 50.5369 9.39475H49.1655C49.4454 9.03123 49.4454 8.63975 49.4454 8.27623V5.28418C49.4454 4.92066 49.4454 4.50121 49.2215 4.22158C50.0611 4.22158 50.8448 4.1377 51.6284 4.1377C52.636 4.1377 53.1677 4.5851 53.1677 5.22825C53.1677 5.98326 52.4121 6.45863 51.6844 6.68234" fill="#002868"/>
<path d="M54.2593 8.38772C54.5671 8.72328 54.9869 9.19866 56.0225 9.19866C56.7781 9.19866 57.3379 8.83514 57.3379 8.19198C57.3379 6.84976 54.4832 7.01753 54.4832 5.50753C54.4832 4.58475 55.4347 4.10938 56.4983 4.10938C57.03 4.10938 57.5338 4.1653 58.0376 4.1653V4.9203C57.5898 4.52882 57.3099 4.44494 56.6662 4.44494C55.9665 4.44494 55.4627 4.72456 55.4627 5.33975C55.4627 6.57012 58.3174 6.43031 58.3174 7.96828C58.3174 8.97495 57.114 9.53421 55.9945 9.53421C55.5187 9.53421 54.7351 9.39439 54.2873 9.25458" fill="#002868"/>
<path d="M59.325 5.31162C59.325 4.9481 59.325 4.52865 59.1011 4.24902H60.4445C60.2206 4.52865 60.2206 4.9481 60.2206 5.31162V8.33163C60.2206 8.69515 60.2206 9.1146 60.4445 9.39423H59.1011C59.325 9.1146 59.325 8.69515 59.325 8.33163" fill="#002868"/>
<path d="M62.7956 9.39423C63.0195 9.1146 63.0195 8.69515 63.0195 8.33163V4.66847H61.7041C61.4802 4.66847 61.2563 4.69643 61.0044 4.83625L61.2003 4.24902H66.21C66.0421 4.58458 65.4264 4.6405 65.0346 4.6405H63.9431V8.33163C63.9431 8.69515 63.9431 9.1146 64.167 9.39423" fill="#002868"/>
<path d="M67.8893 9.39423C68.1132 9.1146 68.1132 8.69515 68.1132 8.33163V7.60459C68.1132 7.04533 67.8054 6.48607 67.4136 5.84292C67.0217 5.17181 66.518 4.55662 66.0981 4.24902H66.9658C67.3296 4.24902 67.3856 4.33291 67.5815 4.55662C67.9733 5.05995 68.4211 5.98274 68.617 6.542C68.645 6.65385 68.701 6.79366 68.7849 6.79366C68.8409 6.79366 68.9249 6.65385 69.0088 6.51403L69.6805 5.53533C69.9044 5.19977 70.1283 4.80829 70.1283 4.58458C70.1283 4.47273 70.1003 4.36088 69.9884 4.24902H71.2478L70.1003 5.67514C69.4007 6.542 69.0368 6.93348 69.0368 7.99607V8.33163C69.0368 8.69515 69.0368 9.1146 69.2607 9.39423" fill="#002868"/>
<path d="M76.9009 4.47325C75.4735 4.47325 74.8578 5.53584 74.8578 6.71029C74.8578 7.77289 75.3056 9.17105 76.9009 9.17105C78.3282 9.17105 78.9439 8.10845 78.9439 6.934C78.9439 5.87141 78.4962 4.47325 76.9009 4.47325ZM76.8169 9.53456C74.7179 9.53456 73.8223 8.36012 73.8223 6.934C73.8223 5.39603 74.9138 4.1377 76.9848 4.1377C79.0839 4.1377 80.0075 5.31214 80.0075 6.73826C79.9795 8.24826 78.888 9.53456 76.8169 9.53456Z" fill="#002868"/>
<path d="M81.911 8.33163C81.911 8.69515 81.911 9.1146 82.1349 9.39423H80.7915C81.0154 9.1146 81.0154 8.69515 81.0154 8.33163V5.31162C81.0154 4.9481 81.0434 4.52865 80.8195 4.24902H83.8981C84.15 4.24902 84.3459 4.24902 84.3459 4.33291V4.97606H84.3179C84.038 4.61255 83.4223 4.58458 82.9465 4.58458H81.911V6.65385C82.6667 6.65385 83.4783 6.65385 84.2619 6.59792C83.9261 7.04533 82.7786 7.04533 82.1629 7.04533H81.911" fill="#002868"/>
<path d="M23.7812 20.244C24.369 20.999 25.2366 22.0616 27.3356 22.0616C28.847 22.0616 29.9944 21.2507 29.9944 19.7966C29.9944 16.7766 24.285 17.1401 24.285 13.8125C24.285 11.7153 26.1882 10.6807 28.2872 10.6807C29.3227 10.6807 30.3303 10.7925 31.3658 10.7925V12.4703C30.4702 11.6314 29.9385 11.4077 28.5951 11.4077C27.1957 11.4077 26.1602 12.0509 26.1602 13.3931C26.1602 16.1614 31.8696 15.8259 31.8696 19.2933C31.8696 21.5303 29.4627 22.7887 27.2237 22.7887C26.2441 22.7887 24.7048 22.509 23.8092 22.1455" fill="#002868"/>
<path d="M43.6239 10.9883C43.1762 11.6314 43.1761 12.5542 43.1761 13.3651V20.1602C43.1761 20.9711 43.1762 21.9218 43.6239 22.5091L41.245 22.6209L41.329 21.4185C41.329 21.3626 41.301 21.3346 41.217 21.3346C41.189 21.3346 41.1051 21.4465 40.9651 21.5304C40.1815 22.1176 39.146 22.7887 37.2708 22.7887C34.9479 22.7887 33.4365 21.9498 33.3526 19.7128V13.3651C33.3526 12.5542 33.3526 11.6035 32.9048 10.9883H35.5636C35.1158 11.6314 35.1158 12.5542 35.1158 13.3651V18.6502C35.1718 20.5796 36.0394 21.7541 38.3064 21.7541C40.6293 21.7541 41.189 20.4398 41.245 18.2866C41.273 17.5876 41.329 16.8885 41.329 16.2174V13.3931C41.329 12.5822 41.329 11.6314 40.8812 11.0162" fill="#002868"/>
<path d="M47.3184 16.1889C47.6263 16.2168 47.9061 16.2448 48.214 16.2448C50.1451 16.2448 51.2086 15.2941 51.2086 13.5883C51.2086 11.7707 50.0612 11.575 48.298 11.519H47.3744C47.3464 11.7987 47.3464 12.1063 47.3464 12.3859V16.1889H47.3184ZM53.5316 20.8307C54.1193 21.5298 54.3992 21.8374 55.2108 22.5085H53.5876C52.72 22.5085 52.3561 22.0891 51.9083 21.5019L49.4734 18.37C48.6338 17.2794 48.4939 16.9718 47.3464 16.8879V20.1317C47.3464 20.9426 47.3464 21.8933 47.7942 22.5085H45.0234C45.6112 21.6696 45.5552 20.8028 45.5552 20.0478V13.3366C45.5552 12.5257 45.5552 11.575 45.1074 10.9598C46.7866 10.9598 48.3819 10.792 49.9212 10.792C51.9643 10.792 52.9998 11.7987 52.9998 13.2248C52.9998 14.8746 51.4885 15.9652 50.0612 16.4965" fill="#002868"/>
<path d="M57.4778 16.1889C57.7856 16.2168 58.0655 16.2448 58.3734 16.2448C60.3045 16.2448 61.368 15.2941 61.368 13.5883C61.368 11.7707 60.2205 11.575 58.4573 11.519H57.5338C57.5058 11.7987 57.5058 12.1063 57.5058 12.3859V16.1889H57.4778ZM63.8309 20.8307C64.4186 21.5298 64.6985 21.8374 65.5101 22.5085H63.8869C63.0193 22.5085 62.6554 22.0891 62.2076 21.5019L59.7727 18.37C58.9331 17.2794 58.7932 16.9718 57.6457 16.8879V20.1317C57.6457 20.9426 57.6457 21.8933 58.0935 22.5085H55.3228C55.9105 21.6696 55.8545 20.8028 55.8545 20.0478V13.3366C55.8545 12.5257 55.8545 11.575 55.4067 10.9598C57.086 10.9598 58.6812 10.792 60.2205 10.792C62.2636 10.792 63.2991 11.7987 63.2991 13.2248C63.2991 14.8746 61.7878 15.9652 60.3605 16.4965" fill="#002868"/>
<path d="M67.9732 21.7817H70.2681C71.4996 21.7817 72.787 21.502 73.7106 20.747L73.3468 22.3969C72.815 22.4248 72.1433 22.4807 71.4436 22.4807H65.6782C66.126 21.8656 66.182 20.9148 66.182 20.1039V13.3368C66.182 12.5259 66.182 11.5751 65.7342 10.96H72.7031L72.787 12.3581C72.0873 11.8268 71.0238 11.687 69.8483 11.687H68.0012V15.9933C69.5405 15.9933 71.1358 15.9933 72.6751 15.8535C71.9754 16.8881 69.7364 16.8881 68.477 16.8881H67.9732" fill="#002868"/>
<path d="M76.7333 22.5091C77.1811 21.8939 77.1811 20.9431 77.1811 20.1322V18.4824C77.1811 17.2241 76.5933 16.0216 75.7817 14.5396C74.9701 13.0575 73.9625 11.6594 73.1509 10.9883H74.8581C75.5858 10.9883 75.7537 11.1281 76.0616 11.6874C76.8172 13.0575 77.5729 14.8192 78.1326 16.1614C78.2446 16.4131 78.3006 16.6927 78.4405 16.6927C78.5524 16.6927 78.6924 16.3852 78.8883 16.0496L80.2317 13.8685C80.6795 13.1414 81.1273 12.2466 81.1273 11.7153C81.1273 11.4357 81.0433 11.212 80.8194 10.9883H83.3383L81.0713 14.1761C79.6719 16.1055 78.9163 17.0003 78.9163 19.3772V20.1322C78.9163 20.9431 78.9163 21.8939 79.3641 22.5091" fill="#002868"/>
<path d="M8.33226 23.6836C11.5788 23.0684 15.497 23.5438 17.6241 23.8514C18.7995 24.0192 19.1914 23.9353 19.1914 23.9353C19.1914 23.9353 17.9599 23.6836 17.2882 23.4879C13.8738 22.5092 4.74988 20.9432 4.2461 25.3894C4.21812 25.3894 5.3656 24.2149 8.33226 23.6836Z" fill="#B59B0C"/>
<path d="M5.92516 20.8594C6.26101 20.8594 6.56888 21.167 6.56888 21.5305C6.56888 21.894 6.289 22.2016 5.92516 22.2016C5.56133 22.2016 5.28146 21.894 5.28146 21.5305C5.28146 21.139 5.56133 20.8594 5.92516 20.8594ZM18.2956 16.4692C18.2396 16.0777 18.4075 14.2042 18.4075 14.2042L18.5755 16.1616C18.5755 16.1616 18.9393 15.5744 18.9953 14.372C19.0512 12.9179 18.3515 11.9392 17.2321 11.5757C16.6723 11.3799 16.1685 11.4918 15.8327 11.5477C14.7132 11.6596 13.7336 11.5757 13.3138 11.5757C10.823 11.6875 10.2072 10.9046 9.73145 10.1775C8.80786 8.77936 8.63994 8.9751 7.74434 7.1575C6.98868 5.6475 6.289 6.59824 5.05755 6.98972C4.69372 7.10157 3.46228 7.57695 3.35033 7.60491C3.23838 7.66084 3.26637 7.91251 3.29435 8.02436C3.29435 8.08028 3.60221 8.38788 3.68617 8.4438C3.77014 8.47177 5.56133 8.94714 6.0651 9.059C6.0651 9.059 6.26101 9.47844 5.81322 10.9884C5.47737 12.1349 5.86919 12.806 5.86919 12.806C5.86919 12.806 5.1975 12.3307 4.58177 11.9112C3.96605 11.4918 2.00693 12.3586 0.85945 13.1696C0.383664 13.5051 0.467628 13.9805 0.467628 13.9805L1.02738 15.2388L1.55913 14.9312C1.36322 14.8753 1.22329 14.6796 1.22329 14.4838C1.22329 14.2322 1.44718 14.0085 1.69907 14.0085C1.95096 14.0085 2.17486 14.2322 2.17486 14.4838V14.5118C2.25882 14.344 2.42675 14.2322 2.59467 14.2322C2.84656 14.2322 3.07046 14.4559 3.07046 14.7075C3.07046 14.9592 2.84656 15.1829 2.59467 15.1829H2.56668C2.70662 15.2668 2.79058 15.4066 2.79058 15.5744C2.79058 15.8261 2.56668 16.0498 2.3148 16.0498C2.06291 16.0498 1.83901 15.8261 1.83901 15.5744C1.83901 15.5185 1.83901 15.4905 1.867 15.4346L1.30725 15.6862L1.867 16.7768L3.43429 16.0218L5.11353 20.0205L4.38586 22.3415L6.79277 23.2363L7.66038 20.8594L5.86919 19.8248L2.93052 12.862L2.98649 12.834C3.29435 12.7222 3.57423 12.6383 3.8541 12.5544C4.41385 12.3866 6.09309 14.8753 6.42894 15.099C6.90473 15.4066 7.1846 15.3507 7.49246 15.3786H7.46447C7.43648 15.3507 7.38051 15.3227 7.35252 15.2948C5.8412 14.1203 6.45692 11.9392 6.45692 11.9392C6.48491 14.1762 7.80032 15.6024 7.82831 15.7142V15.7422C7.8563 15.7981 7.88428 15.8261 7.91227 15.9099C8.33208 16.7488 7.68837 22.8168 7.68837 22.8168L8.33208 22.5372C8.33208 22.5372 9.50754 16.4972 9.67547 16.5251C12.5022 17.0285 13.8176 14.8194 14.9091 18.9579C15.077 19.5451 11.6346 22.5092 11.6346 22.5092C11.6346 22.5092 12.3063 22.6211 12.7821 22.2576C14.0695 21.3068 16.4204 18.874 16.3085 18.7901C16.1406 18.6783 15.6648 17.7275 15.6648 17.5598C15.6648 17.4199 15.7767 16.9166 15.9167 16.7488C15.8887 16.7209 15.8327 16.7209 15.8047 16.6929C14.2374 15.9099 14.2374 13.3653 14.2374 13.3653C14.7972 15.6862 16.1965 16.8048 16.3085 16.9446C16.8122 17.5038 17.8758 18.8181 17.9597 19.3774C18.0717 20.0485 15.4409 23.1524 15.4409 23.1524C15.4409 23.1524 16.4764 23.2922 16.6443 22.8727C16.7843 22.5651 19.4151 19.2655 19.3591 18.9859C19.2192 18.7063 18.3516 16.8607 18.2956 16.4692Z" fill="#B59B0C"/>
</g>
<defs>
<clipPath id="clip0_1400_9384">
<rect width="84" height="24.7753" fill="white" transform="translate(0.387207 0.612305)"/>
</clipPath>
</defs>
</svg>
