<svg width="84" height="84" viewBox="0 0 84 84" fill="none" xmlns="http://www.w3.org/2000/svg">
<g clip-path="url(#clip0_495_6095)">
<rect width="84" height="84" fill="white"/>
<path fill-rule="evenodd" clip-rule="evenodd" d="M0 0H84V84H0V0Z" fill="white"/>
<path fill-rule="evenodd" clip-rule="evenodd" d="M5.38477 3.06641H78.6144V71.9386H5.38477V3.06641Z" fill="#1A3B73"/>
<path fill-rule="evenodd" clip-rule="evenodd" d="M73.4144 48.1846C72.009 48.4657 69.9012 48.8866 68.7764 49.1686V49.8706C70.4624 50.0118 70.6028 50.0118 70.6028 51.5575V65.0507C70.6028 66.457 70.4624 66.5973 68.7764 66.878V67.5809H75.2417V66.878C73.5548 66.5969 73.4144 66.4566 73.4144 65.0507V48.1846ZM61.3267 59.8505C61.6077 57.7422 62.7329 56.4775 63.8573 56.4775C65.1219 56.4775 65.9656 57.8829 65.9656 59.0073C65.9656 59.5699 65.8253 59.7102 65.403 59.7102L61.3267 59.8505ZM68.3546 64.6298C67.2302 65.4734 66.3866 65.7541 65.403 65.7541C63.2947 65.7541 61.1863 64.3487 61.3267 60.9748C64.2782 60.8345 67.7928 60.5534 68.2142 60.4131C68.6356 60.4131 68.7768 60.2728 68.7768 59.2888C68.7768 57.3208 66.9496 55.3532 64.7005 55.3532C61.0456 55.3532 58.5154 58.7262 58.5154 62.2399C58.6566 65.3331 60.7641 67.8624 64.2787 67.8624C65.1223 67.8624 67.0899 67.441 68.6356 65.0512L68.3546 64.6298ZM53.7371 55.7742V56.4771L54.4391 56.6174C55.0017 56.6174 54.8614 56.8985 54.4391 57.6014C54.0177 58.3043 53.4551 59.0068 52.8934 59.8501L51.3468 57.4611C51.0657 56.8985 51.0657 56.6174 51.4871 56.6174L52.19 56.4771V55.7742H46.1461V56.4771C47.6927 56.6174 47.8331 56.7582 48.8171 58.164L51.3468 62.0987C50.5031 63.2239 49.6607 64.3482 49.0981 65.0503C47.9738 66.5969 47.5524 66.5969 46.0058 66.8775V67.5805H51.0657V66.8775L50.222 66.7372C49.8006 66.5969 49.8006 66.4561 50.222 65.7532C50.7846 64.7692 51.3463 63.926 51.9089 63.0823L53.7362 65.7532C54.0173 66.3158 54.0173 66.5969 53.5959 66.7372L52.7522 66.8775V67.5805H59.2175V66.8775C57.8121 66.5964 57.3902 66.5965 56.2659 64.9095L53.5959 60.6929C54.579 59.4282 55.2819 58.4442 55.5639 58.1632C56.6882 56.7569 57.1096 56.6166 58.7965 56.4762V55.7733H53.7371V55.7742ZM38.9779 59.8505C39.259 57.7422 40.3838 56.4775 41.5081 56.4775C42.6328 56.4775 43.4756 57.8829 43.4756 59.0073C43.4756 59.5699 43.4756 59.7102 43.0542 59.7102L38.9779 59.8505ZM45.8655 64.6298C44.7412 65.4734 43.8975 65.7541 43.0542 65.7541C40.9459 65.7541 38.8376 64.3487 38.8376 60.9748C41.7892 60.8345 45.3029 60.5534 45.7252 60.4131C46.2869 60.4131 46.2869 60.2728 46.2869 59.2888C46.2869 57.3208 44.4605 55.3532 42.211 55.3532C38.5565 55.3532 36.0268 58.7262 36.1671 62.2399C36.1671 65.3331 38.2754 67.8624 41.9299 67.8624C42.6328 67.8624 44.7412 67.441 46.2869 65.0512L45.8655 64.6298ZM31.5286 55.3532C30.1228 55.7746 28.296 56.1969 26.8901 56.3372V57.0393C28.5766 57.1805 28.7169 57.1805 28.7169 58.8665V65.0507C28.7169 66.457 28.5766 66.5973 26.8901 66.878V67.5809H33.6365V66.878C31.6685 66.5969 31.5282 66.4566 31.5282 65.0507V59.4291C32.0903 58.3048 32.7933 57.8825 33.2147 57.8825C33.6365 57.8825 34.0583 58.164 34.4798 58.5854C34.6201 58.7258 34.9012 58.7258 35.323 58.5854C35.8852 58.4451 36.307 57.6014 36.307 56.8985C36.307 56.1965 35.6041 55.3528 34.6201 55.3528C33.355 55.3528 32.2307 57.0388 31.5278 58.164V55.3532H31.5286ZM13.2562 52.4012C13.2562 51.6983 13.2562 51.2769 13.3965 51.1366C13.6776 50.9963 14.3805 50.8551 15.2238 50.8551C19.5812 50.8551 22.5323 52.8231 22.5323 58.7262C22.5323 63.2243 20.1429 66.457 15.6452 66.457C13.5368 66.457 13.2558 65.8944 13.2558 63.3647V52.4012H13.2562ZM7.91523 49.8706V50.5735C10.0235 50.7139 10.1643 50.9958 10.1643 53.9465V63.505C10.1643 66.4566 10.0235 66.5973 7.7749 66.878V67.5809H14.5213C20.8467 67.5809 26.0469 64.6293 26.0469 57.8821C26.0469 55.4931 25.0629 53.5251 23.7978 52.2605C21.9706 50.4332 19.1593 49.8706 16.0674 49.8706H7.91523Z" fill="#FAE17C"/>
<path fill-rule="evenodd" clip-rule="evenodd" d="M14.0991 75.3112V78.2628C14.0991 79.2468 14.0991 80.09 12.9748 80.09C11.85 80.09 11.7097 79.2464 11.7097 78.2628V75.3112H10.585V78.6851C10.585 80.2308 11.569 80.9337 12.9744 80.9337C14.2394 80.9337 15.3638 80.2308 15.3638 78.6851V75.3112H14.0991ZM23.3761 80.7934V75.3112H22.2518V79.6691L20.1434 75.3112H18.3162V80.7934H19.4405V76.1549L21.6892 80.7934H23.3761ZM27.4524 75.3112H26.1869V80.7934H27.4524V75.3112ZM31.9501 80.7934H33.2148L35.3235 75.3112H34.0585L32.6526 79.6691L31.2472 75.3112H29.9821L31.9501 80.7934ZM37.713 80.7934H41.5078V79.8098H38.9776V78.4035H41.2267V77.4195H38.9776V76.1549H41.5078V75.3112H37.713V80.7934ZM45.5845 76.1549H46.5676C47.1302 76.1549 47.4122 76.436 47.4122 76.8578C47.4122 77.4195 47.1307 77.7015 46.5676 77.7015H45.5845V76.1549ZM45.5845 78.5447H46.8492C47.2706 78.5447 47.2706 78.9661 47.2706 79.2468C47.4118 79.8094 47.4118 80.2308 47.5521 80.7934H48.8167C48.5357 80.5123 48.5357 79.8094 48.5357 79.5287C48.3945 78.6851 48.3945 78.1225 47.5517 78.1225V77.9821C48.1134 77.8418 48.676 77.4195 48.676 76.7175C48.676 75.5932 47.692 75.3112 46.708 75.3112H44.4593V80.7934H45.5836V78.5447H45.5845ZM55.564 76.8578C55.564 75.7335 54.7203 75.1709 53.7367 75.1709C52.6115 75.1709 51.3469 75.7335 51.3469 76.9981C51.3469 77.9821 52.4712 78.2628 53.1741 78.5447C53.7367 78.6851 54.4388 78.6851 54.4388 79.2468C54.4388 79.9497 53.8771 80.0905 53.3145 80.0905C52.7527 80.0905 52.4708 79.6691 52.4708 78.9661H51.2061C51.2061 80.3715 52.0498 80.9341 53.3145 80.9341C54.5791 80.9341 55.7043 80.3715 55.7043 79.1069C55.7043 77.9826 54.4388 77.7015 53.596 77.5612C53.1737 77.42 52.6111 77.2797 52.6111 76.7175C52.6111 76.2952 53.0334 76.0146 53.596 76.0146C54.1577 76.0146 54.4388 76.2957 54.4388 76.8583L55.564 76.8578ZM59.6399 75.3112H58.5147V80.7934H59.6399V75.3112ZM62.1696 76.1549H63.8565V80.7934H64.9808V76.1549H66.6678V75.3112H62.1696V76.1549ZM70.7432 80.7934H71.8684V78.9661L73.6948 75.3112H72.5705L71.3058 77.8418L70.1815 75.3112H68.7761L70.7432 78.9661V80.7934Z" fill="#1A3B73"/>
<path fill-rule="evenodd" clip-rule="evenodd" d="M31.6687 46.7801V46.9195C32.2312 47.6224 33.356 47.6224 34.1988 47.4821C34.9017 47.3418 35.6042 47.0607 36.1668 46.7801C37.2911 46.2175 38.2751 45.5146 39.3999 45.2335C40.5242 45.0932 41.6485 45.3738 42.2107 46.4981C42.3519 46.4981 42.3519 46.6384 42.4914 46.7796C42.6325 47.201 42.6325 47.4817 42.4914 47.9031C42.3519 48.4657 41.9296 48.8871 41.5078 49.1686C41.2267 49.3081 40.8053 49.3081 40.5242 49.1686C40.9461 49.0283 41.3679 48.7472 41.5078 48.3241C41.6485 47.9027 41.5078 47.3409 41.2267 47.0603C41.0859 46.9191 40.9456 46.9191 40.8053 46.7792C40.5238 46.638 40.2427 46.638 39.9621 46.638L40.1019 46.7792C40.3835 47.0603 40.5238 47.4813 40.5238 48.0438C40.3835 48.8867 39.6805 49.5896 38.9781 49.8702C38.5558 50.0114 38.1344 49.8702 37.713 49.5891C37.4319 49.3076 37.2911 49.0274 37.1504 48.7463C37.2911 48.8858 37.5722 49.1677 37.9945 49.0274C38.4159 49.0274 38.697 48.7463 38.8377 48.3236C38.9781 48.0434 38.9781 47.6216 38.8377 47.3405C38.697 47.0594 38.2751 46.9182 37.9945 47.0594C36.729 47.3405 36.4483 49.1677 35.1828 49.4484C33.6367 49.5887 31.9502 49.4484 30.2632 49.5887L25.2038 49.7299C24.9223 49.5887 24.5009 49.4484 24.3601 49.1673C23.9387 48.3228 24.7815 47.4804 24.5009 46.7783L24.0795 46.3561C22.1115 45.0914 20.1439 43.8263 18.3167 42.1394C17.3327 41.1554 16.3487 40.0307 15.505 38.766C15.3647 38.3446 15.0831 37.9228 14.8025 37.5005C13.537 34.6897 12.553 31.0356 14.0996 28.224C14.2403 28.0841 14.3811 27.8025 14.521 27.6618C15.6457 25.9753 17.7541 24.9913 19.862 25.2724C21.5489 25.5539 22.814 26.6787 23.3761 28.224C23.5169 28.3647 23.5169 28.5055 23.6576 28.6454V29.208C23.5169 28.9269 23.2362 28.5055 22.9547 28.224C22.3921 27.3807 21.5489 26.6782 20.5653 26.3971C20.7061 26.8185 20.5653 27.2404 20.5653 27.6618C20.2842 27.1001 19.5813 26.5379 18.8784 26.3971C19.3002 26.8185 19.5813 27.5219 19.441 28.0841C19.0191 27.6618 18.3167 27.1001 17.6137 27.3811C17.8948 27.5219 18.1763 27.8025 18.457 28.2244C18.5977 28.5059 18.8784 28.787 18.8784 29.0685C18.457 28.787 17.6137 28.3656 16.9104 28.6462C17.473 29.0685 18.5977 29.3496 18.5977 30.4739C18.3167 30.1924 17.8948 30.0525 17.473 30.1924L17.0511 30.4739C17.473 30.6142 18.1759 30.755 18.457 31.3171L18.7385 31.7386C18.1763 31.7386 17.4734 31.8793 16.9108 32.3012C17.6142 32.4419 18.4574 32.5822 18.8788 33.2851C18.3171 33.4259 17.6142 33.7066 17.3331 34.5498C18.0356 34.128 18.8788 34.128 19.441 34.6906C18.7385 34.9721 18.0351 35.8153 18.1763 36.6586C18.8788 36.2372 19.7225 35.8153 20.5657 36.2372C20.0031 36.5178 19.441 36.9401 19.3007 37.5018C19.1603 37.7833 19.0191 38.0644 19.0191 38.3459V38.627C19.7221 37.9245 20.5653 37.3623 21.5493 37.643C20.7061 38.0644 20.2847 38.9081 20.425 39.8921L20.8464 39.4698C21.409 39.0484 22.1115 38.6266 22.8144 38.6266C22.2522 39.3295 21.6901 40.1727 21.9711 41.016C22.3926 40.1727 23.2362 39.3295 24.2202 39.1887C23.6576 39.8916 23.5173 40.5946 23.5173 41.4374C24.2202 40.5941 25.2042 39.4694 26.3286 39.048C25.9067 39.7509 25.6261 40.8756 26.0475 41.8596C26.3286 40.7349 27.0315 39.6101 27.734 38.9076C27.5936 39.8916 27.8747 40.7349 28.5776 41.297H28.7175C28.5776 40.032 29.1398 39.048 29.7015 38.2047C29.5616 38.9076 29.983 39.7509 30.6855 40.0315L30.967 40.1723C30.6855 39.4694 30.4044 38.4854 30.5456 37.5014C31.1082 38.064 31.951 38.7669 32.935 38.6261C32.5136 38.345 32.0918 37.9236 31.6695 37.5014C30.6855 36.5174 29.983 35.5334 29.5616 34.4095C30.1242 34.9721 30.967 35.3935 31.951 35.2527C30.1242 34.128 28.5776 31.8797 28.4373 29.771C28.8587 30.6142 29.702 31.3172 30.5456 31.5982C29.8423 30.6142 29.1402 29.4903 28.8587 28.2248C28.5776 27.2408 28.4373 26.2568 28.718 25.2733C28.9995 26.398 29.5621 27.8034 30.8267 28.0849C30.1242 26.8194 29.2806 25.5548 29.4213 23.8679C29.5621 22.8843 29.8427 21.8999 30.4049 21.1978C29.9835 22.041 29.9835 23.4465 30.8267 24.2897V24.4305C30.5456 21.9003 31.5296 19.3706 33.6375 18.2462L34.4812 17.8248C33.919 18.6681 33.3569 19.5109 33.3569 20.6356C34.3404 18.6681 36.4492 16.5593 38.9789 16.7001C39.4008 16.7001 39.6814 16.7001 40.1033 16.8408C38.9789 17.2622 37.7139 18.1055 37.5731 19.3706C39.26 17.8248 41.6494 16.9812 44.0388 17.8248C44.6014 18.1055 45.1631 18.3866 45.5854 18.8084C44.7417 18.3866 43.7582 18.6681 43.0548 19.2302C42.7737 19.3706 42.3528 19.7928 42.2116 20.0735C43.7577 19.5109 46.2883 19.0895 47.5521 20.7764L48.3958 22.041C47.5521 21.3377 46.5685 20.9163 45.4442 21.1978C45.1631 21.1978 45.0228 21.3377 44.7422 21.4789C46.5685 21.4789 48.3962 22.4629 49.0991 24.1498L49.3802 25.1338C48.8185 24.1498 47.9748 23.3061 46.8505 23.3061C47.5526 24.0095 48.3962 24.5716 48.6777 25.5556C49.0991 26.3989 49.2395 27.3825 49.8021 28.2257C50.0831 28.6471 50.3638 29.0698 50.9264 29.3505C51.4881 29.6315 52.191 29.7719 52.7536 29.9126C51.91 29.6311 51.207 28.9286 50.7856 28.2257C50.0827 26.9611 49.6613 25.4149 49.6613 24.0095C50.0827 24.7124 50.926 25.4149 51.6293 25.6964C51.207 25.1342 50.9264 24.8527 50.5041 24.2901C49.0987 22.7448 48.3958 20.7768 48.8181 18.6685C49.2395 17.403 50.0827 16.2787 50.9264 15.1544C50.2235 16.5598 50.0827 18.5273 51.0667 19.7933C51.4881 20.4953 52.0507 21.0579 52.6133 21.4793C51.4881 19.9332 50.9264 17.8253 51.6293 15.8577C52.6133 13.1868 55.2834 11.7814 57.8135 11.6406H58.5164C57.2509 11.7814 56.2669 12.6246 55.5649 13.6082C55.0023 14.7329 54.862 16.2787 55.5649 17.2631C55.9863 17.8257 56.5489 18.2467 57.2509 18.2467C58.9378 17.9652 60.0622 16.1384 61.7482 15.8577C62.7322 15.4354 63.7162 15.9976 64.4191 16.701C64.9817 16.982 65.8254 16.982 66.3871 16.5602C64.5608 17.9656 63.4356 20.2147 63.1545 22.6045C62.8734 21.4798 62.3108 20.2151 61.1865 19.7937C59.9218 19.3714 58.9378 20.2151 58.0942 20.9176C57.2505 21.7617 56.9698 22.7453 56.5484 23.7293C57.1102 23.307 57.8131 22.6045 58.6568 22.4638C59.7811 22.0424 60.7642 22.4638 61.6083 23.0259C62.0297 23.307 62.3104 23.5885 62.4511 24.1507C61.3268 24.8532 61.0457 26.1187 61.0457 27.3833C60.7642 26.3993 60.3428 25.1347 59.0777 24.7133C58.3748 24.291 57.3908 24.4318 56.8282 25.1347C56.2665 25.6968 56.2665 26.5405 56.4068 27.2426C56.4068 27.5241 56.548 27.9455 56.6883 28.2266C57.532 29.7727 59.0773 30.616 60.6239 31.1781C62.4503 31.8811 64.2779 33.5671 64.4183 35.6759C64.6993 35.6759 65.2619 35.3948 65.5435 35.6759C65.8245 34.6919 66.2455 33.4272 67.3698 33.1457C68.2135 32.8646 69.0567 33.1457 69.7588 33.7079C70.3214 34.5511 70.7428 35.3948 70.4617 36.5187C70.4617 36.8002 70.3214 37.2216 70.0403 37.5027C70.0403 36.9409 70.0403 36.3788 69.7588 35.9569C69.4786 35.5347 69.1971 35.3948 68.7757 35.3948C68.4942 35.254 68.2131 35.5347 68.0727 35.6759C67.9324 36.5191 68.2131 36.9409 68.6345 37.5027C69.1971 37.9249 69.7588 38.4867 69.7588 39.1896C69.7588 40.0328 69.4786 40.7358 68.7757 41.1576C67.932 41.4387 67.0888 41.1576 66.6665 40.5954C66.2451 40.3143 66.1047 40.0328 65.9644 39.7522C66.5261 40.0333 67.6505 40.3143 68.2131 39.7522C68.4942 39.4707 68.6345 39.1896 68.6345 38.7682C68.6345 38.206 68.3534 37.7846 67.9324 37.5027C67.9324 37.5027 67.9324 37.3628 67.7921 37.3628C67.511 37.0813 67.0892 36.9409 66.6669 36.9409C66.8081 37.0813 66.8081 37.222 66.8081 37.5027C66.8081 37.9249 66.8081 38.206 66.5266 38.4867C65.9649 39.3308 64.9809 39.3308 63.9969 39.1896C63.5755 40.4542 62.5915 41.4382 61.4663 42.1416C60.3419 42.8445 59.2176 43.2659 58.0933 43.547L56.2661 43.6873C57.3904 44.3902 58.5156 44.952 59.7802 45.3742C60.3419 44.3902 61.1856 43.1256 62.4503 42.8445C63.4343 42.7033 64.4183 42.984 64.8401 43.8285C65.4018 44.6713 65.6829 45.6549 65.2615 46.6389L65.1212 46.7801L64.8401 47.4821C64.8401 47.201 64.9804 47.0607 64.8401 46.7801C64.8401 46.2175 64.6989 45.6549 64.1372 45.2335C63.8561 44.952 63.4343 44.952 63.0129 44.952C62.7313 44.952 62.3099 45.2335 62.1692 45.6549C62.0289 46.0772 62.1692 46.4986 62.3095 46.7801C62.8721 47.7641 64.4178 48.0447 64.2775 49.5904C64.1372 50.0127 63.9964 50.4341 63.4338 50.8551C62.8721 51.4177 61.6075 51.4177 60.7629 50.9963C60.3415 50.8551 59.7798 50.4337 59.4991 50.0123C58.7953 50.4337 57.8122 50.4337 57.2496 49.8711C56.4059 49.169 56.2656 48.185 55.985 47.201C55.5636 47.0607 55.2821 46.9195 55.001 46.7796C52.33 45.6544 49.9411 44.1087 47.6924 42.1407C47.2702 41.7189 46.8488 41.297 46.4269 40.7349C45.4429 39.8916 44.8812 38.7669 44.4589 37.5018C43.8972 36.0964 43.7569 34.4099 44.0375 32.8637C44.319 31.3176 44.319 29.6307 43.8972 28.2248C43.4749 27.1009 42.9132 26.1169 41.9296 25.414C40.8049 24.8514 39.3995 24.5708 38.1344 24.9922C37.0105 25.5548 36.1668 26.8194 36.0265 28.2248C36.1668 30.6142 37.4319 32.7226 38.5558 34.8313C38.9781 35.6746 39.1184 36.5174 39.1184 37.5014C39.1184 39.1883 38.4159 40.8752 37.2911 42.1403H37.1504C35.745 43.9667 33.4963 44.5293 31.9502 46.0759C31.6687 46.2175 31.6687 46.4981 31.6687 46.7801ZM55.4228 18.9492C55.8451 19.2307 56.4068 19.5113 56.9694 19.2307C57.1097 19.2307 57.2505 19.0899 57.2505 19.0899C56.8282 19.6525 56.2665 20.6361 55.4232 20.4953C54.7212 19.9332 55.0018 18.6685 54.8615 17.8253C54.8611 18.2467 55.1417 18.6685 55.4228 18.9492ZM63.7153 17.1219C63.7153 17.403 63.5759 17.8253 63.2939 17.8253C62.7313 17.9652 62.1696 17.9652 61.7473 17.6841C61.6079 17.403 61.4663 17.1219 61.7473 16.8413C62.1696 16.2787 63.2939 16.419 63.7153 17.1219ZM64.9809 37.5022C64.8405 37.2212 64.6993 37.0808 64.4183 36.9405V37.5022C64.4183 37.9245 64.4183 38.2056 64.2779 38.4862C64.6993 38.3463 65.1216 38.2056 65.1216 37.643C65.1216 37.643 65.1216 37.5022 64.9809 37.5022ZM54.1577 37.5022L54.4388 37.2212C55.4228 36.0964 54.8611 34.4103 54.4388 33.2856C54.1577 33.707 53.4548 34.1288 52.8931 34.2696C51.4868 34.2696 50.6444 32.7234 50.2222 31.5987C50.3625 32.5827 50.3625 33.5662 50.6444 34.5502C51.0658 35.675 51.4872 36.9401 52.6124 37.5018C52.8935 37.6426 53.0338 37.6426 53.3145 37.6426C53.7368 37.643 53.8771 37.643 54.1577 37.5022ZM62.4507 47.9035C62.7318 48.185 62.873 48.4661 62.873 48.8875C62.873 49.3089 62.4507 49.5905 62.1701 49.7321C61.6083 50.0132 60.7638 49.8715 60.2021 49.4506C60.7638 48.888 61.0457 48.3254 61.1861 47.6233C61.6079 47.4821 62.0293 47.6224 62.4507 47.9035ZM58.2341 48.0447C58.2341 48.3249 58.0937 48.6064 57.6723 48.6064C57.3908 48.6064 57.25 48.3249 57.1097 48.0447V47.6224L58.2341 48.0447Z" fill="#FAE17C"/>
</g>
<defs>
<clipPath id="clip0_495_6095">
<rect width="84" height="84" fill="white"/>
</clipPath>
</defs>
</svg>
