<svg width="85" height="22" viewBox="0 0 85 22" fill="none" xmlns="http://www.w3.org/2000/svg">
<g clip-path="url(#clip0_1400_9326)">
<rect width="84" height="21.5172" transform="translate(0.387207 0.241211)" fill="white"/>
<path d="M23.1341 13.0533C23.1341 13.1647 23.0226 13.2762 22.9111 13.2762H22.6903C22.5788 13.2762 22.4673 13.1647 22.4673 13.0533V12.8304C22.4673 12.6643 22.5788 12.6074 22.6903 12.6074H22.9133C23.0795 12.6074 23.1364 12.7189 23.1364 12.8304M24.9092 13.0533C24.9092 13.1647 24.7977 13.2762 24.6862 13.2762H24.4632C24.3517 13.2762 24.2401 13.1647 24.2401 13.0533V12.8304C24.2401 12.6643 24.3517 12.6074 24.4632 12.6074H24.6862C24.8523 12.6074 24.9092 12.7189 24.9092 12.8304M26.6297 13.0533C26.6297 13.1647 26.5182 13.2762 26.4067 13.2762H26.1837C26.0722 13.2762 25.9606 13.1647 25.9606 13.0533V12.8304C25.9606 12.6643 26.0722 12.6074 26.1837 12.6074H26.4067C26.5728 12.6074 26.6297 12.7189 26.6297 12.8304M28.4049 13.0533C28.4049 13.1647 28.2933 13.2762 28.1818 13.2762H27.9588C27.8473 13.2762 27.7358 13.1647 27.7358 13.0533V12.8304C27.7358 12.6643 27.8473 12.6074 27.9588 12.6074H28.1818C28.348 12.6074 28.4049 12.7189 28.4049 12.8304M30.1254 13.0533C30.1254 13.1647 30.0139 13.2762 29.9023 13.2762H29.6793C29.5678 13.2762 29.4563 13.1647 29.4563 13.0533V12.8304C29.4563 12.6643 29.5678 12.6074 29.6793 12.6074H29.9023C30.0685 12.6074 30.1254 12.7189 30.1254 12.8304M31.9005 13.0533C31.9005 13.1647 31.789 13.2762 31.6775 13.2762H31.4544C31.3429 13.2762 31.2314 13.1647 31.2314 13.0533V12.8304C31.2314 12.6643 31.3429 12.6074 31.4544 12.6074H31.6775C31.8436 12.6074 31.9005 12.7189 31.9005 12.8304M33.621 13.0533C33.621 13.1647 33.5095 13.2762 33.398 13.2762H33.175C33.0634 13.2762 32.9519 13.1647 32.9519 13.0533V12.8304C32.9519 12.6643 33.0634 12.6074 33.175 12.6074H33.398C33.5641 12.6074 33.621 12.7189 33.621 12.8304M35.3961 13.0533C35.3961 13.1647 35.2846 13.2762 35.1731 13.2762H34.9501C34.8386 13.2762 34.7271 13.1647 34.7271 13.0533V12.8304C34.7271 12.6643 34.8386 12.6074 34.9501 12.6074H35.1731C35.3392 12.6074 35.3961 12.7189 35.3961 12.8304M37.1166 13.0533C37.1166 13.1647 37.0051 13.2762 36.8936 13.2762H36.6706C36.5591 13.2762 36.4476 13.1647 36.4476 13.0533V12.8304C36.4476 12.6643 36.5591 12.6074 36.6706 12.6074H36.8936C37.0598 12.6074 37.1166 12.7189 37.1166 12.8304M38.8918 13.0533C38.8918 13.1647 38.7803 13.2762 38.6687 13.2762H38.4457C38.3342 13.2762 38.2227 13.1647 38.2227 13.0533V12.8304C38.2227 12.6643 38.3342 12.6074 38.4457 12.6074H38.6687C38.8349 12.6074 38.8918 12.7189 38.8918 12.8304M40.6123 13.0533C40.6123 13.1647 40.5008 13.2762 40.3893 13.2762H40.1662C40.0547 13.2762 39.9432 13.1647 39.9432 13.0533V12.8304C39.9432 12.6643 40.0547 12.6074 40.1662 12.6074H40.3893C40.5554 12.6074 40.6123 12.7189 40.6123 12.8304M42.3874 13.0533C42.3874 13.1647 42.2759 13.2762 42.1644 13.2762H41.9414C41.8298 13.2762 41.7183 13.1647 41.7183 13.0533V12.8304C41.7183 12.6643 41.8298 12.6074 41.9414 12.6074H42.1644C42.3305 12.6074 42.3874 12.7189 42.3874 12.8304M44.1079 13.0533C44.1079 13.1647 43.9964 13.2762 43.8849 13.2762H43.6619C43.5504 13.2762 43.4388 13.1647 43.4388 13.0533V12.8304C43.4388 12.6643 43.5504 12.6074 43.6619 12.6074H43.8849C44.051 12.6074 44.1079 12.7189 44.1079 12.8304M45.8831 13.0533C45.8831 13.1647 45.7715 13.2762 45.66 13.2762H45.437C45.3255 13.2762 45.214 13.1647 45.214 13.0533V12.8304C45.214 12.6643 45.3255 12.6074 45.437 12.6074H45.66C45.8262 12.6074 45.8831 12.7189 45.8831 12.8304M47.6013 13.0533C47.6013 13.1647 47.4898 13.2762 47.3783 13.2762H47.1552C47.0437 13.2762 46.9322 13.1647 46.9322 13.0533V12.8304C46.9322 12.6643 47.0437 12.6074 47.1552 12.6074H47.3783C47.5444 12.6074 47.6013 12.7189 47.6013 12.8304M49.3787 13.0533C49.3787 13.1647 49.2672 13.2762 49.1557 13.2762H48.9326C48.8211 13.2762 48.7096 13.1647 48.7096 13.0533V12.8304C48.7096 12.6643 48.8211 12.6074 48.9326 12.6074H49.1557C49.3218 12.6074 49.3787 12.7189 49.3787 12.8304M51.0969 13.0533C51.0969 13.1647 50.9854 13.2762 50.8739 13.2762H50.6509C50.5394 13.2762 50.4278 13.1647 50.4278 13.0533V12.8304C50.4278 12.6643 50.5394 12.6074 50.6509 12.6074H50.8739C51.04 12.6074 51.0969 12.7189 51.0969 12.8304M52.8721 13.0533C52.8721 13.1647 52.7605 13.2762 52.649 13.2762H52.426C52.3145 13.2762 52.203 13.1647 52.203 13.0533V12.8304C52.203 12.6643 52.3145 12.6074 52.426 12.6074H52.649C52.8152 12.6074 52.8721 12.7189 52.8721 12.8304M54.5926 13.0533C54.5926 13.1647 54.4811 13.2762 54.3695 13.2762H54.1465C54.035 13.2762 53.9235 13.1647 53.9235 13.0533V12.8304C53.9235 12.6643 54.035 12.6074 54.1465 12.6074H54.3695C54.5357 12.6074 54.5926 12.7189 54.5926 12.8304M56.3677 13.0533C56.3677 13.1647 56.2562 13.2762 56.1447 13.2762H55.9216C55.8101 13.2762 55.6986 13.1647 55.6986 13.0533V12.8304C55.6986 12.6643 55.8101 12.6074 55.9216 12.6074H56.1447C56.3108 12.6074 56.3677 12.7189 56.3677 12.8304M58.0882 13.0533C58.0882 13.1647 57.9767 13.2762 57.8652 13.2762H57.6421C57.5306 13.2762 57.4191 13.1647 57.4191 13.0533V12.8304C57.4191 12.6643 57.4737 12.6074 57.6421 12.6074H57.8652C58.0313 12.6074 58.0882 12.7189 58.0882 12.8304M59.8087 13.0533C59.8087 13.1647 59.6972 13.2762 59.5857 13.2762H59.3627C59.2511 13.2762 59.1396 13.1647 59.1396 13.0533V12.8304C59.1396 12.6643 59.2511 12.6074 59.3627 12.6074H59.5857C59.7518 12.6074 59.8087 12.7189 59.8087 12.8304M61.5838 13.0533C61.5838 13.1647 61.5292 13.2762 61.3608 13.2762H61.1378C61.0263 13.2762 60.9148 13.1647 60.9148 13.0533V12.8304C60.9148 12.6643 61.0263 12.6074 61.1378 12.6074H61.3608C61.5269 12.6074 61.5838 12.7189 61.5838 12.8304M63.3044 13.0533C63.3044 13.1647 63.1928 13.2762 63.0813 13.2762H62.8583C62.7468 13.2762 62.6353 13.1647 62.6353 13.0533V12.8304C62.6353 12.6643 62.7468 12.6074 62.8583 12.6074H63.0813C63.2475 12.6074 63.3044 12.7189 63.3044 12.8304M65.0795 13.0533C65.0795 13.1647 64.968 13.2762 64.8565 13.2762H64.6334C64.5219 13.2762 64.4104 13.1647 64.4104 13.0533V12.8304C64.4104 12.6643 64.5219 12.6074 64.6334 12.6074H64.8565C65.0226 12.6074 65.0795 12.7189 65.0795 12.8304M66.8 13.0533C66.8 13.1647 66.6885 13.2762 66.577 13.2762H66.3539C66.2424 13.2762 66.1309 13.1647 66.1309 13.0533V12.8304C66.1309 12.6643 66.2424 12.6074 66.3539 12.6074H66.577C66.6885 12.6074 66.8 12.7189 66.8 12.8304M68.5751 13.0533C68.5751 13.1647 68.4636 13.2762 68.3521 13.2762H68.1291C68.0175 13.2762 67.906 13.1647 67.906 13.0533V12.8304C67.906 12.6643 68.0175 12.6074 68.1291 12.6074H68.3521C68.5182 12.6074 68.5751 12.7189 68.5751 12.8304M70.2934 13.0533C70.2934 13.1647 70.1818 13.2762 70.0703 13.2762H69.8473C69.7358 13.2762 69.6243 13.1647 69.6243 13.0533V12.8304C69.6243 12.6643 69.7358 12.6074 69.8473 12.6074H70.0703C70.2365 12.6074 70.2934 12.7189 70.2934 12.8304M72.0708 13.0533C72.0708 13.1647 71.9592 13.2762 71.8477 13.2762H71.6247C71.5132 13.2762 71.4017 13.1647 71.4017 13.0533V12.8304C71.4017 12.6643 71.5132 12.6074 71.6247 12.6074H71.8477C72.0139 12.6074 72.0708 12.7189 72.0708 12.8304M73.789 13.0533C73.789 13.1647 73.6775 13.2762 73.566 13.2762H73.3429C73.2314 13.2762 73.1199 13.1647 73.1199 13.0533V12.8304C73.1199 12.6643 73.2314 12.6074 73.3429 12.6074H73.566C73.7321 12.6074 73.789 12.7189 73.789 12.8304M75.5641 13.0533C75.5641 13.1647 75.4526 13.2762 75.3411 13.2762H75.1181C75.0065 13.2762 74.895 13.1647 74.895 13.0533V12.8304C74.895 12.6643 75.0065 12.6074 75.1181 12.6074H75.3411C75.5072 12.6074 75.5641 12.7189 75.5641 12.8304M77.2846 13.0533C77.2846 13.1647 77.1731 13.2762 77.0616 13.2762H76.8386C76.7271 13.2762 76.6155 13.1647 76.6155 13.0533V12.8304C76.6155 12.6643 76.7271 12.6074 76.8386 12.6074H77.0616C77.2277 12.6074 77.2846 12.7189 77.2846 12.8304M79.0598 13.0533C79.0598 13.1647 79.0051 13.2762 78.8367 13.2762H78.6137C78.5022 13.2762 78.3907 13.1647 78.3907 13.0533V12.8304C78.3907 12.6643 78.5022 12.6074 78.6137 12.6074H78.8367C79.0029 12.6074 79.0598 12.7189 79.0598 12.8304M80.7803 13.0533C80.7803 13.1647 80.6688 13.2762 80.5572 13.2762H80.3342C80.2227 13.2762 80.1112 13.1647 80.1112 13.0533V12.8304C80.1112 12.6643 80.2227 12.6074 80.3342 12.6074H80.5572C80.7234 12.6074 80.7803 12.7189 80.7803 12.8304M82.5554 13.0533C82.5554 13.1647 82.4439 13.2762 82.3324 13.2762H82.1093C81.9978 13.2762 81.8863 13.1647 81.8863 13.0533V12.8304C81.8863 12.6643 81.9978 12.6074 82.1093 12.6074H82.3324C82.4985 12.6074 82.5554 12.7189 82.5554 12.8304M84.2759 13.0533C84.2759 13.1647 84.1644 13.2762 84.0529 13.2762H83.8298C83.7183 13.2762 83.6068 13.1647 83.6068 13.0533V12.8304C83.6068 12.6643 83.7183 12.6074 83.8298 12.6074H84.0529C84.219 12.6074 84.2759 12.7189 84.2759 12.8304" fill="#1F9CD8"/>
<path d="M26.907 3.56965C26.907 3.29213 27.0732 3.18066 27.3508 3.18066H28.1838C28.4614 3.18066 28.5729 3.34672 28.5729 3.56965V7.61878C28.5729 9.39312 27.2962 10.2257 25.578 10.2257C23.7459 10.2257 22.583 9.39312 22.583 7.61878V3.56965C22.583 3.29213 22.7491 3.18066 23.0268 3.18066H23.8597C24.1374 3.18066 24.2489 3.34672 24.2489 3.56965V7.61878C24.2489 8.39448 24.6381 8.83807 25.5802 8.83807C26.5224 8.83807 26.9116 8.44908 26.9116 7.61878M32.0663 6.00823V9.72296C32.0663 10.0005 31.9002 10.1119 31.6225 10.1119H30.7918C30.5142 10.1119 30.3481 9.94589 30.3481 9.72296V3.56965C30.3481 3.29213 30.5142 3.18066 30.7918 3.18066H31.6248C31.8478 3.18066 32.0139 3.23526 32.0686 3.40359L34.6766 7.34126V3.56965C34.6766 3.29213 34.8428 3.18066 35.1204 3.18066H35.9534C36.231 3.18066 36.3425 3.34672 36.3425 3.56965V9.72524C36.3425 10.0028 36.1764 10.1142 35.9534 10.1142H35.1204C34.8974 10.1142 34.7313 10.0596 34.6766 9.8913M39.8905 9.72524C39.8905 10.0028 39.7244 10.1142 39.4467 10.1142H38.6138C38.3361 10.1142 38.17 9.94817 38.17 9.72524V3.56965C38.17 3.29213 38.3361 3.18066 38.6138 3.18066H39.4467C39.7244 3.18066 39.8905 3.34672 39.8905 3.56965M46.7134 3.18066H47.5463C47.7694 3.18066 47.9355 3.29213 47.9355 3.45819V3.56965C47.2687 6.28803 46.215 9.00413 45.7166 10.1688H43.4977C42.9993 9.05872 41.8887 6.28575 41.2788 3.56965V3.45819C41.2788 3.29213 41.4449 3.18066 41.6679 3.18066H42.667C42.9446 3.18066 43.1108 3.34672 43.1654 3.56965C43.5546 5.28939 44.276 7.72797 44.7198 8.7266C45.1636 7.72797 45.9396 5.23252 46.3288 3.56965C46.2696 3.34672 46.438 3.18066 46.7134 3.18066ZM49.2668 3.56965C49.2668 3.29213 49.433 3.18066 49.7106 3.18066H53.65C53.9277 3.18066 54.0392 3.34672 54.0392 3.56965V4.1247C54.0392 4.40223 53.8731 4.51369 53.65 4.51369H50.9873V5.89904H53.3178C53.5954 5.89904 53.7615 6.0651 53.7615 6.28803V6.84308C53.7615 7.1206 53.5954 7.23207 53.3178 7.23207H50.9873V7.89858C50.9873 8.45363 51.1535 8.67428 51.7634 8.67428H53.8162C54.0938 8.67428 54.2599 8.84034 54.2599 9.06327V9.61377C54.2599 9.89129 54.0938 10.0028 53.8162 10.0028H51.1535C49.9336 10.0028 49.3214 9.28165 49.3214 8.11696M58.477 8.06009H57.4233V9.72296C57.4233 10.0005 57.2572 10.1119 56.9795 10.1119H56.1466C55.8689 10.1119 55.7028 9.94589 55.7028 9.72296V3.56965C55.7028 3.29213 55.8689 3.18066 56.1466 3.18066H58.4224C60.086 3.18066 61.1966 3.67884 61.1966 5.51005C61.1966 6.62015 60.6413 7.17292 59.9768 7.56191C60.5867 8.06009 61.2535 9.17019 61.5311 9.77983C61.5311 9.83442 61.5858 9.8913 61.5858 9.94589C61.5858 10.112 61.4196 10.2234 61.2535 10.2234H60.1953C59.9176 10.2234 59.7515 10.0574 59.6969 9.83443C59.4192 9.17019 58.9208 8.33761 58.477 8.06009ZM57.4233 4.56829V6.73161H58.0901C59.0323 6.73161 59.4215 6.45409 59.4215 5.56692C59.4215 4.67975 59.0323 4.56829 58.0901 4.56829H57.4233ZM62.5257 9.55918V9.00413C62.5257 8.7812 62.6372 8.67201 62.8579 8.67201H62.9695C63.4679 8.78347 64.1347 8.89494 64.6331 8.89494H65.0222C65.6322 8.89494 66.0759 8.72888 66.0759 8.11923C66.0759 7.67565 65.6868 7.50959 65.243 7.39813L64.0778 7.1206C63.2448 6.89767 62.5234 6.3449 62.5234 5.1802C62.5234 3.79486 63.7432 3.18294 65.243 3.18294H65.6321C65.9644 3.18294 66.5743 3.23753 67.0181 3.349C67.2958 3.40359 67.4619 3.57193 67.4619 3.79258V4.34763C67.4619 4.57056 67.3504 4.67975 67.1296 4.67975H67.0181C66.5743 4.62516 65.9644 4.51369 65.6321 4.51369H65.2999C64.7446 4.51369 64.3008 4.62516 64.3008 5.12334C64.3008 5.51232 64.6331 5.67838 65.0222 5.78985L66.1875 6.06737C67.298 6.3449 67.908 6.95454 67.908 8.11923C67.908 9.67291 66.6881 10.2826 65.0791 10.2826H64.69C64.2462 10.2826 63.5794 10.1711 63.0264 10.0596C62.6372 9.94589 62.5257 9.77983 62.5257 9.55918ZM70.9598 9.72524C70.9598 10.0028 70.7937 10.1142 70.516 10.1142H69.6831C69.4054 10.1142 69.2393 9.94817 69.2393 9.72524V3.56965C69.2393 3.29213 69.4054 3.18066 69.6831 3.18066H70.516C70.7937 3.18066 70.9598 3.34672 70.9598 3.56965M75.6753 4.56829V9.78211C75.6753 10.0596 75.5091 10.1711 75.2315 10.1711H74.3986C74.1209 10.1711 73.9548 10.005 73.9548 9.78211V4.56829H72.4004C72.1227 4.56829 71.9566 4.40223 71.9566 4.1793V3.56965C71.9566 3.29213 72.1227 3.18066 72.4004 3.18066H77.282C77.5597 3.18066 77.7258 3.34672 77.7258 3.56965V4.1247C77.7258 4.40223 77.5597 4.51369 77.282 4.51369M82.0566 7.50732V9.78211C82.0566 10.0596 81.8905 10.1711 81.6129 10.1711H80.7799C80.5023 10.1711 80.3361 10.005 80.3361 9.78211V7.50732L78.1172 3.56965C78.0626 3.51506 78.0626 3.45819 78.0626 3.40359C78.0626 3.23753 78.1741 3.18066 78.3949 3.18066H79.3371C79.6147 3.18066 79.7808 3.34672 79.8924 3.56965L81.2237 6.11969L82.6097 3.56965C82.7212 3.29213 82.8873 3.18066 83.165 3.18066H83.9979C84.2209 3.18066 84.3302 3.23526 84.3302 3.40359C84.3302 3.45819 84.3302 3.51506 84.2756 3.56965" fill="#005C95"/>
<path d="M22.2461 18.1524V17.8749C22.2461 16.5442 22.9129 15.7685 24.1327 15.7685C25.3526 15.7685 26.0194 16.5442 26.0194 17.8749V18.1524C26.0194 19.4832 25.3526 20.3158 24.1327 20.3158C22.9129 20.3158 22.2461 19.4832 22.2461 18.1524ZM25.2979 18.1524V17.8749C25.2979 16.8763 24.9657 16.3781 24.1874 16.3781C23.3544 16.3781 23.0768 16.8763 23.0768 17.8749V18.1524C23.0768 19.1511 23.409 19.6493 24.1874 19.6493C24.9657 19.6515 25.2979 19.0965 25.2979 18.1524ZM26.8523 17.0992C26.8523 16.212 27.3507 15.7685 28.1837 15.7685H29.3489V16.435H28.1837C27.7945 16.435 27.5738 16.6579 27.5738 17.1015V17.6565H29.2374V18.3231H27.5738V20.2089H26.7977M31.0125 20.2043C31.1786 19.4286 31.3448 18.985 31.5109 18.3185C31.7885 17.3767 32.2869 16.1006 32.4531 15.7685H33.3953C33.5614 16.1006 34.0621 17.3767 34.3375 18.3185C34.5036 18.9281 34.6697 19.3717 34.8359 20.2043H34.0598C33.9483 19.8153 33.8937 19.4832 33.7822 19.1511H32.007C31.8955 19.4832 31.8409 19.8176 31.7294 20.2043H31.0125ZM32.2346 18.5414H33.6775C33.6775 18.4868 33.6228 18.43 33.6228 18.3754C33.3998 17.5428 33.1791 16.7671 32.956 16.3235C32.733 16.7671 32.5123 17.5428 32.2892 18.3754C32.2346 18.43 32.2346 18.4868 32.2346 18.5414ZM35.5618 15.7685H37.0593C38.0015 15.7685 38.5022 16.2666 38.5022 17.2653C38.5022 18.3185 37.8923 18.8735 36.9478 18.8735H36.281V20.2043H35.5049M36.8932 18.2639C37.56 18.2639 37.7261 17.9318 37.7261 17.3221C37.7261 16.6556 37.5031 16.435 36.8932 16.435H36.2833V18.2662H36.8932V18.2639ZM39.2805 15.7685H40.778C41.7202 15.7685 42.2208 16.2666 42.2208 17.2653C42.2208 18.3185 41.6109 18.8735 40.6665 18.8735H39.9997V20.2043H39.2236M40.6118 18.2639C41.2787 18.2639 41.4448 17.9318 41.4448 17.3221C41.4448 16.6556 41.2218 16.435 40.6118 16.435H40.0019V18.2662H40.6118V18.2639ZM42.9423 19.0396V15.7685H43.7183V18.985C43.7183 19.4286 43.8845 19.5947 44.2736 19.5947H45.4935V20.2043H44.1621C43.3292 20.2043 42.9423 19.8176 42.9423 19.0396ZM46.1034 15.7685H46.8794V20.2612H46.1034V15.7685ZM47.8239 19.0396V15.7685H50.4319V16.435H48.5453V17.5997H50.2089V18.2662H48.5453V18.985C48.5453 19.4286 48.7114 19.5947 49.1006 19.5947H50.4866V20.2043H48.9891C48.213 20.2043 47.8239 19.8176 47.8239 19.0396ZM51.3195 15.7685H52.7624C54.1483 15.7685 54.7605 16.435 54.7605 17.6543V18.2639C54.7605 19.4286 54.2052 20.2612 52.8193 20.2612H51.3195M52.817 19.5947C53.6499 19.5947 53.9822 19.0965 53.9822 18.2093V17.6543C53.9822 16.8217 53.5384 16.3781 52.7624 16.3781H52.0409V19.5947H52.817ZM56.9225 20.0951V19.4286H56.9772C57.2002 19.4832 57.7532 19.5947 58.0878 19.5947H58.3108C58.7546 19.5947 59.0868 19.4286 59.0868 18.9281C59.0868 18.5392 58.8638 18.3731 58.4769 18.3185L57.867 18.1524C57.4232 18.041 56.9248 17.7089 56.9248 16.9332C56.9248 16.1575 57.5347 15.7139 58.4223 15.7139H58.5884C58.8661 15.7139 59.4214 15.8253 59.6421 15.8799V16.4896H59.5875C59.3645 16.435 58.8661 16.3235 58.5884 16.3235H58.4223C57.9785 16.3235 57.7009 16.4896 57.7009 16.9332C57.7009 17.3221 57.9239 17.4313 58.2562 17.5428L58.8661 17.7089C59.4214 17.8749 59.8652 18.1524 59.8652 18.985C59.8652 19.8722 59.2552 20.3158 58.3108 20.3158H58.0878C57.7555 20.2612 57.1456 20.1497 56.9225 20.0951ZM60.4728 18.2639V17.7657C60.4728 16.435 61.3058 15.7685 62.6371 15.7685C63.0809 15.7685 63.5247 15.8799 63.7477 15.9914V17.1015H63.0809V16.4918C62.9694 16.4373 62.7486 16.4373 62.5825 16.4373C61.8064 16.4373 61.3058 16.8808 61.3058 17.768V18.3231C61.3058 19.1556 61.7495 19.7084 62.5256 19.7084H62.8032C63.1355 19.7084 63.5247 19.5969 63.7454 19.5423H63.8V20.152C63.6339 20.2066 63.1901 20.3749 62.801 20.3749H62.5233C61.1396 20.2612 60.4728 19.4832 60.4728 18.2639ZM64.5784 15.7685H65.3544V20.2612H64.5784V15.7685ZM66.3558 19.0396V15.7685H68.9638V16.435H67.0772V17.5997H68.7408V18.2662H67.0772V18.985C67.0772 19.4286 67.2433 19.5947 67.6325 19.5947H69.0185V20.2043H67.521C66.7426 20.2043 66.3558 19.8176 66.3558 19.0396ZM69.7945 15.7685H70.4044L72.4572 18.819V15.7685H73.2355V20.2043H72.6233L70.5706 17.2107V20.2043H69.7945M74.0662 18.2639V17.7657C74.0662 16.435 74.8991 15.7685 76.2305 15.7685C76.6743 15.7685 77.118 15.8799 77.3411 15.9914V17.1015H76.6743V16.4918C76.5628 16.4373 76.342 16.4373 76.1759 16.4373C75.3998 16.4373 74.8991 16.8808 74.8991 17.768V18.3231C74.8991 19.1556 75.3429 19.7084 76.119 19.7084H76.3966C76.7289 19.7084 77.118 19.5969 77.3388 19.5423H77.3934V20.152C77.2273 20.2066 76.7835 20.3749 76.3943 20.3749H76.1167C74.733 20.2612 74.0662 19.4832 74.0662 18.2639ZM78.0602 19.0396V15.7685H80.6683V16.435H78.7817V17.5997H80.4453V18.2662H78.7817V18.985C78.7817 19.4286 78.9478 19.5947 79.337 19.5947H80.7229V20.2043H79.2254C78.4494 20.2043 78.0602 19.8176 78.0602 19.0396ZM81.3897 20.0951V19.4286H81.4444C81.6674 19.4832 82.2204 19.5947 82.555 19.5947H82.778C83.2218 19.5947 83.554 19.4286 83.554 18.9281C83.554 18.5392 83.331 18.3731 82.9441 18.3185L82.3342 18.1524C81.8904 18.041 81.392 17.7089 81.392 16.9332C81.392 16.1575 82.0019 15.7139 82.8895 15.7139H83.0556C83.3333 15.7139 83.8886 15.8253 84.1093 15.8799V16.4896H84.0547C83.8317 16.435 83.3333 16.3235 83.0556 16.3235H82.8895C82.4457 16.3235 82.1681 16.4896 82.1681 16.9332C82.1681 17.3221 82.3911 17.4313 82.7234 17.5428L83.3333 17.7089C83.8886 17.8749 84.3324 18.1524 84.3324 18.985C84.3324 19.8722 83.7224 20.3158 82.778 20.3158H82.555C82.2227 20.2612 81.6674 20.1497 81.3897 20.0951Z" fill="#1F9CD8"/>
<mask id="mask0_1400_9326" style="mask-type:luminance" maskUnits="userSpaceOnUse" x="0" y="0" width="85" height="22">
<path d="M0.387207 0.241211H84.3872V21.7585H0.387207V0.241211Z" fill="white"/>
</mask>
<g mask="url(#mask0_1400_9326)">
<path d="M18.4184 5.56422C18.4184 -1.31247 14.8113 3.62382 9.37436 0.241211C3.99436 3.62382 0.387207 -1.31247 0.387207 5.56422C0.387207 12.3863 3.99436 18.4304 9.37436 21.813C14.8135 18.3758 18.4184 12.3863 18.4184 5.56422Z" fill="#1780C3"/>
</g>
<path d="M18.4183 5.56422C18.4183 -1.31247 14.8112 3.62382 9.43115 0.241211V21.7585C14.8134 18.3758 18.4183 12.3863 18.4183 5.56422Z" fill="#005C95"/>
<path d="M4.32657 2.57076H3.21825C1.94153 2.57076 1.38623 2.57076 1.38623 5.56439C1.38623 7.17266 1.60926 8.72634 1.99615 10.2232C5.43489 9.00387 8.09986 5.73045 8.70977 1.68359C7.10078 2.4593 5.6033 2.57076 4.32657 2.57076Z" fill="url(#paint0_linear_1400_9326)"/>
<path d="M9.37416 13.0529C9.37416 12.7753 9.48567 12.5547 9.59719 12.3317C10.4848 11.1671 11.9822 9.22666 12.426 8.33949H5.60315C5.27088 8.33949 5.04785 8.17343 5.04785 7.84131V7.34314C5.04785 7.01102 5.21399 6.78809 5.60315 6.78809H14.3696C14.7018 6.78809 14.868 6.95415 14.868 7.34314V7.73212C14.868 8.00965 14.8133 8.2303 14.7018 8.45323C14.035 9.56333 12.649 11.4469 11.9276 12.3909H14.5903C14.9226 12.3909 15.1456 12.557 15.1456 12.9459V13.4441C15.1456 13.7762 14.9795 13.9992 14.5903 13.9992H9.87484C9.54257 13.9992 9.37643 13.8331 9.37643 13.4441" fill="white"/>
<path d="M7.32142 6.78585V4.67712C7.32142 4.345 7.48756 4.12207 7.81983 4.12207H8.8758C9.20807 4.12207 9.4311 4.28813 9.4311 4.67712V10.7781C9.4311 11.1102 9.26496 11.3332 8.8758 11.3332H7.8221C7.48983 11.3332 7.3237 11.1671 7.3237 10.7781V8.44872M5.10251 8.50332V10.7781C5.10251 11.1102 4.93638 11.3332 4.60411 11.3332H3.49352C3.16125 11.3332 2.99512 11.1671 2.99512 10.7781V4.67712C2.99512 4.345 3.16125 4.12207 3.49352 4.12207H4.54722C4.87948 4.12207 5.10251 4.28813 5.10251 4.67712V8.50332Z" fill="white"/>
</g>
<defs>
<linearGradient id="paint0_linear_1400_9326" x1="2.38829" y1="3.58998" x2="5.30008" y2="5.91351" gradientUnits="userSpaceOnUse">
<stop stop-color="white"/>
<stop offset="1" stop-color="#1780C3"/>
</linearGradient>
<clipPath id="clip0_1400_9326">
<rect width="84" height="21.5172" fill="white" transform="translate(0.387207 0.241211)"/>
</clipPath>
</defs>
</svg>
