<svg width="85" height="84" viewBox="0 0 85 84" fill="none" xmlns="http://www.w3.org/2000/svg">
<g clip-path="url(#clip0_495_6006)">
<rect width="84" height="84" transform="translate(0.387207)" fill="white"/>
<path fill-rule="evenodd" clip-rule="evenodd" d="M0.387207 0H84.3872V84H0.387207V0Z" fill="white"/>
<path fill-rule="evenodd" clip-rule="evenodd" d="M30.8387 38.6479C30.8387 39.3548 30.6896 40.4704 29.7972 40.4704C28.7556 40.4704 28.5696 39.0942 28.5696 38.3503C28.5696 37.6805 28.7556 36.6024 29.6486 36.6024C30.6156 36.6024 30.8387 37.9041 30.8387 38.6479ZM32.0288 38.4989C32.0288 37.1602 30.9873 36.3043 29.6856 36.3043C28.4214 36.3043 27.4169 37.3458 27.4169 38.5734C27.4169 39.8751 28.4584 40.768 29.6856 40.768C30.9877 40.768 32.0288 39.764 32.0288 38.4989ZM41.328 41.5119C41.328 41.9956 40.6957 42.553 39.8032 42.553C39.245 42.553 38.427 42.3674 38.427 41.6235C38.427 41.2888 38.6501 41.0282 38.9478 40.8425C39.0964 40.8425 39.2824 40.8796 39.4315 40.8796C39.6916 40.8796 39.8777 40.8796 40.1383 40.8425H40.473C40.9188 40.8425 41.328 41.0282 41.328 41.5119ZM40.398 37.9411C40.398 38.4244 40.2494 39.0201 39.6912 39.0201C39.0589 39.0201 38.8728 38.1647 38.8728 37.6809C38.8728 37.2347 39.0218 36.6024 39.5796 36.6024C40.2494 36.6024 40.398 37.4949 40.398 37.9411ZM42.0719 37.0111V36.6024H41.4025C41.1794 36.6024 40.9192 36.6024 40.7332 36.5278L40.398 36.4163C40.2494 36.3422 39.8773 36.2677 39.6171 36.2677C38.7617 36.2677 37.7572 36.863 37.7572 37.83C37.7572 38.4248 38.1664 38.9831 38.7242 39.1691C38.5756 39.2437 38.278 39.3923 38.0919 39.5783C37.9803 39.6899 37.8688 39.876 37.8688 40.0616C37.8688 40.5079 38.315 40.731 38.6126 40.7685C38.2405 40.9171 37.6456 41.2517 37.6456 41.81C37.6456 42.7025 38.7987 42.9256 39.5426 42.9256C40.1004 42.9256 40.8072 42.814 41.3651 42.3682C41.7743 42.0331 42.0349 41.6239 42.0349 41.1406C42.0349 40.2852 41.4025 39.913 40.6212 39.913C40.2865 39.913 40.0259 39.9501 39.6912 39.9501C39.4681 39.9501 39.0589 39.9871 38.9103 39.8385C38.7987 39.7644 38.7617 39.6899 38.7617 39.5783C38.7617 39.4293 38.9478 39.3177 39.0593 39.2807C39.2079 39.3177 39.4681 39.3548 39.6171 39.3548C40.51 39.3548 41.5141 38.834 41.5141 37.8295C41.5141 37.5319 41.3655 37.1227 41.2164 37.0111H42.0719ZM51.1471 38.8711C51.1471 39.7265 50.7749 40.4704 50.1435 40.4704C49.6227 40.4704 49.139 40.1357 48.9904 39.8006V37.1597C49.251 37.0107 49.4362 36.8991 49.7343 36.8991C50.5897 36.8996 51.1471 37.8295 51.1471 38.8711ZM47.4652 34.2217H48.9904V36.9C49.3251 36.6394 49.8084 36.3422 50.3666 36.3422C51.5193 36.3422 52.2265 37.2722 52.2265 38.3507C52.2265 39.5783 51.2595 40.7685 49.8084 40.7685C49.2135 40.7685 48.6923 40.5079 48.4322 40.3222L48.1716 40.6569H47.911V34.5934C47.911 34.3328 47.6878 34.2583 47.4652 34.2583V34.2217ZM56.2806 38.6479C56.2806 39.3548 56.095 40.4704 55.2021 40.4704C54.1976 40.4704 54.0115 39.1312 54.0115 38.3503C54.0115 37.6805 54.198 36.6024 55.0535 36.6024C56.02 36.6024 56.2806 37.9041 56.2806 38.6479ZM57.4337 38.4989C57.4337 37.1602 56.3918 36.3043 55.0905 36.3043C53.8259 36.3043 52.8214 37.3458 52.8214 38.6105C52.8214 39.8751 53.8633 40.768 55.128 40.768C56.3922 40.768 57.4337 39.764 57.4337 38.4989ZM64.5383 38.6479C64.5383 39.3548 64.3893 40.4704 63.4963 40.4704C62.4919 40.4704 62.3067 39.0942 62.3067 38.3503C62.3067 37.6805 62.4923 36.6024 63.3478 36.6024C64.3518 36.6024 64.5383 37.867 64.5383 38.6479ZM65.7655 38.4619C65.7655 37.1602 64.6869 36.3043 63.3848 36.3043C63.0863 36.3023 62.7903 36.3597 62.5141 36.473C62.2379 36.5863 61.987 36.7534 61.7759 36.9645C61.5648 37.1756 61.3977 37.4265 61.2844 37.7027C61.171 37.9789 61.1137 38.2749 61.1157 38.5734C61.1157 39.8751 62.1576 40.768 63.4223 40.768C64.6869 40.768 65.7655 39.764 65.7655 38.4619ZM74.9902 41.5119C74.9902 41.9956 74.3578 42.553 73.4649 42.553C72.9075 42.553 72.0887 42.3674 72.0887 41.6235C72.0887 41.2888 72.3118 41.0282 72.6095 40.8425C72.7585 40.8425 72.9442 40.8796 73.0928 40.8796C73.3534 40.8796 73.5386 40.8796 73.7992 40.8425H74.0972C74.581 40.8425 74.9902 41.0282 74.9902 41.5119ZM74.0602 37.9411C74.0602 38.4244 73.9112 39.0201 73.3538 39.0201C72.7215 39.0201 72.5358 38.1647 72.5358 37.6809C72.5358 37.2347 72.684 36.6024 73.2422 36.6024C73.9112 36.6024 74.0602 37.4949 74.0602 37.9411ZM75.734 37.0111V36.6024H75.0642C74.8411 36.6024 74.581 36.6024 74.3953 36.5278L74.0598 36.4163C73.9107 36.3422 73.539 36.2677 73.2793 36.2677C72.423 36.2677 71.4193 36.863 71.4193 37.83C71.4193 38.4248 71.8281 38.9831 72.3864 39.1691C72.2373 39.2437 71.9397 39.3923 71.754 39.5783C71.6425 39.6899 71.5309 39.876 71.5309 40.0616C71.5309 40.5079 71.9767 40.731 72.2748 40.7685C71.9026 40.9171 71.2703 41.2517 71.2703 41.81C71.2703 42.7025 72.46 42.9256 73.2043 42.9256C73.7626 42.9256 74.469 42.814 75.0276 42.3682C75.4364 42.0331 75.6966 41.6239 75.6966 41.1406C75.6966 40.2852 75.0642 39.913 74.2829 39.913C73.9482 39.913 73.688 39.9501 73.3534 39.9501C73.1302 39.9501 72.721 39.9871 72.572 39.8385C72.4604 39.7644 72.423 39.6899 72.423 39.5783C72.423 39.4293 72.6095 39.3177 72.721 39.2807C72.8701 39.3177 73.1302 39.3548 73.2793 39.3548C74.1713 39.3548 75.1758 38.834 75.1758 37.8295C75.1758 37.5319 75.0276 37.1227 74.8786 37.0111H75.734ZM42.9278 46.0123C42.9278 46.2729 42.7413 46.3103 42.5556 46.3103H41.1419C41.291 45.5664 41.8858 45.3433 42.2209 45.3433C42.6297 45.3433 42.9278 45.6776 42.9278 46.0123ZM43.9689 48.2448L43.7832 48.1332C43.5592 48.3563 43.2625 48.6165 42.7413 48.6165C42.1835 48.6165 41.6997 48.3559 41.4021 47.8726C41.1045 47.3885 41.1045 46.9797 41.1045 46.608H43.4847C43.6337 46.608 43.8939 46.5705 43.8939 46.3474C43.8939 46.1609 43.6708 45.0452 42.3687 45.0452C41.1785 45.0452 40.2111 45.9756 40.2111 47.2769C40.2111 48.5415 41.0295 49.4345 42.1085 49.4345C42.9644 49.4345 43.5967 48.7281 43.9689 48.2448ZM53.4537 49.3233V49.1368C53.119 49.1368 53.007 48.9887 53.007 48.7647V45.1202H51.5193V45.3058C51.7799 45.3058 51.9659 45.4549 51.9659 45.678V48.7651C51.9659 48.9891 51.7794 49.1373 51.5193 49.1373V49.3238L53.4537 49.3233ZM53.007 43.2232C53.007 42.8886 52.7473 42.665 52.4122 42.665C52.115 42.665 51.8914 42.889 51.8914 43.2232C51.8914 43.5213 52.1154 43.7806 52.4122 43.7806C52.7473 43.7806 53.007 43.5209 53.007 43.2232ZM35.8973 49.3233V49.1368C35.5626 49.1368 35.1534 48.9887 35.1534 48.7647V45.1202H33.7027V45.3058C33.9628 45.3058 34.1489 45.4549 34.1489 45.678V48.7651C34.1489 48.9891 33.9628 49.1373 33.7027 49.1373V49.3238L35.8973 49.3233ZM35.1909 43.2232C35.1909 42.8886 34.9303 42.665 34.6331 42.665C34.2979 42.665 34.0378 42.889 34.0378 43.2232C34.0378 43.5213 34.2979 43.7806 34.6331 43.7806C34.9303 43.7806 35.1909 43.5209 35.1909 43.2232ZM26.9332 39.0201H26.673C26.5985 39.4289 26.5615 39.6895 26.4124 39.9126C26.1893 40.0987 25.7431 40.2473 24.8872 40.2473C24.4409 40.2473 24.1433 40.1727 23.9572 40.0241C23.7711 39.9126 23.7341 39.689 23.7341 39.1687V35.0401C23.7341 34.4078 23.8457 34.3332 24.4035 34.3332V34.2217H21.8371V34.3332C22.3949 34.3332 22.544 34.4078 22.544 34.9285V39.4293C22.544 40.2102 22.2838 40.4338 21.763 40.4338V40.6199H26.8216L26.9332 39.0201ZM37.1619 40.619V40.4704C36.8643 40.4704 36.7531 40.3588 36.7531 40.0982V36.4159H35.1909V36.5645C35.4885 36.5645 35.6741 36.676 35.6741 36.9737V39.6886C35.3765 39.9117 35.0048 40.0978 34.6326 40.0978C34.4465 40.0978 34.1864 40.0608 34.0373 39.8372C33.9628 39.6886 33.9258 39.428 33.9258 39.1678V36.4154H32.4005V36.564C32.6611 36.564 32.8843 36.6756 32.8843 36.9362V39.6515C32.8843 39.8747 32.9588 40.2094 33.1444 40.4325C33.2507 40.5413 33.3781 40.6272 33.5189 40.6849C33.6596 40.7425 33.8107 40.7707 33.9628 40.7676C34.5206 40.7676 35.1904 40.3954 35.6737 39.9867V40.619H37.1619ZM47.1309 40.619V40.4329C46.8328 40.4329 46.7217 40.2843 46.7217 40.1723V37.9781C46.7217 37.3083 46.7217 36.9366 46.3496 36.6019C46.089 36.4159 45.7547 36.3043 45.4941 36.3043C45.1219 36.3043 44.5271 36.4904 43.8948 37.0482V34.2217H42.4441V34.2587C42.6676 34.2587 42.8528 34.3332 42.8528 34.5938V39.9871C42.8528 40.3218 42.7787 40.4333 42.4066 40.4704V40.619H44.3781V40.4704C44.1175 40.4704 43.8948 40.3588 43.8948 40.0982V37.2713C44.1179 37.1597 44.5271 36.9737 44.8618 36.9737C45.1599 36.9737 45.3825 37.0477 45.4941 37.1968C45.6431 37.3829 45.6797 37.5689 45.6797 38.1642V40.0982C45.6797 40.2468 45.6057 40.4329 45.271 40.4329V40.619H47.1309ZM61.1531 36.8625C61.1531 36.5649 60.93 36.3047 60.5208 36.3047C60.075 36.3047 59.6279 36.7139 59.3677 37.0486V36.4163H57.9549V36.5649C58.2155 36.5649 58.3637 36.6394 58.3637 36.9371V40.0987C58.3637 40.2473 58.2521 40.4708 57.9179 40.4708V40.6569H60.038V40.4708C59.7033 40.4708 59.4056 40.3967 59.4056 39.9875V37.7555C59.4056 37.3092 59.6288 37.0486 59.9264 37.0486C60.038 37.0486 60.1121 37.0486 60.2611 37.1972C60.4476 37.3463 60.5592 37.3833 60.6703 37.3833C61.0045 37.3833 61.1531 37.1227 61.1531 36.8625ZM70.8615 40.619V40.4704C70.5635 40.4704 70.4523 40.3588 70.4523 40.0982V36.4159H68.8905V36.5645C69.1877 36.5645 69.4113 36.676 69.4113 36.9737V39.6886C69.0757 39.9117 68.704 40.0978 68.3318 40.0978C68.1462 40.0978 67.886 40.0608 67.737 39.8372C67.6629 39.6886 67.6254 39.428 67.6254 39.1678V36.4154H66.1002V36.564C66.3608 36.564 66.5834 36.6756 66.5834 36.9362V39.6515C66.5834 39.8747 66.6584 40.2094 66.844 40.4325C67.0306 40.6186 67.2907 40.7676 67.6995 40.7676C68.2577 40.7676 68.8901 40.3954 69.4113 39.9867V40.619H70.8615ZM80.6811 40.4185C80.4937 40.3784 80.4205 40.2634 80.4205 40.1727V37.9781C80.4205 37.3083 80.4205 36.9366 80.0483 36.6019C79.7877 36.4159 79.4535 36.3043 79.1929 36.3043C78.8207 36.3043 78.2259 36.4904 77.631 37.0482V34.2217H76.1432V34.2587C76.3664 34.2587 76.552 34.3332 76.552 34.5938V39.9871C76.552 40.3218 76.4779 40.4333 76.1062 40.4704V40.619H78.0772V40.4704C77.8167 40.4704 77.6314 40.3588 77.6314 40.0982V37.2713C77.8171 37.1597 78.2263 36.9737 78.561 36.9737C78.859 36.9737 79.0443 37.0477 79.1933 37.1968C79.3423 37.3829 79.3798 37.5689 79.3798 38.1642V40.0982C79.3798 40.2468 79.3423 40.4329 78.9706 40.4329V40.619H80.6815V40.4185H80.6811ZM28.3839 43.0742V42.8886H26.524V43.0742C27.0818 43.0742 27.1938 43.1858 27.1938 43.8181V47.2773C27.1938 47.9471 27.0452 48.2818 26.7101 48.6169C26.3754 48.9141 25.9291 49.0627 25.4454 49.0627C24.8131 49.0627 24.2923 48.8396 24.0317 48.4679C23.8086 48.1698 23.7341 47.6865 23.7341 47.2407V43.7444C23.7341 43.2237 23.9202 43.0746 24.3664 43.0746V42.889H21.9487V43.0746C22.3575 43.0746 22.5435 43.2237 22.5435 43.6695V47.2033C22.5435 47.9097 22.6926 48.4679 23.0643 48.8401C23.5851 49.3608 24.4775 49.509 25.1469 49.509C25.9278 49.509 26.6347 49.2859 27.0809 48.8775C27.5272 48.4683 27.7507 47.8356 27.7507 47.0167V43.8181C27.7516 43.2232 27.9002 43.0742 28.3839 43.0742ZM33.2564 49.3233V49.1368C32.9217 49.1368 32.7727 48.9512 32.7727 48.7647V46.1609C32.7727 45.3054 32.1404 45.0082 31.6196 45.0082C31.0618 45.0082 30.4295 45.3804 29.9458 45.6771V45.1198H28.495V45.3054C28.7556 45.3054 28.9413 45.4545 28.9413 45.6776V48.7647C28.9413 48.9887 28.7556 49.1368 28.495 49.1368V49.3233H30.4291V49.1368C30.0944 49.1368 29.9453 48.9512 29.9453 48.7647V45.9756C30.1314 45.8641 30.5406 45.6776 30.8382 45.6776C31.2845 45.6776 31.7307 45.8641 31.7307 46.4589V48.7647C31.7307 48.9512 31.5821 49.1368 31.2845 49.1368V49.3233H33.2564ZM40.361 45.3058V45.1202H38.8358V45.3058C39.1709 45.3058 39.3565 45.3433 39.3565 45.6039C39.3565 45.678 39.282 45.7896 39.282 45.8645L38.4636 47.9471L37.5336 45.753C37.4966 45.7155 37.4966 45.6405 37.4966 45.5664C37.4966 45.4174 37.5336 45.3058 37.9428 45.3058V45.1202H35.7482V45.3058C36.0088 45.3058 36.157 45.4174 36.269 45.6039L38.0544 49.4724H38.203L39.7653 45.6039C39.8773 45.4174 40.0634 45.3058 40.361 45.3058ZM47.6142 45.566C47.6142 45.2679 47.3911 45.0086 46.9819 45.0086C46.5352 45.0086 46.0515 45.3808 45.8288 45.715V45.0827H44.3785V45.2684C44.6391 45.2684 44.8243 45.3433 44.8243 45.6039V48.7651C44.8243 48.9141 44.6753 49.1373 44.341 49.1373V49.3238H46.4986V49.1373C46.163 49.1373 45.8288 49.0632 45.8288 48.654V46.4223C45.8288 45.9765 46.0519 45.7159 46.3496 45.7159C46.4611 45.7159 46.5352 45.7534 46.6842 45.865C46.8707 46.0131 46.9823 46.0506 47.1309 46.0506C47.4277 46.0497 47.6142 45.7891 47.6142 45.566ZM50.8878 48.0957C50.8878 47.4259 50.367 47.0163 49.8084 46.757C49.1394 46.4215 48.7673 46.1988 48.7673 45.8266C48.7673 45.4545 49.0645 45.2684 49.4737 45.2684C50.1435 45.2684 50.4032 45.9382 50.4407 46.1988H50.6638L50.6272 45.1568C50.3666 45.0827 49.8833 45.0086 49.5112 45.0086C48.3581 45.0086 47.9484 45.6776 47.9484 46.1983C47.9484 46.9047 48.4692 47.2769 49.1015 47.5745C49.7339 47.8351 49.9944 48.1694 49.9944 48.5049C49.9944 48.9137 49.6589 49.1364 49.2131 49.1364C48.8039 49.1364 48.2461 48.9507 48.06 48.1328H47.8369V49.1364C48.2461 49.3229 48.8039 49.4345 49.2131 49.4345C50.1439 49.4345 50.8878 48.9137 50.8878 48.0957ZM61.5253 45.3058V45.1568H60.0001V45.3058C60.1866 45.3433 60.4093 45.3808 60.4093 45.6405C60.4093 45.7896 60.3352 46.0127 60.2977 46.1988L59.5163 48.0587L58.6984 45.9761C58.6609 45.9011 58.5868 45.678 58.5868 45.6039C58.5868 45.4174 58.735 45.3433 59.0326 45.3433V45.1568H55.5363V44.1157H55.3507C55.1276 44.5615 54.755 45.0453 54.0111 45.1568V45.3433H54.4952V48.4304C54.4952 48.8396 54.755 49.4349 55.5363 49.4349C56.2061 49.4349 56.7635 48.8775 56.9125 48.6169L56.7635 48.5054C56.5404 48.7285 56.2802 48.8026 56.1312 48.8026C55.6113 48.8026 55.5363 48.3934 55.5363 48.0212V45.4174H56.95C57.2106 45.4174 57.3592 45.529 57.4333 45.7155L58.9585 49.4349L58.623 50.2903C58.5114 50.5509 58.3999 50.737 58.2883 50.737C58.2142 50.737 58.1026 50.737 57.9902 50.588C57.8787 50.513 57.693 50.439 57.5444 50.439C57.2463 50.439 57.0986 50.6246 57.0986 50.8848C57.0986 51.1828 57.3217 51.4796 57.7309 51.4796C58.2883 51.4796 58.6605 51.0338 58.9581 50.327L60.7431 45.9752C60.9679 45.4174 61.2272 45.3058 61.5253 45.3058ZM10.2322 42.8886V34.2217H4.09505V42.8511C4.09505 42.8511 3.98349 45.7151 5.32222 47.6125C5.95454 48.5054 6.62391 49.8066 11.4223 51.704C16.2207 49.8066 16.8531 48.5054 17.4854 47.6125C18.8246 45.7151 18.7126 42.8886 18.7126 42.8886H10.2322Z" fill="#2B1C5C"/>
<path fill-rule="evenodd" clip-rule="evenodd" d="M18.7134 34.2217V40.619H12.6133V34.2217H18.7134Z" fill="#AA0064"/>
</g>
<defs>
<clipPath id="clip0_495_6006">
<rect width="84" height="84" fill="white" transform="translate(0.387207)"/>
</clipPath>
</defs>
</svg>
