<svg width="84" height="84" viewBox="0 0 84 84" fill="none" xmlns="http://www.w3.org/2000/svg">
<g clip-path="url(#clip0_495_6134)">
<rect width="84" height="84" fill="white"/>
<path fill-rule="evenodd" clip-rule="evenodd" d="M0 0H84V84H0V0Z" fill="white"/>
<path fill-rule="evenodd" clip-rule="evenodd" d="M50.9774 47.4778L42.0508 62.2888L33.0222 47.4778H31.2978L42.0508 65.2304L52.7018 47.4778H50.9774ZM30.7905 51.6374V47.4778H29.5734V52.8545C29.5734 55.2897 31.9066 58.6374 34.0367 58.6374V63.4044H14.154V58.6374C16.4872 58.6374 18.7189 55.2897 18.7189 52.8545V47.4778H17.4002V51.6374C17.4002 54.5789 15.6758 57.724 12.7338 57.724V64.8251H35.4569V57.724C32.6165 57.724 30.7905 54.7824 30.7905 51.6374ZM17.4002 30.8418V36.6242H18.7189V29.7262C18.7189 27.2914 16.4872 24.8572 14.154 24.8572V20.9007H30.8921L40.3259 36.6242H43.6736L53.1075 20.9007H69.8451V24.8572C67.6134 24.8572 65.3818 27.2914 65.3818 29.7262V36.6242H66.7009V30.8418C66.7009 28.2044 68.3233 26.0743 71.2657 26.0743V19.3789H52.2965L42.0508 36.5227L31.7035 19.3789H12.7338V26.0743C15.6758 26.0743 17.4002 28.2044 17.4002 30.8418ZM66.7013 51.6374V47.4778H65.3822V52.8545C65.3822 55.2897 67.6139 58.6374 69.8455 58.6374V63.4044H49.9637V58.6374C52.1945 58.6374 54.4262 55.2897 54.4262 52.8545V47.4778H53.209V51.6374C53.209 54.7824 51.3835 57.724 48.5431 57.724V64.8251H71.2662V57.724C68.3233 57.724 66.7013 54.5789 66.7013 51.6374ZM14.7628 46.058V45.3482C13.8499 45.2462 13.7483 45.1446 13.7483 44.3337V40.7833L16.2842 46.058H17.1971L19.4288 40.8844V44.4347C19.4288 45.2457 19.4288 45.3482 18.5158 45.3482V46.058H22.0661V45.3482C21.2547 45.2462 21.0516 44.942 21.0516 44.4347V40.0726C21.0516 39.7684 21.0516 39.2611 21.1532 39.058C21.1532 38.9565 21.3558 38.855 22.0661 38.7539V38.0444H19.4283L16.994 43.7253L14.3571 38.0444H11.8213V38.7543C12.6327 38.8554 12.7343 38.9569 12.7343 39.3627V43.9275C12.6332 45.2457 12.5316 45.2457 11.8213 45.3482V46.058H14.7628ZM26.9356 45.3486V46.0585H29.8776V45.3486C29.3703 45.3486 29.1672 45.2466 28.9646 44.7402L26.4283 37.9433H25.6169L23.1826 44.6383C22.9795 45.0444 22.878 45.349 22.3712 45.349V46.0589H24.907V45.349C24.3998 45.349 24.2987 45.2471 24.2987 45.0444C24.2987 44.6383 24.6028 43.9284 24.7044 43.5227H26.936C27.2406 44.2334 27.4433 44.9433 27.4433 45.146C27.4428 45.2462 27.4428 45.3486 26.9356 45.3486ZM25.0081 42.5082L25.8195 40.2761L26.631 42.5082H25.0081ZM33.3264 42.9134H33.7325C34.3409 43.9279 35.2543 45.2466 35.558 45.5512C35.8626 45.8558 36.2683 46.1596 36.9782 46.1596C37.2828 46.1596 37.5866 46.1596 38.0943 45.9569V45.3486C37.587 45.3486 37.2828 45.3486 36.8771 44.8413C36.4714 44.5367 35.7611 43.5222 35.1527 42.4062C35.9642 41.7978 36.2688 40.8849 36.2688 40.1745C36.2688 38.146 34.2398 37.9429 33.2257 37.9429C32.4143 37.9429 30.994 38.0444 30.1826 38.1459V38.7543C30.994 38.7543 31.0956 38.9569 31.0956 39.9715V44.3337C31.0956 44.8409 31.0956 45.2462 30.1826 45.3482V46.058H33.5303V45.3482C32.7189 45.3482 32.6173 44.942 32.6173 44.5363V42.913L33.3264 42.9134ZM32.6165 39.7688V38.9569C32.9206 38.8554 33.1237 38.8554 33.2248 38.8554C34.0363 38.8554 34.7466 39.3627 34.7466 40.4787C34.7466 41.7974 34.0367 42.0005 33.2248 42.0005H32.6165V39.7688ZM41.1374 45.2462C40.6301 45.2462 39.1083 45.0435 39.1083 43.3191H38.3985V45.6523C39.3114 45.9569 40.0213 46.2607 41.1374 46.2607C43.2675 46.2607 43.7747 44.9424 43.7747 44.029C43.7747 43.3191 43.5721 42.8119 43.0648 42.3046C42.4565 41.6963 41.6446 41.2901 40.9343 40.8844C40.427 40.5802 40.1229 40.2761 40.1229 39.7688C40.1229 39.4642 40.3255 38.9569 41.34 38.9569C42.456 38.9569 42.7598 39.4642 42.8622 40.5802H43.5721V38.0444C42.5576 38.0444 42.5576 37.8413 41.1374 37.8413C39.413 37.8413 38.6011 38.8558 38.6011 40.073C38.6011 41.3917 39.7171 42.102 40.7316 42.6093C41.1374 42.8119 41.6446 43.1165 41.9488 43.4202C42.2534 43.6238 42.2534 43.8264 42.2534 44.2321C42.2534 44.6378 42.0508 45.2462 41.1374 45.2462ZM52.2965 38.7543V38.1459H48.9488V38.7543C49.6587 38.7543 49.8613 38.8554 49.8613 40.3776V41.2906H46.5136V40.3776C46.5136 38.8558 46.7171 38.7543 47.5281 38.7543V38.1459H44.1804V38.7543C44.8903 38.7543 45.0938 38.7543 45.0938 39.9715V43.6238C45.0938 45.1446 44.9919 45.2462 44.1804 45.3482V46.058H47.5281V45.3482C46.7171 45.2462 46.5136 45.1446 46.5136 44.5363V42.3046H49.8613V44.5363C49.8613 45.1446 49.6587 45.2462 48.9488 45.3482V46.058H52.2965V45.3482C51.4846 45.2462 51.282 45.1446 51.282 43.6238V39.9715C51.282 38.7543 51.4846 38.7543 52.2965 38.7543ZM57.1651 45.3486V46.0585H60.1075V45.3486C59.4991 45.3486 59.3967 45.2466 59.1941 44.7402L56.6578 37.9433H55.8468L53.4125 44.6383C53.209 45.0444 53.1079 45.349 52.6007 45.349V46.0589H55.1369V45.349C54.5286 45.349 54.5286 45.2471 54.5286 45.0444C54.5286 44.6383 54.8323 43.9284 54.9338 43.5227H57.1655C57.4701 44.2334 57.6727 44.9433 57.6727 45.146C57.6723 45.2462 57.6723 45.3486 57.1651 45.3486ZM55.238 42.5082L55.9479 40.2761L56.7598 42.5082H55.238ZM60.4112 45.3486V46.0585H66.0917V43.7253H65.4833C65.2807 44.9424 64.7734 45.1451 63.86 45.1451C62.9475 45.1451 62.8464 44.9424 62.8464 44.3341V41.3921V39.7692C62.9475 39.3631 62.9475 39.1605 62.9475 39.0589C63.0486 38.9574 63.0486 38.8558 63.1501 38.8558C63.3536 38.7547 63.6574 38.7547 63.86 38.7547V38.1464H60.4112V38.7547C61.122 38.7547 61.3246 38.8558 61.3246 40.6822V43.1169C61.3246 45.2462 61.0196 45.3486 60.4112 45.3486ZM71.5695 43.7253C71.3668 44.9424 70.8596 45.1451 69.9462 45.1451C69.0336 45.1451 68.9325 44.9424 68.9325 44.3341V41.3921V39.7692C68.9325 39.3631 69.0336 39.1605 69.0336 39.0589C69.0336 38.9574 69.1347 38.8558 69.2363 38.8558C69.4389 38.7547 69.7435 38.7547 69.9462 38.7547V38.1464H66.3963V38.7547C67.1062 38.7547 67.4108 38.8558 67.4108 40.6822V43.1169C67.4108 45.2466 67.1062 45.3486 66.3963 45.3486V46.0585H72.1791V43.7253H71.5695Z" fill="white"/>
<path fill-rule="evenodd" clip-rule="evenodd" d="M29.5736 52.8543V47.4776H18.7191V52.8543C18.7191 55.2894 16.4875 58.6371 14.1543 58.6371V63.4042H34.0369V58.6371C31.9064 58.6371 29.5736 55.2894 29.5736 52.8543ZM18.7191 29.7259V36.6239H40.3262L30.8923 20.9004H14.1543V24.8569C16.4875 24.8569 18.7191 27.2912 18.7191 29.7259ZM53.1077 20.9004L43.6739 36.6239H65.382V29.7259C65.382 27.2912 67.6137 24.8569 69.8453 24.8569V20.9004H53.1077ZM33.0224 47.4776L42.051 62.2886L50.9776 47.4776H33.0224ZM65.382 52.8543V47.4776H54.426V52.8543C54.426 55.2894 52.1943 58.6371 49.9635 58.6371V63.4042H69.8453V58.6371C67.6137 58.6371 65.382 55.2894 65.382 52.8543Z" fill="#346337"/>
<path fill-rule="evenodd" clip-rule="evenodd" d="M68.6283 36.6239V32.769C68.6283 29.8274 68.6283 28.0015 73.2951 28.0015V17.0459H50.9773L42.0511 31.9576L33.0226 17.0459H10.7056V28.0015C15.372 28.0015 15.372 29.8274 15.372 32.769V36.6239H3.70605V47.4776H15.372V49.6081C15.372 52.4486 15.372 55.7958 10.7056 55.7958V66.9549H37.5874V61.9844L40.6309 66.9549H43.4714L46.4129 61.9844V66.9549H73.2955V55.7958C68.6287 55.7958 68.6287 52.4481 68.6287 49.6081V47.4776H80.2947V36.6239H68.6283ZM12.7342 26.074V19.3786H31.7039L42.0511 36.5224L52.2969 19.3786H71.2661V26.074C68.3237 26.074 66.7013 28.2042 66.7013 30.8415V36.6239H17.4006V30.8415C17.4006 28.2042 15.6762 26.074 12.7342 26.074ZM60.4116 38.754V38.1457H63.8604V38.754C63.6577 38.754 63.354 38.754 63.1505 38.8552C63.0494 38.8552 63.0494 38.9567 62.9479 39.0582C62.9479 39.1598 62.9479 39.3624 62.8467 39.7686V44.3334C62.8467 44.9417 62.9479 45.1444 63.8604 45.1444C64.7738 45.1444 65.281 44.9417 65.4837 43.7246H66.092V46.0578H60.4116V45.3479C61.0199 45.3479 61.325 45.2459 61.325 43.1162V40.6815C61.325 38.8556 61.1224 38.754 60.4116 38.754ZM57.1654 43.5215H54.9338C54.8327 43.9277 54.5285 44.6376 54.5285 45.0433C54.5285 45.2459 54.5285 45.3479 55.1369 45.3479V46.0578H52.6006V45.3479C53.1078 45.3479 53.209 45.0433 53.4125 44.6371L55.8467 37.9422H56.6577L59.194 44.7391C59.3966 45.2455 59.4986 45.3475 60.1074 45.3475V46.0574H57.165V45.3475C57.6723 45.3475 57.6723 45.2455 57.6723 45.144C57.6727 44.9422 57.47 44.2323 57.1654 43.5215ZM52.2969 45.3483V46.0582H48.9492V45.3483C49.6591 45.2464 49.8617 45.1448 49.8617 44.5365V42.3048H46.514V44.5365C46.514 45.1448 46.7175 45.2464 47.5285 45.3483V46.0582H44.1808V45.3483C44.9918 45.2464 45.0942 45.1448 45.0942 43.6239V39.9716C45.0942 38.7545 44.8907 38.7545 44.1808 38.7545V38.1461H47.5285V38.7545C46.7175 38.7545 46.514 38.8556 46.514 40.3778V41.2907H49.8617V40.3778C49.8617 38.856 49.6591 38.7545 48.9492 38.7545V38.1461H52.2969V38.7545C51.485 38.7545 51.2823 38.7545 51.2823 39.9716V43.6239C51.2823 45.1448 51.485 45.2459 52.2969 45.3483ZM41.9492 43.4204C41.645 43.1167 41.1377 42.8121 40.732 42.6094C39.7175 42.1022 38.6015 41.3918 38.6015 40.0732C38.6015 38.856 39.4133 37.8415 41.1377 37.8415C42.558 37.8415 42.558 38.0446 43.5725 38.0446V40.5804H42.8626C42.7606 39.4644 42.4564 38.9571 41.3404 38.9571C40.3259 38.9571 40.1232 39.4644 40.1232 39.769C40.1232 40.2762 40.4274 40.5804 40.9347 40.8846C41.645 41.2903 42.4564 41.696 43.0652 42.3048C43.5725 42.8121 43.7751 43.3193 43.7751 44.0292C43.7751 44.9426 43.2678 46.2609 41.1377 46.2609C40.0217 46.2609 39.3118 45.9571 38.3988 45.6525V43.3193H39.1087C39.1087 45.0437 40.6305 45.2464 41.1377 45.2464C42.0507 45.2464 42.2538 44.638 42.2538 44.2327C42.2538 43.8261 42.2538 43.6239 41.9492 43.4204ZM33.5298 45.3483V46.0582H30.1821V45.3483C31.0951 45.2464 31.0951 44.8411 31.0951 44.3338V39.9716C31.0951 38.9571 30.9935 38.7545 30.1821 38.7545V38.1461C30.9935 38.0446 32.4138 37.9431 33.2252 37.9431C34.2397 37.9431 36.2683 38.1461 36.2683 40.1747C36.2683 40.8846 35.9641 41.798 35.1522 42.4064C35.7606 43.5224 36.4709 44.5369 36.8766 44.8415C37.2828 45.3488 37.5865 45.3488 38.0938 45.3488V45.9571C37.5865 46.1598 37.2823 46.1598 36.9777 46.1598C36.2678 46.1598 35.8617 45.856 35.5575 45.5514C35.2533 45.2468 34.3404 43.9281 33.732 42.9136H32.616V44.5369C32.6168 44.9422 32.7184 45.3483 33.5298 45.3483ZM26.936 43.5215H24.7043C24.6032 43.9277 24.2986 44.6376 24.2986 45.0433C24.2986 45.2459 24.3997 45.3479 24.907 45.3479V46.0578H22.3711V45.3479C22.8784 45.3479 22.9795 45.0433 23.1826 44.6371L25.6168 37.9422H26.4283L28.9645 44.7391C29.1672 45.2455 29.3703 45.3475 29.8775 45.3475V46.0574H26.936V45.3475C27.4432 45.3475 27.4432 45.2455 27.4432 45.144C27.4432 44.9422 27.2406 44.2323 26.936 43.5215ZM14.7632 45.3483V46.0582H11.8217V45.3483C12.5316 45.2464 12.6331 45.2464 12.7346 43.9277V39.3628C12.7346 38.9571 12.6335 38.8556 11.8217 38.7545V38.0442H14.3575L16.9949 43.725L19.4291 38.0442H22.0669V38.754C21.3566 38.8551 21.154 38.9567 21.154 39.0582C21.0524 39.2613 21.0524 39.7686 21.0524 40.0727V44.4349C21.0524 44.9422 21.2555 45.2459 22.0669 45.3483V46.0582H18.5166V45.3483C19.4296 45.3483 19.4296 45.2464 19.4296 44.4349V40.8846L17.1979 46.0582H16.285L13.7491 40.7835V44.3338C13.7487 45.1448 13.8502 45.2459 14.7632 45.3483ZM35.4573 64.8248H12.7342V57.7237C15.6762 57.7237 17.4006 54.5787 17.4006 51.6371V47.4776H30.7909V51.6371C30.7909 54.7822 32.6168 57.7237 35.4573 57.7237V64.8248ZM42.0511 65.2301L31.2982 47.4776H52.7021L42.0511 65.2301ZM71.2661 57.7237V64.8248H48.543V57.7237C51.3834 57.7237 53.209 54.7822 53.209 51.6371V47.4776H66.7013V51.6371C66.7017 54.5787 68.3237 57.7237 71.2661 57.7237ZM72.1795 46.0578H66.3966V45.3479C67.1065 45.3479 67.4112 45.2459 67.4112 43.1162V40.6815C67.4112 38.8556 67.1065 38.754 66.3966 38.754V38.1457H69.9465V38.754C69.7439 38.754 69.4393 38.754 69.2367 38.8552C69.1356 38.8552 69.034 38.9567 69.034 39.0582C69.034 39.1598 68.9329 39.3624 68.9329 39.7686V44.3334C68.9329 44.9417 69.034 45.1444 69.9465 45.1444C70.86 45.1444 71.3672 44.9417 71.5698 43.7246H72.1791L72.1795 46.0578Z" fill="#2B2B2D"/>
<path fill-rule="evenodd" clip-rule="evenodd" d="M33.2254 41.9995C34.0369 41.9995 34.7472 41.7969 34.7472 40.4778C34.7472 39.3617 34.0373 38.8545 33.2254 38.8545C33.1243 38.8545 32.9213 38.8545 32.6171 38.956V41.9995H33.2254ZM25.0083 42.5072H26.6316L25.8202 40.2751L25.0083 42.5072ZM55.2382 42.5072H56.76L55.9481 40.2751L55.2382 42.5072ZM74.2075 64.3169H75.0193V66.9547H75.3235V64.3169H76.338V64.0123H74.2075V64.3169ZM77.9609 66.4475L77.2514 64.0123H76.7437V66.9547H77.0479V64.5196L77.8598 66.9547H78.1635L78.9758 64.5196V66.9547H79.2795V64.0123H78.7723L77.9609 66.4475Z" fill="#2B2B2D"/>
</g>
<defs>
<clipPath id="clip0_495_6134">
<rect width="84" height="84" fill="white"/>
</clipPath>
</defs>
</svg>
