<svg width="84" height="84" viewBox="0 0 84 84" fill="none" xmlns="http://www.w3.org/2000/svg">
<g clip-path="url(#clip0_495_6112)">
<rect width="84" height="84" fill="white"/>
<path fill-rule="evenodd" clip-rule="evenodd" d="M0 0H84V84H0V0Z" fill="white"/>
<path fill-rule="evenodd" clip-rule="evenodd" d="M29.9971 19.2383H53.3459V23.1277C53.3459 23.5002 53.3015 24.2624 53.1468 25.2325L30.1771 25.0813C30.0393 24.1836 29.9975 23.4811 29.9975 23.1281L29.9971 19.2383Z" fill="#F7DFAB"/>
<path fill-rule="evenodd" clip-rule="evenodd" d="M53.3459 19.2129H29.9971V19.2652H53.3459V19.2129ZM30.181 25.1082L53.1424 25.2594C53.1451 25.242 53.1477 25.2245 53.1512 25.2071L30.1727 25.0559L30.181 25.1082Z" fill="#F7DFAB"/>
<path fill-rule="evenodd" clip-rule="evenodd" d="M29.9971 8.96289H53.3459V19.2382H29.9971V8.96289Z" fill="#A5333A"/>
<path fill-rule="evenodd" clip-rule="evenodd" d="M36.3398 25.2756C36.3398 25.2756 36.1136 24.4193 36.1136 23.9552C36.1136 23.6649 36.318 16.3512 36.318 16.3512C36.318 13.4035 38.7078 11.0137 41.6554 11.0137C44.6031 11.0137 46.9934 13.4031 46.9934 16.3512C46.9934 16.3512 47.1943 23.6741 47.1943 23.9595C47.1943 24.4193 46.9781 25.2756 46.9781 25.2756L53.2024 24.8642C52.9675 26.5485 52.3862 29.0229 51.0449 31.1626L41.6737 32.9388L32.3841 31.2707C30.96 29.0591 30.3608 26.4618 30.1294 24.7483L36.3398 25.2756Z" fill="white"/>
<path fill-rule="evenodd" clip-rule="evenodd" d="M41.6729 32.3232C41.6729 32.3232 42.1732 31.6325 42.6487 31.2512C43.2736 30.7487 44.6215 30.3918 45.7732 30.3849C46.1009 30.3827 50.5677 30.3844 51.4929 30.3849C51.0035 31.3092 50.3891 32.1977 49.6186 32.9682C45.2651 37.3221 41.6716 38.6404 41.6716 38.6404C41.6716 38.6404 38.0228 37.2498 33.7377 32.9647C32.969 32.196 32.355 31.3083 31.8647 30.3853C32.8161 30.3849 37.2467 30.3836 37.5726 30.3853C38.7236 30.3923 40.0719 30.7487 40.6968 31.2516C41.1722 31.6325 41.6729 32.3232 41.6729 32.3232Z" fill="#A5333A"/>
<path fill-rule="evenodd" clip-rule="evenodd" d="M42.5954 31.1846L42.5497 31.2221L42.5035 31.2617L42.4577 31.3027L42.4115 31.3445L42.3666 31.3872L42.3222 31.4308L42.2782 31.4757L42.2346 31.5206L42.1914 31.5654L42.1492 31.6108L42.1078 31.6565L42.0677 31.7014L42.028 31.7459L41.9897 31.7899L41.9531 31.833L41.9173 31.8753L41.8829 31.9167L41.8502 31.9563L41.8193 31.9947L41.7901 32.0313L41.7626 32.0662L41.7365 32.0988L41.7125 32.1289L41.6907 32.1572L41.6715 32.1825L41.6541 32.2056L41.6393 32.2252L41.6271 32.2418L41.6101 32.2644L41.604 32.2732L41.743 32.3738L41.7482 32.3664L41.7644 32.3438L41.7766 32.3281L41.791 32.3089L41.8079 32.2867L41.8271 32.2614L41.848 32.2344L41.8716 32.2043L41.8964 32.1721L41.9234 32.1381L41.9526 32.1023L41.9831 32.0649L42.0154 32.0256L42.0489 31.9851L42.0838 31.9437L42.12 31.9019L42.157 31.8587L42.1958 31.8152L42.235 31.7711L42.2755 31.7271L42.3165 31.6831L42.3579 31.6391L42.3997 31.5955L42.4433 31.5524L42.4856 31.5105L42.5292 31.4691L42.5723 31.4295L42.6159 31.3907L42.6595 31.3537L42.7026 31.3179L42.5954 31.1846Z" fill="white"/>
<path fill-rule="evenodd" clip-rule="evenodd" d="M45.7725 30.2988L45.6627 30.3006L45.552 30.3045L45.4396 30.3102L45.3276 30.3176L45.2151 30.3276L45.1018 30.3389L44.9885 30.352L44.8757 30.3672L44.7624 30.3847L44.6499 30.403L44.5375 30.4235L44.4268 30.4457L44.3161 30.4688L44.2063 30.4941L44.0982 30.5211L43.991 30.5494L43.8856 30.579L43.7827 30.6104L43.6803 30.6427L43.5801 30.6771L43.482 30.7124L43.387 30.7494L43.2942 30.7873L43.204 30.8266L43.116 30.8671L43.0319 30.9085L42.9504 30.9516L42.8719 30.9956L42.797 31.041L42.7264 31.0876L42.6593 31.1351L42.5952 31.1843L42.7024 31.3177L42.7604 31.2732L42.8218 31.2292L42.8889 31.1861L42.9587 31.1434L43.0319 31.102L43.1094 31.0615L43.1901 31.0214L43.2737 30.9826L43.3605 30.9447L43.4498 30.9081L43.5426 30.8728L43.6372 30.8388L43.7339 30.8056L43.8328 30.7743L43.9331 30.7433L44.0364 30.7146L44.1401 30.6871L44.2464 30.661L44.3527 30.6361L44.4608 30.6135L44.5689 30.5917L44.6787 30.5721L44.7885 30.5538L44.8992 30.5372L45.0099 30.5228L45.1197 30.5093L45.2304 30.498L45.3402 30.4888L45.45 30.481L45.5581 30.4758L45.6662 30.4718L45.7734 30.4705L45.7725 30.2988Z" fill="white"/>
<path fill-rule="evenodd" clip-rule="evenodd" d="M51.5378 30.2988H45.7719L45.7728 30.471L45.8212 30.4705H51.4476C51.4781 30.4139 51.5077 30.3564 51.5378 30.2988ZM37.574 30.2993H31.8203L31.9114 30.471H37.5247L37.5735 30.4714L37.574 30.2993Z" fill="white"/>
<path fill-rule="evenodd" clip-rule="evenodd" d="M40.7514 31.1843L40.6873 31.1351L40.6198 31.0876L40.5487 31.041L40.4742 30.9956L40.3958 30.9516L40.3143 30.9085L40.2297 30.8671L40.1421 30.8266L40.0519 30.7873L39.9591 30.7494L39.8637 30.7124L39.7656 30.6771L39.6658 30.6427L39.5639 30.6104L39.4601 30.579L39.3551 30.5494L39.2479 30.5211L39.1398 30.4941L39.03 30.4688L38.9198 30.4457L38.8082 30.4235L38.6962 30.403L38.5838 30.3847L38.4705 30.3672L38.358 30.352L38.2443 30.3389L38.131 30.3276L38.0186 30.3176L37.9061 30.3102L37.7946 30.3045L37.6834 30.3006L37.5736 30.2988L37.5728 30.4705L37.6795 30.4718L37.7876 30.4758L37.8961 30.481L38.0059 30.4888L38.1157 30.498L38.226 30.5093L38.3362 30.5228L38.4474 30.5372L38.5576 30.5538L38.6674 30.5721L38.7768 30.5917L38.8853 30.6135L38.9934 30.6361L39.1002 30.661L39.2056 30.6871L39.3102 30.7146L39.4126 30.7433L39.5137 30.7743L39.6122 30.8056L39.7094 30.8388L39.804 30.8728L39.8959 30.9081L39.9857 30.9447L40.0724 30.9826L40.1561 31.0214L40.2367 31.0615L40.3138 31.102L40.3875 31.1434L40.4576 31.1861L40.5243 31.2292L40.5862 31.2732L40.6437 31.3177L40.7514 31.1843Z" fill="white"/>
<path fill-rule="evenodd" clip-rule="evenodd" d="M41.6041 32.2732H41.7431L41.7366 32.2644L41.72 32.2418L41.7074 32.2252L41.6925 32.2056L41.6751 32.1825L41.6559 32.1572L41.6341 32.1289L41.6102 32.0988L41.5845 32.0662L41.557 32.0313L41.5274 31.9947L41.4964 31.9563L41.4633 31.9167L41.4293 31.8753L41.394 31.833L41.357 31.7899L41.3182 31.7459L41.2794 31.7014L41.2389 31.6565L41.1979 31.6108L41.1552 31.5654L41.1125 31.5206L41.0689 31.4757L41.0245 31.4308L40.9796 31.3872L40.9351 31.3445L40.889 31.3027L40.8436 31.2617L40.7974 31.2221L40.7517 31.1846L40.644 31.3179L40.6872 31.3537L40.7308 31.3907L40.7743 31.4295L40.8175 31.4691L40.8611 31.5105L40.9038 31.5524L40.9465 31.5955L40.9887 31.6391L41.0306 31.6831L41.0715 31.7271L41.1116 31.7711L41.1513 31.8152L41.1896 31.8587L41.2267 31.9019L41.2629 31.9437L41.2982 31.9851L41.3317 32.0256L41.3635 32.0649L41.394 32.1023L41.4228 32.1381L41.4502 32.1721L41.4751 32.2043L41.4986 32.2344L41.5195 32.2618L41.5391 32.2867L41.5557 32.3089L41.5705 32.3281L41.5823 32.3438L41.5988 32.3664L41.6041 32.3738L41.6734 32.4693L41.7431 32.3738L41.6041 32.2732Z" fill="white"/>
<path fill-rule="evenodd" clip-rule="evenodd" d="M41.673 31.1158C41.673 31.1158 42.2705 30.2669 43.0588 29.7893C44.0163 29.2089 45.3807 29.0786 46.0047 29.0786H54.8721L54.1927 27.5459H46.0888C44.9698 27.5459 44.0189 28.02 43.0118 28.794C42.2073 29.4132 41.6726 30.5009 41.6726 30.5009C41.6726 30.5009 41.1375 29.4132 40.333 28.794C39.3268 28.02 38.3759 27.5459 37.2559 27.5459H29.1525L28.4731 29.0786H37.34C37.9641 29.0786 39.3281 29.2089 40.2864 29.7893C41.0751 30.2669 41.673 31.1158 41.673 31.1158Z" fill="#1D7F67"/>
<path d="M41.6733 31.0726C41.7861 30.9188 42.3391 30.1958 43.0455 29.7674C43.4404 29.5282 43.9045 29.3647 44.3581 29.2554C44.8978 29.1267 45.4502 29.0587 46.0049 29.0527H54.8322L54.1759 27.5724H46.0891C45.5334 27.5724 45.0192 27.6905 44.5185 27.904C44.0173 28.1184 43.5293 28.4291 43.0281 28.8148C42.2284 29.4305 41.6977 30.5095 41.6959 30.5126L41.6728 30.5592L41.6493 30.5126C41.648 30.5095 41.1172 29.4305 40.3171 28.8148C39.8155 28.4291 39.3279 28.118 38.8271 27.904C38.3269 27.69 37.8126 27.5724 37.2566 27.5724H29.1706L28.5143 29.0527H37.3411C37.7107 29.0527 38.3382 29.0985 38.9884 29.2554C39.4416 29.3647 39.9053 29.5282 40.301 29.7674C41.0074 30.1962 41.5608 30.9192 41.6733 31.0726ZM41.6942 31.1319L41.6733 31.161L41.6519 31.1319C41.6502 31.1297 41.0575 30.2873 40.2735 29.8127C39.8831 29.5757 39.4242 29.414 38.9762 29.3064C38.4403 29.1787 37.8919 29.1113 37.3411 29.1055H28.4346L28.4507 29.0688L29.1301 27.5362L29.1371 27.5205H37.2575C37.8209 27.5205 38.3417 27.6395 38.8485 27.8565C39.354 28.0726 39.8456 28.386 40.3498 28.7743C41.0623 29.322 41.5626 30.2315 41.6737 30.4446C41.7848 30.2315 42.2851 29.3225 42.9976 28.7743C43.5022 28.386 43.9934 28.0726 44.4989 27.8565C45.0053 27.6395 45.526 27.5205 46.0895 27.5205H54.2103L54.2173 27.5362L54.8967 29.0688L54.9128 29.1055H46.0058C45.6389 29.1055 45.0162 29.1508 44.3708 29.3064C43.9232 29.4144 43.4643 29.5757 43.0734 29.8127C42.289 30.2873 41.6959 31.1297 41.6942 31.1319Z" fill="#1D7F67"/>
<path fill-rule="evenodd" clip-rule="evenodd" d="M37.8413 24.0532C37.8513 26.3188 39.5517 27.356 40.3396 27.6523C41.5328 28.1012 41.6731 29.1732 41.6731 29.1732C41.6731 29.1732 41.813 28.1012 43.0062 27.6523C43.7945 27.356 45.4653 26.3184 45.505 24.0532C45.5407 21.9976 45.3869 17.0519 45.3869 16.3533C45.3869 14.2994 43.7248 12.6125 41.6731 12.6221C39.6215 12.6313 37.9594 14.2999 37.9594 16.3533C37.9594 17.0514 37.8321 21.9971 37.8413 24.0532Z" fill="#ECB73B"/>
<path fill-rule="evenodd" clip-rule="evenodd" d="M38.8667 13.9151L39.0354 26.2483L39.3866 13.4192C39.1984 13.5674 39.0236 13.7334 38.8667 13.9151ZM40.4726 12.8261L40.6565 27.1774L41.0278 12.681C40.8393 12.715 40.6536 12.7635 40.4726 12.8261ZM44.4805 13.9099L44.3118 26.2478L43.9602 13.4109C44.1494 13.56 44.3237 13.7271 44.4805 13.9099ZM42.8755 12.8187L42.6916 27.1769L42.3194 12.6758C42.5103 12.7093 42.696 12.7573 42.8755 12.8187ZM41.6745 11.1675H42.1717V11.022L41.8087 10.35L41.7494 8.96289H41.5982L41.5403 10.35L41.1772 11.022V11.1675H41.6745ZM36.3557 20.4554V19.9582H36.2097L35.5382 20.3212L34.1511 20.3809V20.5317L35.5382 20.59L36.2097 20.9531H36.3557V20.4554ZM36.3008 22.9228V22.4256H36.1548L35.4833 22.7886L34.0962 22.8478V22.9991L35.4833 23.057L36.1548 23.4205H36.3008V22.9228ZM36.435 17.8795L36.4769 17.3844L36.3318 17.3718L35.6315 17.6773L34.2444 17.6197L34.2378 17.6947L34.2317 17.7705L35.6088 17.9448L36.2481 18.3628L36.3932 18.3754L36.435 17.8795ZM39.4886 11.6443L39.9392 11.4342L39.8777 11.3022L39.265 10.8468L38.6249 9.61439L38.5569 9.6462L38.488 9.67845L39.0214 10.9601L38.9765 11.7223L39.038 11.8548L39.4886 11.6443ZM37.6317 13.0383L37.9511 12.6575L37.8396 12.5642L37.0918 12.4104L35.9905 11.5641L35.9426 11.6212L35.8938 11.68L36.9188 12.6161L37.2003 13.326L37.3118 13.4197L37.6317 13.0383ZM36.5723 15.2325L36.7279 14.7601L36.5893 14.7144L35.8376 14.849L34.5015 14.4716L34.4779 14.5431L34.454 14.615L35.7535 15.1044L36.2786 15.6591L36.4167 15.7049L36.5723 15.2325ZM46.9906 20.4554V19.9582H47.1362L47.8077 20.3212L49.1952 20.3809V20.5317L47.8077 20.59L47.1362 20.9531H46.9906V20.4554ZM47.0451 22.9228V22.4256H47.1915L47.863 22.7886L49.2506 22.8478V22.9991L47.863 23.057L47.1915 23.4205H47.0451V22.9228ZM46.9113 17.8795L46.8699 17.3844L47.0154 17.3718L47.7149 17.6773L49.1024 17.6197L49.1081 17.6947L49.1151 17.7705L47.7371 17.9448L47.0987 18.3628L46.9531 18.3754L46.9113 17.8795ZM43.8578 11.6443L43.4072 11.4342L43.4686 11.3022L44.0813 10.8468L44.7215 9.61439L44.7895 9.6462L44.8588 9.67845L44.3249 10.9601L44.3698 11.7223L44.3088 11.8548L43.8578 11.6443ZM45.7146 13.0383L45.3948 12.6575L45.5072 12.5642L46.2546 12.4104L47.3558 11.5641L47.4033 11.6212L47.453 11.68L46.4271 12.6161L46.1465 13.326L46.0341 13.4197L45.7146 13.0383ZM46.7745 15.2325L46.6189 14.7601L46.7575 14.7144L47.5092 14.849L48.8444 14.4716L48.8684 14.5431L48.8919 14.615L47.5924 15.1044L47.0682 15.6591L46.9292 15.7049L46.7745 15.2325Z" fill="white"/>
<path fill-rule="evenodd" clip-rule="evenodd" d="M55.2214 23.4893L54.491 25.2686C54.491 25.2686 53.6391 25.6368 52.2755 25.6368C50.911 25.6368 51.027 25.5231 49.6338 25.5231C46.5868 25.5231 45.252 26.5637 45.252 26.5637C45.252 26.5637 45.91 25.1261 47.7102 24.3743C48.5844 24.0091 49.2856 23.9569 49.8007 23.9569C50.3158 23.9569 51.8502 24.193 52.7832 24.193C53.8373 24.1926 55.2214 23.4893 55.2214 23.4893Z" fill="#1D7F67"/>
<path d="M55.2086 23.4639L55.2479 23.5009L54.5184 25.2798L54.5031 25.2955C54.5005 25.2968 53.645 25.6663 52.2758 25.6663C51.5951 25.6663 51.2818 25.638 50.9685 25.6101C50.6516 25.5813 50.3344 25.553 49.6341 25.553C46.5962 25.553 45.2736 26.585 45.2701 26.5876L45.2266 26.5523C45.2283 26.5479 45.8881 25.1046 47.6983 24.3481C48.0795 24.187 48.478 24.0704 48.8858 24.0008C49.1883 23.9509 49.4944 23.9267 49.801 23.9284C50.0215 23.9284 50.4276 23.9716 50.8931 24.0208C51.5171 24.0866 52.2488 24.1642 52.7835 24.1642C53.8302 24.1637 55.2043 23.466 55.2086 23.4639ZM55.1659 23.5497C54.874 23.69 53.7061 24.2221 52.7826 24.2221C52.247 24.2221 51.5127 24.1441 50.8861 24.0779C50.4233 24.0291 50.0198 23.9859 49.8001 23.9859C49.5439 23.9859 49.241 23.999 48.8946 24.0574C48.4914 24.1263 48.0976 24.2417 47.721 24.4012C46.2171 25.0292 45.5172 26.1352 45.3312 26.4747C45.6868 26.2442 47.0429 25.4942 49.6336 25.4942C50.334 25.4942 50.6543 25.5229 50.9732 25.5517C51.2866 25.58 51.599 25.6079 52.2754 25.6079C53.547 25.6079 54.3676 25.2881 54.4687 25.2462L55.1659 23.5497Z" fill="#1D7F67"/>
<path fill-rule="evenodd" clip-rule="evenodd" d="M28.1279 23.4893L28.8579 25.2686C28.8579 25.2686 29.7098 25.6368 31.0738 25.6368C32.4378 25.6368 32.3219 25.5231 33.7151 25.5231C36.763 25.5231 38.0969 26.5637 38.0969 26.5637C38.0969 26.5637 37.4393 25.1261 35.6395 24.3743C34.9788 24.0925 34.2669 23.9503 33.5486 23.9569C33.0336 23.9569 31.4992 24.193 30.5661 24.193C29.5115 24.1926 28.1279 23.4893 28.1279 23.4893Z" fill="#1D7F67"/>
<path d="M28.1834 23.5497L28.8798 25.2467C28.9809 25.2881 29.8019 25.6084 31.0739 25.6084C31.7498 25.6084 32.0623 25.5805 32.3761 25.5521C32.6946 25.5234 33.0149 25.4946 33.7152 25.4946C36.3068 25.4946 37.6626 26.2446 38.0182 26.4751C37.8321 26.1357 37.1322 25.0301 35.6283 24.4017C35.2515 24.2422 34.8576 24.1269 34.4543 24.0578C34.1549 24.0084 33.8518 23.9845 33.5483 23.9864C33.3296 23.9864 32.9256 24.0295 32.4623 24.0783C31.8361 24.1446 31.1018 24.2226 30.5658 24.2226C29.6428 24.2221 28.4749 23.6896 28.1834 23.5497ZM28.1006 23.5009L28.1402 23.4639C28.1442 23.4656 29.5178 24.1633 30.5654 24.1633C31.1001 24.1633 31.8322 24.0857 32.4562 24.0199C32.9217 23.9707 33.3278 23.9275 33.5479 23.9275C33.8063 23.9275 34.1122 23.9411 34.4635 23.9999C34.8143 24.0587 35.2108 24.1637 35.6501 24.3472C37.4604 25.1033 38.1206 26.547 38.1223 26.5514L38.0787 26.5867C38.0748 26.5841 36.7526 25.5521 33.7148 25.5521C33.0145 25.5521 32.6968 25.5805 32.3804 25.6092C32.0667 25.6371 31.7542 25.6654 31.0731 25.6654C29.7025 25.6654 28.848 25.2959 28.8453 25.2946L28.8301 25.2789L28.1006 23.5009Z" fill="#1D7F67"/>
<path fill-rule="evenodd" clip-rule="evenodd" d="M4.60958 44.5557L8.16514 52.0961C8.21656 52.182 8.25099 52.2338 8.28498 52.2338C8.31941 52.2338 8.33684 52.182 8.37083 52.0961L11.6344 44.5557H14.4858V45.1057H13.7641C13.5065 45.1057 13.4721 45.1916 13.4721 45.4487V52.3371C13.4721 54.1748 13.4895 54.8795 14.2966 54.8795H14.915V55.4456H10.5868V54.8795H11.308C11.6344 54.8795 11.6514 54.7418 11.6514 54.3295V46.3425L7.88972 54.9135C7.76945 55.1714 7.6836 55.3253 7.59775 55.3253C7.52889 55.3253 7.46048 55.1884 7.3402 54.9475L3.59594 46.6684V51.7532C3.59594 54.0715 3.61337 54.8795 4.40345 54.8795H5.34823V55.4456H1.80966V54.8795H2.44504C2.85729 54.8795 2.92614 54.6215 2.92614 53.797V47.2354V46.9434C2.92614 45.535 2.89171 45.1057 1.92994 45.1057H1.41484V44.5557H4.60958ZM19.5548 44.5557V45.1057H18.902C18.5756 45.1057 18.5242 45.1916 18.5242 45.4317C18.5242 45.5345 18.5416 45.6557 18.5416 45.8265V51.5292C18.5416 53.8654 19.4005 54.9644 21.3755 54.9644C23.5396 54.9644 24.7249 53.6767 24.7249 51.2032V47.2872C24.7249 46.5316 24.6735 45.9816 24.5877 45.6557C24.4504 45.1397 24.3815 45.1227 23.9867 45.1227H23.2655V44.5557H26.5291V45.1227H25.807C25.4292 45.1227 25.4117 45.1916 25.4117 45.5864V51.1862C25.4117 54.1914 23.7972 55.755 20.7911 55.755C17.9742 55.755 16.6172 54.4154 16.6172 51.6669V47.3548C16.6172 45.5001 16.5483 45.1053 15.7927 45.1053H15.2771V44.5553L19.5548 44.5557ZM31.6356 44.5557C34.2982 44.5557 35.6723 45.7067 35.6723 47.6302C35.6723 48.884 34.7963 49.8806 33.2502 50.1896C33.9369 51.2872 34.6646 52.3587 35.4317 53.4017C36.1704 54.4154 36.3765 54.8795 37.0293 54.8795H37.3727V55.4456H35.2605C34.8652 55.4456 34.6591 55.4116 34.2812 54.9135C33.9548 54.4668 32.9931 53.0239 31.5846 50.5334C31.4643 50.5334 31.3441 50.5504 31.1724 50.5504C30.9662 50.5504 30.6913 50.5334 30.3823 50.5164V52.6461C30.3823 54.4158 30.4167 54.8795 31.1898 54.8795H31.86V55.4456H27.5144V54.8795H28.1498C28.5106 54.8795 28.5276 54.7588 28.5276 54.2946V47.3557C28.5276 45.5868 28.4762 45.1061 27.7031 45.1061H27.1876V44.5562L31.6356 44.5557ZM31.1545 49.9494C32.7865 49.9494 33.7483 49.0217 33.7483 47.7849C33.7483 46.2392 32.6144 45.1567 30.8281 45.1567C30.5191 45.1567 30.3814 45.2255 30.3814 45.4487V49.8976C30.6908 49.9325 30.9484 49.9494 31.1545 49.9494ZM37.5387 54.8795H38.1741C38.5349 54.8795 38.5519 54.7588 38.5519 54.2946V47.3557C38.5519 45.5698 38.5005 45.1061 37.7274 45.1061H37.2123V44.5392C37.3326 44.5562 38.0538 44.5732 39.325 44.5732C39.9604 44.5732 40.8023 44.5222 41.8155 44.5222C45.8518 44.5222 48.0333 46.4967 48.0333 49.7608C48.0333 51.4263 47.4153 52.9211 46.3159 53.9687C45.0621 55.1714 43.6885 55.4456 41.7471 55.4456C41.1801 55.4456 40.4589 55.4286 39.5486 55.4286C38.9646 55.4286 38.2948 55.4286 37.5387 55.4634V54.8795ZM40.4755 45.8265V52.8348C40.4755 54.5012 40.4929 54.8442 41.3004 54.8442H41.7127C44.4952 54.8442 46.0239 53.2466 46.0239 50.3443C46.0239 47.2519 44.1003 45.1916 41.3863 45.1916H40.8537C40.4929 45.1916 40.4755 45.3118 40.4755 45.8265ZM50.424 45.8953C51.5065 44.7789 52.9324 44.2119 54.7531 44.2119C57.9822 44.2119 60.0949 46.3934 60.0949 49.7773C60.0949 51.4259 59.477 52.9716 58.3775 54.1055C57.3299 55.188 55.8691 55.755 54.0663 55.755C50.8371 55.755 48.7236 53.5734 48.7236 50.1896C48.7236 48.558 49.3254 47.0293 50.424 45.8953ZM50.716 49.5198C50.716 52.9211 52.3824 55.1026 54.5979 55.1026C56.7625 55.1026 58.0851 53.4362 58.0851 50.4815C58.0851 47.0463 56.4186 44.8647 54.2201 44.8647C52.0564 44.8647 50.716 46.5482 50.716 49.5198ZM70.3637 46.0505C70.3298 46.3255 70.2439 46.4453 70.1236 46.4453C69.9175 46.4453 69.8996 46.2043 69.7458 45.8953C69.4878 45.3454 68.4921 44.8477 67.2374 44.8477C65.8978 44.8477 64.6101 45.5005 63.7681 46.6684C63.0644 47.6302 62.7035 48.7811 62.7035 50.0867C62.7035 53.1272 64.4894 55.1366 67.0147 55.1366C68.3892 55.1366 69.5571 54.5356 70.0029 53.797C70.192 53.471 70.2099 53.1272 70.4496 53.1272C70.5694 53.1272 70.6557 53.196 70.6557 53.3682C70.6557 53.4022 70.6387 53.454 70.6387 53.505L70.5019 54.9828C69.2258 55.5044 67.8604 55.7726 66.4818 55.7724C62.8408 55.7724 60.6763 53.746 60.6763 50.4985C60.6763 48.7297 61.3291 47.1844 62.5658 46.0505C63.8544 44.8817 65.503 44.2468 67.2039 44.2468C68.2345 44.2468 69.3166 44.4529 70.5019 44.8647L70.3637 46.0505ZM75.3574 44.5557V45.1057H74.7046C74.3777 45.1057 74.3438 45.2086 74.3438 45.5345V49.1585H79.1356V47.3548C79.1356 45.6029 79.1017 45.1053 78.3286 45.1053H77.7446V44.5553H82.0728V45.1053H81.437C81.0771 45.1053 81.0592 45.2251 81.0592 45.6034V52.6456C81.0592 54.4324 81.0941 54.879 81.8671 54.879H82.4681V55.4451H78.1229V54.879H78.7578C79.1186 54.879 79.1356 54.7583 79.1356 54.2942V49.8462H74.3438V52.6456C74.3438 54.4324 74.3777 54.879 75.1508 54.879H75.8036V55.4451H71.4066V54.879H72.0424C72.4023 54.879 72.4202 54.7583 72.4202 54.2942V47.3552C72.4202 45.5864 72.3683 45.1057 71.5953 45.1057H71.0802V44.5557H75.3574ZM3.79509 58.5152V58.8285H3.42294C3.23686 58.8285 3.20766 58.8769 3.20766 59.0142C3.20766 59.073 3.21725 59.1419 3.21725 59.2399V62.4896C3.21725 63.8218 3.70707 64.448 4.8327 64.448C6.0664 64.448 6.74187 63.7132 6.74187 62.3039V60.0714C6.74187 59.6408 6.71267 59.3275 6.66343 59.1419C6.58499 58.8482 6.54576 58.8381 6.32046 58.8381H5.90952V58.5157H7.76988V58.8381H7.3585C7.14323 58.8381 7.1332 58.8774 7.1332 59.1027V62.2935C7.1332 64.007 6.21326 64.8981 4.49976 64.8981C2.89389 64.8981 2.12081 64.1347 2.12081 62.5684V60.1102C2.12081 59.053 2.08159 58.8285 1.6506 58.8285H1.35732V58.5152H3.79509ZM13.198 58.5152L17.0652 62.9206V60.1494C17.0652 59.1807 17.036 58.8285 16.605 58.8285H16.174V58.5152H18.0343V58.8285H17.623C17.4665 58.8285 17.4565 58.8573 17.4565 58.985V64.6432C17.4565 64.7317 17.4565 64.7801 17.4077 64.7801C17.3685 64.7801 17.3292 64.7513 17.29 64.7016L12.7962 59.6696V63.1646C12.7962 64.0166 12.8747 64.3979 13.1876 64.3979H13.7846V64.7212H11.7678V64.3979H12.1495C12.3552 64.3979 12.404 64.3783 12.404 64.1434V59.9829C12.404 59.1898 12.2768 58.8281 11.7381 58.8281H11.5229V58.5148L13.198 58.5152ZM24.3746 58.5152V58.8285H24.0028C23.8168 58.8285 23.7876 58.8769 23.7876 59.0142C23.7876 59.073 23.7972 59.1419 23.7972 59.2399V63.1263C23.7972 64.1835 23.8264 64.3987 24.2573 64.3987H24.6295V64.7221H22.1233V64.3987H22.4854C22.6811 64.3987 22.7012 64.3504 22.7012 64.2031V60.1106C22.7012 59.0534 22.6619 58.829 22.2309 58.829H21.9372V58.5157H24.3746V58.5152ZM30.1993 58.5152V58.8482H29.7979C29.6802 58.8482 29.6314 58.8769 29.6314 58.9266C29.6314 58.9658 29.641 59.0247 29.6802 59.1122L31.3345 63.0282C31.3541 63.087 31.3641 63.1066 31.3737 63.1066C31.3833 63.1066 31.3933 63.0779 31.4129 63.0282L32.8327 59.6117C32.9303 59.3859 32.9695 59.2007 32.9695 59.083C32.9695 58.8965 32.8619 58.8482 32.6074 58.8482H32.2453V58.5152H34.1152V58.8482H33.8119C33.5962 58.8482 33.5866 58.9161 33.4986 59.1223L31.0804 64.7321C31.0508 64.8097 31.0316 64.8498 30.9723 64.8498C30.9139 64.8498 30.8939 64.8005 30.8647 64.7221L28.6422 59.514C28.4561 59.0639 28.3193 58.8486 28.0352 58.8486H27.7902V58.5157H30.1993V58.5152ZM42.0657 58.5152L41.948 59.3271C41.9284 59.4447 41.9088 59.494 41.8303 59.494C41.6935 59.494 41.6639 59.2491 41.4974 59.1218C41.3013 58.9745 40.7923 58.8673 39.9992 58.8673H39.3921C39.1768 58.8673 39.1668 58.9157 39.1668 59.0826V61.109H39.9891C40.8995 61.109 41.1544 61.0698 41.1544 60.6785V60.4043H41.4482V62.1074H41.1553V61.784C41.1553 61.4812 40.9396 61.4616 40.2445 61.4616H39.1677V63.0966C39.1677 64.1342 39.1873 64.3691 39.6279 64.3691H40.1661C40.7339 64.3691 41.2433 64.261 41.5758 64.1342C41.9184 63.9974 42.036 63.654 42.2217 63.654C42.2705 63.654 42.3197 63.7032 42.3197 63.752C42.3197 63.7717 42.3197 63.8109 42.3001 63.8797L42.0552 64.7217H37.4939V64.4083H37.856C38.0517 64.4083 38.0713 64.3395 38.0713 64.1538V60.1102C38.0713 59.0922 38.0421 58.8285 37.6015 58.8285H37.3078V58.5152H42.0657ZM48.4747 58.5152C49.9921 58.5152 50.7752 59.1706 50.7752 60.2671C50.7752 60.9822 50.2763 61.5496 49.3955 61.7261C49.7865 62.3519 50.2011 62.9625 50.6384 63.5568C51.0598 64.1347 51.177 64.3987 51.5492 64.3987H51.7449V64.7221H50.5404C50.3155 64.7221 50.1983 64.7025 49.983 64.4184C49.7965 64.1639 49.2483 63.3415 48.446 61.9217C48.3771 61.9217 48.3091 61.9318 48.2111 61.9318C48.0934 61.9318 47.937 61.9217 47.7609 61.9122V63.1258C47.7609 64.1342 47.7805 64.3983 48.2207 64.3983H48.6029V64.7217H46.1259V64.3983H46.4876C46.6937 64.3983 46.7037 64.3303 46.7037 64.0654V60.1102C46.7037 59.1027 46.6741 58.8285 46.2331 58.8285H45.9393V58.5152H48.4747ZM48.2006 61.5888C49.131 61.5888 49.6792 61.0602 49.6792 60.3555C49.6792 59.4748 49.0334 58.8573 48.0154 58.8573C47.8394 58.8573 47.7609 58.8965 47.7609 59.0242V61.5596C47.937 61.5797 48.0834 61.5888 48.2006 61.5888ZM58.4782 59.2399V59.2988C58.4782 59.3968 58.4586 59.4452 58.3801 59.4452C58.2625 59.4452 58.2237 59.3576 58.1356 59.2103C57.9195 58.8682 57.5669 58.7013 57.0488 58.7013C56.3337 58.7013 55.8051 59.1815 55.8051 59.7389C55.8051 60.2675 56.2552 60.5808 57.1072 60.9534C58.3012 61.4716 58.9279 61.9322 58.9279 62.8914C58.9279 63.9682 57.9395 64.9086 56.4313 64.9086C55.9615 64.9086 55.4133 64.8097 54.8551 64.5944L54.7282 63.7525C54.7282 63.7237 54.7182 63.7041 54.7182 63.6845C54.7182 63.5764 54.7675 63.5176 54.8359 63.5176C54.9339 63.5176 54.9832 63.6352 55.1004 63.8213C55.3941 64.3007 55.8543 64.526 56.5594 64.526C57.4013 64.526 57.9587 64.0562 57.9587 63.3999C57.9587 62.8417 57.6362 62.4408 56.9704 62.1562C56.2944 61.8729 55.7855 61.6768 55.4817 61.4123C55.12 61.0898 54.9335 60.7273 54.9335 60.2771C54.9335 59.151 55.8639 58.3287 57.2928 58.3287C57.665 58.3287 58.0467 58.3875 58.4385 58.5152L58.4782 59.2399ZM65.1461 58.5152V58.8285H64.7739C64.5883 58.8285 64.5587 58.8769 64.5587 59.0142C64.5587 59.073 64.5687 59.1419 64.5687 59.2399V63.1263C64.5687 64.1835 64.5974 64.3987 65.0284 64.3987H65.4006V64.7221H62.8948V64.3987H63.2565C63.4522 64.3987 63.4718 64.3504 63.4718 64.2031V60.1106C63.4718 59.0534 63.4326 58.829 63.002 58.829H62.7083V58.5157H65.1461V58.5152ZM74.0252 58.5152L74.2897 59.3375C74.3067 59.3746 74.3167 59.4145 74.3194 59.4552C74.3194 59.5337 74.2701 59.582 74.2017 59.582C74.0544 59.582 73.9956 59.3275 73.7607 59.1811C73.3981 58.9554 72.8407 58.8774 72.038 58.8678V63.1258C72.038 64.1438 72.0576 64.3983 72.4978 64.3983H73.0364V64.7217H70.0116V64.3983H70.7259C70.932 64.3983 70.9412 64.3303 70.9412 64.0654V58.8678C70.1188 58.8769 69.541 58.9658 69.1989 59.1903C68.9732 59.3375 68.9148 59.5816 68.7683 59.5816C68.6995 59.5816 68.6603 59.5332 68.6603 59.4548C68.6603 59.4251 68.6603 59.3859 68.6799 59.3371L68.954 58.5148L74.0252 58.5152ZM79.5536 58.5152V58.8285H79.123C79.025 58.8285 78.9757 58.8573 78.9757 58.907C78.9757 58.9357 78.9857 58.9854 79.0249 59.0534L80.3367 61.452C80.3663 61.5012 80.3759 61.5208 80.3859 61.5208C80.4055 61.5208 80.4343 61.4912 80.4643 61.4324L81.2958 59.8561C81.5407 59.3964 81.6296 59.073 81.6296 58.9658C81.6296 58.8678 81.512 58.829 81.2762 58.829H80.9433V58.5157H82.7648V58.829H82.5391C82.2755 58.829 82.2166 58.9466 82.0794 59.2011L80.5319 62.0106V63.1267C80.5319 64.1839 80.5711 64.3992 81.0017 64.3992H81.4518V64.7225H78.6327V64.3992H79.2202C79.4158 64.3992 79.4355 64.3508 79.4355 64.2035V62.0987L77.7808 59.1127C77.6736 58.927 77.5363 58.8294 77.3502 58.8294H77.0661V58.5161H79.5536V58.5152ZM2.66903 70.5769C3.46259 70.5769 3.90448 70.9625 3.90448 71.5635C3.90448 72.0842 3.4456 72.5379 2.68602 72.5379C2.53873 72.5379 2.36877 72.5148 2.16483 72.4699V73.2861C2.16483 73.9433 2.18749 74.0004 2.43719 74.0004H2.67513V74.1699H1.3486V74.0004H1.58088C1.68285 74.0004 1.69418 73.9664 1.69418 73.8701V71.4554C1.69418 70.8152 1.67152 70.7411 1.42225 70.7411H1.23486V70.5769H2.66903ZM2.58405 72.3675C3.08825 72.3675 3.41727 72.062 3.41727 71.5853C3.41727 71.1377 3.02071 70.7529 2.37444 70.7529C2.22714 70.7529 2.16483 70.7638 2.16483 70.837V72.2991C2.30602 72.3448 2.44242 72.3675 2.58405 72.3675ZM7.24041 70.5769L7.17242 71.0187C7.16676 71.0697 7.15543 71.1037 7.11011 71.1037C7.03079 71.1037 7.07611 70.9795 6.91749 70.8884C6.78152 70.8091 6.49826 70.7581 6.0847 70.7581H5.59706C5.48376 70.7581 5.47853 70.7812 5.47853 70.8662V72.0842H6.02805C6.61767 72.0842 6.75363 72.0502 6.75363 71.8406V71.6824H6.90093V72.6281H6.75363V72.4416C6.75363 72.2712 6.66866 72.2712 6.23767 72.2712H5.47853V73.2857C5.47853 73.9707 5.50642 73.9877 5.75046 73.9877H6.15879C6.54969 73.9877 6.87827 73.9028 6.99724 73.8522C7.20685 73.7611 7.23518 73.5968 7.32015 73.5968C7.34848 73.5968 7.37114 73.6199 7.37114 73.6478C7.37114 73.6531 7.36547 73.6818 7.35414 73.7271L7.22385 74.169H4.66231V73.9995H4.89458C4.96823 73.9995 5.00788 73.9825 5.00788 73.9084V71.4545C5.00788 70.8087 4.98522 70.7403 4.73552 70.7403H4.54857V70.576H7.24041V70.5769ZM9.41933 70.5769C10.2525 70.5769 10.6774 70.9512 10.6774 71.5635C10.6774 72.028 10.3772 72.3618 9.82199 72.4699C10.0667 72.8222 10.3181 73.1699 10.5759 73.5127C10.8478 73.8814 10.9045 74.0004 11.1198 74.0004H11.2557V74.1699H10.6722C10.4853 74.1699 10.4399 74.1019 10.253 73.8413C10.185 73.7511 9.89041 73.3144 9.36311 72.544C9.31779 72.544 9.27813 72.5492 9.24981 72.5492C9.1535 72.5492 9.05152 72.5383 8.94955 72.5322V73.2861C8.94955 73.9433 8.97788 74.0004 9.22148 74.0004H9.45942V74.1699H8.13899V74.0004H8.37126C8.47324 74.0004 8.48457 73.9664 8.48457 73.8701V71.4554C8.48457 70.8152 8.46191 70.7411 8.21264 70.7411H8.02525V70.5769H9.41933ZM9.22627 72.3788C9.86688 72.3788 10.2068 72.0733 10.2068 71.6197C10.2068 71.1207 9.84422 70.7581 9.16396 70.7581C9.01666 70.7581 8.94868 70.7642 8.94868 70.8662V72.3566C9.07898 72.3736 9.16962 72.3788 9.22627 72.3788ZM14.3533 70.5769L14.4892 70.9904C14.4992 71.0158 14.5049 71.0425 14.5062 71.0697C14.5062 71.0985 14.4836 71.1268 14.4609 71.1268C14.3759 71.1268 14.3759 70.9625 14.1097 70.8662C13.934 70.7982 13.6281 70.7642 13.1801 70.7581V73.2861C13.1801 73.9433 13.1971 74.0004 13.4464 74.0004H13.7641V74.1699H12.1661V74.0004H12.5966C12.6986 74.0004 12.7099 73.9664 12.7099 73.8701V70.7586C12.2563 70.7647 11.9451 70.8096 11.7747 70.8719C11.5198 70.9691 11.5085 71.1272 11.4348 71.1272C11.4201 71.1262 11.4062 71.1199 11.3958 71.1094C11.3853 71.0989 11.3791 71.0849 11.3782 71.0702C11.3782 71.0423 11.3838 71.0192 11.3952 70.9908L11.5311 70.5773L14.3533 70.5769ZM16.2964 70.5769V70.7411H16.0642C15.9622 70.7411 15.9509 70.7751 15.9509 70.8714V72.096H17.7755V71.455C17.7755 70.8148 17.7528 70.7407 17.5036 70.7407H17.3048V70.5764H18.5913V70.7407H18.3533C18.2514 70.7407 18.24 70.7747 18.24 70.871V73.2857C18.24 73.9485 18.2684 73.9999 18.512 73.9999H18.7216V74.1695H17.4238V73.9999H17.6617C17.7637 73.9999 17.7751 73.9659 17.7751 73.8696V72.3056H15.9504V73.2861C15.9504 73.9433 15.9731 74.0004 16.2224 74.0004H16.4603V74.1699H15.1346V74.0004H15.3669C15.4689 74.0004 15.4802 73.9664 15.4802 73.8701V71.4554C15.4802 70.8152 15.4576 70.7411 15.2078 70.7411H15.0213V70.5769H16.2964ZM19.784 74.9295C20.0106 74.7421 20.1183 74.566 20.1183 74.3847C20.1183 74.2544 20.0559 74.1695 19.9766 74.1695C19.9487 74.1695 19.9087 74.1812 19.8751 74.1812C19.75 74.1812 19.6655 74.0849 19.6655 73.9542C19.6655 73.813 19.7675 73.7106 19.9374 73.7106C20.1357 73.7106 20.3396 73.9259 20.3396 74.2435C20.3396 74.5612 20.181 74.8384 19.8694 75.0367L19.784 74.9295ZM24.0272 70.5769V70.7529H23.744C23.6873 70.7529 23.6533 70.7699 23.6533 70.7982C23.6533 70.8091 23.6533 70.8322 23.6703 70.8714L24.6678 73.3031C24.6792 73.3371 24.6848 73.3541 24.6905 73.3541C24.6905 73.3541 24.7018 73.3371 24.7132 73.3031L25.4444 71.4271L25.2178 70.9054C25.1498 70.7529 25.1045 70.7529 24.9738 70.7529H24.7925V70.5769H26.0902V70.7529H25.7787C25.7277 70.7529 25.6994 70.7699 25.6994 70.786C25.6994 70.7921 25.705 70.82 25.7277 70.8771L26.7025 73.365C26.7139 73.3929 26.7195 73.4103 26.7252 73.4103C26.7252 73.4103 26.7309 73.3933 26.7422 73.365L27.507 71.387C27.6033 71.1434 27.6599 70.9734 27.6599 70.871C27.6599 70.7808 27.609 70.7529 27.4503 70.7529H27.1954V70.5769H28.2326V70.7529H28.0569C27.9606 70.7529 27.938 70.8152 27.8983 70.9224L26.6232 74.1246C26.5949 74.1926 26.5722 74.2666 26.5609 74.2666C26.5496 74.2666 26.5269 74.1865 26.5042 74.1246L25.5464 71.699L24.5885 74.1076C24.5602 74.1817 24.5432 74.2666 24.5206 74.2666C24.5036 74.2666 24.4922 74.1865 24.4639 74.1185L23.2058 70.9795C23.1378 70.8035 23.0982 70.7529 22.9395 70.7529H22.7752V70.5769H24.0272ZM31.3458 70.5769L31.2778 71.0187C31.2722 71.0697 31.2608 71.1037 31.2155 71.1037C31.1362 71.1037 31.1815 70.9795 31.0229 70.8884C30.8869 70.8091 30.6037 70.7581 30.1897 70.7581H29.7025C29.5892 70.7581 29.5835 70.7812 29.5835 70.8662V72.0842H30.133C30.7226 72.0842 30.8586 72.0502 30.8586 71.8406V71.6824H31.0059V72.6281H30.8586V72.4416C30.8586 72.2712 30.7736 72.2712 30.3426 72.2712H29.5835V73.2857C29.5835 73.9707 29.6118 73.9877 29.8554 73.9877H30.2633C30.6542 73.9877 30.9832 73.9028 31.1022 73.8522C31.3118 73.7611 31.3401 73.5968 31.4251 73.5968C31.4534 73.5968 31.4761 73.6199 31.4761 73.6478C31.4761 73.6531 31.4704 73.6818 31.4591 73.7271L31.3288 74.169H28.7673V73.9995H28.9995C29.0732 73.9995 29.1128 73.9825 29.1128 73.9084V71.4545C29.1128 70.8087 29.0902 70.7403 28.8409 70.7403H28.654V70.576H31.3458V70.5769ZM34.1139 70.9564V71.0017C34.1139 71.0475 34.1082 71.0649 34.0629 71.0649C34.0006 71.0649 34.0063 70.9856 33.9383 70.9006C33.8363 70.7703 33.6093 70.6736 33.326 70.6736C32.8724 70.6736 32.5612 70.963 32.5612 71.3085C32.5612 71.6602 32.8445 71.8524 33.3491 72.0677C33.9893 72.3453 34.3688 72.5775 34.3688 73.1332C34.3688 73.745 33.8245 74.278 33.0258 74.278C32.7175 74.2764 32.4121 74.2186 32.1246 74.1076L32.0622 73.6487V73.6147C32.0622 73.5524 32.0849 73.5184 32.1189 73.5184C32.1816 73.5184 32.1755 73.6086 32.2492 73.7167C32.3908 73.9259 32.7028 74.0731 33.0767 74.0731C33.6319 74.0731 33.9775 73.7507 33.9775 73.348C33.9775 72.9061 33.6659 72.7131 33.1273 72.4926C32.5381 72.2481 32.1978 72.0219 32.1978 71.5173C32.1978 70.9512 32.7194 70.4697 33.4445 70.4697C33.6542 70.4697 33.8699 70.4919 34.1021 70.5769L34.1139 70.9564ZM37.9052 70.5769L38.0412 70.9904C38.0509 71.0158 38.0566 71.0426 38.0582 71.0697C38.0582 71.0985 38.0355 71.1268 38.0129 71.1268C37.9279 71.1268 37.9279 70.9625 37.6616 70.8662C37.486 70.7982 37.1801 70.7642 36.7321 70.7581V73.2861C36.7321 73.9433 36.7491 74.0004 36.9984 74.0004H37.316V74.1699H35.718V74.0004H36.1486C36.2506 74.0004 36.2619 73.9664 36.2619 73.8701V70.7586C35.8087 70.7647 35.4971 70.8096 35.3267 70.8719C35.0718 70.9691 35.0604 71.1272 34.9868 71.1272C34.972 71.1262 34.9581 71.1199 34.9477 71.1094C34.9373 71.0989 34.931 71.0849 34.9301 71.0702C34.9301 71.0423 34.9358 71.0192 34.9471 70.9908L35.0831 70.5773L37.9052 70.5769ZM41.2651 70.5769L41.1971 71.0187C41.1915 71.0697 41.1801 71.1037 41.1348 71.1037C41.0555 71.1037 41.1008 70.9795 40.9422 70.8884C40.8062 70.8091 40.5225 70.7581 40.109 70.7581H39.6213C39.508 70.7581 39.5024 70.7812 39.5024 70.8662V72.0842H40.0519C40.6415 72.0842 40.7775 72.0502 40.7775 71.8406V71.6824H40.9248V72.6281H40.7775V72.4416C40.7775 72.2712 40.6925 72.2712 40.2619 72.2712H39.5028V73.2857C39.5028 73.9707 39.5311 73.9877 39.7752 73.9877H40.1831C40.574 73.9877 40.903 73.9028 41.022 73.8522C41.2316 73.7611 41.2599 73.5968 41.3449 73.5968C41.3732 73.5968 41.3959 73.6199 41.3959 73.6478C41.3959 73.6531 41.3902 73.6818 41.3789 73.7271L41.2486 74.169H38.687V73.9995H38.9193C38.9929 73.9995 39.0326 73.9825 39.0326 73.9084V71.4545C39.0326 70.8087 39.0099 70.7403 38.7607 70.7403H38.5737V70.576H41.2651V70.5769ZM43.4436 70.5769C44.2768 70.5769 44.7017 70.9512 44.7017 71.5635C44.7017 72.028 44.4015 72.3618 43.8463 72.4699C44.0555 72.7702 44.3052 73.1218 44.5997 73.5127C44.8721 73.8814 44.9283 74.0004 45.1445 74.0004H45.28V74.1699H44.6969C44.5095 74.1699 44.4646 74.1019 44.2773 73.8413C44.2093 73.7511 43.9147 73.3144 43.387 72.544C43.3416 72.544 43.3029 72.5492 43.2737 72.5492C43.1773 72.5492 43.0754 72.5383 42.9734 72.5322V73.2861C42.9734 73.9433 43.0022 74.0004 43.2458 74.0004H43.4841V74.1699H42.1633V74.0004H42.3955C42.4975 74.0004 42.5097 73.9664 42.5097 73.8701V71.4554C42.5097 70.8152 42.4866 70.7411 42.2374 70.7411H42.0504V70.5769H43.4436ZM43.2514 72.3788C43.8916 72.3788 44.2319 72.0733 44.2319 71.6197C44.2319 71.1207 43.8685 70.7581 43.1891 70.7581C43.0409 70.7581 42.973 70.7642 42.973 70.8662V72.3566C43.1041 72.3736 43.1943 72.3788 43.2514 72.3788ZM46.3886 70.5769L48.7013 73.3541V71.4611C48.7013 70.9281 48.6843 70.7411 48.4229 70.7411H48.2024V70.5769H49.2391V70.7411H48.9898C48.8935 70.7411 48.8935 70.7751 48.8935 70.8832V74.1355C48.8935 74.1756 48.8935 74.1926 48.8765 74.1926C48.8656 74.1926 48.8486 74.1817 48.8255 74.1525L46.2527 71.1377V73.212C46.2527 73.779 46.3098 74.0004 46.5019 74.0004H46.8423V74.1699H45.6914V74.0004H45.9067C46.02 74.0004 46.0601 73.9716 46.0601 73.8413V71.3765C46.0601 70.895 46.0601 70.7416 45.7367 70.7416H45.5955V70.5773L46.3886 70.5769ZM55.1344 74.1695H53.8593V73.9999H54.1147C54.194 73.9999 54.2336 73.9938 54.2336 73.9598C54.2336 73.9537 54.2275 73.9198 54.2166 73.8805L53.8593 72.8089H52.5672L52.2957 73.5232C52.2325 73.6875 52.1994 73.7956 52.1994 73.8635C52.1994 73.9825 52.2504 73.9995 52.4199 73.9995H52.7145V74.169H51.5867V73.9995H51.7518C51.859 73.9995 51.893 73.9594 51.9331 73.8635L53.3385 70.5084L53.5991 70.4522C53.6392 70.4405 53.6732 70.4405 53.6902 70.4405C53.7294 70.4405 53.7525 70.4636 53.7525 70.4914C53.7525 70.5594 53.6335 70.5707 53.6335 70.6618C53.6335 70.7189 53.6444 70.7581 53.6566 70.786L54.6873 73.7337C54.7723 73.9773 54.8293 73.9999 54.9535 73.9999H55.1348L55.1344 74.1695ZM52.6413 72.6059H53.78L53.264 71.1325L52.6413 72.6059ZM56.8797 70.5769V70.7411H56.6474C56.5455 70.7411 56.5341 70.7751 56.5341 70.8601V72.883C56.5341 73.6592 56.8518 74.0387 57.5316 74.0387C58.2738 74.0387 58.6817 73.6138 58.6817 72.7697V71.5125C58.6817 70.7703 58.6194 70.7533 58.3984 70.7533H58.1892V70.5773H59.2491V70.7533H59.0168C58.8926 70.7533 58.8756 70.7703 58.8756 70.9006V72.7815C58.8756 73.229 58.8246 73.5467 58.5353 73.8531C58.2978 74.1015 57.8781 74.2719 57.4074 74.2719C56.9769 74.2719 56.603 74.1307 56.4047 73.9433C56.1092 73.6657 56.0644 73.3541 56.0644 72.9118V71.4554C56.0644 70.7865 56.0304 70.7411 55.7929 70.7411H55.6055V70.5769H56.8797ZM62.0311 70.9564V71.0017C62.0311 71.0475 62.025 71.0649 61.9801 71.0649C61.9178 71.0649 61.923 70.9856 61.8559 70.9006C61.754 70.7703 61.5265 70.6736 61.2441 70.6736C60.7904 70.6736 60.4788 70.963 60.4788 71.3085C60.4788 71.6602 60.7621 71.8524 61.2663 72.0677C61.9065 72.3453 62.2869 72.5775 62.2869 73.1332C62.2869 73.745 61.7422 74.278 60.9438 74.278C60.6356 74.2765 60.3302 74.2187 60.0426 74.1076L59.9803 73.6487V73.6147C59.9803 73.5524 60.0025 73.5184 60.0365 73.5184C60.0997 73.5184 60.0936 73.6086 60.1668 73.7167C60.3089 73.9259 60.6205 74.0731 60.9948 74.0731C61.5496 74.0731 61.8951 73.7507 61.8951 73.348C61.8951 72.9061 61.5836 72.7131 61.0449 72.4926C60.4557 72.2481 60.1154 72.0219 60.1154 71.5173C60.1154 70.9512 60.637 70.4697 61.3622 70.4697C61.5722 70.4697 61.7879 70.4919 62.0202 70.5769L62.0311 70.9564ZM65.822 70.5769L65.958 70.9904C65.9677 71.0158 65.9734 71.0426 65.975 71.0697C65.975 71.0985 65.9519 71.1268 65.9296 71.1268C65.8447 71.1268 65.8447 70.9625 65.578 70.8662C65.4019 70.7982 65.0964 70.7642 64.6484 70.7581V73.2861C64.6484 73.9433 64.6654 74.0004 64.9147 74.0004H65.2324V74.1699H63.6339V74.0004H64.0645C64.1665 74.0004 64.1778 73.9664 64.1778 73.8701V70.7586C63.725 70.7647 63.4125 70.8096 63.243 70.8719C62.9877 70.9691 62.9768 71.1272 62.9027 71.1272C62.8748 71.1272 62.8465 71.0994 62.8465 71.0702C62.8465 71.0423 62.8517 71.0192 62.8635 70.9908L62.999 70.5773L65.822 70.5769ZM67.8841 70.5769C68.7173 70.5769 69.1422 70.9512 69.1422 71.5635C69.1422 72.028 68.842 72.3618 68.2868 72.4699C68.496 72.7702 68.7457 73.1218 69.0403 73.5127C69.3126 73.8814 69.3688 74.0004 69.5841 74.0004H69.7201V74.1699H69.1361C68.9496 74.1699 68.9039 74.1019 68.7173 73.8413C68.6494 73.7511 68.3539 73.3144 67.827 72.544C67.7817 72.544 67.7421 72.5492 67.7137 72.5492C67.6174 72.5492 67.5155 72.5383 67.4135 72.5322V73.2861C67.4135 73.9433 67.4422 74.0004 67.6859 74.0004H67.9242V74.1699H66.6034V74.0004H66.8356C66.9376 74.0004 66.9489 73.9664 66.9489 73.8701V71.4554C66.9489 70.8152 66.9267 70.7411 66.6774 70.7411H66.4901V70.5769H67.8841ZM67.6919 72.3788C68.3321 72.3788 68.6716 72.0733 68.6716 71.6197C68.6716 71.1207 68.309 70.7581 67.6288 70.7581C67.4815 70.7581 67.4135 70.7642 67.4135 70.8662V72.3566C67.5438 72.3736 67.6349 72.3788 67.6919 72.3788ZM73.2892 74.1695H72.0132V73.9999H72.2686C72.3479 73.9999 72.3875 73.9938 72.3875 73.9598C72.3875 73.9537 72.3814 73.9198 72.3705 73.8805L72.0132 72.8089H70.7211L70.4496 73.5232C70.3873 73.6875 70.3533 73.7956 70.3533 73.8635C70.3533 73.9825 70.4043 73.9995 70.5738 73.9995H70.8692V74.169H69.7414V73.9995H69.9057C70.0129 73.9995 70.0469 73.9594 70.087 73.8635L71.4924 70.5084L71.753 70.4522C71.7931 70.4405 71.8271 70.4405 71.8441 70.4405C71.8833 70.4405 71.9064 70.4636 71.9064 70.4914C71.9064 70.5594 71.7874 70.5707 71.7874 70.6618C71.7868 70.7044 71.7946 70.7466 71.8105 70.786L72.842 73.7337C72.9261 73.9773 72.9832 73.9999 73.1074 73.9999H73.2896V74.1695H73.2892ZM70.7952 72.6059H71.9339L71.4179 71.1325L70.7952 72.6059ZM75.034 70.5769V70.7411H74.8018C74.6998 70.7411 74.6885 70.7751 74.6885 70.8601V73.2857C74.6885 73.9768 74.7286 73.9877 74.9377 73.9877H75.3687C75.7374 73.9877 76.0429 73.9254 76.2019 73.8635C76.4734 73.7616 76.4682 73.6029 76.5414 73.6029C76.5645 73.6029 76.5815 73.6252 76.5815 73.6592C76.5815 73.6653 76.5754 73.6931 76.5645 73.7441L76.4394 74.169H73.8722V73.9995H74.1045C74.2065 73.9995 74.2178 73.9655 74.2178 73.8805V71.4545C74.2178 70.7856 74.1838 70.7403 73.9463 70.7403H73.7589V70.576H75.034V70.5769ZM78.3268 70.5769V70.7411H78.0946C77.9926 70.7411 77.9804 70.7751 77.9804 70.8601V73.2857C77.9804 73.9707 78.0144 73.9999 78.2527 73.9999H78.4911V74.1695H77.165V73.9999H77.3973C77.4993 73.9999 77.5106 73.9712 77.5106 73.8858V71.4545C77.5106 70.7856 77.4766 70.7403 77.2382 70.7403H77.0508V70.576H78.3268V70.5769ZM82.4023 74.1695H81.1272V73.9999H81.3825C81.4619 73.9999 81.5015 73.9938 81.5015 73.9598C81.5015 73.9537 81.4954 73.9198 81.4845 73.8805L81.1272 72.8089H79.8351L79.5627 73.5232C79.5004 73.6875 79.4664 73.7956 79.4664 73.8635C79.4664 73.9825 79.5174 73.9995 79.6878 73.9995H79.9824V74.169H78.8546V73.9995H79.0189C79.1269 73.9995 79.1609 73.9594 79.201 73.8635L80.6064 70.5084L80.867 70.4522C80.9071 70.4405 80.9402 70.4405 80.9572 70.4405C80.9973 70.4405 81.0204 70.4636 81.0204 70.4914C81.0204 70.5594 80.9014 70.5707 80.9014 70.6618C80.9014 70.7189 80.9123 70.7581 80.9245 70.786L81.9552 73.7337C82.0401 73.9773 82.0972 73.9999 82.2214 73.9999H82.4027V74.1695H82.4023ZM79.9092 72.6059H81.0479L80.5319 71.1325L79.9092 72.6059Z" fill="black"/>
<path d="M1.28711 67.47L82.3495 67.3018V67.8683L1.28711 68.0369V67.47Z" fill="#A5333A"/>
</g>
<defs>
<clipPath id="clip0_495_6112">
<rect width="84" height="84" fill="white"/>
</clipPath>
</defs>
</svg>
