<svg width="84" height="84" viewBox="0 0 84 84" fill="none" xmlns="http://www.w3.org/2000/svg">
<g clip-path="url(#clip0_495_6034)">
<rect width="84" height="84" fill="white"/>
<path fill-rule="evenodd" clip-rule="evenodd" d="M0 0H84V84H0V0Z" fill="white"/>
<path fill-rule="evenodd" clip-rule="evenodd" d="M55.0472 33.2066C54.701 33.0455 54.335 32.9311 53.9587 32.8662C53.4298 32.7816 52.8924 32.7645 52.3593 32.8152C53.2095 30.6886 53.5329 28.443 53.5329 25.993V12.9443H30.5662V25.993C30.5662 28.443 30.9065 30.6886 31.7572 32.8152C31.2241 32.7645 30.6867 32.7816 30.1579 32.8662C29.7814 32.9311 29.4152 33.0455 29.0688 33.2066C29.2388 33.5299 29.3582 33.8698 29.4602 34.2956C29.6471 35.0268 29.6981 35.7585 29.5622 36.2518C29.5622 36.2518 30.7187 35.8095 31.8587 36.1328C31.8587 36.1328 30.8551 37.2899 30.5318 37.6982C30.2254 38.0895 30.2594 38.5148 30.4468 38.8378C30.4808 38.9057 30.5148 38.9567 30.5488 39.0251C31.5188 40.5051 32.5394 41.6451 33.9174 42.7171C35.099 43.6505 36.4348 44.37 37.8643 44.8433C40.5182 45.7105 43.5975 45.7105 46.2344 44.8433C47.6463 44.3835 48.9733 43.6697 50.1991 42.7171C51.4921 41.7131 52.4783 40.6415 53.3799 39.2801C53.4309 39.2121 53.4649 39.1441 53.5159 39.0761C53.7713 38.5828 53.9247 38.0895 53.4649 37.5788L53.3289 37.4084L52.2574 36.1324C53.3969 35.8091 54.5539 36.2514 54.5539 36.2514C54.418 35.7581 54.469 35.0264 54.6559 34.2951C54.7579 33.8698 54.8773 33.5299 55.0472 33.2066ZM35.7211 40.3007C34.8874 39.6374 33.9008 38.6334 33.1691 37.4938L33.9858 36.6946C34.3159 37.1112 34.6562 37.5196 35.0064 37.9196C37.6603 40.8289 40.5526 42.1388 41.6242 42.5472C40.6886 42.5132 39.753 42.3088 38.6984 41.9514C37.6433 41.5937 36.6397 41.0324 35.7211 40.3007ZM48.3959 40.3007C47.4768 41.0324 46.4732 41.5937 45.4186 41.951C44.364 42.3083 43.4279 42.5127 42.4923 42.5467C43.5639 42.138 46.4392 40.8284 49.0927 37.9191C49.4536 37.5235 49.8 37.1149 50.1312 36.6941L50.9474 37.4934C50.2153 38.6334 49.2291 39.6374 48.3959 40.3007Z" fill="#0C0E0F"/>
<path fill-rule="evenodd" clip-rule="evenodd" d="M42.0502 42.2912C42.0502 42.2912 38.4607 41.1852 35.2115 37.6296C31.9618 34.074 30.9072 30.3991 30.9072 26.0443V13.251H53.2102V26.0443C53.2102 30.3995 52.1386 34.074 48.906 37.6296C45.6572 41.1852 42.0502 42.2912 42.0502 42.2912Z" fill="#AD4246"/>
<path fill-rule="evenodd" clip-rule="evenodd" d="M45.5209 42.2919C46.6265 41.9175 47.6641 41.3388 48.6172 40.5736C49.6718 39.7399 50.9308 38.396 51.6624 36.95C51.7805 36.6951 51.8659 36.4227 51.9169 36.2354L52.1723 36.5757L53.0395 37.5963C53.0395 37.5963 53.1075 37.6813 53.1929 37.8003C53.4653 38.1236 53.4313 38.4979 53.2269 38.8718C53.1079 39.1102 52.785 39.5351 52.7 39.6545C51.9214 40.702 51.0059 41.6404 49.9781 42.4448C48.7876 43.363 47.4937 44.0612 46.1328 44.52C43.4832 45.3711 40.6336 45.3711 37.984 44.52C36.5928 44.0541 35.2922 43.3521 34.1391 42.4448C32.8801 41.4578 31.8935 40.4032 30.9409 38.9743C30.9069 38.9233 30.9069 38.9063 30.8899 38.8723C30.7025 38.5999 30.5836 38.209 30.8899 37.8347C31.1623 37.4773 31.8085 36.7287 32.0635 36.4397C32.1315 36.3548 32.1994 36.2354 32.1994 36.2354C32.1994 36.2354 32.2844 36.5923 32.3354 36.7117C32.4714 37.052 32.6418 37.3239 32.8797 37.6817C33.6114 38.8553 34.632 39.8933 35.4996 40.574C36.4527 41.3393 37.4903 41.9175 38.5789 42.2923C40.9783 43.0911 43.1224 43.0911 45.5209 42.2919Z" fill="#E6BD3C"/>
<path fill-rule="evenodd" clip-rule="evenodd" d="M50.7431 35.9291C50.9645 35.6572 51.2878 35.6232 51.4068 35.7082C51.5258 35.7932 51.5258 35.9121 51.5423 36.0311C51.5772 36.5074 51.1005 37.1711 51.1005 37.1711L50.3514 36.4225C50.5222 36.1845 50.5902 36.1161 50.7431 35.9291ZM52.2235 33.1562C52.7842 33.0999 53.3498 33.1113 53.9078 33.1902C54.1474 33.2219 54.3818 33.2849 54.605 33.3776C54.5031 33.6326 54.4177 33.9049 54.3335 34.2113C54.2146 34.7046 54.1462 35.1809 54.1462 35.5897C54.1462 35.6577 54.1462 35.7256 54.1632 35.7936C53.6524 35.6916 52.8362 35.5897 52.0361 35.8616C51.9511 35.7256 51.7637 35.5382 51.6448 35.4533C51.4243 35.3173 51.0499 35.3853 51.0499 35.3853C51.0499 35.3853 51.1009 35.3343 51.1179 35.3003C51.4922 34.6872 51.9511 33.8025 52.2235 33.1562ZM33.3562 35.9291C33.1523 35.6572 32.8289 35.6232 32.7099 35.7082C32.591 35.7932 32.574 35.9121 32.574 36.0311C32.54 36.5074 32.9993 37.1711 32.9993 37.1711L33.765 36.4225C33.5946 36.1845 33.5096 36.1161 33.3562 35.9291ZM31.8933 33.1562C31.349 33.1053 30.7707 33.1053 30.2094 33.1902C29.9697 33.222 29.7351 33.285 29.5117 33.3776C29.6137 33.6326 29.6987 33.9049 29.7841 34.2113C29.9031 34.7046 29.971 35.1809 29.971 35.5897C29.971 35.6577 29.971 35.7256 29.954 35.7936C30.4643 35.6916 31.281 35.5897 32.0807 35.8616C32.1656 35.7256 32.336 35.5382 32.472 35.4533C32.6929 35.3173 33.0503 35.3853 33.0503 35.3853C33.0503 35.3853 33.0163 35.3343 32.9993 35.3003C32.625 34.6872 32.1656 33.8025 31.8933 33.1562Z" fill="#E6BD3C"/>
<path fill-rule="evenodd" clip-rule="evenodd" d="M33.68 39.8077C33.731 39.7567 33.765 39.7228 33.8159 39.7228C33.8669 39.7228 33.9009 39.7058 33.9179 39.7058C33.9349 39.6888 33.9519 39.6548 33.9009 39.6208L33.714 39.4168C33.663 39.3828 33.646 39.3828 33.629 39.3998C33.612 39.4168 33.612 39.4678 33.612 39.5018C33.612 39.5528 33.578 39.6208 33.527 39.6722L32.8638 40.3529C32.8298 40.4039 32.7788 40.4379 32.7278 40.4379C32.6934 40.4549 32.6428 40.4549 32.6254 40.4719C32.6084 40.4889 32.6084 40.5059 32.6598 40.5568L32.8298 40.7438C32.8807 40.7948 32.8977 40.7778 32.9147 40.7608C32.9317 40.7608 32.9317 40.7098 32.9317 40.6588C32.9317 40.6078 32.9657 40.5738 33.0167 40.5229L33.68 39.8077ZM49.6375 41.1857C49.6885 41.0667 49.7395 40.9133 49.6205 40.7604C49.4846 40.5904 49.2972 40.5224 48.9908 40.7604L48.7703 40.9473C48.7193 40.9813 48.7193 41.0153 48.7363 41.0323C48.7524 41.0493 48.7873 41.0493 48.8204 41.0493C48.8714 41.0493 48.9224 41.0663 48.9738 41.1343L49.5695 41.8995C49.5909 41.9189 49.608 41.9426 49.6197 41.969C49.6314 41.9954 49.6375 42.024 49.6375 42.0529C49.6375 42.0869 49.6375 42.1379 49.6545 42.1549C49.6545 42.1719 49.6885 42.1719 49.7395 42.1379L49.9439 41.9675C50.2154 41.7635 50.2154 41.5082 50.0628 41.3042C50.0153 41.2399 49.9476 41.1933 49.8706 41.1718C49.7935 41.1504 49.7115 41.1552 49.6375 41.1857ZM49.0928 40.8623C49.1608 40.7943 49.2972 40.7434 49.4501 40.9303C49.6035 41.1347 49.4841 41.2367 49.4331 41.2877C49.4161 41.2877 49.3991 41.3046 49.3822 41.3046L49.1608 41.0153C49.1098 40.9643 49.0588 40.8963 49.0928 40.8623ZM49.8929 41.8324C49.8419 41.8664 49.8079 41.8494 49.7569 41.7814L49.4676 41.4071C49.4676 41.3901 49.4846 41.3731 49.5016 41.3731C49.5695 41.3216 49.7229 41.2707 49.8759 41.458C50.0293 41.645 49.9609 41.781 49.8929 41.8324Z" fill="#0C0E0F"/>
<path fill-rule="evenodd" clip-rule="evenodd" d="M32.8288 39.7564C32.9477 39.8074 33.1521 39.8753 33.3731 39.6714C33.5774 39.4844 33.5944 39.2121 33.3731 38.9907C33.2371 38.8547 33.1861 38.8203 33.1521 38.7528C33.1347 38.6848 33.1347 38.6508 33.1011 38.6168C33.1011 38.5658 33.0671 38.5828 33.0501 38.5828C33.0331 38.5998 33.0331 38.6508 33.0501 38.7018C33.0501 38.7358 33.0671 38.8037 33.0501 38.8717C33.0501 38.9397 33.0161 39.0077 32.8797 39.1611C32.7003 39.3557 32.5188 39.5484 32.3354 39.7394C32.2845 39.7904 32.2505 39.8243 32.1995 39.8413C32.1655 39.8413 32.1145 39.8413 32.0975 39.8583C32.0975 39.8753 32.0805 39.9093 32.1145 39.9433L32.3019 40.1647C32.3359 40.1987 32.3699 40.1987 32.3869 40.1817C32.3869 40.1647 32.4039 40.1137 32.4039 40.0797C32.4039 40.0117 32.4039 39.9947 32.4718 39.9098L32.7098 39.6544C32.7438 39.6884 32.7778 39.7224 32.8288 39.7564ZM33.1525 39.1946C33.2035 39.1437 33.2545 39.0927 33.2715 39.1097C33.3225 39.1437 33.4075 39.2796 33.2205 39.5006C33.0331 39.6879 32.9142 39.671 32.8462 39.6195C32.8252 39.6002 32.8079 39.5771 32.7952 39.5515L33.1525 39.1946ZM44.8398 44.3321C44.7888 44.299 44.7719 44.265 44.7549 44.1966L44.5675 43.2605C44.5505 43.1925 44.5505 43.1415 44.5675 43.1071C44.5853 43.0731 44.6023 43.0221 44.6023 43.0051C44.6023 42.9881 44.5853 42.9711 44.5174 42.9711L44.262 43.0391C44.211 43.0561 44.194 43.0731 44.211 43.0901C44.211 43.1241 44.245 43.1411 44.279 43.1751C44.313 43.1921 44.33 43.2431 44.347 43.3111L44.5505 44.2301C44.5676 44.2853 44.5676 44.3444 44.5505 44.3996C44.5344 44.4336 44.5004 44.4846 44.5004 44.5016C44.5174 44.5186 44.5344 44.5356 44.5853 44.5186L44.8398 44.4676C44.9078 44.4506 44.9078 44.4336 44.9078 44.3996C44.9078 44.3835 44.8568 44.3665 44.8398 44.3321ZM35.755 42.7336L36.2654 41.9505C36.3163 41.8826 36.3333 41.8486 36.3843 41.8316C36.4353 41.8146 36.4693 41.8146 36.4863 41.7976C36.5033 41.7806 36.5033 41.7466 36.4523 41.7126L36.2309 41.5766C36.1799 41.5426 36.1629 41.5426 36.1459 41.5596C36.1289 41.5766 36.1459 41.6276 36.1459 41.6786C36.1459 41.7296 36.129 41.7636 36.095 41.832L35.5677 42.6317C35.5337 42.6997 35.4997 42.7336 35.4487 42.7506C35.4147 42.7506 35.3637 42.7676 35.3637 42.7846C35.3467 42.8016 35.3467 42.8356 35.3977 42.8696L35.6186 43.0051C35.6696 43.0221 35.6866 43.0221 35.7036 43.0051C35.7206 42.9881 35.7036 42.9372 35.7036 42.9032C35.7041 42.8522 35.7211 42.8021 35.755 42.7336ZM50.59 41.2537C50.5347 41.2356 50.4869 41.1998 50.454 41.1517L49.8252 40.4201C49.7912 40.3691 49.7572 40.3181 49.7572 40.2667C49.7572 40.2327 49.7572 40.1817 49.7402 40.1647C49.7232 40.1477 49.7062 40.1303 49.6553 40.1817L49.4509 40.3521C49.4169 40.4031 49.4169 40.4201 49.4339 40.4371C49.4509 40.4541 49.5019 40.4711 49.5358 40.4711C49.5868 40.4711 49.6208 40.505 49.6718 40.573L50.2837 41.3047C50.3346 41.3557 50.3686 41.3897 50.3686 41.4577C50.3686 41.4917 50.3686 41.5426 50.3856 41.5596C50.3856 41.5766 50.4196 41.5766 50.4536 41.5426L50.658 41.3553C50.692 41.3213 50.692 41.2873 50.675 41.2703C50.675 41.2537 50.624 41.2537 50.59 41.2537ZM51.5261 40.2837C51.4751 40.2837 51.4241 40.2497 51.3727 40.1987L50.709 39.518C50.658 39.467 50.624 39.433 50.624 39.365C50.624 39.331 50.607 39.2801 50.607 39.2631C50.59 39.2461 50.556 39.2461 50.522 39.2801L50.3176 39.4844C50.2837 39.5354 50.2837 39.5694 50.3007 39.5864C50.3176 39.5864 50.3686 39.6034 50.4026 39.6034C50.4536 39.6034 50.5046 39.6374 50.556 39.6884L51.2197 40.3691C51.2707 40.4201 51.3047 40.4541 51.3047 40.505C51.3217 40.556 51.3217 40.607 51.3387 40.624C51.3557 40.641 51.3727 40.641 51.4237 40.59L51.6102 40.3856C51.6442 40.3516 51.6442 40.3177 51.6272 40.3007C51.6102 40.2837 51.5592 40.2837 51.5261 40.2837Z" fill="#0C0E0F"/>
<path fill-rule="evenodd" clip-rule="evenodd" d="M45.5715 42.9884C45.5544 42.9332 45.5544 42.8741 45.5715 42.8189C45.5885 42.7849 45.6055 42.7509 45.6055 42.7169C45.6055 42.6829 45.5885 42.6659 45.5205 42.6829L45.3501 42.7339C45.2991 42.7679 45.2822 42.7849 45.2991 42.8019C45.2991 42.8189 45.3331 42.852 45.3671 42.8699C45.4011 42.903 45.4181 42.9548 45.4351 43.0224L45.5885 43.6181C45.5885 43.6181 45.4181 43.3797 45.1797 43.1074C44.9074 42.8359 44.703 42.7679 44.618 42.7679C44.5339 42.7509 44.4485 42.7849 44.4485 42.8189C44.4485 42.852 44.4655 42.8359 44.5335 42.8699C44.6176 42.903 44.703 42.937 44.805 43.0394C44.856 43.1074 44.9069 43.2268 44.9069 43.2268L45.0773 44.1118C45.0944 44.1674 45.0944 44.2267 45.0773 44.2822C45.0433 44.3323 45.0433 44.3502 45.0433 44.3833C45.0433 44.4003 45.0603 44.4173 45.1113 44.4003L45.2987 44.3502C45.3497 44.3323 45.3667 44.3154 45.3497 44.2822C45.3497 44.2652 45.3157 44.2474 45.2817 44.2142C45.2477 44.1973 45.2307 44.1293 45.2137 44.0609L45.0603 43.3287C45.0943 43.3797 45.1283 43.4137 45.1793 43.4647C45.4687 43.822 45.6221 44.0264 45.673 44.0944C45.741 44.1794 45.775 44.2469 45.8264 44.2134C45.8604 44.1964 45.8434 44.1284 45.8434 44.0774L45.5715 42.9884ZM35.2617 41.0496C35.2957 41.0496 35.3467 41.0326 35.3637 41.0156C35.3807 40.9986 35.3807 40.9816 35.3297 40.9306L35.1937 40.8286C35.1428 40.7947 35.1258 40.7947 35.1088 40.8116V40.9136C35.1088 40.9646 35.0748 41.0156 35.0238 41.067L34.6495 41.5263C34.6495 41.5263 34.7344 41.237 34.8029 40.8801C34.8878 40.5227 34.8198 40.2843 34.7684 40.1994C34.7344 40.1314 34.6665 40.0804 34.6325 40.0974C34.5985 40.1144 34.6325 40.1144 34.6495 40.1994C34.6665 40.2674 34.6665 40.3528 34.6495 40.4547C34.6495 40.5567 34.5815 40.6251 34.5815 40.6251L33.9352 41.4074C33.8842 41.4583 33.8502 41.4923 33.7992 41.4923C33.7652 41.5093 33.7143 41.5093 33.7143 41.5263C33.6973 41.5433 33.6803 41.5773 33.7313 41.6113L33.8672 41.7303C33.9182 41.7643 33.9352 41.7643 33.9522 41.7473C33.9692 41.7303 33.9692 41.6793 33.9692 41.6453C33.9692 41.5943 34.0032 41.5433 34.0372 41.4923L34.5985 40.8291C34.5815 40.9141 34.5475 40.999 34.5305 41.084C34.4285 41.5433 34.3431 41.8157 34.3091 41.9007C34.2751 42.0026 34.2411 42.0711 34.3091 42.1051C34.3431 42.1221 34.3771 42.0711 34.4111 42.0201L35.1258 41.1524C35.1768 41.1006 35.2107 41.0666 35.2617 41.0496ZM44.3979 44.5027C44.33 44.4687 44.1936 44.2142 44.1426 44.1123C44.1086 44.0443 44.0746 43.9933 44.0576 43.9419C44.1426 43.8739 44.1936 43.7545 44.1936 43.6015C44.1766 43.3122 44.0232 43.1078 43.6488 43.1588L43.3765 43.1928C43.3255 43.1928 43.3085 43.2098 43.3255 43.2438C43.3255 43.2608 43.3595 43.2947 43.3935 43.3117C43.4275 43.3457 43.4275 43.3967 43.4445 43.4821L43.5634 44.3833C43.5634 44.4513 43.5634 44.5023 43.5464 44.5537C43.5294 44.5877 43.4954 44.6217 43.4954 44.6387C43.4954 44.6727 43.5124 44.6897 43.5804 44.6727L43.8358 44.6557C43.8868 44.6387 43.9038 44.6047 43.9038 44.5877C43.9038 44.5707 43.8528 44.5367 43.8358 44.5197C43.8018 44.4857 43.7848 44.4348 43.7678 44.3663L43.7338 44.0948C43.7678 44.0948 43.8188 44.0779 43.8528 44.0779C43.8868 44.1118 43.9378 44.1968 44.0062 44.3154C44.0912 44.4343 44.2106 44.5707 44.3125 44.6047C44.4315 44.6217 44.4829 44.5707 44.4829 44.5367C44.4829 44.4857 44.4829 44.5367 44.3979 44.5027ZM43.7168 43.9589L43.6658 43.4481C43.6488 43.3802 43.6488 43.2947 43.6658 43.2947C43.7168 43.2608 43.9042 43.2608 43.9552 43.5841C43.9892 43.8565 43.8702 43.9414 43.8018 43.9414C43.7852 43.9589 43.7508 43.9589 43.7168 43.9589ZM40.1103 43.0908L39.8379 43.0228C39.7699 43.0228 39.7699 43.0398 39.7529 43.0568C39.7529 43.0908 39.7873 43.1248 39.8039 43.1588C39.8209 43.2098 39.8379 43.2608 39.8209 43.3462L39.6849 44.2474C39.6679 44.3502 39.617 44.3833 39.583 44.4008C39.549 44.4178 39.515 44.4518 39.515 44.4687C39.515 44.5027 39.532 44.5197 39.583 44.5367L39.8553 44.5877C39.9913 44.6047 40.4336 44.6217 40.553 43.9249C40.6036 43.5675 40.5696 43.1758 40.1103 43.0908ZM40.2977 43.8229C40.2297 44.2827 40.0937 44.4687 39.9403 44.4348C39.8893 44.4178 39.8723 44.4178 39.8893 44.3507L40.0427 43.3802C40.0597 43.2612 40.0937 43.2268 40.1447 43.2442C40.3316 43.2608 40.3482 43.4991 40.2977 43.8229ZM41.1479 43.2098C40.9609 43.1928 40.6886 43.3972 40.6716 43.9759C40.6546 44.4857 40.8075 44.7581 41.0629 44.7581C41.2838 44.7751 41.5052 44.5367 41.5222 43.9929C41.5566 43.4481 41.3692 43.2268 41.1479 43.2098ZM41.2843 44.0269C41.2673 44.3833 41.1993 44.6557 41.0633 44.6387C40.9444 44.6217 40.8934 44.4173 40.9274 43.9245C40.9448 43.5157 41.0293 43.3457 41.1317 43.3627C41.3013 43.3632 41.3013 43.6695 41.2843 44.0269ZM42.2879 44.2822C42.2709 44.3323 42.2709 44.3838 42.2539 44.4518C42.2029 44.6051 42.1349 44.6561 42.0495 44.6391C41.9641 44.6221 41.8791 44.4687 41.8791 43.9763C41.8791 43.585 41.9471 43.3976 42.0325 43.3976C42.1345 43.3976 42.1685 43.585 42.1859 43.7039C42.2029 43.7549 42.2199 43.8059 42.2709 43.7889C42.2879 43.7889 42.3049 43.7719 42.3049 43.7209V43.3636C42.3049 43.2786 42.2709 43.2786 42.2369 43.2786C42.2199 43.2786 42.2199 43.3126 42.1689 43.2956C42.1519 43.2956 42.1009 43.2616 42.0329 43.2616C41.8286 43.2616 41.6246 43.483 41.6246 44.0447C41.6416 44.5546 41.795 44.793 42.0329 44.793C42.3053 44.81 42.3563 44.4526 42.3733 44.3332C42.3729 44.1973 42.3049 44.2142 42.2879 44.2822ZM43.1551 43.2098C43.105 43.2268 42.9516 43.2438 42.7986 43.2608H42.5093C42.4413 43.2778 42.3903 43.2947 42.3903 43.3457C42.3733 43.4137 42.3733 43.6011 42.3733 43.6351C42.3733 43.6691 42.3903 43.7031 42.4073 43.7031C42.4583 43.7031 42.4583 43.6521 42.4753 43.6011C42.4923 43.5501 42.5093 43.4307 42.6112 43.4307C42.6282 43.4307 42.6622 43.4137 42.7132 43.4137L42.7642 44.4513C42.7812 44.5363 42.7642 44.5703 42.7472 44.6217C42.7132 44.6557 42.6622 44.6897 42.6622 44.7067C42.6792 44.7577 42.6792 44.7577 42.7472 44.7577L43.0536 44.7407C43.1045 44.7237 43.1215 44.7067 43.1215 44.6897C43.1215 44.6557 43.0536 44.6387 43.0366 44.6047C43.0026 44.5707 42.9856 44.5197 42.9856 44.4513L42.9176 43.3967H43.0026C43.0867 43.3967 43.1215 43.4647 43.1385 43.5501C43.1385 43.6181 43.1547 43.6351 43.1895 43.6351C43.2226 43.6181 43.2396 43.5841 43.2396 43.5331V43.2947C43.2575 43.2438 43.2575 43.2098 43.1551 43.2098ZM35.755 41.4409C35.772 41.4579 35.806 41.4749 35.823 41.4919C35.891 41.5429 35.874 41.6279 35.823 41.6959C35.789 41.7468 35.789 41.7638 35.806 41.7808C35.84 41.7978 35.874 41.7808 35.908 41.7468L36.0784 41.5764C36.0954 41.5425 36.1124 41.5085 36.0444 41.4575C36.0104 41.4235 35.8744 41.3385 35.755 41.2535C35.6531 41.1856 35.5341 41.0831 35.4827 41.0491C35.4147 41.0152 35.4147 41.0322 35.3637 41.0661C35.3297 41.1001 35.2107 41.2365 35.1763 41.2701C35.1423 41.3045 35.1423 41.3381 35.1593 41.3551C35.1933 41.3725 35.2273 41.3551 35.2783 41.3211C35.3123 41.2871 35.4143 41.2021 35.4822 41.2531C35.4992 41.2701 35.5337 41.2871 35.5672 41.3211L34.9379 42.2057C34.904 42.2567 34.87 42.3077 34.819 42.3077C34.785 42.3247 34.717 42.3247 34.7 42.3417C34.683 42.3587 34.683 42.3757 34.734 42.4097L34.9889 42.5971C35.0399 42.631 35.0569 42.6141 35.0739 42.5971C35.0909 42.5631 35.0739 42.5291 35.0569 42.4781C35.0399 42.4271 35.0739 42.3931 35.1249 42.3247L35.755 41.4409ZM48.5828 42.7853C48.5488 42.7683 48.5148 42.7343 48.4638 42.6663L47.9021 41.7473C47.9361 41.7473 47.9531 41.7133 47.9701 41.7133C48.055 41.6623 48.1235 41.7133 48.1575 41.7813C48.2084 41.8492 48.2254 41.8492 48.2424 41.8323C48.2764 41.8153 48.2594 41.7813 48.2424 41.7303C48.2254 41.6963 48.1575 41.5433 48.1405 41.5089C48.1235 41.4579 48.1065 41.4239 48.0215 41.4749C47.9705 41.5089 47.8511 41.5939 47.7321 41.6789C47.6389 41.725 47.5483 41.7762 47.4606 41.8323C47.3927 41.8662 47.3927 41.9002 47.4258 41.9512C47.4428 42.0192 47.5277 42.1726 47.5447 42.2236C47.5617 42.2576 47.5957 42.2746 47.6127 42.2576C47.6467 42.2406 47.6297 42.1896 47.6127 42.1386C47.5957 42.0876 47.5787 41.9682 47.6467 41.9172C47.6637 41.9172 47.6977 41.9002 47.7317 41.8662L48.2934 42.7853C48.3253 42.8299 48.343 42.883 48.3444 42.9378C48.3444 42.9718 48.3104 43.0398 48.3274 43.0568C48.3444 43.0738 48.3614 43.0908 48.4124 43.0568L48.6678 42.9034C48.7187 42.8703 48.7187 42.8363 48.7018 42.8193C48.6843 42.8023 48.6342 42.8023 48.5828 42.7853ZM39.2256 42.8873C39.1134 42.8493 38.9999 42.8153 38.8853 42.7853C38.7663 42.7513 38.6303 42.7003 38.5789 42.6833C38.5109 42.6663 38.4769 42.6833 38.4599 42.7343C38.426 42.7853 38.358 42.9557 38.341 43.0058C38.324 43.0398 38.324 43.0568 38.358 43.0738C38.392 43.0738 38.426 43.0568 38.443 43.0058C38.4939 42.9378 38.5449 42.8524 38.6303 42.8703C38.6473 42.8873 38.6813 42.8873 38.7323 42.9034L38.409 43.9419C38.392 44.0099 38.358 44.0439 38.324 44.0779C38.2896 44.1118 38.222 44.1288 38.222 44.1458C38.222 44.1628 38.222 44.1968 38.273 44.2138L38.5624 44.2988C38.6303 44.2988 38.6473 44.2818 38.6473 44.2648C38.6643 44.2308 38.6133 44.1968 38.5964 44.1628C38.5794 44.1118 38.5964 44.0609 38.6133 43.9924L38.9367 42.9548C38.9707 42.971 39.0047 42.971 39.0047 42.988C39.1067 43.0049 39.1067 43.1069 39.0897 43.1923C39.0727 43.2603 39.0897 43.2773 39.1067 43.2773C39.1406 43.2943 39.1746 43.2603 39.1916 43.2093C39.2086 43.1753 39.2596 43.0219 39.2766 42.988C39.2936 42.9374 39.328 42.9204 39.2256 42.8873ZM51.968 39.7566C51.917 39.7566 51.866 39.7226 51.8146 39.6716L51.0663 38.889C51.0833 38.872 51.1003 38.838 51.1173 38.821C51.1683 38.753 51.2533 38.77 51.3217 38.838C51.3727 38.889 51.3897 38.872 51.4067 38.855C51.4237 38.838 51.4067 38.787 51.3727 38.753C51.3557 38.7186 51.2537 38.5996 51.2193 38.5656C51.1848 38.5316 51.1513 38.4976 51.1003 38.5656C51.032 38.6661 50.958 38.7627 50.8789 38.855C50.8109 38.94 50.7255 39.0424 50.6915 39.0764C50.6406 39.1443 50.6066 39.1783 50.6575 39.2467C50.6915 39.2977 50.8109 39.4507 50.8449 39.4847C50.8619 39.5017 50.8789 39.5187 50.9129 39.5017C50.9469 39.4677 50.9129 39.4337 50.8959 39.3827C50.8619 39.3317 50.7939 39.2123 50.8619 39.1448C50.8619 39.1278 50.8959 39.0938 50.9299 39.0598L51.6782 39.8425C51.7235 39.8849 51.7584 39.9372 51.7801 39.9954C51.7801 40.0464 51.7631 40.1144 51.7801 40.1144C51.7971 40.1314 51.8311 40.1488 51.8651 40.0974L52.0525 39.8595C52.1035 39.8085 52.0865 39.7745 52.0695 39.7575C52.0525 39.7405 52.0019 39.7566 51.968 39.7566Z" fill="#0C0E0F"/>
<path fill-rule="evenodd" clip-rule="evenodd" d="M33.8327 41.2363C33.8327 41.2023 33.7987 41.2023 33.7647 41.2023C33.7138 41.2193 33.6628 41.2193 33.5944 41.2193C33.4924 41.2023 33.3904 41.1003 33.322 41.0319C33.288 40.9979 33.305 40.9469 33.322 40.9299L33.6963 40.5046L33.8153 40.6236C33.8323 40.6406 33.8663 40.6915 33.8663 40.7255C33.8663 40.7765 33.8153 40.8275 33.8493 40.8615C33.9003 40.8955 33.9343 40.8445 34.0367 40.7255C34.1387 40.6066 34.1387 40.5896 34.1217 40.5556C34.0707 40.5382 34.0367 40.5726 33.9857 40.5726C33.9687 40.5726 33.9347 40.5726 33.9007 40.5216C33.8667 40.5046 33.8157 40.4536 33.7817 40.4196L34.0371 40.1303C34.0711 40.1133 34.1051 40.0623 34.1561 40.1133L34.2581 40.2157C34.309 40.2497 34.343 40.3006 34.326 40.3686C34.309 40.4196 34.292 40.4706 34.292 40.5046C34.309 40.5386 34.343 40.5556 34.377 40.5216C34.428 40.4706 34.513 40.3682 34.5474 40.3342C34.5644 40.3002 34.5814 40.2832 34.5304 40.2492C34.4284 40.1473 34.4284 40.1473 34.292 40.0283C34.1901 39.9263 34.0541 39.7733 34.0541 39.7733C34.0031 39.7394 33.9861 39.7394 33.9691 39.7564C33.9521 39.7734 33.9521 39.8243 33.9521 39.8583C33.9521 39.9093 33.9181 39.9603 33.8672 40.0113L33.2209 40.726C33.1529 40.794 33.1019 40.811 33.0505 40.811C33.0165 40.8279 32.9825 40.811 32.9655 40.8279C32.9485 40.8449 32.9485 40.8619 32.9825 40.9129L33.2035 41.1173L33.4244 41.3383C33.5264 41.4232 33.6118 41.4062 33.7308 41.3213C33.8157 41.2877 33.8327 41.2537 33.8327 41.2363ZM38.3069 42.9371C38.3409 42.87 38.3749 42.7506 38.3919 42.6996C38.4089 42.6656 38.4089 42.6317 38.3579 42.6147C38.205 42.5637 38.205 42.5637 38.0516 42.4957C37.9412 42.4568 37.8332 42.4114 37.7282 42.3597C37.6602 42.3427 37.6432 42.3597 37.6432 42.3767C37.6262 42.3937 37.6432 42.4447 37.6607 42.4787C37.6777 42.5297 37.6607 42.5807 37.6432 42.6491L37.3029 43.5503C37.2689 43.6353 37.1839 43.6523 37.1499 43.6693C37.1159 43.6863 37.0819 43.7032 37.0819 43.7202C37.0649 43.7372 37.0819 43.7712 37.1329 43.7882L37.4563 43.9242L37.7456 44.0262C37.8646 44.0772 37.933 44.0262 38.035 43.8902C38.103 43.8222 38.0864 43.8052 38.0694 43.7882C38.052 43.7542 38.035 43.7542 38.0014 43.7882C37.9675 43.8052 37.9165 43.8392 37.848 43.8562C37.7461 43.8902 37.6267 43.8392 37.5077 43.7882C37.4737 43.7712 37.4737 43.7202 37.4907 43.6863L37.6611 43.1925C37.7121 43.2095 37.7631 43.2435 37.8141 43.2435C37.848 43.2605 37.899 43.2775 37.916 43.3115C37.933 43.3455 37.899 43.4135 37.95 43.4305C37.984 43.4474 38.018 43.3795 38.069 43.2601C38.12 43.1241 38.12 43.1067 38.069 43.0897C38.0346 43.0727 38.001 43.1407 37.967 43.1577C37.933 43.1577 37.916 43.1576 37.865 43.1407C37.831 43.1237 37.7461 43.0897 37.7116 43.0727L37.8476 42.6992C37.8646 42.6652 37.8816 42.6142 37.9496 42.6312C38.0346 42.6652 38.2045 42.6992 38.2045 42.7846C38.2045 42.8517 38.2045 42.9371 38.2215 42.9711C38.2559 43.0056 38.2899 42.9881 38.3069 42.9371ZM32.1654 39.518C32.1654 39.518 32.6417 38.8547 32.7437 38.6843C32.8627 38.4974 32.9141 38.344 32.8971 38.225C32.8801 38.123 32.8291 38.0546 32.7951 38.072C32.7441 38.089 32.7781 38.123 32.7781 38.191C32.7563 38.2463 32.7393 38.3033 32.7271 38.3614C32.6927 38.4294 32.6082 38.4464 32.6082 38.4464L31.7061 38.8717C31.6517 38.8956 31.5947 38.9127 31.5361 38.9227C31.5022 38.9227 31.4512 38.9227 31.4342 38.9397C31.4172 38.9567 31.4002 38.9737 31.4342 39.0247L31.5361 39.1606C31.5701 39.1946 31.6041 39.1946 31.6211 39.1776C31.6381 39.1606 31.6381 39.1097 31.6551 39.0757C31.6551 39.0587 31.7061 39.0077 31.7741 38.9737L31.9275 38.9057L32.1484 39.2121C32.0974 39.297 32.0634 39.348 32.0634 39.348C32.0125 39.416 31.9785 39.45 31.9275 39.45C31.8931 39.467 31.8425 39.467 31.8255 39.4844C31.8081 39.5014 31.7911 39.5184 31.8255 39.5524L31.9785 39.7568C32.0125 39.8078 32.0465 39.7908 32.0634 39.7738C32.0804 39.7738 32.0804 39.7568 32.0804 39.7058C32.0974 39.6884 32.0974 39.62 32.1654 39.518ZM32.0295 38.8547L32.5568 38.6168C32.4718 38.7357 32.3358 38.9401 32.2334 39.1101L32.0295 38.8547ZM46.8644 43.6863C46.8474 43.6863 46.7964 43.6353 46.7454 43.5673C46.7454 43.5673 46.2517 42.887 46.1327 42.7681C46.0138 42.6321 45.8782 42.5467 45.7423 42.5127C45.6403 42.4957 45.5719 42.5127 45.5719 42.5467C45.5719 42.5977 45.6229 42.5807 45.6908 42.6147C45.7248 42.6317 45.7758 42.6656 45.8442 42.7166C45.9122 42.7846 45.9292 42.9201 45.9292 42.9201L45.9972 43.8392C45.9972 43.9412 45.9623 44.0266 45.9453 44.0436C45.9453 44.0776 45.9292 44.1116 45.9453 44.1286C45.9453 44.1456 45.9623 44.1626 46.0133 44.1456L46.2007 44.0776C46.2517 44.0606 46.2517 44.0436 46.2517 44.0096C46.2347 43.9926 46.2007 43.9756 46.1667 43.9586C46.1342 43.914 46.1163 43.8604 46.1157 43.8052L46.0987 43.6178L46.4391 43.4989C46.5071 43.5838 46.5411 43.6348 46.5411 43.6348C46.5921 43.7028 46.626 43.7368 46.609 43.7882C46.5921 43.8222 46.5751 43.8732 46.5921 43.8902C46.5921 43.9072 46.609 43.9242 46.66 43.9072L46.8984 43.8222C46.9494 43.8052 46.9494 43.7712 46.9494 43.7542C46.9324 43.7372 46.8984 43.7033 46.8644 43.6863ZM46.0983 43.4989L46.0643 42.9881C46.1493 43.1071 46.2687 43.2605 46.3707 43.3969L46.0983 43.4989ZM36.6396 41.7126C36.6056 41.7466 36.6566 41.7806 36.674 41.8486C36.691 41.8825 36.708 41.9675 36.708 42.0529C36.691 42.1379 36.6401 42.1719 36.6401 42.1719L35.9598 42.87C35.8918 42.9201 35.8238 42.955 35.8064 42.9711C35.7724 42.9881 35.7384 43.0051 35.7214 43.0221C35.7214 43.0391 35.7044 43.0731 35.7554 43.0901L35.9084 43.1751C35.9598 43.2091 35.9933 43.1921 35.9933 43.1751C36.0103 43.1581 35.9933 43.1071 35.9933 43.0731C35.9933 43.0391 36.0273 42.9881 36.0783 42.9371L36.1973 42.8016L36.5206 42.9881C36.5037 43.0901 36.4867 43.1585 36.4867 43.1585C36.4697 43.2265 36.4527 43.2775 36.4017 43.2945C36.3677 43.3115 36.3337 43.3285 36.3167 43.3455C36.2997 43.3625 36.2997 43.3965 36.3507 43.4305L36.5891 43.5324C36.64 43.5494 36.657 43.5494 36.674 43.5324C36.674 43.4984 36.674 43.4814 36.6566 43.4135V43.2601C36.6566 43.2601 36.844 42.4438 36.861 42.2904C36.895 42.1031 36.861 41.9501 36.793 41.8311C36.7416 41.7296 36.674 41.6956 36.6396 41.7126ZM36.5376 42.87L36.2823 42.7166L36.6566 42.3423C36.6231 42.4957 36.5716 42.6996 36.5376 42.87ZM49.5353 42.1209C49.5183 42.1209 49.4504 42.0869 49.3819 42.0359C49.3819 42.0359 48.7701 41.5256 48.6337 41.4237C48.4973 41.3217 48.3443 41.2703 48.2079 41.2877C48.106 41.3047 48.0375 41.3387 48.0375 41.3727C48.0545 41.4237 48.1055 41.3897 48.1565 41.4067C48.2246 41.4087 48.2903 41.4325 48.3439 41.4746C48.4289 41.5086 48.4629 41.6276 48.4629 41.6276L48.7182 42.5127C48.7352 42.5977 48.7352 42.6661 48.7352 42.6831C48.7352 42.7341 48.7182 42.7681 48.7514 42.7851C48.7514 42.802 48.7862 42.819 48.8193 42.7851L48.9727 42.7001C49.0237 42.6491 49.0237 42.6321 49.0067 42.6151C48.9897 42.5981 48.9387 42.5811 48.9048 42.5641C48.8878 42.5641 48.8546 42.5301 48.8198 42.4281L48.7867 42.2748L49.0921 42.0534C49.1601 42.1214 49.2111 42.1553 49.2111 42.1553C49.2791 42.2063 49.3131 42.2403 49.3131 42.2913V42.4103C49.3301 42.4273 49.3471 42.4273 49.3981 42.3933L49.6024 42.2399C49.6364 42.2059 49.6364 42.1889 49.6364 42.1719C49.6203 42.1549 49.5693 42.1379 49.5353 42.1209ZM48.7522 42.1549L48.5997 41.6616C48.7187 41.7466 48.8712 41.8655 48.9902 41.968L48.7522 42.1549ZM51.1007 40.3516C51.0667 40.3516 51.0497 40.3686 51.0497 40.4196C51.0667 40.4536 51.0837 40.5386 51.0837 40.624C51.0667 40.726 51.0327 40.777 50.9647 40.8619C50.9307 40.8959 50.8967 40.8959 50.8627 40.8449L50.1999 40.0797C50.148 40.0287 50.1149 39.9777 50.1149 39.9263C50.1149 39.8923 50.1149 39.8413 50.0979 39.8243C50.0809 39.8073 50.0639 39.7903 50.013 39.8413L49.8256 40.0113C49.7916 40.0623 49.7916 40.0793 49.8086 40.0963C49.8384 40.1176 49.8739 40.1294 49.9105 40.1303C49.9615 40.1303 49.9955 40.1647 50.0465 40.2322L50.6584 40.9469C50.7093 40.9979 50.7433 41.0319 50.7433 41.1003C50.7433 41.1343 50.7433 41.1853 50.7603 41.2023C50.7773 41.2193 50.7943 41.2193 50.8453 41.1853L51.0327 40.9979L51.2201 40.811C51.3221 40.692 51.2201 40.5386 51.1691 40.4196C51.1347 40.3516 51.1007 40.3516 51.1007 40.3516Z" fill="#0C0E0F"/>
<path fill-rule="evenodd" clip-rule="evenodd" d="M31.7744 38.7019C31.9104 38.5485 31.9278 38.4126 31.9278 38.1572C31.9448 37.9533 31.9278 37.7663 32.0298 37.6639C32.0978 37.5959 32.2172 37.5789 32.2681 37.6639C32.3361 37.7489 32.2681 37.9018 32.2512 37.9533C32.2342 38.0212 32.2002 38.0552 32.2512 38.0892C32.2851 38.1062 32.3021 38.0722 32.3361 38.0378C32.3871 37.9868 32.4721 37.8848 32.5231 37.8338C32.5401 37.7994 32.5741 37.7659 32.5401 37.7319C32.5231 37.7149 32.4891 37.7489 32.4551 37.6979C32.4211 37.6639 32.3871 37.5959 32.3531 37.5445C32.2681 37.4425 32.0128 37.3911 31.8428 37.5615C31.6729 37.7319 31.7069 37.9018 31.7069 38.1568C31.7069 38.4121 31.6559 38.4971 31.6049 38.5651C31.5199 38.6501 31.3835 38.6841 31.2985 38.5825C31.2136 38.4806 31.2645 38.3442 31.2815 38.2932C31.3155 38.2082 31.4349 38.1058 31.3665 38.0722C31.3155 38.0548 31.2136 38.1402 31.1456 38.2252C31.0776 38.3102 30.9586 38.3956 30.9922 38.4466C31.0266 38.4806 31.0602 38.4466 31.1111 38.4806C31.1451 38.5315 31.0941 38.5655 31.2301 38.7185C31.3491 38.8549 31.6214 38.8719 31.7744 38.7019ZM47.4605 42.5978C47.2901 42.5469 47.1201 42.5129 47.0517 42.3765C47.0007 42.2915 47.0177 42.1891 47.1027 42.1551C47.2046 42.1041 47.3071 42.2061 47.3572 42.2401C47.4082 42.2571 47.4252 42.291 47.4761 42.2741C47.5101 42.2401 47.4761 42.2061 47.4422 42.1551C47.4011 42.0843 47.3558 42.0161 47.3066 41.9507C47.2896 41.9167 47.2556 41.8827 47.2216 41.8997C47.2047 41.9167 47.2216 41.9507 47.1707 41.9847C47.1367 42.0017 47.0687 42.0187 47.0173 42.0527C46.8983 42.1037 46.7789 42.325 46.9153 42.5464C47.0343 42.7508 47.1877 42.7508 47.4252 42.8188C47.6635 42.8698 47.7145 42.9369 47.7655 43.0053C47.8165 43.1073 47.8165 43.2437 47.7145 43.3117C47.5955 43.3626 47.4931 43.2947 47.4252 43.2607C47.3742 43.2267 47.341 43.1247 47.2896 43.1757C47.2386 43.2097 47.3236 43.3291 47.3567 43.3801C47.3916 43.4311 47.4596 43.6015 47.5101 43.5845C47.5781 43.5505 47.5271 43.5165 47.5781 43.4825C47.6291 43.4485 47.6631 43.4995 47.8165 43.4145C47.9699 43.3295 48.0379 43.0742 47.9355 42.8876C47.8344 42.6828 47.664 42.6318 47.4605 42.5978ZM52.6663 38.8379H52.6323C52.6153 38.8379 52.5644 38.8209 52.4789 38.7869C52.4789 38.7869 51.7808 38.396 51.6449 38.3276C51.4583 38.2596 51.3394 38.2426 51.203 38.2936C51.118 38.3276 51.067 38.3786 51.084 38.4126C51.101 38.4636 51.152 38.4126 51.203 38.4126C51.254 38.4126 51.3219 38.4126 51.4413 38.4636C51.4923 38.481 51.5424 38.5655 51.5424 38.5655L52.0022 39.4332C52.0532 39.5352 52.0702 39.6031 52.0702 39.6201C52.0702 39.6541 52.0872 39.7051 52.1042 39.7221C52.1212 39.7391 52.1382 39.7391 52.1722 39.7051L52.2741 39.5691C52.3081 39.5182 52.3081 39.4842 52.2911 39.4672C52.2741 39.4502 52.2231 39.4672 52.1891 39.4502C52.1722 39.4502 52.1212 39.3992 52.1042 39.3482L51.9852 39.1443L52.2066 38.8719C52.2916 38.9059 52.36 38.9399 52.36 38.9399C52.411 38.9909 52.462 39.0079 52.462 39.0588C52.4789 39.0928 52.4789 39.1438 52.4959 39.1608C52.5129 39.1778 52.5299 39.1948 52.5639 39.1438L52.7173 38.9394C52.8023 38.8379 52.7003 38.8379 52.6663 38.8379ZM52.7343 38.9059C52.7343 38.9059 52.7513 38.9059 52.7513 38.8889C52.7853 38.8549 52.7513 38.8209 52.7853 38.7699C52.8193 38.7189 52.8703 38.7359 52.9548 38.617C53.0577 38.481 53.0398 38.1916 52.8877 38.0382C52.7173 37.8853 52.5474 37.8853 52.36 37.9193C52.1726 37.9363 52.0026 37.9703 51.9002 37.8513C51.8322 37.7833 51.7983 37.6639 51.8662 37.5959C51.9512 37.5109 52.0876 37.5789 52.1386 37.5789C52.1896 37.5959 52.2236 37.6299 52.2576 37.5789C52.2916 37.5449 52.2406 37.5109 52.2066 37.4769C52.1556 37.443 52.0362 37.3235 52.0022 37.307C51.9682 37.29 51.9342 37.256 51.9172 37.29C51.9002 37.324 51.9172 37.341 51.8832 37.392C51.8492 37.4264 51.7982 37.4769 51.7643 37.5279C51.6793 37.6299 51.6283 37.8853 51.8322 38.0727C52.0026 38.2426 52.1556 38.1916 52.394 38.1576C52.6153 38.1406 52.6833 38.1746 52.7683 38.2426C52.8533 38.3276 52.8873 38.4636 52.8023 38.566C52.7513 38.6339 52.6319 38.617 52.5639 38.6C52.5129 38.583 52.445 38.498 52.4105 38.566C52.3765 38.6339 52.4785 38.6849 52.5295 38.7534C52.5635 38.7873 52.6315 38.8553 52.6829 38.8893C52.7003 38.8889 52.7173 38.9059 52.7343 38.9059ZM51.9342 39.0418L51.6788 38.5825C51.7978 38.6505 51.9682 38.7355 52.1046 38.8035L51.9342 39.0418ZM34.4628 16.8408V26.7083C34.4628 29.4812 35.3644 32.1011 36.9127 34.0918C39.8556 37.8687 42.0506 38.311 42.0506 38.311C42.0506 38.311 44.2627 37.8687 47.189 34.0918C48.7534 32.1015 49.6385 29.4812 49.6385 26.7083V16.8408H34.4628Z" fill="#0C0E0F"/>
<path fill-rule="evenodd" clip-rule="evenodd" d="M49.3143 18.9837L43.8025 26.1799L48.1747 31.879C47.8343 32.5767 47.4426 33.223 46.9671 33.8187C46.8481 33.9887 46.7287 34.1421 46.5928 34.295L42.0502 28.3749L37.5076 34.2955C37.3886 34.1421 37.2526 33.9891 37.1332 33.8191C36.6739 33.2234 36.2656 32.5772 35.9427 31.8795L40.3149 26.1803L34.7856 18.9668V17.1465H36.8103L42.0502 23.9852L47.2905 17.1465H49.3147L49.3143 18.9837Z" fill="#2C5B8D"/>
<path fill-rule="evenodd" clip-rule="evenodd" d="M46.8647 17.1465H37.2356L42.0502 23.424L46.8647 17.1465ZM34.7856 19.4775V26.7416C34.7856 28.4429 35.143 30.0928 35.7893 31.5561L39.9231 26.1803L34.7856 19.4775ZM37.7289 34.5504C40.2299 37.4932 42.0502 37.851 42.0502 37.851C42.0502 37.851 43.8704 37.4937 46.3714 34.5504L42.0502 28.9192L37.7289 34.5504ZM44.1938 26.1803L48.3106 31.5561C48.9565 30.0932 49.3143 28.4429 49.3143 26.7416V19.4945L44.1938 26.1803Z" fill="#E6BD3C"/>
<path fill-rule="evenodd" clip-rule="evenodd" d="M37.6263 26.4363C37.2354 26.7257 37.218 27.0996 37.218 27.321C37.201 27.406 37.0476 27.5249 37.0646 27.253C37.0816 27.0826 37.1836 26.7597 37.252 26.6403C37.252 26.6403 37.0986 26.7253 37.0646 26.6577C37.0306 26.5727 37.1326 26.3854 37.1666 26.3004C37.1326 26.3004 37.0986 26.2664 37.0816 26.2324C37.2176 26.2154 37.3195 26.1474 37.371 26.0794C37.4899 26.1814 37.6943 26.2494 37.7623 26.1814C37.8473 26.1304 37.8643 25.9265 37.7793 25.7731C37.9153 25.7221 38.0517 25.5687 38.1366 25.3138C38.2046 25.0758 38.2046 24.8714 38.1196 24.752C38.2556 24.684 38.3746 24.4971 38.3406 24.4117C38.3236 24.3267 38.1196 24.2417 37.9667 24.2757C37.9667 24.1223 37.8477 23.9524 37.6263 23.7994C37.4224 23.646 37.218 23.595 37.082 23.629C37.065 23.4756 36.9291 23.3057 36.8267 23.3057C36.7417 23.3057 36.6057 23.4756 36.5887 23.629C36.4353 23.595 36.2484 23.646 36.027 23.7994C35.8231 23.9524 35.7037 24.1223 35.7037 24.2757C35.5503 24.2417 35.3463 24.3267 35.3293 24.4117C35.2953 24.4967 35.4143 24.684 35.5503 24.752C35.4653 24.871 35.4483 25.0754 35.5333 25.3138C35.6182 25.5687 35.7542 25.7221 35.8906 25.7731C35.8056 25.9265 35.8226 26.13 35.9076 26.1814C35.9756 26.2494 36.18 26.1814 36.2819 26.0794C36.3669 26.1814 36.5203 26.2494 36.7413 26.2664C36.7243 26.3174 36.7073 26.4368 36.5883 26.4198C36.6223 26.5048 36.7073 26.7091 36.6903 26.7771C36.657 26.8328 36.6171 26.8842 36.5713 26.9301C36.6563 27.066 36.7243 27.2024 36.7243 27.3724C36.7413 27.6618 36.5373 27.5254 36.5373 27.4404C36.6563 26.2664 34.921 26.0964 34.921 26.0964C34.921 26.0964 34.904 27.066 35.3463 27.4744C35.7206 27.8147 36.112 27.7123 36.3329 27.6953C36.5373 27.6953 36.7582 27.6273 36.7582 28.1036C36.7582 28.1716 36.6053 28.3076 36.5203 28.3416C36.7927 28.3756 37.0816 29.1922 37.1326 29.3286L37.4559 28.9199C37.269 28.563 37.3025 28.2906 37.405 28.2052C37.286 28.1882 37.1156 28.1032 37.0986 28.0522C36.9966 27.7799 37.2346 27.4905 37.4389 27.5589C38.4935 27.8993 39.0043 26.3169 39.0043 26.3169C39.0043 26.3169 38.1031 26.113 37.6263 26.4363Z" fill="#0C0E0F"/>
<path fill-rule="evenodd" clip-rule="evenodd" d="M35.7211 24.6327C35.6701 24.6496 35.5507 24.6327 35.4828 24.5647C35.3978 24.4797 35.4318 24.3947 35.5507 24.3777C35.6357 24.3777 35.7381 24.4117 35.7721 24.4797C35.8065 24.5311 35.7891 24.5987 35.7211 24.6327ZM36.2314 25.8746C36.2484 25.9426 36.1804 26.028 36.0955 26.079C35.9935 26.13 35.9255 26.079 35.9425 25.977C35.9595 25.8751 36.0275 25.7901 36.0955 25.7731C36.1634 25.7557 36.2144 25.8067 36.2314 25.8746ZM37.5758 25.7727C37.6268 25.7897 37.7118 25.8746 37.7288 25.9766C37.7458 26.0786 37.6778 26.1296 37.5758 26.0786C37.4908 26.0276 37.4229 25.9426 37.4399 25.8742C37.4394 25.8067 37.5074 25.7557 37.5758 25.7727ZM37.8987 24.4797C37.9157 24.4117 38.0177 24.3777 38.1197 24.3777C38.2387 24.3947 38.2556 24.4797 38.1877 24.5647C38.1027 24.6327 38.0007 24.6666 37.9327 24.6327C37.9204 24.6249 37.9098 24.6147 37.9015 24.6028C37.8931 24.5909 37.8872 24.5774 37.884 24.5632C37.8809 24.549 37.8805 24.5343 37.8831 24.52C37.8856 24.5057 37.8909 24.492 37.8987 24.4797ZM36.7592 23.765C36.7082 23.714 36.6912 23.612 36.7422 23.5101C36.7932 23.4081 36.8781 23.4081 36.9296 23.5101C36.9635 23.612 36.9635 23.7145 36.9126 23.765C36.8781 23.816 36.7932 23.816 36.7592 23.765Z" fill="#589775"/>
<path fill-rule="evenodd" clip-rule="evenodd" d="M35.9938 24.615C36.0618 24.4106 36.1812 24.2917 36.3342 24.2747H36.3852C36.3852 24.2577 36.3852 24.2407 36.4021 24.2237C36.4701 24.0877 36.6235 24.0193 36.8275 24.0193C36.7595 23.7304 36.4706 23.6794 36.1302 23.9173C35.7894 24.1727 35.7384 24.4621 35.9938 24.615ZM36.0788 25.2277V25.1937C36.0788 25.1767 36.0958 25.1593 36.0958 25.1423L36.0618 25.1083C35.9938 25.0403 35.9598 24.9549 35.9598 24.836C35.9598 24.785 35.9768 24.717 35.9938 24.632C35.6875 24.615 35.5515 24.87 35.6875 25.2783C35.8234 25.6696 36.0788 25.8056 36.2997 25.6016C36.1638 25.4997 36.0788 25.3637 36.0788 25.2277ZM37.2698 24.2237C37.2868 24.2407 37.2868 24.2577 37.2868 24.2747H37.3378C37.4907 24.2917 37.6097 24.4106 37.6611 24.615C37.9335 24.4621 37.8821 24.1727 37.5422 23.9173C37.2018 23.6794 36.9129 23.7304 36.8445 24.0193C37.0484 24.0197 37.2018 24.0877 37.2698 24.2237ZM37.6777 24.649C37.6947 24.717 37.7117 24.785 37.7117 24.836C37.7117 24.9549 37.6777 25.0403 37.6097 25.1083L37.5757 25.1423C37.5757 25.1593 37.5757 25.1767 37.5927 25.1937V25.2277C37.5927 25.3637 37.5077 25.5001 37.3548 25.6021C37.5927 25.8065 37.8481 25.6701 37.984 25.2787C38.1204 24.8704 37.9845 24.615 37.6777 24.649ZM36.8785 25.704C36.8615 25.704 36.8445 25.6871 36.8275 25.6701C36.8105 25.6871 36.8105 25.704 36.7935 25.704C36.6575 25.772 36.5041 25.738 36.3342 25.6191C36.2152 25.8914 36.4191 26.1124 36.8275 26.1124C37.2532 26.1124 37.4572 25.891 37.3382 25.6191C37.1678 25.738 37.0144 25.772 36.8785 25.704ZM36.827 24.1897C36.5551 24.1897 36.4361 24.3431 36.5721 24.53C36.4187 24.3427 36.2488 24.4106 36.1468 24.683C36.0618 24.9379 36.1808 25.1083 36.4017 25.0403C36.1808 25.1083 36.1808 25.3127 36.4187 25.4827C36.6397 25.6361 36.827 25.5846 36.827 25.3467C36.8445 25.5846 37.0314 25.6361 37.2528 25.4827C37.4737 25.3127 37.4737 25.1088 37.2698 25.0403C37.4907 25.1083 37.5931 24.9384 37.5077 24.683C37.4228 24.4106 37.2354 24.3427 37.0994 24.53C37.2358 24.3431 37.1164 24.1897 36.827 24.1897Z" fill="#AD4246"/>
<path fill-rule="evenodd" clip-rule="evenodd" d="M36.4868 24.9048C36.4868 24.7174 36.6398 24.5645 36.8267 24.5645C37.0311 24.5645 37.1841 24.7174 37.1841 24.9048C37.1841 25.0922 37.0307 25.2451 36.8267 25.2451C36.7366 25.2448 36.6503 25.2088 36.5866 25.1451C36.5229 25.0813 36.487 24.9949 36.4868 24.9048Z" fill="#0C0E0F"/>
<path fill-rule="evenodd" clip-rule="evenodd" d="M36.6396 24.9042C36.6396 24.8022 36.7246 24.7168 36.8266 24.7168C36.9456 24.7168 37.031 24.8018 37.031 24.9042C37.031 25.0066 36.946 25.0916 36.8266 25.0916C36.7771 25.091 36.7298 25.0711 36.6949 25.036C36.6599 25.001 36.6401 24.9537 36.6396 24.9042Z" fill="#E6BD3C"/>
<path fill-rule="evenodd" clip-rule="evenodd" d="M36.9462 26.2822C36.9632 26.3162 36.9632 26.3332 36.9802 26.3502C36.9292 26.4692 36.9122 26.5542 36.9122 26.6226C36.9122 26.657 36.9292 26.6906 36.9292 26.7076C36.9506 26.7482 36.9873 26.7788 37.0312 26.7925C36.9802 26.9459 36.9292 27.1159 36.9292 27.2523V27.2863C36.9292 27.4907 37.0142 27.5412 37.0822 27.5586C37.0333 27.6079 36.9946 27.6663 36.9684 27.7306C36.9421 27.7948 36.9288 27.8636 36.9292 27.933C36.9292 27.984 36.9462 28.0349 36.9632 28.1029C36.9976 28.1879 37.0991 28.2559 37.2016 28.2899C37.1846 28.3409 37.1846 28.3919 37.1846 28.4433C37.1846 28.5792 37.2185 28.7326 37.2865 28.9026C37.2525 28.9536 37.2355 28.9706 37.1676 29.0386C37.0142 28.6647 36.8782 28.4433 36.7592 28.3409C36.8272 28.2729 36.8612 28.2219 36.8952 28.1539C36.8952 28.1369 36.9126 28.0859 36.9126 28.018C36.915 27.9123 36.8788 27.8094 36.8107 27.7286C36.7937 27.6946 36.7767 27.6776 36.7597 27.6436H36.7767C36.8616 27.5756 36.8616 27.4907 36.8616 27.4057V27.3717C36.8616 27.2017 36.8107 27.0653 36.7427 26.9464C36.775 26.9131 36.7984 26.8722 36.8107 26.8274C36.8277 26.81 36.8277 26.793 36.8277 26.7424C36.8277 26.6914 36.8277 26.6234 36.7767 26.5045C36.8446 26.4535 36.8616 26.3855 36.8786 26.3171C36.8952 26.3162 36.9122 26.2992 36.9462 26.2822Z" fill="#589775"/>
<path fill-rule="evenodd" clip-rule="evenodd" d="M45.7419 34.3973C44.449 34.5332 44.8399 33.921 45.2142 33.7846C44.7205 33.6996 44.0066 32.594 44.0066 32.594C44.0066 32.594 44.1086 33.904 42.952 34.2273C43.9217 34.4997 43.3425 35.4009 42.7307 35.2139C42.935 35.6053 42.6117 36.0816 42.4243 36.2515C42.4243 36.2515 42.3053 36.3025 42.3053 35.9962C42.3053 35.5368 42.2883 34.9076 42.4073 34.7886C42.5777 34.6182 42.5777 34.4653 42.5607 34.1423C42.4417 34.3463 42.3053 34.4483 42.3053 34.1593V33.581C42.6967 33.5131 43.0205 33.2577 43.1224 32.9343C43.246 32.8048 43.406 32.7158 43.5813 32.6794C43.4623 32.6454 43.1394 32.458 43.1224 32.3901C43.1054 32.3391 43.2405 32.0331 43.3259 31.9137C43.1224 31.9987 42.9181 31.9987 42.8331 31.9987C42.778 31.944 42.7148 31.8981 42.6457 31.8628L43.037 30.5528H43.02C42.7647 30.3824 42.4243 30.2979 42.05 30.2979C41.6926 30.2979 41.3523 30.3828 41.0973 30.5528H41.0634L41.4547 31.8628C41.3867 31.8967 41.3357 31.9477 41.2673 31.9987C41.1993 31.9987 40.9949 31.9987 40.791 31.9137C40.859 32.0157 41.0119 32.3391 40.9949 32.3901C40.9439 32.475 40.6716 32.6284 40.5356 32.6794C40.7736 32.7304 40.9444 32.8834 40.9779 32.9178C41.0969 33.2577 41.4203 33.5131 41.8116 33.581V34.6187C41.8116 34.908 41.6756 34.806 41.5567 34.6187C41.5397 34.925 41.5397 35.095 41.7096 35.2479C41.8286 35.3669 41.8116 35.5373 41.8116 35.9966C41.8116 36.303 41.6926 36.252 41.6926 36.252C41.5052 36.0816 41.1823 35.6057 41.3863 35.2144C40.7736 35.4013 40.1783 34.4997 41.1649 34.2278C40.0083 33.9044 40.0933 32.5944 40.0933 32.5944C40.0933 32.5944 39.3956 33.7005 38.9023 33.785C39.2766 33.921 39.651 34.5337 38.375 34.3977C38.6644 34.5847 39.1407 35.2484 39.0897 35.6227C39.464 35.4013 40.2807 35.5887 40.2297 36.3714C40.8084 36.048 41.7096 36.2864 41.761 37.46L42.3053 37.5789C42.3563 36.4049 43.3089 36.0476 43.8877 36.3714C43.8367 35.5887 44.6529 35.4013 45.0103 35.6227C44.9758 35.2475 45.4526 34.5842 45.7419 34.3973Z" fill="#0C0E0F"/>
<path fill-rule="evenodd" clip-rule="evenodd" d="M44.7038 34.2613C44.6868 34.2273 44.6868 34.2099 44.6868 34.1764C44.6868 34.0574 44.7717 33.921 44.8742 33.819C44.6027 33.6316 44.3303 33.3087 44.1429 33.0533C44.0579 33.4617 43.8366 33.955 43.3428 34.2273C43.5302 34.3633 43.5982 34.4997 43.6152 34.6013C43.6291 34.6393 43.6349 34.6798 43.6322 34.7202C43.6322 34.8906 43.5642 35.0606 43.4108 35.1965C43.2918 35.3155 43.1223 35.3835 42.9519 35.4005V35.4855C42.9519 35.8428 42.7135 36.2001 42.5262 36.3701L42.5096 36.3875L42.4756 36.4045C42.444 36.415 42.4103 36.4173 42.3776 36.4114C42.3448 36.4054 42.3141 36.3914 42.2882 36.3705C42.1522 36.2856 42.1522 36.1152 42.1522 35.9962V35.8092C42.1522 35.7583 42.1353 35.6903 42.1353 35.6393C42.1353 35.0776 42.1692 34.8056 42.2882 34.6692C42.3377 34.6235 42.3731 34.5645 42.3902 34.4993C42.3732 34.4993 42.3392 34.4993 42.3052 34.4823C42.1523 34.4313 42.1522 34.2273 42.1522 34.1589V33.4442C42.5776 33.4103 42.9179 33.1549 42.9863 32.815C43.0543 32.764 43.1397 32.713 43.2408 32.6616C43.1397 32.6276 43.0203 32.5766 42.9693 32.4572C42.9354 32.3382 43.0033 32.2193 43.0543 32.1343C42.9523 32.1513 42.8669 32.1513 42.782 32.1683C42.6116 31.9979 42.3562 31.8789 42.0503 31.8789C41.7609 31.8789 41.489 31.9979 41.3186 32.1683C41.2506 32.1513 41.1652 32.1513 41.0637 32.1343C41.1146 32.2193 41.1656 32.3212 41.1316 32.4402C41.1146 32.5592 40.9782 32.6276 40.8767 32.6616C40.9787 32.7126 41.0467 32.7635 41.1146 32.7975C41.1826 33.1375 41.54 33.4098 41.9653 33.4438V34.6174C41.9653 34.6854 41.9653 34.9067 41.7953 34.9577H41.7274C41.7407 35.0293 41.7764 35.0947 41.8293 35.1447C41.9483 35.2636 41.9653 35.417 41.9653 35.689V35.9949C41.9653 36.1139 41.9483 36.2842 41.8293 36.3692C41.7614 36.4202 41.6764 36.4202 41.6424 36.4032L41.608 36.3875L41.5905 36.3705C41.3866 36.2001 41.1652 35.8432 41.1652 35.4859V35.4009C40.9892 35.3837 40.8228 35.3125 40.6889 35.197C40.625 35.135 40.574 35.0611 40.539 34.9793C40.5039 34.8975 40.4854 34.8096 40.4845 34.7207C40.4845 34.6867 40.4845 34.6357 40.5015 34.6017C40.5185 34.4997 40.5865 34.3637 40.7569 34.2278C40.2636 33.9554 40.0422 33.4621 39.9742 33.0538C39.7872 33.3087 39.4979 33.6321 39.2255 33.8195C39.3445 33.9214 39.4129 34.0574 39.4129 34.1768V34.2618C39.3619 34.4487 39.1575 34.5681 38.7832 34.5847C38.9876 34.8231 39.1745 35.1294 39.2425 35.4013C39.4927 35.3472 39.7541 35.3897 39.9742 35.5203C40.1951 35.6563 40.3315 35.8777 40.3655 36.1326C40.5162 36.0827 40.6756 36.0645 40.8337 36.0791C40.9918 36.0938 41.1452 36.1409 41.2842 36.2176C41.6415 36.4215 41.8629 36.8129 41.9134 37.3232C41.9984 37.3576 42.0494 37.3576 42.1688 37.3911C42.2368 36.8808 42.4752 36.4555 42.8665 36.2516C43.1389 36.0982 43.4613 36.0472 43.7337 36.1326C43.7486 36.0055 43.7934 35.8837 43.8645 35.7773C43.9355 35.6709 44.0308 35.5828 44.1425 35.5203C44.3623 35.3894 44.6237 35.3469 44.8737 35.4013C44.9417 35.129 45.1291 34.8231 45.3165 34.5847C44.9591 34.5673 44.7548 34.4479 44.7038 34.2613Z" fill="#589775"/>
<path fill-rule="evenodd" clip-rule="evenodd" d="M44.2277 33.4286L44.0918 33.4796C44.0918 33.4796 44.2277 33.7855 44.2277 34.1603C44.2277 34.2283 44.2107 34.2963 44.2107 34.3812C44.1767 34.6536 43.9724 35.0275 43.9724 35.0275C43.9724 34.5002 43.768 34.2108 43.768 34.2108L43.666 34.2963C43.666 34.2963 43.8534 34.5002 43.8534 35.0105V35.2319C43.615 35.4868 43.3087 35.7082 42.9692 35.8951L43.0202 36.0141C43.3936 35.8612 43.8704 35.4188 43.8704 35.4188C44.5001 34.8236 44.891 34.8066 44.891 34.8066L44.874 34.6706C44.874 34.6706 44.5855 34.7046 44.1597 35.0109C44.2617 34.807 44.3301 34.6026 44.3471 34.3987C44.3641 34.3137 44.3641 34.2287 44.3641 34.1607C44.3641 33.7515 44.2277 33.4286 44.2277 33.4286ZM39.7021 34.1599V34.3978C39.7365 34.6017 39.8041 34.8061 39.9065 35.0101C39.4812 34.7037 39.1748 34.6697 39.1748 34.6697V34.8057C39.1748 34.8057 39.5661 34.8227 40.1784 35.418C40.1784 35.418 40.6717 35.8603 41.0291 36.0132L41.097 35.8943C40.7397 35.7073 40.4334 35.4859 40.2124 35.231C40.2124 35.146 40.195 35.0776 40.195 35.0096C40.195 34.4993 40.3824 34.2954 40.3824 34.2954L40.2974 34.21C40.2974 34.21 40.0764 34.4993 40.0764 35.0266C40.0764 35.0266 39.8721 34.6523 39.8551 34.3804C39.8381 34.2954 39.8381 34.2274 39.8381 34.1594C39.8381 33.7851 39.957 33.4787 39.957 33.4787L39.8381 33.4277C39.8381 33.4286 39.7021 33.7515 39.7021 34.1599Z" fill="#0C0E0F"/>
<path fill-rule="evenodd" clip-rule="evenodd" d="M41.6078 31.7942C41.5568 31.6242 41.3185 30.8245 41.2505 30.6376C41.4989 30.5139 41.7727 30.4497 42.0502 30.4502C42.3565 30.4502 42.6289 30.5182 42.8498 30.6376C42.7387 31.0238 42.6252 31.4093 42.5095 31.7942C42.3735 31.7432 42.2201 31.7262 42.0502 31.7262C41.8968 31.7262 41.7438 31.7436 41.6078 31.7942ZM41.4544 30.7056L41.7268 31.7602C41.7778 31.7432 41.8458 31.7432 41.8968 31.7257L41.6078 30.6711C41.5568 30.6716 41.5054 30.6886 41.4544 30.7056ZM42.4925 30.6546L42.2201 31.7262C42.2711 31.7436 42.3221 31.7436 42.3731 31.7606L42.6454 30.706C42.6114 30.6886 42.5435 30.6716 42.4925 30.6546ZM42.0502 30.6036H41.9652V31.7262H42.1351V30.6036H42.0502Z" fill="#604391"/>
<path fill-rule="evenodd" clip-rule="evenodd" d="M41.9139 31.999C41.8799 32.016 41.8289 32.016 41.7949 32.033H41.7609C41.7609 32.033 41.9309 32.169 41.9479 32.1864C41.9309 32.2034 41.7439 32.3394 41.7269 32.3564C41.7099 32.3394 41.472 32.1524 41.472 32.1524L41.37 32.2374L41.387 32.2548C41.387 32.2548 41.5909 32.4078 41.6249 32.4248C41.5482 32.4773 41.4744 32.534 41.404 32.5947C41.387 32.5777 41.2166 32.4588 41.2166 32.4588V32.4758C41.1996 32.5098 41.1996 32.5438 41.1826 32.5777C41.1826 32.5777 41.2846 32.6627 41.3016 32.6797C41.2846 32.6797 41.1826 32.7477 41.1826 32.7477V32.7647C41.1996 32.7987 41.1996 32.8327 41.2166 32.8667V32.8837C41.2166 32.8837 41.387 32.7647 41.404 32.7477C41.421 32.7647 41.6084 32.9007 41.6249 32.9181C41.6079 32.9521 41.387 33.105 41.387 33.105L41.489 33.173H41.506C41.506 33.173 41.7104 33.0201 41.7273 33.0031C41.7443 33.0201 41.8973 33.139 41.9313 33.1565C41.9143 33.1735 41.7613 33.2924 41.7613 33.2924H41.7953C41.8323 33.3115 41.8728 33.3231 41.9143 33.3264C41.9143 33.3264 42.0163 33.2584 42.0333 33.2414C42.0503 33.2584 42.1352 33.3264 42.1352 33.3264H42.1522C42.1862 33.3264 42.2372 33.3264 42.2882 33.3094H42.3052C42.3052 33.3094 42.1522 33.1735 42.1352 33.1565C42.1522 33.139 42.3222 33.0031 42.3392 33.0031C42.3562 33.0031 42.5946 33.19 42.5946 33.19L42.6965 33.122H42.6795C42.6795 33.122 42.4582 32.9351 42.4412 32.9181C42.4582 32.9007 42.6455 32.7647 42.6625 32.7477C42.6795 32.7647 42.8839 32.9181 42.8839 32.9181V32.9007C42.9009 32.8667 42.9179 32.8327 42.9179 32.7987C42.9179 32.7987 42.7819 32.6797 42.7645 32.6627C42.8201 32.6213 42.8769 32.5817 42.9349 32.5438L42.9179 32.5268C42.9112 32.4968 42.8997 32.4681 42.8839 32.4418V32.4248C42.8839 32.4248 42.6795 32.5777 42.6625 32.5947C42.6455 32.5777 42.4921 32.4588 42.4752 32.4413C42.5091 32.4243 42.7475 32.2374 42.7475 32.2374L42.6455 32.1694H42.6285C42.6285 32.1694 42.3902 32.3564 42.3732 32.3564C42.3562 32.3564 42.1862 32.203 42.1522 32.1864C42.1862 32.1694 42.3562 32.033 42.3562 32.033H42.3392C42.2882 32.016 42.2542 32.016 42.2032 31.999C42.2032 31.999 42.0673 32.101 42.0498 32.101L41.9309 31.999H41.9139ZM42.0503 32.2714C42.0673 32.2714 42.2546 32.4248 42.2712 32.4413C42.2542 32.4583 42.0673 32.5947 42.0503 32.6117C42.0333 32.5947 41.8459 32.4583 41.8289 32.4413C41.8459 32.4243 42.0333 32.2714 42.0503 32.2714ZM41.7269 32.5093C41.7439 32.5263 41.9139 32.6627 41.9479 32.6797C41.8711 32.7324 41.7973 32.7892 41.7269 32.8501C41.7099 32.8331 41.523 32.6967 41.5055 32.6797C41.523 32.6627 41.7099 32.5263 41.7269 32.5093ZM42.0503 32.7647C42.0503 32.7817 42.2207 32.9007 42.2376 32.9181C42.2207 32.9351 42.0503 33.0711 42.0333 33.088C42.0163 33.0711 41.8459 32.9521 41.8289 32.9346C41.8459 32.9181 42.0333 32.7817 42.0503 32.7647ZM42.3732 32.5093C42.3902 32.5263 42.5436 32.6453 42.5606 32.6627C42.5436 32.6797 42.3562 32.8331 42.3392 32.8501C42.3222 32.8331 42.1692 32.7141 42.1522 32.6967C42.1692 32.6627 42.3562 32.5263 42.3732 32.5093Z" fill="#0C0E0F"/>
<path fill-rule="evenodd" clip-rule="evenodd" d="M35.5168 26.8613C35.6018 26.9463 35.6872 27.0487 35.7721 27.1167C35.6362 27.1506 35.4148 27.1506 35.3298 27.1506C35.2771 27.0601 35.237 26.9627 35.2109 26.8613C35.2958 26.8783 35.4152 26.8783 35.5168 26.8613ZM35.2448 26.334C35.5682 26.402 35.9765 26.5549 36.1979 26.8443C36.3169 26.9803 36.3679 27.1336 36.3679 27.3206V27.4226C36.0105 27.2186 35.4828 26.6233 35.2448 26.334ZM35.8916 27.2361C36.0275 27.372 36.1465 27.457 36.2659 27.525H36.1979C35.9935 27.5594 35.7216 27.576 35.4662 27.355C35.4492 27.338 35.4322 27.304 35.4152 27.287C35.5512 27.2866 35.7721 27.2866 35.8916 27.2361ZM35.1089 26.402C35.1939 26.4869 35.2793 26.6059 35.3982 26.7253H35.1769C35.1444 26.6198 35.1216 26.5116 35.1089 26.402ZM38.2561 26.4364C38.227 26.5477 38.2099 26.6618 38.2051 26.7767V26.8107C38.1032 26.8957 38.0012 26.9811 37.8988 27.0491C37.8988 27.0151 37.8818 26.9811 37.8818 26.9471C37.8818 26.7602 37.9328 26.5732 37.9498 26.4878C38.0347 26.4534 38.1372 26.4364 38.2561 26.4364ZM38.6644 26.4364C38.5455 26.5384 38.4431 26.6233 38.3411 26.7088C38.3581 26.6068 38.3751 26.4878 38.3921 26.4194C38.4771 26.4194 38.5625 26.4364 38.6644 26.4364ZM38.6984 26.5724C38.5625 26.8613 38.3581 27.2016 38.0517 27.3546C37.9774 27.3964 37.8952 27.4224 37.8104 27.4312C37.7255 27.44 37.6398 27.4312 37.5584 27.4056C37.9158 27.2361 38.4091 26.8277 38.6984 26.5724ZM37.3885 27.321C37.3885 27.1167 37.4059 26.8103 37.7288 26.5894C37.7458 26.5724 37.7798 26.5549 37.7968 26.5384C37.7748 26.6734 37.7635 26.8099 37.7628 26.9467C37.7628 27.0147 37.7628 27.0657 37.7798 27.1341C37.6094 27.2361 37.4904 27.304 37.3885 27.338V27.321Z" fill="#589775"/>
<path fill-rule="evenodd" clip-rule="evenodd" d="M46.7626 23.6284C46.7456 23.6624 46.7286 23.6964 46.6946 23.7134C46.4732 23.8664 46.3033 24.1048 46.2179 24.4451C46.2009 24.4961 46.2009 24.5641 46.2009 24.6151C46.2009 24.9044 46.3883 25.1424 46.5242 25.3127C46.5752 25.3637 46.6262 25.4147 46.6262 25.4487C46.6262 25.4657 46.6262 25.4827 46.6092 25.4827C46.5922 25.4997 46.4902 25.4827 46.2859 25.2788C46.2352 25.226 46.1746 25.1839 46.1076 25.1547C46.0406 25.1255 45.9685 25.1099 45.8954 25.1088C45.708 25.1088 45.4866 25.2108 45.3167 25.3812L45.2997 25.4152L45.1293 25.5851C45.0273 25.6531 44.9419 25.7385 44.9419 25.8575C44.9419 25.9764 45.0439 26.0444 45.1293 26.0784C45.1591 26.1068 45.1936 26.1298 45.2313 26.1464C45.2483 26.1804 45.2822 26.2314 45.3162 26.2654C45.4182 26.4188 45.5716 26.6227 45.912 26.6227C46.2344 26.6227 46.4218 26.4528 46.5578 26.3334C46.5918 26.2994 46.6598 26.2484 46.6768 26.2484C46.6937 26.2484 46.6937 26.2484 46.7107 26.2654C46.7107 26.2654 46.7277 26.2824 46.7277 26.3334C46.7277 26.3503 46.7277 26.3843 46.7107 26.4183C46.6426 26.5976 46.6081 26.7879 46.6088 26.9796C46.6088 27.0986 46.6258 27.218 46.6598 27.303C46.6768 27.388 46.6937 27.4559 46.6937 27.5239C46.6937 27.5749 46.6937 27.6429 46.6768 27.7283L46.6428 27.8303C46.6258 27.9492 46.5918 28.0516 46.5918 28.1706C46.5918 28.2386 46.6088 28.3066 46.6428 28.3746C46.6768 28.4595 46.7617 28.6639 47.0001 28.6639H47.0171C47.2555 28.6639 47.3405 28.4595 47.3736 28.3746C47.4594 28.2216 47.4076 28.0172 47.3736 27.8303L47.3405 27.7283C47.3065 27.5409 47.3065 27.4559 47.3566 27.303C47.4594 27.082 47.4246 26.6907 47.3065 26.4183C47.2555 26.3164 47.2895 26.2824 47.3065 26.2649C47.3235 26.2479 47.3405 26.2479 47.3405 26.2479C47.3566 26.2479 47.4246 26.2989 47.4594 26.3329C47.5949 26.4519 47.7819 26.6223 48.1053 26.6223C48.4456 26.6223 48.599 26.4183 48.701 26.2649C48.735 26.2309 48.769 26.18 48.8029 26.146C48.8191 26.129 48.8539 26.112 48.904 26.078C48.972 26.044 49.0744 25.976 49.0744 25.857C49.0744 25.7381 48.9895 25.6527 48.887 25.5847C48.8309 25.5277 48.7744 25.471 48.7175 25.4147L48.7005 25.3807C48.5301 25.2103 48.3262 25.1084 48.1218 25.1084C48.0486 25.1094 47.9763 25.1249 47.9091 25.1541C47.8419 25.1833 47.7812 25.2255 47.7305 25.2783C47.5261 25.4823 47.4241 25.4993 47.4071 25.4823C47.391 25.4823 47.391 25.4653 47.391 25.4483C47.391 25.4143 47.4411 25.3633 47.4921 25.3123C47.6281 25.1419 47.8155 24.904 47.8155 24.6146C47.8155 24.5636 47.8155 24.4957 47.7985 24.4447C47.7135 24.1043 47.5601 23.8659 47.3396 23.713C47.2886 23.696 47.2716 23.662 47.2546 23.628C47.2036 23.56 47.1526 23.4746 47.0162 23.4746C46.8798 23.4746 46.8136 23.5605 46.7626 23.6284Z" fill="#0C0E0F"/>
<path fill-rule="evenodd" clip-rule="evenodd" d="M47.0012 28.5114C46.9162 28.5114 46.8478 28.4604 46.7798 28.324C46.7288 28.1711 46.7798 27.9671 46.8308 27.7628C46.8648 27.5588 46.8818 27.4394 46.7968 27.2525C46.7288 27.0651 46.7458 26.7252 46.8648 26.4868C46.9667 26.2484 46.8138 26.1464 46.8138 26.1464C46.5414 25.9255 46.4394 26.4698 45.9126 26.4698C45.5552 26.4698 45.4868 26.1804 45.3339 26.0275C45.1805 25.8915 44.9595 25.8915 45.2149 25.7041C45.2829 25.6531 45.3683 25.5507 45.4363 25.4997C45.6746 25.2448 45.998 25.1938 46.1675 25.3808C46.5933 25.8401 46.8142 25.6017 46.7972 25.4147C46.7632 25.2614 46.2525 24.9214 46.3715 24.4791C46.4564 24.1558 46.6098 23.9518 46.7802 23.8498C46.9162 23.7649 46.9162 23.6289 47.0186 23.6289C47.1036 23.6289 47.1206 23.7649 47.257 23.8498C47.4095 23.9518 47.5625 24.1562 47.6474 24.4791C47.7664 24.9214 47.257 25.2618 47.2395 25.4147C47.2056 25.6017 47.4261 25.8401 47.8514 25.3808C48.0218 25.1938 48.3451 25.2448 48.5835 25.4997C48.6515 25.5507 48.7369 25.6531 48.8049 25.7041C49.0594 25.8911 48.838 25.8911 48.685 26.0275C48.5325 26.1804 48.4645 26.4698 48.1072 26.4698C47.5965 26.4698 47.4775 25.9255 47.206 26.1464C47.206 26.1464 47.0526 26.2484 47.172 26.4868C47.274 26.7247 47.291 27.0651 47.223 27.2525C47.155 27.4394 47.155 27.5588 47.189 27.7628C47.24 27.9671 47.308 28.1711 47.24 28.324C47.172 28.46 47.104 28.5114 47.0186 28.5114H47.0012Z" fill="#589775"/>
<path fill-rule="evenodd" clip-rule="evenodd" d="M48.5489 25.926C48.3785 25.858 48.4129 26.1299 47.9871 26.1299C47.8682 26.1299 47.7658 26.1129 47.6978 26.0619C47.7488 26.1809 47.9192 26.2663 48.1235 26.2663C48.4639 26.2659 48.6844 25.9765 48.5489 25.926ZM46.3878 25.909C46.2174 25.841 46.2518 26.1129 45.827 26.1129C45.725 26.1129 45.6056 26.0959 45.5376 26.0449C45.5886 26.1639 45.759 26.2489 45.9625 26.2489C46.3028 26.2489 46.5242 25.9595 46.3878 25.909ZM47.1709 25.0069C47.1029 24.8535 47.3744 24.8879 47.3744 24.4626C47.3744 24.3436 47.3574 24.2412 47.3073 24.1562C47.4254 24.2242 47.5108 24.3946 47.5108 24.5986C47.5104 24.9219 47.2219 25.1599 47.1709 25.0069Z" fill="#0C0E0F"/>
<path fill-rule="evenodd" clip-rule="evenodd" d="M3.72084 52.9068C3.99321 57.6707 7.66774 60.9714 11.955 61.2599C11.3933 61.2769 10.4921 61.4473 9.84535 61.6856C9.35204 61.89 9.18209 61.924 8.82431 62.0944C8.63736 62.5202 8.39898 62.8086 8.19504 63.2C7.9571 63.6427 7.56576 64.1182 7.31039 64.442L7.66774 64.7483L8.51839 63.8972C9.21608 63.2 10.696 62.8766 11.921 62.8936C14.2516 62.9786 17.1099 63.6087 20.7844 64.2036C24.5104 64.8163 28.8996 65.8029 31.9788 65.6665C35.8407 65.4621 36.6234 64.1866 37.0313 63.9822C37.0993 63.6427 37.2697 63.268 37.4226 62.8596C37.5926 62.3838 37.7286 62.1454 38.0179 61.6346L37.5926 61.4303L37.3032 61.7876C36.2142 63.1656 34.207 63.5229 31.9444 63.6763C29.2055 63.8637 19.1001 62.06 15.1698 61.5662L12.4648 61.2259C13.1795 61.2259 13.6384 61.1749 14.3875 61.0903C19.2191 60.4606 22.0429 56.2924 21.737 51.1889C21.4477 46.2889 17.5518 43.2093 11.7846 43.533C6.83408 43.8054 3.44891 48.0757 3.72084 52.9068ZM19.2365 51.1893C19.5259 55.6631 18.0285 59.5424 14.0646 60.2053C9.38603 60.9884 6.54516 56.9216 6.2558 52.7024C6.01786 49.1642 7.37838 44.86 11.802 44.5536C16.7015 44.1802 19.0151 47.6503 19.2365 51.1893Z" fill="#AD4246"/>
<path fill-rule="evenodd" clip-rule="evenodd" d="M33.697 49.4369L33.4756 49.335C32.591 49.7263 31.128 50.1852 29.6987 50.3386V51.0193H30.6003C31.1106 51.0193 31.3485 51.0873 31.5019 51.2746C31.6209 51.4781 31.6723 52.0059 31.6723 52.7881V56.7359C31.6723 57.8925 30.158 59.5088 28.5931 59.5088C26.3645 59.5088 25.9561 58.4873 25.9561 56.5825V49.4374L25.7348 49.3354C24.8331 49.7267 23.6086 50.1856 22.1792 50.339V51.0197H22.8599C23.3532 51.0197 23.6086 51.0877 23.7445 51.2751C23.8635 51.4786 23.9149 52.0063 23.9149 52.7886V56.8553C23.9149 58.8111 23.9149 60.9891 27.3345 60.9891C28.4911 60.9891 29.3592 60.6488 30.0394 60.0531L31.6728 58.5387C31.6728 59.4408 31.6218 60.0871 31.5708 60.7678C32.2001 60.7508 32.8977 60.6998 33.5954 60.6998C34.2761 60.6998 34.9904 60.7508 35.5857 60.7678V60.0526L34.599 59.9677C34.1907 59.9507 33.9184 59.8487 33.8168 59.6282C33.7318 59.3728 33.6978 58.8791 33.6978 58.2324V49.4369H33.697Z" fill="#AD4246"/>
<path fill-rule="evenodd" clip-rule="evenodd" d="M40.5529 50.1342C42.2882 50.1342 43.1223 51.9889 43.1223 54.234C41.3696 54.336 39.3454 54.3874 37.3547 54.1661C37.2357 51.5291 38.6817 50.1342 40.5529 50.1342ZM40.6723 49.335C39.8557 49.335 39.141 49.6073 38.3077 49.9978C37.763 50.2362 37.2532 50.5935 36.7934 50.9683C35.6874 51.8355 35.0581 53.2474 35.0581 55.595C35.0581 58.8616 36.9978 61.1752 40.6553 61.1752C42.2886 61.1752 44.3473 60.1206 44.5177 59.8313L45.0105 58.998L44.6872 58.7597C43.769 59.3214 42.8504 59.8992 41.6934 59.8992C38.7161 59.8992 37.3041 57.9604 37.3041 55.1361H40.8427C42.2886 55.1361 43.769 55.0341 45.2319 54.7958C45.2829 54.4554 45.2829 54.1151 45.2829 53.7752C45.2825 51.0363 43.3088 49.335 40.6723 49.335ZM51.6959 50.1342C53.4312 50.1342 54.2653 51.9889 54.2653 54.234C52.513 54.336 50.4879 54.3874 48.4981 54.1661C48.3792 51.5291 49.8251 50.1342 51.6959 50.1342ZM51.8149 49.335C50.9987 49.335 50.2835 49.6073 49.4503 49.9978C48.9056 50.2362 48.3957 50.5935 47.936 50.9683C46.8304 51.8355 46.2007 53.2474 46.2007 55.595C46.2007 58.8616 48.1403 61.1752 51.7979 61.1752C53.4312 61.1752 55.4903 60.1206 55.6602 59.8313L56.1531 58.998L55.8298 58.7597C54.9116 59.3214 53.9929 59.8992 52.8364 59.8992C49.8591 59.8992 48.4471 57.9604 48.4471 55.1361H51.9853C53.4312 55.1361 54.9116 55.0341 56.3745 54.7958C56.4085 54.4554 56.4085 54.1151 56.4085 53.7752C56.4085 51.0363 54.4527 49.335 51.8149 49.335Z" fill="#AD4246"/>
<path fill-rule="evenodd" clip-rule="evenodd" d="M60.3553 53.094C60.3553 52.1074 61.8527 50.8148 63.3326 50.8148C64.9829 50.8148 66.1225 51.8864 66.1225 53.8941V60.7668C66.6842 60.7498 67.3814 60.6989 68.0621 60.6989C68.7424 60.6989 69.4401 60.7498 70.0349 60.7668V60.0517L69.0483 59.9667C68.6396 59.9497 68.3681 59.8478 68.2831 59.6273C68.1811 59.3719 68.1471 58.8782 68.1471 58.2315V53.5537C68.1471 50.9168 66.9905 49.3345 64.1662 49.3345C63.1957 49.3345 62.7373 49.4879 62.1926 49.9472L60.4059 51.4947H60.3549V49.4365L60.1335 49.3345C59.2493 49.7258 57.7859 50.1847 56.357 50.3381V51.0188H57.2591C57.7689 51.0188 58.0073 51.0868 58.1603 51.2742C58.2792 51.4777 58.3306 52.0054 58.3306 52.7876V58.2315C58.3306 58.8782 58.2967 59.3719 58.2117 59.6273C58.1097 59.8478 57.8373 59.9497 57.4286 59.9667L56.34 60.0517V60.7668C57.1911 60.7498 58.1607 60.6989 59.3343 60.6989C60.5248 60.6989 61.4944 60.7498 62.3455 60.7668V60.0517L61.2569 59.9667C60.8482 59.9497 60.5762 59.8478 60.4738 59.6273C60.3889 59.3719 60.3549 58.8782 60.3549 58.2315V53.094H60.3553ZM71.1078 51.5287C70.8695 52.2438 70.4611 53.043 70.1374 53.6387L69.2022 54.421L68.9298 54.2506C69.2531 53.3834 69.4065 52.8726 69.5935 51.9714C69.7639 51.1722 69.8319 50.3211 69.865 49.8112C70.2053 49.7263 70.4097 49.6069 70.7331 49.4709C71.0394 49.3349 71.2438 49.1815 71.5493 48.9941L71.7707 49.1815C71.6007 50.1167 71.3623 50.7974 71.1078 51.5287ZM71.8047 57.2278C71.8047 58.3674 71.7877 59.5423 71.5493 60.5965C72.7229 61.0052 73.7783 61.1743 74.9353 61.1743C77.6232 61.1743 80.2942 59.7794 80.2942 57.1084C80.2942 55.2206 78.9332 54.5055 76.0409 54.0126C74.2032 53.7063 73.404 53.1445 73.404 52.1069C73.404 51.2737 73.7273 50.1333 75.7855 50.1333C77.1635 50.1333 78.5924 50.8654 78.5924 52.1239V52.6857H79.2731C79.2901 51.7152 79.3241 50.814 79.3921 49.9468C78.4386 49.6064 77.4014 49.3341 76.2614 49.3341C73.9823 49.3341 71.7188 50.2692 71.7188 52.8722C71.7188 54.3521 72.603 55.0842 73.7779 55.5091C74.9345 55.9519 76.2614 56.2242 77.333 56.4796C78.0821 56.684 78.4896 57.3128 78.4896 58.0789C78.4896 59.3889 77.1796 60.2901 75.6657 60.2901C74.2538 60.2901 72.5359 59.7292 72.5359 58.231V57.2274H71.8047V57.2278ZM41.0636 62.7231C41.0636 62.5196 41.1485 62.4516 41.6249 62.4346V62.2642C41.1995 62.2642 40.9616 62.2812 40.7232 62.2812C40.4169 62.2812 40.1105 62.2642 39.7876 62.2642V62.4516C40.2129 62.4516 40.3999 62.4856 40.3999 62.7911V64.3904C40.3999 65.2245 40.6892 65.6834 41.8968 65.6834C43.1222 65.6834 43.3427 65.0375 43.3427 64.3224V62.8595C43.3427 62.5021 43.4447 62.4516 43.9554 62.4516V62.2642C43.768 62.2642 43.5297 62.2812 43.2063 62.2812C42.9518 62.2812 42.6965 62.2642 42.4241 62.2642V62.4516C43.0028 62.4516 43.0538 62.5017 43.0538 62.8935V64.3564C43.0538 65.0545 42.6965 65.3269 42.0498 65.3269C41.3011 65.3269 41.0631 64.9695 41.0631 64.3734L41.0636 62.7231ZM45.4358 65.0031C45.4358 65.3435 45.3338 65.411 44.7551 65.411V65.5984C45.0105 65.5984 45.2828 65.5814 45.5382 65.5814C45.8106 65.5814 46.0821 65.5984 46.3544 65.5984V65.411C45.8106 65.411 45.7256 65.377 45.7256 65.0375V62.9615H45.7426L48.0902 65.6154L48.6689 65.6834C48.6479 65.4402 48.6365 65.1962 48.6349 64.9521V62.9785C48.6349 62.5017 48.753 62.4516 49.2977 62.4516V62.2642C49.0253 62.2642 48.753 62.2812 48.4815 62.2812C48.2431 62.2812 47.9538 62.2642 47.6644 62.2642V62.4516C48.1241 62.4516 48.3281 62.4856 48.3281 62.7911V64.9351C47.562 64.033 46.7628 63.1654 46.0136 62.2642C45.8101 62.2642 45.5888 62.2812 45.3848 62.2812C45.1634 62.2812 44.976 62.2642 44.7891 62.2642V62.4516C45.2828 62.4516 45.4358 62.5196 45.4358 62.7401V65.0031ZM50.8286 64.9521C50.8286 65.36 50.7097 65.411 50.1658 65.411V65.5984C50.5053 65.5984 50.8286 65.5814 51.1694 65.5814C51.4928 65.5814 51.8152 65.5984 52.139 65.5984V65.411C51.5433 65.411 51.4762 65.36 51.4762 64.9521V62.8251C51.4762 62.4516 51.5952 62.4516 52.139 62.4516V62.2642C51.7303 62.2642 51.4762 62.2812 51.1354 62.2812C50.7441 62.2812 50.4203 62.2642 50.1658 62.2642V62.4516C50.6417 62.4516 50.8286 62.4686 50.8286 62.8251V64.9521ZM54.8605 65.6489L56.0171 62.961C56.1875 62.5523 56.2215 62.4512 56.5958 62.4512V62.2638C56.3404 62.2638 56.153 62.2808 55.9831 62.2808C55.6946 62.2808 55.4902 62.2638 55.2348 62.2638V62.4512C55.5922 62.4512 55.7626 62.4851 55.7626 62.6547C55.7626 62.7566 55.7286 62.842 55.6776 62.944L54.8775 64.8667L54.1293 63.08C54.0273 62.8926 53.9249 62.6887 53.9249 62.6202C53.9249 62.4507 54.0608 62.4507 54.4857 62.4507V62.2633C54.1293 62.2633 53.7715 62.2803 53.4991 62.2803C53.2947 62.2803 53.0733 62.2633 52.7169 62.2633V62.4507C53.0572 62.4507 53.1588 62.4847 53.2607 62.7562L54.5027 65.6485L54.8605 65.6489ZM57.8038 64.8497C57.8038 65.3265 57.7528 65.4106 57.1749 65.4106V65.598C57.5314 65.598 57.7868 65.581 58.1101 65.581C58.4675 65.581 58.8244 65.598 59.2497 65.598C59.5901 65.598 59.947 65.5979 60.2363 65.564C60.2703 65.3095 60.3043 64.9861 60.3043 64.6458H60.1178C60.0829 64.8671 60.0328 65.0715 59.9465 65.2585C59.777 65.3095 59.4537 65.3435 59.1303 65.3435C58.8749 65.3435 58.6876 65.3265 58.4845 65.3095C58.4616 64.8732 58.4503 64.4364 58.4505 63.9995C58.5695 63.9816 58.688 63.9816 58.8754 63.9816C59.5051 63.9816 59.5735 64.0666 59.5735 64.4924H59.7949C59.7779 64.305 59.7779 64.0666 59.7779 63.8635C59.7779 63.6761 59.7779 63.4548 59.7949 63.2678H59.5735C59.5735 63.6591 59.5055 63.7276 59.1647 63.7276H58.4505C58.4505 63.3188 58.4505 62.8765 58.4675 62.52C58.6195 62.4985 58.7728 62.4871 58.9264 62.486C59.2837 62.486 59.6415 62.5021 59.9308 62.5531C59.9648 62.6891 59.9818 62.8425 59.9988 63.0979H60.2023C60.2193 62.7745 60.2363 62.5021 60.2873 62.2816C60.0498 62.2476 59.6925 62.2306 59.4031 62.2306C59.1307 62.2306 58.8754 62.2306 58.603 62.2476C58.3485 62.2646 58.0762 62.2816 57.8038 62.2816C57.5484 62.2816 57.344 62.2646 57.1235 62.2646V62.435C57.6674 62.435 57.8038 62.469 57.8038 62.9279V64.8497ZM61.1894 65.598C61.5289 65.598 61.8522 65.581 62.176 65.581C62.7207 65.581 62.9752 65.598 63.1456 65.598V65.4106C62.5848 65.4106 62.4998 65.3944 62.4998 65.0881V62.5527C62.6358 62.5017 62.8053 62.4856 62.9757 62.4856C63.5034 62.4856 63.7418 62.6721 63.7418 63.1314C63.7418 63.5402 63.4184 63.8295 62.9757 63.8295H62.7042L62.6872 63.9315L64.1501 65.581H65.0513V65.411C64.8299 65.411 64.7619 65.36 64.6255 65.1905L63.503 63.9145C63.8433 63.7955 64.4726 63.6252 64.4726 62.9954C64.4726 62.4346 63.9967 62.2642 63.35 62.2642C62.9587 62.2642 62.5338 62.2812 62.1594 62.2812C61.8021 62.2812 61.4957 62.2642 61.1898 62.2642V62.4516C61.7847 62.4516 61.8527 62.5017 61.8527 62.8595V65.0035C61.8527 65.3949 61.7167 65.4114 61.1898 65.4114L61.1894 65.598ZM68.1985 63.0974C68.1985 62.8421 68.2155 62.6547 68.2665 62.4172C68.0961 62.3322 67.8238 62.1788 67.279 62.1788C66.4968 62.1788 65.8671 62.5867 65.8671 63.2844C65.8671 64.7303 67.8578 63.6247 67.8578 64.6793C67.8578 65.224 67.415 65.4276 66.9566 65.4276C66.3778 65.4276 66.1395 65.224 66.1395 64.7133H65.9351C65.9351 65.0876 65.9181 65.258 65.8841 65.4955C66.1395 65.5975 66.3948 65.6829 66.8716 65.6829C67.8242 65.6829 68.487 65.1561 68.487 64.4754C68.487 63.0804 66.4628 64.135 66.4628 63.0634C66.4628 62.6891 66.7692 62.4346 67.245 62.4346C67.5344 62.4346 67.6878 62.4856 67.8578 62.5871C67.9427 62.6551 67.9937 62.7745 67.9937 63.0979H68.1985V63.0974ZM70.0014 64.9521C70.0014 65.36 69.8824 65.411 69.3556 65.411V65.5984C69.6789 65.5984 70.0184 65.5814 70.3422 65.5814C70.6825 65.5814 71.0059 65.5984 71.3288 65.5984V65.411C70.7169 65.411 70.666 65.36 70.666 64.9521V62.8251C70.666 62.4516 70.7849 62.4516 71.3288 62.4516V62.2642C70.9209 62.2642 70.666 62.2812 70.3082 62.2812C69.9338 62.2812 69.6109 62.2642 69.3556 62.2642V62.4516C69.8323 62.4516 70.0014 62.4686 70.0014 62.8251V64.9521ZM72.8762 65.598C73.2166 65.598 73.5569 65.581 73.8807 65.581C74.1862 65.581 74.4926 65.598 74.7819 65.598V65.4106C74.2712 65.4106 74.1692 65.3435 74.1692 65.0371V62.5366H74.5436C75.1733 62.5366 75.2417 62.6207 75.2587 62.876L75.2757 63.1484H75.4792L75.4971 62.2642C75.1567 62.2812 74.629 62.2812 73.8297 62.2812C73.0466 62.2812 72.5198 62.2812 72.1624 62.2642L72.1964 63.1484H72.4008L72.4178 62.876C72.4348 62.6207 72.5028 62.5366 73.1321 62.5366H73.5064V65.0371C73.5064 65.3596 73.3874 65.4106 72.8767 65.4106V65.598H72.8762ZM76.9935 65.598C77.3169 65.598 77.5893 65.581 77.964 65.581C78.2364 65.581 78.6099 65.598 78.9337 65.598V65.4106C78.4909 65.4106 78.3048 65.3944 78.3048 64.9347V64.2366C78.7127 63.5563 79.172 62.8246 79.6148 62.3827V62.2808H79.104C78.8487 62.7566 78.3209 63.6247 78.1514 63.8962L77.5047 62.7566C77.3343 62.4681 77.1474 62.2808 76.943 62.2128C76.7395 62.2638 76.4161 62.2978 76.1947 62.3317V62.5191C76.4671 62.5191 76.5351 62.5692 76.8414 62.961C77.045 63.2334 77.3173 63.6417 77.6407 64.186V65.0881C77.6407 65.3095 77.5387 65.4106 76.994 65.4106V65.598H76.9935Z" fill="#AD4246"/>
<path fill-rule="evenodd" clip-rule="evenodd" d="M33.3398 16.0411C33.5947 16.0241 33.8161 15.9731 33.8331 15.8711C33.918 15.4628 34.139 14.6121 34.4113 14.1698C34.224 14.1354 33.8331 14.2208 33.8161 14.4248C33.6801 14.3738 33.3907 14.4418 33.3733 14.8331C33.8161 14.7311 33.6627 15.2244 33.2883 15.1564C32.897 15.0715 32.931 14.5952 33.3053 14.8161C33.4073 14.4588 33.2034 14.2888 33.0504 14.2888C33.1014 14.1188 32.9654 13.9319 32.829 13.8975C32.71 13.9319 32.5567 14.1188 32.6081 14.2888C32.4547 14.2888 32.2507 14.4592 32.3531 14.8161C32.7275 14.5952 32.7615 15.071 32.3871 15.1564C31.9958 15.2244 31.8424 14.7311 32.2852 14.8331C32.2682 14.4418 31.9788 14.3738 31.8428 14.4248C31.8258 14.2204 31.4345 14.1354 31.2476 14.1698C31.5199 14.6121 31.7409 15.4628 31.8263 15.8711C31.8603 15.9731 32.0642 16.0241 32.3196 16.0411C32.473 16.0585 32.7789 16.0755 32.8299 16.0755C32.8809 16.0755 33.1864 16.0581 33.3398 16.0411Z" fill="#0C0E0F"/>
<path fill-rule="evenodd" clip-rule="evenodd" d="M33.6629 15.8032C33.6629 15.8712 33.2886 15.9222 32.8293 15.9222C32.3699 15.9222 31.9956 15.8712 31.9956 15.8032C31.9956 15.7352 32.3699 15.6842 32.8293 15.6842C33.2886 15.6842 33.6629 15.7352 33.6629 15.8032ZM32.8288 15.5309H32.4375C32.3185 15.5478 32.0801 15.5823 31.9272 15.6333C31.8082 15.0715 31.6378 14.5442 31.4849 14.3403C31.6038 14.3573 31.7912 14.4253 31.7742 14.6296C31.8762 14.4597 32.0976 14.5447 32.1146 14.7146C31.8766 14.6806 31.8256 14.919 31.8932 15.055C31.9612 15.1909 32.1656 15.3273 32.4039 15.2929C32.6249 15.2589 32.7608 15.055 32.7778 14.902C32.7948 14.7486 32.6759 14.5277 32.4545 14.6641C32.4375 14.4937 32.5735 14.3237 32.7608 14.4597C32.6419 14.2383 32.8288 14.0684 32.8288 14.0684C32.8288 14.0684 33.0162 14.2383 32.8968 14.4597C33.0842 14.3237 33.2372 14.4937 33.2032 14.6641C32.9822 14.5281 32.8628 14.7491 32.8798 14.902C32.8968 15.055 33.0332 15.2594 33.2711 15.2929C33.4921 15.3273 33.6965 15.1909 33.7645 15.055C33.8324 14.919 33.7814 14.6806 33.5431 14.7146C33.5601 14.5447 33.781 14.4597 33.8834 14.6296C33.8834 14.4257 34.0534 14.3573 34.1723 14.3403C34.0364 14.5447 33.849 15.072 33.73 15.6333C33.5766 15.5823 33.3387 15.5478 33.2197 15.5309H32.8288Z" fill="#E6BD3C"/>
<path fill-rule="evenodd" clip-rule="evenodd" d="M35.2451 35.4868C35.5 35.4528 35.7214 35.4018 35.7384 35.2998C35.8234 34.9085 36.0447 34.0579 36.3167 33.6155C36.1297 33.5645 35.7384 33.65 35.7384 33.8535C35.6024 33.8025 35.3131 33.8879 35.2791 34.2622C35.7214 34.1773 35.568 34.6531 35.1941 34.5852C34.8028 34.5172 34.8367 34.0239 35.2111 34.2622C35.3301 33.8879 35.1091 33.7175 34.9557 33.7175C35.0067 33.5471 34.8707 33.3602 34.7348 33.3262C34.6158 33.3602 34.4624 33.5471 34.5134 33.7175C34.3604 33.7175 34.156 33.8879 34.2585 34.2622C34.6328 34.0239 34.6668 34.5172 34.2925 34.5852C33.9011 34.6531 33.7652 34.1768 34.1905 34.2622C34.1735 33.8879 33.8846 33.8029 33.7482 33.8535C33.7312 33.6495 33.3398 33.5645 33.1694 33.6155C33.4244 34.0579 33.6457 34.9085 33.7312 35.2998C33.7652 35.4018 33.9861 35.4528 34.2245 35.4868C34.3779 35.5038 34.6838 35.5038 34.7348 35.5038C34.7858 35.5038 35.0921 35.5038 35.2451 35.4868Z" fill="#0C0E0F"/>
<path fill-rule="evenodd" clip-rule="evenodd" d="M35.5682 35.231C35.5682 35.299 35.1943 35.35 34.7346 35.35C34.2748 35.35 33.9009 35.299 33.9009 35.231C33.9009 35.163 34.2753 35.112 34.7346 35.112C35.1939 35.112 35.5682 35.1626 35.5682 35.231ZM34.7346 34.9586C34.5986 34.9586 34.4622 34.9586 34.3432 34.9756C34.2243 34.9756 33.9859 35.0096 33.8329 35.0606C33.714 34.4993 33.5436 33.9716 33.3906 33.7676C33.5096 33.7846 33.697 33.8526 33.68 34.057C33.782 33.887 34.0033 33.972 34.0199 34.159C33.782 34.108 33.731 34.3459 33.8159 34.4993C33.8839 34.6183 34.0709 34.7717 34.3093 34.7203C34.5306 34.6863 34.6666 34.4823 34.6836 34.3289C34.7006 34.176 34.5816 33.9716 34.3602 34.091C34.3432 33.9376 34.4792 33.7506 34.6666 33.887C34.5646 33.6827 34.7346 33.5127 34.7346 33.5127C34.7346 33.5127 34.9215 33.6827 34.8196 33.887C35.0069 33.7511 35.1429 33.938 35.1089 34.091C34.8875 33.972 34.7686 34.176 34.7856 34.3289C34.8026 34.4823 34.9385 34.6863 35.1765 34.7203C35.3978 34.7712 35.6018 34.6183 35.6698 34.4993C35.7378 34.3459 35.7038 34.108 35.4488 34.159C35.4658 33.9716 35.6868 33.8866 35.8062 34.057C35.7892 33.8526 35.9596 33.7846 36.0785 33.7676C35.9426 33.9716 35.7722 34.4993 35.6362 35.0606C35.4705 35.0103 35.299 34.9817 35.1259 34.9756C35.0069 34.9586 34.8705 34.9586 34.7346 34.9586Z" fill="#E6BD3C"/>
<path fill-rule="evenodd" clip-rule="evenodd" d="M42.5434 40.9473C42.7988 40.9303 43.0202 40.8794 43.0372 40.7769C43.1221 40.3686 43.3426 39.518 43.615 39.0761C43.4446 39.0251 43.0542 39.1101 43.0372 39.331C42.9012 39.28 42.6114 39.348 42.5774 39.7393C43.0202 39.6374 42.8838 40.1302 42.4924 40.0627C42.1011 39.9777 42.1521 39.501 42.5264 39.7223C42.6284 39.348 42.4074 39.195 42.271 39.195C42.322 39.0251 42.1691 38.8377 42.0501 38.8037C41.9141 38.8377 41.7607 39.0251 41.8117 39.195C41.6758 39.195 41.4548 39.3484 41.5738 39.7223C41.9481 39.501 41.9821 39.9777 41.5908 40.0627C41.1995 40.1307 41.0635 39.6374 41.5058 39.7393C41.4718 39.348 41.1825 39.28 41.0465 39.331C41.0295 39.1101 40.6382 39.0247 40.4678 39.0761C40.7401 39.5184 40.9611 40.369 41.0465 40.7769C41.0635 40.8794 41.2844 40.9303 41.5398 40.9473C41.6928 40.9643 41.9991 40.9813 42.0331 40.9813C42.0841 40.9818 42.407 40.9643 42.5434 40.9473Z" fill="#0C0E0F"/>
<path fill-rule="evenodd" clip-rule="evenodd" d="M42.8837 40.7089C42.8837 40.7599 42.5093 40.8109 42.0496 40.8109C41.5733 40.8109 41.1989 40.7599 41.1989 40.7089C41.1989 40.6409 41.5733 40.59 42.0496 40.59C42.5093 40.59 42.8837 40.6409 42.8837 40.7089ZM42.05 40.4196C41.914 40.4196 41.7776 40.4366 41.6587 40.4366C41.5227 40.4536 41.3013 40.4875 41.1484 40.5385C41.0124 39.9772 40.842 39.4495 40.7061 39.246C40.808 39.246 40.9954 39.331 40.9784 39.5349C40.9998 39.5003 41.0315 39.4734 41.0691 39.4578C41.1067 39.4423 41.1482 39.439 41.1878 39.4484C41.2273 39.4578 41.2629 39.4795 41.2895 39.5102C41.316 39.541 41.3322 39.5794 41.3358 39.6199C41.0804 39.5859 41.0464 39.8243 41.1148 39.9602C41.1828 40.0962 41.3698 40.2326 41.6081 40.1982C41.8461 40.1642 41.965 39.9602 41.999 39.8073C42.016 39.6369 41.8801 39.433 41.6757 39.5689C41.6417 39.399 41.7776 39.2286 41.965 39.365C41.8631 39.144 42.05 38.9736 42.05 38.9736C42.05 38.9736 42.2204 39.144 42.118 39.365C42.3049 39.229 42.4413 39.399 42.4244 39.5689C42.2034 39.433 42.067 39.6369 42.101 39.8073C42.118 39.9602 42.237 40.1646 42.4753 40.1982C42.7137 40.2322 42.9011 40.0962 42.9691 39.9602C43.0541 39.8243 43.0031 39.5859 42.7477 39.6199C42.7817 39.4495 42.9861 39.365 43.105 39.5349C43.0872 39.331 43.2746 39.246 43.3765 39.246C43.2406 39.4499 43.0711 39.9777 42.9516 40.5385C42.7839 40.4931 42.6133 40.459 42.4409 40.4366C42.3219 40.437 42.186 40.4196 42.05 40.4196Z" fill="#E6BD3C"/>
<path fill-rule="evenodd" clip-rule="evenodd" d="M49.8929 35.4868C50.1474 35.4528 50.3518 35.4018 50.3858 35.2998C50.4707 34.9085 50.6921 34.0579 50.9645 33.6155C50.7771 33.5645 50.3857 33.65 50.3688 33.8535C50.2328 33.8025 49.9439 33.8879 49.9269 34.2622C50.3688 34.1773 50.2154 34.6531 49.8249 34.5852C49.4506 34.5172 49.4845 34.0239 49.8589 34.2622C49.9609 33.8879 49.7569 33.7175 49.6035 33.7175C49.6545 33.5471 49.5015 33.3602 49.3821 33.3262C49.2462 33.3602 49.1098 33.5471 49.1608 33.7175C49.0074 33.7175 48.8043 33.8879 48.9054 34.2622C49.2797 34.0239 49.3142 34.5172 48.9224 34.5852C48.5489 34.6531 48.3955 34.1768 48.8374 34.2622C48.8204 33.8879 48.5319 33.8029 48.3955 33.8535C48.3785 33.6495 47.9868 33.5645 47.7998 33.6155C48.0722 34.0579 48.2935 34.9085 48.3785 35.2998C48.3955 35.4018 48.6169 35.4528 48.8714 35.4868C49.0248 35.5038 49.3312 35.5038 49.3821 35.5038C49.4331 35.5038 49.7399 35.5038 49.8929 35.4868Z" fill="#0C0E0F"/>
<path fill-rule="evenodd" clip-rule="evenodd" d="M50.2153 35.231C50.2153 35.299 49.8418 35.35 49.382 35.35C48.9223 35.35 48.5488 35.299 48.5488 35.231C48.5488 35.163 48.9223 35.112 49.382 35.112C49.8418 35.112 50.2153 35.1626 50.2153 35.231ZM49.382 34.9586C49.2461 34.9586 49.1097 34.9586 48.9907 34.9756C48.8717 34.9756 48.6342 35.0096 48.4808 35.0606C48.3619 34.4993 48.1745 33.9716 48.0381 33.7676C48.1571 33.7846 48.3274 33.8526 48.3274 34.057C48.4294 33.887 48.6508 33.972 48.6678 34.159C48.4294 34.108 48.3784 34.3459 48.4464 34.4993C48.5144 34.6183 48.7188 34.7717 48.9393 34.7203C49.1777 34.6863 49.3136 34.4823 49.3306 34.3289C49.3476 34.176 49.2286 33.9716 49.0073 34.091C48.9733 33.9376 49.1262 33.7506 49.3136 33.887C49.1947 33.6827 49.3816 33.5127 49.3816 33.5127C49.3816 33.5127 49.569 33.6827 49.4496 33.887C49.637 33.7511 49.7899 33.938 49.7559 34.091C49.5346 33.972 49.4156 34.176 49.4326 34.3289C49.4496 34.4823 49.586 34.6863 49.8239 34.7203C50.0453 34.7712 50.2488 34.6183 50.3168 34.4993C50.3848 34.3459 50.3338 34.108 50.0963 34.159C50.1133 33.9716 50.3338 33.8866 50.4358 34.057C50.4358 33.8526 50.6062 33.7846 50.7251 33.7676C50.5892 33.9716 50.4018 34.4993 50.2824 35.0606C50.1168 35.0102 49.9454 34.9816 49.7725 34.9756C49.6544 34.9586 49.5184 34.9586 49.382 34.9586Z" fill="#E6BD3C"/>
<path fill-rule="evenodd" clip-rule="evenodd" d="M33.1864 26.2319C33.4244 26.2149 33.6458 26.1639 33.6797 26.0615C33.7647 25.6532 33.9861 24.8025 34.241 24.3607C34.0711 24.3097 33.6797 24.3946 33.6628 24.6156C33.5268 24.5646 33.2374 24.6326 33.2204 25.0239C33.6628 24.9219 33.5094 25.4152 33.118 25.3298C32.7437 25.2619 32.7777 24.7855 33.1524 25.0069C33.2544 24.6326 33.0505 24.4626 32.8971 24.4796C32.9481 24.3097 32.7951 24.1223 32.6761 24.0713C32.5402 24.1223 32.4038 24.3097 32.4548 24.4796C32.3018 24.4626 32.0804 24.633 32.1998 25.0069C32.5742 24.7855 32.6082 25.2619 32.2168 25.3298C31.8425 25.4152 31.6895 24.9215 32.1318 25.0239C32.0979 24.6326 31.8085 24.5646 31.6725 24.6156C31.6725 24.3946 31.2812 24.3092 31.0942 24.3607C31.3662 24.803 31.5875 25.6536 31.6725 26.0615C31.6895 26.1639 31.9105 26.2149 32.1658 26.2319C32.3355 26.2484 32.5057 26.2598 32.6761 26.2659C32.7276 26.2659 33.0335 26.2489 33.1864 26.2319Z" fill="#0C0E0F"/>
<path fill-rule="evenodd" clip-rule="evenodd" d="M31.8423 25.9931C31.8423 25.9251 32.2167 25.8741 32.676 25.8741C33.1353 25.8741 33.5096 25.9256 33.5096 25.9931C33.5096 26.0441 33.1353 26.0951 32.676 26.0951C32.2167 26.0955 31.8423 26.0445 31.8423 25.9931ZM32.676 25.7042C32.54 25.7042 32.4036 25.7212 32.2847 25.7212C32.1657 25.7382 31.9273 25.7722 31.7744 25.8062C31.6384 25.2614 31.468 24.7341 31.332 24.5132C31.451 24.5302 31.6214 24.6152 31.6044 24.8191C31.6257 24.7844 31.6574 24.7574 31.6949 24.7418C31.7325 24.7262 31.7741 24.7229 31.8136 24.7323C31.8532 24.7417 31.8888 24.7634 31.9153 24.7943C31.9418 24.8251 31.9579 24.8635 31.9613 24.9041C31.7064 24.8531 31.6724 25.0915 31.7404 25.2444C31.8083 25.3804 31.9953 25.5168 32.2337 25.4824C32.472 25.4484 32.608 25.2274 32.6246 25.0915C32.642 24.9211 32.5226 24.7171 32.3017 24.8531C32.2677 24.6831 32.4036 24.5132 32.591 24.6491C32.489 24.4278 32.676 24.2578 32.676 24.2578C32.676 24.2578 32.8459 24.4278 32.744 24.6491C32.9314 24.5132 33.0673 24.6831 33.0503 24.8531C32.8289 24.7171 32.71 24.9211 32.727 25.0915C32.744 25.2274 32.8799 25.4484 33.1013 25.4824C33.3393 25.5164 33.5266 25.3804 33.5946 25.2444C33.6796 25.0915 33.6286 24.8531 33.3907 24.9041C33.4077 24.7337 33.6286 24.6491 33.731 24.8191C33.714 24.6152 33.901 24.5302 34.0199 24.5132C33.867 24.7341 33.697 25.2614 33.5776 25.8062C33.4242 25.7722 33.1863 25.7382 33.0673 25.7212C32.9484 25.7212 32.812 25.7042 32.676 25.7042Z" fill="#E6BD3C"/>
<path fill-rule="evenodd" clip-rule="evenodd" d="M51.917 26.2319C52.1724 26.2149 52.3937 26.1639 52.4107 26.0615C52.4957 25.6532 52.7171 24.8025 52.9895 24.3607C52.8021 24.3097 52.4107 24.3946 52.4107 24.6156C52.2748 24.5646 51.985 24.6326 51.951 25.0239C52.3937 24.9219 52.2404 25.4152 51.866 25.3298C51.4755 25.2619 51.5095 24.7855 51.883 25.0069C52.002 24.6326 51.781 24.4626 51.6446 24.4796C51.6786 24.3097 51.5427 24.1223 51.4071 24.0713C51.2882 24.1223 51.1348 24.3097 51.1858 24.4796C51.0324 24.4626 50.8284 24.633 50.9304 25.0069C51.3047 24.7855 51.3391 25.2619 50.9644 25.3298C50.573 25.4152 50.4366 24.9215 50.8794 25.0239C50.8454 24.6326 50.556 24.5646 50.4196 24.6156C50.4026 24.3946 50.0118 24.3092 49.8418 24.3607C50.0972 24.803 50.3347 25.6536 50.4196 26.0615C50.4366 26.1639 50.658 26.2149 50.9134 26.2319C51.0494 26.2489 51.3561 26.2659 51.4071 26.2659C51.4581 26.2659 51.7636 26.2489 51.917 26.2319Z" fill="#0C0E0F"/>
<path fill-rule="evenodd" clip-rule="evenodd" d="M52.2577 25.9931C52.2577 26.0441 51.8663 26.0951 51.4074 26.0951C50.9477 26.0951 50.5733 26.0441 50.5733 25.9931C50.5733 25.9251 50.9477 25.8741 51.4074 25.8741C51.8663 25.8741 52.2577 25.9256 52.2577 25.9931ZM51.4074 25.7042C51.2715 25.7042 51.1351 25.7212 51.0161 25.7212C50.8971 25.7382 50.6588 25.7552 50.5054 25.8062C50.3864 25.2614 50.216 24.7341 50.0635 24.5132C50.1824 24.5302 50.369 24.6152 50.352 24.8191C50.4709 24.6491 50.6753 24.7341 50.7093 24.9041C50.4539 24.8531 50.403 25.0915 50.4879 25.2444C50.5559 25.3804 50.7433 25.5168 50.9817 25.4824C51.2031 25.4484 51.339 25.2274 51.356 25.0915C51.373 24.9211 51.254 24.7171 51.0327 24.8531C51.0157 24.6831 51.1516 24.5132 51.339 24.6491C51.237 24.4278 51.407 24.2578 51.407 24.2578C51.407 24.2578 51.5944 24.4278 51.492 24.6491C51.6785 24.5132 51.8145 24.6831 51.7805 24.8531C51.5591 24.7171 51.441 24.9211 51.458 25.0915C51.475 25.2274 51.6105 25.4484 51.8484 25.4824C52.0864 25.5164 52.2742 25.3804 52.3422 25.2444C52.4102 25.0915 52.3762 24.8531 52.1208 24.9041C52.1241 24.8634 52.1401 24.8248 52.1667 24.7938C52.1932 24.7629 52.2289 24.7411 52.2686 24.7317C52.3083 24.7222 52.3499 24.7256 52.3876 24.7413C52.4252 24.757 52.4569 24.7843 52.4782 24.8191C52.4612 24.6152 52.6316 24.5302 52.7505 24.5132C52.6146 24.7341 52.4442 25.2614 52.3078 25.8062C52.1544 25.7552 51.9164 25.7382 51.797 25.7212C51.6789 25.7212 51.5425 25.7042 51.4074 25.7042Z" fill="#E6BD3C"/>
<path fill-rule="evenodd" clip-rule="evenodd" d="M51.7808 16.0411C52.0361 16.0241 52.2575 15.9731 52.2745 15.8711C52.3595 15.4628 52.5809 14.6121 52.8532 14.1698C52.6658 14.1354 52.2745 14.2208 52.2745 14.4248C52.1211 14.3738 51.8318 14.4418 51.8148 14.8331C52.2575 14.7311 52.1041 15.2244 51.7298 15.1564C51.3393 15.0715 51.3733 14.5952 51.7468 14.8161C51.8488 14.4588 51.6448 14.2888 51.4923 14.2888C51.5424 14.1188 51.4073 13.9319 51.2709 13.8975C51.1519 13.9319 50.9985 14.1188 51.0495 14.2888C50.8961 14.2888 50.6922 14.4592 50.7942 14.8161C51.1685 14.5952 51.2029 15.071 50.8281 15.1564C50.4368 15.2244 50.2834 14.7311 50.7262 14.8331C50.7092 14.4418 50.4198 14.3738 50.2834 14.4248C50.2664 14.2204 49.8755 14.1354 49.7056 14.1698C49.9609 14.6121 50.1823 15.4628 50.2664 15.8711C50.3004 15.9731 50.5048 16.0241 50.7602 16.0411C50.9136 16.0585 51.2199 16.0755 51.2709 16.0755C51.3219 16.0755 51.6278 16.0581 51.7808 16.0411Z" fill="#0C0E0F"/>
<path fill-rule="evenodd" clip-rule="evenodd" d="M52.1039 15.8032C52.1039 15.8712 51.7296 15.9222 51.2707 15.9222C50.811 15.9222 50.4366 15.8712 50.4366 15.8032C50.4366 15.7352 50.811 15.6842 51.2707 15.6842C51.7296 15.6842 52.1039 15.7352 52.1039 15.8032ZM51.2707 15.5309H50.8794C50.7604 15.5478 50.522 15.5823 50.3686 15.6333C50.2497 15.0715 50.0802 14.5442 49.9268 14.3403C50.0457 14.3573 50.2322 14.4253 50.2152 14.6296C50.3172 14.4597 50.5386 14.5447 50.5556 14.7146C50.3172 14.6806 50.2662 14.919 50.3512 15.055C50.4022 15.1909 50.6066 15.3273 50.845 15.2929C51.0663 15.2589 51.2023 15.055 51.2193 14.902C51.2363 14.7486 51.1173 14.5277 50.8959 14.6641C50.8789 14.4937 51.0149 14.3237 51.2023 14.4597C51.0833 14.2383 51.2703 14.0684 51.2703 14.0684C51.2703 14.0684 51.4577 14.2383 51.3383 14.4597C51.5256 14.3237 51.6777 14.4937 51.6437 14.6641C51.4232 14.5281 51.3043 14.7491 51.3213 14.902C51.3383 15.055 51.4747 15.2594 51.7117 15.2929C51.9331 15.3273 52.1375 15.1909 52.2055 15.055C52.2735 14.919 52.2395 14.6806 51.9841 14.7146C51.9876 14.6741 52.0038 14.6357 52.0304 14.605C52.0569 14.5742 52.0925 14.5526 52.1321 14.5431C52.1716 14.5337 52.2132 14.537 52.2507 14.5526C52.2883 14.5681 52.3201 14.5951 52.3414 14.6296C52.3244 14.4257 52.4948 14.3573 52.6138 14.3403C52.4778 14.5447 52.2905 15.072 52.171 15.6333C52.0177 15.5823 51.7797 15.5478 51.6612 15.5309H51.2707Z" fill="#E6BD3C"/>
<path fill-rule="evenodd" clip-rule="evenodd" d="M42.5434 16.0411C42.7988 16.0241 43.0202 15.9731 43.0372 15.8711C43.1221 15.4628 43.3426 14.6121 43.615 14.1698C43.4446 14.1354 43.0542 14.2208 43.0372 14.4248C42.9012 14.3738 42.6114 14.4418 42.5774 14.8331C43.0202 14.7311 42.8838 15.2244 42.4924 15.1564C42.1011 15.0715 42.1521 14.5952 42.5264 14.8161C42.6284 14.4588 42.4074 14.2888 42.271 14.2888C42.322 14.1188 42.1691 13.9319 42.0501 13.8975C41.9141 13.9319 41.7607 14.1188 41.8117 14.2888C41.6758 14.2888 41.4548 14.4592 41.5738 14.8161C41.9481 14.5952 41.9821 15.071 41.5908 15.1564C41.1995 15.2244 41.0635 14.7311 41.5058 14.8331C41.4718 14.4418 41.1825 14.3738 41.0465 14.4248C41.0295 14.2204 40.6382 14.1354 40.4678 14.1698C40.7401 14.6121 40.9611 15.4628 41.0465 15.8711C41.0635 15.9731 41.2844 16.0241 41.5398 16.0411C41.6928 16.0585 41.9991 16.0755 42.0331 16.0755C42.0841 16.0751 42.407 16.0581 42.5434 16.0411Z" fill="#0C0E0F"/>
<path fill-rule="evenodd" clip-rule="evenodd" d="M42.8837 15.8032C42.8837 15.8712 42.5093 15.9222 42.0496 15.9222C41.5733 15.9222 41.1989 15.8712 41.1989 15.8032C41.1989 15.7352 41.5733 15.6842 42.0496 15.6842C42.5093 15.6842 42.8837 15.7352 42.8837 15.8032ZM42.05 15.5309H41.6587C41.5227 15.5478 41.3013 15.5823 41.1484 15.6333C41.0124 15.0715 40.842 14.5442 40.7061 14.3403C40.808 14.3573 40.9954 14.4253 40.9784 14.6296C40.9998 14.5951 41.0315 14.5681 41.0691 14.5526C41.1067 14.537 41.1482 14.5337 41.1878 14.5431C41.2273 14.5526 41.2629 14.5742 41.2895 14.605C41.316 14.6357 41.3322 14.6741 41.3358 14.7146C41.0804 14.6806 41.0464 14.919 41.1148 15.055C41.1828 15.1909 41.3698 15.3273 41.6081 15.2929C41.8461 15.2589 41.965 15.055 41.999 14.902C42.016 14.7486 41.8801 14.5277 41.6757 14.6641C41.6417 14.4937 41.7776 14.3237 41.965 14.4597C41.8631 14.2383 42.05 14.0684 42.05 14.0684C42.05 14.0684 42.2204 14.2383 42.118 14.4597C42.3049 14.3237 42.4413 14.4937 42.4244 14.6641C42.2034 14.5281 42.067 14.7491 42.101 14.902C42.118 15.055 42.237 15.2594 42.4753 15.2929C42.7137 15.3273 42.9011 15.1909 42.9691 15.055C43.0541 14.919 43.0031 14.6806 42.7477 14.7146C42.7817 14.5447 42.9861 14.4597 43.105 14.6296C43.0872 14.4257 43.2746 14.3573 43.3765 14.3403C43.2406 14.5447 43.0711 15.072 42.9516 15.6333C42.7839 15.5877 42.6133 15.5534 42.4409 15.5309H42.05Z" fill="#E6BD3C"/>
<path fill-rule="evenodd" clip-rule="evenodd" d="M43.9044 20.7708C43.8704 20.7708 43.1553 20.0391 43.1553 20.0391C43.1553 20.0391 43.3767 20.0221 43.5466 20.0221C43.0538 19.6138 42.7304 19.0691 42.7304 19.0691C42.7304 19.0691 42.9518 19.0865 43.1392 19.1035L42.5605 18.4228C42.5605 18.4228 42.6624 18.4403 42.8498 18.4058C42.7309 18.3378 42.4071 17.9975 42.4071 17.9975C42.4071 17.9975 42.509 17.9805 42.5775 17.9805C42.4755 17.9125 42.0672 17.2998 42.0672 17.2998C42.0672 17.2998 41.7268 17.9121 41.5399 18.0145C41.6588 17.9975 41.7268 17.9975 41.7268 17.9975C41.7268 17.9975 41.2165 18.6098 41.0975 18.6782C41.2505 18.6952 41.3525 18.6952 41.3525 18.6952C41.3525 18.6952 41.0975 19.0355 40.9951 19.1035C41.1991 19.0865 41.3185 19.1035 41.3185 19.1035C41.3185 19.1035 40.7062 19.8857 40.6378 19.9027C40.8082 19.9027 40.9781 19.9197 40.9781 19.9197C40.9781 19.9197 40.4848 20.5155 40.3828 20.549C40.4168 20.583 40.5018 20.617 40.5018 20.617C40.5018 20.617 40.2469 20.8214 40.2129 20.8214C40.3319 20.8214 40.7742 20.8384 40.7742 20.8384L40.6722 20.9403C41.1145 21.0083 41.5908 20.8384 41.8798 20.8214V21.5021C41.8798 21.5531 41.8458 21.621 41.7268 21.6725C41.6758 21.6895 41.1315 21.7914 41.2335 21.9444C41.2675 21.9954 41.4039 21.9104 41.4209 21.9444C41.4379 22.0124 41.2849 22.1148 41.3189 22.1658C41.3359 22.2168 41.6083 21.9954 41.6423 22.0468C41.6932 22.1148 41.3873 22.2847 41.4213 22.3532C41.4723 22.4211 41.5743 22.2172 41.6087 22.3022C41.6597 22.3871 41.6937 22.5231 41.7277 22.4721C41.7787 22.4211 41.8127 22.1828 41.8636 22.2512C41.9146 22.3192 41.8806 22.4381 41.8462 22.5235C41.7952 22.6085 41.8122 22.7615 41.8802 22.6425C41.9992 22.5066 41.9822 22.7785 42.0506 22.7785C42.1186 22.7955 42.1016 22.5061 42.221 22.6425C42.306 22.7615 42.306 22.6081 42.272 22.5235C42.221 22.4386 42.187 22.3196 42.238 22.2512C42.306 22.1832 42.34 22.4211 42.3739 22.4721C42.4079 22.5231 42.4589 22.3871 42.4929 22.3022C42.5269 22.2172 42.6289 22.4211 42.6803 22.3532C42.7317 22.2852 42.4249 22.1152 42.4589 22.0468C42.4929 21.9958 42.7653 22.2172 42.7993 22.1658C42.8163 22.1148 42.6803 22.0124 42.6803 21.9444C42.6973 21.9104 42.8507 21.9954 42.8847 21.9444C42.9697 21.7914 42.4419 21.6895 42.3739 21.6725C42.272 21.621 42.238 21.5535 42.238 21.5021V20.9068C42.5613 20.9408 43.2412 20.9068 43.2921 20.8558L43.1562 20.7198C43.5811 20.7878 43.8024 20.7708 43.9044 20.7708Z" fill="#0C0E0F"/>
<path fill-rule="evenodd" clip-rule="evenodd" d="M42.1181 21.5015V20.8723C42.1011 20.8723 42.0841 20.8553 42.0671 20.8553C42.0501 20.8383 42.0161 20.8383 41.9991 20.8213V21.502C41.9991 21.7913 41.6418 21.8423 41.5908 21.8589C41.9822 22.0293 42.0501 22.2502 42.0501 22.2502C42.0501 22.2502 42.1861 22.0119 42.5264 21.8589C42.4755 21.8419 42.1181 21.7739 42.1181 21.5015Z" fill="#976F31"/>
<path fill-rule="evenodd" clip-rule="evenodd" d="M42.0839 17.5889C42.1349 17.6738 42.2199 17.7928 42.2879 17.8782C42.2539 17.8952 42.2199 17.8952 42.1519 17.8952C42.1519 17.8952 42.2879 18.1166 42.4583 18.2696C42.3393 18.2526 42.2033 18.2526 42.2033 18.2526C42.2033 18.2526 42.5267 18.6949 42.782 18.9158C42.765 18.9158 42.4247 18.8818 42.4247 18.8818C42.4247 18.8818 42.782 19.4946 43.1729 19.8854C43.1559 19.8854 42.7995 19.9024 42.7995 19.9024C42.7995 19.9024 43.3943 20.4982 43.4967 20.6171C43.4118 20.6001 42.7315 20.4982 42.7315 20.4982C42.7315 20.4982 42.8849 20.6681 42.9699 20.7531C42.6805 20.7701 42.2382 20.7701 42.1528 20.7191C41.9994 20.6171 41.7784 20.6681 41.4895 20.7191C41.3269 20.757 41.1622 20.7854 40.9962 20.8041C41.0472 20.7361 41.0982 20.6851 41.0982 20.6851H40.6729C40.7918 20.6001 40.8428 20.5317 40.8428 20.5317L40.6729 20.4977C40.8942 20.3278 41.2851 19.817 41.2851 19.817C41.2851 19.817 41.0642 19.783 40.9788 19.766C41.1487 19.5791 41.6085 18.9834 41.6085 18.9834C41.6085 18.9834 41.3701 18.9494 41.3531 18.9494C41.4041 18.8814 41.6255 18.5581 41.6255 18.5581C41.6255 18.5581 41.5405 18.5581 41.4555 18.5411C41.7449 18.2861 41.9658 17.9118 41.9658 17.9118C41.9658 17.9118 41.8978 17.9288 41.8469 17.9118C41.9135 17.8102 42.0159 17.6738 42.0839 17.5889Z" fill="#589775"/>
<path fill-rule="evenodd" clip-rule="evenodd" d="M44.3809 27.7803C44.2619 27.7123 44.2449 27.6099 44.2275 27.491H44.2105C44.1935 27.355 44.1595 27.2016 43.9891 27.1336C43.9211 27.0996 43.8187 27.0826 43.6998 27.0826V25.4663C43.8187 25.4663 43.9381 25.4493 43.9891 25.4153C44.1765 25.3473 44.1935 25.1944 44.2275 25.058V25.041C44.2445 24.922 44.2615 24.8196 44.3809 24.7686C44.4319 24.7512 44.4489 24.7006 44.4489 24.6496C44.44 24.6298 44.4258 24.6129 44.4077 24.6009C44.3897 24.5888 44.3686 24.5822 44.3469 24.5817C44.0915 24.5987 44.0065 24.7346 43.9041 24.922L43.8701 24.956C43.8271 25.0295 43.769 25.0932 43.6998 25.1429V24.7516H43.3934L42.9515 24.5817C42.8835 24.5817 42.6791 24.5647 42.5942 24.5137C42.3898 24.3947 42.1518 24.4283 42.0494 24.5137C41.9645 24.4283 41.7261 24.3947 41.5221 24.5137C41.4202 24.5647 41.2328 24.5817 41.1648 24.5817L40.7225 24.7516H40.3991V25.109H40.3316C40.2976 24.9556 40.2296 24.8366 40.1276 24.8366C40.0087 24.8366 39.9062 25.024 39.9062 25.2449C39.9062 25.4829 40.0082 25.6702 40.1276 25.6702C40.2296 25.6702 40.2976 25.5513 40.3316 25.3809H40.3996V27.2521H40.3316C40.2976 27.0818 40.2296 26.9798 40.1276 26.9798C40.0087 26.9798 39.9062 27.1502 39.9062 27.3881C39.9062 27.6091 40.0082 27.7964 40.1276 27.7964C40.2296 27.7964 40.2976 27.6775 40.3316 27.5241H40.3996V27.7794H43.6998V27.4051C43.7507 27.4391 43.8187 27.5071 43.8701 27.5921L43.8871 27.626C44.0061 27.8134 44.0915 27.9324 44.3299 27.9494C44.3809 27.9668 44.4319 27.9324 44.4319 27.8814C44.4489 27.8483 44.4149 27.7973 44.3809 27.7803Z" fill="#0C0E0F"/>
<path fill-rule="evenodd" clip-rule="evenodd" d="M42.1349 24.6496C42.2368 24.5817 42.3898 24.5477 42.6112 24.6666C42.6962 24.7176 42.8835 24.7346 42.9515 24.7346V26.8443C42.8665 26.8443 42.6792 26.7593 42.5942 26.7253C42.4068 26.6063 42.2538 26.6233 42.1349 26.6913V24.6496ZM41.1478 24.7346C41.2158 24.7346 41.4202 24.7176 41.5052 24.6666C41.7095 24.5477 41.8795 24.5817 41.9815 24.6496V26.6913C41.8625 26.6233 41.7091 26.6063 41.5052 26.7253C41.4372 26.7593 41.2502 26.8443 41.1478 26.8443V24.7346ZM43.1049 24.803L43.2574 24.888V27.1506L43.1049 26.9807V24.803ZM43.155 27.2866H42.3048C42.3048 27.1336 42.2368 26.9292 42.1519 26.8273C42.2708 26.7928 42.4242 26.7928 42.6112 26.8952C42.6792 26.9292 42.8326 26.9972 42.9175 26.9972L43.155 27.2866ZM41.9475 26.8277C41.8795 26.9297 41.8115 27.134 41.7945 27.287H40.9439L41.1988 26.9976C41.2838 26.9976 41.4372 26.9297 41.5052 26.8957C41.6925 26.7933 41.8455 26.7933 41.9475 26.8277ZM40.8589 24.888L41.0118 24.803V26.9807L40.8589 27.1506V24.888Z" fill="#E6BD3C"/>
<path fill-rule="evenodd" clip-rule="evenodd" d="M40.5527 27.6094V24.9045H40.7061V27.4395H41.7952C41.8292 27.5585 41.8971 27.5925 41.9991 27.6094H40.5527ZM42.0501 27.4561C41.9651 27.4561 41.9481 27.4051 41.9311 27.3541V27.3031C41.9311 27.1501 42.0161 26.9967 42.0501 26.9457C42.1011 26.9967 42.1861 27.1501 42.1861 27.3031C42.1861 27.3205 42.1861 27.3371 42.1691 27.3541C42.1691 27.4055 42.1521 27.4561 42.0501 27.4561ZM43.564 27.6094H42.1181C42.2201 27.5925 42.288 27.5585 42.322 27.4395H43.4106V24.9045H43.564V27.6094ZM40.4168 25.1939H40.2468C40.2298 25.0579 40.1788 24.9555 40.1279 24.9555C40.0769 24.9555 40.0259 25.0915 40.0259 25.2449C40.0259 25.4153 40.0769 25.5342 40.1279 25.5342C40.1958 25.5342 40.2298 25.4323 40.2468 25.2793H40.4168V25.1939ZM40.4168 27.3371H40.2468C40.2298 27.2011 40.1788 27.0991 40.1279 27.0991C40.0769 27.0991 40.0259 27.2351 40.0259 27.3885C40.0259 27.5419 40.0769 27.6779 40.1279 27.6779C40.1958 27.6779 40.2298 27.5759 40.2468 27.4229H40.4168V27.3371ZM43.9553 25.3299C44.0913 25.2789 44.1087 25.1599 44.1257 25.0409V25.0239C44.1597 24.905 44.1767 24.769 44.3471 24.6836C44.1597 24.7006 44.0917 24.7856 43.9728 24.973L43.9558 25.0069C43.8878 25.0919 43.7854 25.2279 43.7004 25.2619V25.3639C43.8024 25.3639 43.9044 25.3469 43.9553 25.3299ZM43.9553 27.5415L43.9723 27.5755C44.0913 27.7458 44.1427 27.8478 44.3467 27.8648C44.1763 27.7798 44.1423 27.6434 44.1253 27.5245V27.5075C44.1083 27.3885 44.0743 27.2695 43.9549 27.2181C43.8718 27.1949 43.7858 27.1835 43.6995 27.1841V27.2861C43.7854 27.3205 43.8874 27.4561 43.9553 27.5415Z" fill="#E6BD3C"/>
</g>
<defs>
<clipPath id="clip0_495_6034">
<rect width="84" height="84" fill="white"/>
</clipPath>
</defs>
</svg>
