<svg width="84" height="84" viewBox="0 0 84 84" fill="none" xmlns="http://www.w3.org/2000/svg">
<g clip-path="url(#clip0_495_6157)">
<rect width="84" height="84" fill="white"/>
<path fill-rule="evenodd" clip-rule="evenodd" d="M0 0H84V84H0V0Z" fill="white"/>
<path fill-rule="evenodd" clip-rule="evenodd" d="M9.78574 37.4531C12.5098 37.4531 13.9985 38.8572 13.9985 40.7106C13.9985 42.4799 12.4257 43.8844 10.7684 44.2775L13.6895 47.9285C14.5323 48.9678 15.7956 50.0351 16.9474 50.7659H15.094C14.0268 50.7659 13.3526 50.4844 12.763 49.7544L10.2912 46.6939L8.40953 43.8291C10.0385 43.6038 11.9202 42.8455 11.9202 40.9642C11.9202 39.5044 10.6564 38.6337 9.30856 38.7178C8.85926 38.7178 8.40997 38.774 7.93235 38.8581V47.9289C7.93235 48.8559 7.81992 50.3445 8.85883 50.7097V50.7663H4.9834V50.7097C6.02231 50.3445 5.88198 48.828 5.88198 47.9289V40.2901C5.88198 39.3632 6.02231 37.9024 4.9834 37.5093V37.4531H9.78574Z" fill="#BD1F2B"/>
<path fill-rule="evenodd" clip-rule="evenodd" d="M24.3057 49.4171C23.4071 50.5959 21.7498 51.0736 20.3457 51.0736C18.9974 51.0736 17.5933 50.6526 16.6664 49.6695C15.5987 48.4902 15.6549 47.1415 15.6549 45.6816V40.2901C15.6549 39.3632 15.7953 37.9024 14.7563 37.5093V37.4531H18.6043V37.5093C17.5933 37.9024 17.7057 39.3632 17.7057 40.2901V45.6816C17.7057 48.3782 18.8288 49.6132 20.9353 49.6132C22.0588 49.6132 23.2101 49.1639 23.8843 48.2091C24.334 47.5912 24.3057 47.0853 24.3057 46.3553V40.2901C24.3057 39.3632 24.4177 37.9024 23.4071 37.5093V37.4531H27.2546L27.2825 37.5093C26.2432 37.9024 26.356 39.3632 26.356 40.2901V47.9281C26.356 48.8267 26.2436 50.3157 27.2825 50.7088V50.7655H24.3057V49.4171Z" fill="#BD1F2B"/>
<path fill-rule="evenodd" clip-rule="evenodd" d="M33.5741 48.1257C33.5741 49.2775 33.5741 50.0641 34.6414 50.7099V50.7666H30.6252V50.7099C31.6362 50.3168 31.5238 48.8282 31.5238 47.9292V38.9141H29.7262C28.8559 38.9141 27.9573 39.139 27.3389 39.7286H27.2827L27.9848 37.3135H28.0405C28.2933 37.4255 28.5465 37.4255 28.7988 37.4538H36.8599C37.1964 37.4538 37.5337 37.4255 37.786 37.3135H37.8426L37.1968 39.7286H37.1406C36.8874 38.9982 36.0734 38.9141 35.3996 38.9141H33.5746L33.5741 48.1257Z" fill="#BD1F2B"/>
<path fill-rule="evenodd" clip-rule="evenodd" d="M47.8701 39.7846H47.8139C46.9702 38.8577 45.4545 38.5775 44.2187 38.5775C41.0453 38.5775 38.6572 40.6549 38.6572 43.9128C38.6572 47.1707 41.2414 49.6142 44.4435 49.6142C45.3704 49.6142 46.3244 49.5017 47.2513 49.249V46.3279C47.2513 45.4014 47.2234 44.4183 46.2965 44.0536V43.9969H49.4141V44.0536C49.3025 44.278 49.3025 44.6149 49.3025 44.9238V49.558C49.3025 49.8669 49.2738 50.2038 49.4141 50.4844C47.7851 50.7659 46.2119 51.0745 44.583 51.0745C39.3876 51.0745 36.3262 48.238 36.3262 44.1939C36.3262 39.8408 39.809 37.1172 44.6963 37.1172C45.7635 37.1172 46.802 37.2571 47.8701 37.4824V39.7846ZM52.9248 49.0529L55.4798 49.3052C56.8289 49.4181 58.2322 48.9967 59.2436 48.0976H59.2998L58.3729 50.7659H49.9475V50.7093C50.9868 50.3441 50.8744 48.8276 50.8744 47.9286V40.2906C50.8744 39.3637 50.9868 37.9029 49.9475 37.5098V37.4536H56.4359C56.7719 37.4536 57.1091 37.4819 57.3628 37.3416H57.4469V39.7284H57.3628C56.744 38.998 55.9304 38.9139 54.9751 38.9139C54.2731 38.9139 53.5706 38.9423 52.9248 39.0547V42.8177H55.3394C55.6484 42.8177 55.9853 42.8177 56.2101 42.6774H56.2942V44.8402H56.2101C55.9012 44.2501 55.0583 44.278 54.4134 44.278H52.9248V49.0529Z" fill="#BD1F2B"/>
<path fill-rule="evenodd" clip-rule="evenodd" d="M63.8218 37.4531C66.5176 37.4531 68.0062 38.8572 68.0062 40.7106C68.0062 42.4799 66.4335 43.8844 64.7762 44.2775L67.6972 47.9285C68.5401 48.9678 69.8038 50.0351 70.9835 50.7659H69.1018C68.0354 50.7659 67.3604 50.4844 66.7703 49.7544L64.2986 46.6939L62.4447 43.8291C64.0467 43.6038 65.9275 42.8455 65.9275 40.9642C65.9275 39.5044 64.6916 38.6337 63.3163 38.7178C62.8661 38.7178 62.4177 38.774 61.9392 38.8581V47.9289C61.9392 48.8559 61.8268 50.3445 62.8661 50.7097V50.7663H58.9907V50.7097C60.0301 50.3445 59.8889 48.828 59.8889 47.9289V40.2901C59.8889 39.3632 60.0301 37.9024 58.9907 37.5093V37.4531H63.8218Z" fill="#BD1F2B"/>
<path fill-rule="evenodd" clip-rule="evenodd" d="M78.0608 39.8686C77.2742 39.0541 76.0104 38.5774 74.8878 38.5774C73.7352 38.5774 72.2757 39.0267 72.2757 40.4304C72.2757 43.1823 79.2404 43.154 79.2404 46.8895C79.2404 49.0523 76.9652 51.0739 73.8197 51.0739C72.5847 51.0739 71.3488 50.9057 70.1975 50.4839L69.6074 47.9568C70.815 48.9674 72.4714 49.6136 74.0446 49.6136C75.1972 49.6136 76.9377 48.9395 76.9377 47.5349C76.9377 44.3616 69.973 44.9233 69.973 40.6543C69.973 38.0989 72.5851 37.1162 75.056 37.1162C76.067 37.1162 77.0785 37.2561 78.0612 37.5655V39.8686H78.0608Z" fill="#BD1F2B"/>
<path fill-rule="evenodd" clip-rule="evenodd" d="M5.50636 36.0745H5.81882V33.2475H6.52784V32.9656H4.78906V33.2475H5.50636V36.0745ZM6.87865 36.0745H7.19067V34.6146H8.80699V36.0745H9.11945V32.9652H8.80699V34.3331H7.19067V32.9652H6.87865V36.0745ZM9.76179 36.0745H11.467V35.793H10.0743V34.6486H11.4208V34.3662H10.0743V33.2475H11.467V32.9656H9.76179V36.0745ZM12.9661 35.2038C12.9622 35.7468 13.401 36.1289 13.9327 36.1289C14.4395 36.1289 14.8823 35.7337 14.8823 35.2208C14.8823 34.9724 14.7772 34.7283 14.5916 34.5688C14.4099 34.405 14.2159 34.3666 13.9924 34.3039C13.6886 34.2198 13.3762 34.1313 13.3762 33.757C13.3762 33.4624 13.6085 33.2144 13.9122 33.2144C14.2325 33.2144 14.4604 33.4415 14.4822 33.757H14.8069C14.8112 33.2815 14.4225 32.9155 13.9501 32.9155C13.4603 32.9155 13.0637 33.2519 13.0637 33.7526C13.0637 33.9757 13.1526 34.1862 13.3256 34.3335C13.4816 34.4677 13.6799 34.5183 13.8743 34.5688C14.0517 34.615 14.212 34.6573 14.3554 34.775C14.4861 34.88 14.5707 35.0482 14.5707 35.2168C14.5707 35.5742 14.2791 35.8313 13.9248 35.8313C13.5745 35.8313 13.3086 35.545 13.2999 35.2042L12.9661 35.2038ZM15.7224 36.0745H16.0353V33.2475H16.7444V32.9656H15.0056V33.2475H15.7229L15.7224 36.0745ZM16.4785 36.0745H16.8163L17.2682 35.0303H18.7198L19.1717 36.0745H19.5094L18.1716 32.9652H17.8255L16.4785 36.0745ZM17.3906 34.7493L17.9981 33.3229L18.5973 34.7493H17.3906ZM19.9631 36.0745H20.2755V33.2475H20.9845V32.9656H19.2458V33.2475H19.9631V36.0745ZM21.3349 36.0745H23.0401V35.793H21.6474V34.6486H22.9935V34.3662H21.6474V33.2475H23.0401V32.9656H21.3349V36.0745ZM24.7671 32.9656V34.8547C24.7671 35.1829 24.8007 35.4944 25.016 35.759C25.2143 35.9991 25.518 36.1289 25.8309 36.1289C26.1516 36.1289 26.4641 35.9904 26.658 35.7337C26.8607 35.4727 26.8903 35.1698 26.8903 34.8543V32.9652H26.5783V34.8543C26.5783 35.0983 26.5569 35.3463 26.4053 35.5485C26.2741 35.7293 26.051 35.8304 25.8313 35.8304C25.7109 35.8318 25.5921 35.8029 25.4858 35.7462C25.3796 35.6895 25.2893 35.607 25.2234 35.5062C25.101 35.3127 25.08 35.0774 25.08 34.8543V32.9652H24.7671V32.9656ZM27.5318 36.0745H27.8442V33.3399L29.7011 36.0745H30.0136V32.9652H29.7011V35.5441L27.954 32.9652H27.5318V36.0745ZM30.6572 36.0745H30.9688V32.9652H30.6572V36.0745ZM32.6191 36.0745H32.915L34.211 32.9652H33.8689L32.7673 35.6875L31.6739 32.9652H31.3322L32.6191 36.0745ZM34.5745 36.0745H36.2797V35.793H34.8869V34.6486H36.2331V34.3662H34.8869V33.2475H36.2797V32.9656H34.5745V36.0745ZM36.8379 36.0745H37.15V33.2475H37.6441C37.8886 33.2475 38.1422 33.2475 38.3488 33.3953C38.5266 33.5169 38.6399 33.7356 38.6399 33.95C38.6423 34.0834 38.6051 34.2146 38.5331 34.3269C38.461 34.4392 38.3573 34.5276 38.2351 34.581C38.0281 34.6734 37.7749 34.6651 37.5552 34.6651H37.4628L38.5222 36.0745H38.911L38.0329 34.9131C38.5397 34.9009 38.9532 34.4882 38.9532 33.9792C38.9532 33.6171 38.7841 33.2981 38.4678 33.1168C38.2059 32.9699 37.8768 32.9652 37.5814 32.9652H36.8388V36.0745H36.8379ZM39.1729 35.2038C39.1685 35.7468 39.6078 36.1289 40.1394 36.1289C40.6463 36.1289 41.089 35.7337 41.089 35.2208C41.089 34.9724 40.9835 34.7283 40.7979 34.5688C40.6162 34.405 40.4223 34.3666 40.1987 34.3039C39.895 34.2198 39.5825 34.1313 39.5825 33.757C39.5825 33.4624 39.8148 33.2144 40.1185 33.2144C40.4393 33.2144 40.6672 33.4415 40.6885 33.757H41.0132C41.018 33.2815 40.6293 32.9155 40.1564 32.9155C39.6662 32.9155 39.27 33.2519 39.27 33.7526C39.27 33.9757 39.3585 34.1862 39.5315 34.3335C39.6875 34.4677 39.8862 34.5183 40.0806 34.5688C40.2575 34.615 40.4179 34.6573 40.5617 34.775C40.6924 34.88 40.777 35.0482 40.777 35.2168C40.777 35.5742 40.4863 35.8313 40.1316 35.8313C39.7808 35.8313 39.515 35.545 39.5062 35.2042L39.1729 35.2038ZM41.588 36.0745H41.9V32.9652H41.588V36.0745ZM42.9677 36.0745H43.2801V33.2475H43.9892V32.9656H42.2504V33.2475H42.9677V36.0745ZM45.1117 36.0745H45.4242V35.0356L46.5093 32.9656H46.1672L45.2686 34.7118L44.3692 32.9656H44.0279L45.1122 35.0356L45.1117 36.0745ZM49.5188 32.915C48.6159 32.915 47.8729 33.6302 47.8729 34.5344C47.8729 35.4265 48.6446 36.1285 49.5188 36.1285C50.4218 36.1285 51.1691 35.4138 51.1691 34.5096C51.1691 33.6175 50.4004 32.915 49.5188 32.915ZM49.5232 33.214C50.2357 33.214 50.8571 33.7901 50.8571 34.51C50.8571 35.2456 50.2579 35.8309 49.5232 35.8309C48.8142 35.8309 48.1853 35.2543 48.1853 34.5348C48.1853 33.8032 48.7889 33.214 49.5232 33.2096V33.214ZM51.6764 36.0745H51.9897V34.6521H53.213V34.371H51.9897V33.2475H53.2596V32.9656H51.6764V36.0745ZM54.8938 36.0745H55.2062V33.3399L57.0635 36.0745H57.376V32.9652H57.0635V35.5441L55.3161 32.9652H54.8938V36.0745ZM58.0183 36.0745H59.724V35.793H58.3308V34.6486H59.6774V34.3662H58.3308V33.2475H59.724V32.9656H58.0183V36.0745ZM60.8893 36.0745H61.2985L61.9862 33.5247L62.6703 36.0745H63.0795L63.9699 32.9652H63.6448L62.8813 35.6705L62.1339 32.9652H61.8384L61.0911 35.6744L60.3276 32.9652H60.0025L60.8893 36.0745ZM66.8974 32.9656H66.585V35.107C66.585 35.2373 66.5894 35.3973 66.5466 35.5193C66.4752 35.7123 66.2982 35.8309 66.0913 35.8309C65.7958 35.8309 65.5592 35.633 65.5378 35.3384H65.2297C65.2423 35.7882 65.6049 36.1289 66.0612 36.1289C66.3192 36.1289 66.5632 36.0283 66.7284 35.8222C66.8927 35.62 66.88 35.4435 66.897 35.1994L66.8974 32.9656ZM67.5398 36.0745H69.2446V35.793H67.8523V34.6486H69.198V34.3662H67.8523V33.2475H69.2446V32.9656H67.5398V36.0745ZM69.8024 36.0745H70.1148V33.2475H70.6095C70.8539 33.2475 71.1076 33.2475 71.3133 33.3953C71.4902 33.5169 71.6052 33.7356 71.6052 33.95C71.6052 34.2276 71.4571 34.4629 71.1999 34.581C70.9929 34.6734 70.7402 34.6651 70.5206 34.6651H70.4277L71.4867 36.0745H71.875L70.9973 34.9131C71.5037 34.9009 71.9173 34.4882 71.9173 33.9792C71.9173 33.6171 71.7477 33.2981 71.4322 33.1168C71.1699 32.9699 70.8409 32.9652 70.5454 32.9652H69.8024V36.0745ZM72.1378 35.2038C72.1334 35.7468 72.5727 36.1289 73.1048 36.1289C73.6111 36.1289 74.0539 35.7337 74.0539 35.2208C74.0539 34.9724 73.9484 34.7283 73.7628 34.5688C73.5815 34.405 73.3876 34.3666 73.1636 34.3039C72.8598 34.2198 72.5474 34.1313 72.5474 33.757C72.5474 33.4624 72.7797 33.2144 73.0834 33.2144C73.4041 33.2144 73.6316 33.4415 73.653 33.757H73.9781C73.9824 33.2815 73.5941 32.9155 73.1209 32.9155C72.6324 32.9155 72.2349 33.2519 72.2349 33.7526C72.2349 33.9757 72.3243 34.1862 72.4973 34.3335C72.6528 34.4677 72.8511 34.5183 73.0455 34.5688C73.2224 34.615 73.3832 34.6573 73.5266 34.775C73.6578 34.88 73.7419 35.0482 73.7419 35.2168C73.7419 35.5742 73.4508 35.8313 73.096 35.8313C72.7461 35.8313 72.4798 35.545 72.472 35.2042L72.1378 35.2038ZM74.4683 36.0745H76.1731V35.793H74.7799V34.6486H76.1265V34.3662H74.7799V33.2475H76.1731V32.9656H74.4683V36.0745ZM77.5036 36.0745H77.8151V35.0356L78.9002 32.9656H78.559L77.6604 34.7118L76.761 32.9656H76.4198L77.504 35.0356L77.5036 36.0745Z" fill="black"/>
<path d="M4.75977 30.8691H79.1878V31.2239H4.75977V30.8691ZM4.75977 52.776H79.1878V53.1312H4.75977V52.776Z" fill="black"/>
</g>
<defs>
<clipPath id="clip0_495_6157">
<rect width="84" height="84" fill="white"/>
</clipPath>
</defs>
</svg>
