<svg width="84" height="84" viewBox="0 0 84 84" fill="none" xmlns="http://www.w3.org/2000/svg">
<g clip-path="url(#clip0_495_6146)">
<rect width="84" height="84" fill="white"/>
<path fill-rule="evenodd" clip-rule="evenodd" d="M0 0H84V84H0V0Z" fill="white"/>
<path fill-rule="evenodd" clip-rule="evenodd" d="M55.2917 33.3613C55.2473 33.3613 55.2024 33.3613 55.158 33.4062C55.4251 33.4062 55.3802 33.6289 55.3802 33.9405V35.0535C55.3802 35.4544 55.3802 35.766 55.0686 35.766C55.1139 35.8109 55.158 35.8553 55.2917 35.8553C55.5589 35.8998 55.5589 35.5437 55.5589 35.1873V34.0738C55.5589 33.6734 55.6473 33.3613 55.2917 33.3613ZM56.3158 33.3613C56.2714 33.3613 56.2265 33.3613 56.2265 33.4062C56.4496 33.4062 56.4052 33.6289 56.4052 33.9405V35.0535C56.4052 35.4544 56.4052 35.766 56.138 35.766H56.0936C56.138 35.8553 56.1821 35.8553 56.3158 35.8998C56.6274 35.8998 56.583 35.5437 56.583 35.1873V34.0738C56.583 33.6734 56.6723 33.3613 56.3158 33.3613ZM27.2835 33.3613C27.2386 33.3613 27.1946 33.3613 27.1946 33.4062C27.4172 33.4062 27.3728 33.6289 27.3728 33.9405V35.0535C27.3728 35.4544 27.3728 35.766 27.1057 35.766H27.0612C27.1057 35.8553 27.1501 35.8553 27.2839 35.8998C27.5955 35.8998 27.5955 35.5437 27.5955 35.1873V34.0738C27.5951 33.6734 27.6395 33.3613 27.2835 33.3613ZM28.3076 33.3613H28.2182C28.4409 33.4062 28.3965 33.584 28.3965 33.9405V35.0535C28.3965 35.4544 28.4409 35.766 28.1293 35.766H28.0849C28.1293 35.8109 28.1738 35.8553 28.3076 35.8553C28.6191 35.8553 28.6191 35.5437 28.6191 35.1873V34.0738C28.6191 33.6734 28.7085 33.3613 28.3076 33.3613ZM42.0666 33.3613H41.9332C42.1559 33.4062 42.1115 33.584 42.1115 33.9405V35.0535C42.1115 35.4544 42.1559 35.766 41.8443 35.766H41.7999C41.8443 35.8109 41.9337 35.8553 42.067 35.8553C42.3341 35.8553 42.3341 35.5437 42.3341 35.1873V34.0738C42.3341 33.6734 42.4235 33.3613 42.0666 33.3613ZM40.998 33.3613C40.9536 33.3613 40.9536 33.3613 40.9087 33.4062C41.1314 33.4062 41.0869 33.6289 41.0869 33.9405V35.0535C41.0869 35.4544 41.1314 35.766 40.8198 35.766H40.7753C40.8198 35.8553 40.9087 35.8553 40.998 35.8998C41.3096 35.8998 41.3096 35.5437 41.3096 35.1873V34.0738C41.3096 33.6734 41.3989 33.3613 40.998 33.3613ZM31.5581 69.0734C34.6752 69.0734 36.1443 68.4053 36.1443 68.36C36.1891 67.0248 34.853 67.1141 34.8086 67.0248C34.7641 66.8017 34.6303 66.4461 34.3636 66.5354C34.0076 66.6239 32.9835 66.7576 31.603 66.8017C30.2228 66.8017 29.065 66.6239 28.7534 66.5354C28.4418 66.4461 28.3524 66.8017 28.2635 67.0248C28.2187 67.1141 26.883 67.0248 26.9279 68.36C26.9274 68.4053 28.3969 69.0734 31.5581 69.0734ZM51.8634 69.0734C55.0246 69.0734 56.4936 68.4053 56.4936 68.36C56.539 67.0248 55.2024 67.1141 55.1584 67.0248C55.0691 66.8017 54.9806 66.4461 54.669 66.5354C54.3565 66.6239 53.2884 66.7576 51.9523 66.8017C50.5273 66.8017 49.4143 66.6239 49.0583 66.5354C48.7911 66.4461 48.6574 66.8017 48.568 67.0248C48.568 67.1141 47.2328 67.0248 47.2768 68.36C47.2764 68.4053 48.7454 69.0734 51.8634 69.0734Z" fill="#25478A"/>
<path fill-rule="evenodd" clip-rule="evenodd" d="M41.6663 41.1091V39.5508H41.3103V41.1091H41.6663ZM41.3543 43.2022H41.6214L41.6659 41.4656C40.82 41.4656 40.1075 41.7772 39.4395 42.2226C40.0186 41.867 40.6418 41.6439 41.3098 41.5994L41.3543 43.2022ZM41.3543 44.9384C41.4436 44.8939 41.5325 44.8939 41.6214 44.8939V43.5587C41.0872 43.6031 40.5525 43.7809 40.152 44.0925C40.508 43.8703 40.9089 43.7369 41.3543 43.7369V44.9384ZM43.2247 46.8536C43.2247 46.6758 43.1802 46.4981 43.1362 46.3189C42.9131 45.6509 42.3788 45.2055 41.8001 45.2055C41.4885 45.2055 41.132 45.3842 40.9094 45.6958C41.0876 45.518 41.3547 45.4286 41.6219 45.4286C42.245 45.4286 42.8238 46.0518 42.9131 46.8536H43.2247ZM40.3302 45.5624L40.464 45.6509C40.6422 45.3846 40.8649 45.1615 41.1765 45.0277C40.8649 45.117 40.5529 45.2949 40.3302 45.5624ZM40.0191 46.8536C40.0635 46.5421 40.1524 46.2305 40.2862 45.9633L39.2172 45.206C39.1728 45.2953 39.1283 45.3846 39.0839 45.5184L39.9742 46.1856C39.8848 46.3643 39.7959 46.5865 39.7959 46.8536H40.0191ZM44.8724 46.8536C44.8279 46.0518 44.6052 45.3846 44.2043 44.8499L44.0265 45.0722C44.3381 45.518 44.5612 46.1411 44.5612 46.8536H44.8724ZM38.4158 46.8536C38.4603 46.1411 38.6385 45.5184 38.9056 44.9837L37.7922 44.1819C37.7478 44.2712 37.7033 44.3597 37.6584 44.4934L38.5492 45.1615C38.3265 45.6509 38.1482 46.2305 38.1482 46.8536H38.4158ZM38.9501 44.5383L39.1283 44.6721C39.5733 43.9587 40.2417 43.4694 41.0431 43.2916C40.1969 43.4249 39.4399 43.8703 38.9501 44.5383ZM46.4748 46.8536C46.4303 45.5624 46.0747 44.405 45.4067 43.4694L45.2289 43.6925C45.8076 44.5383 46.1636 45.6509 46.2076 46.8536H46.4748ZM36.7681 46.8536C36.8126 45.7855 37.0797 44.805 37.5251 43.9587L36.501 43.2022C36.4561 43.2916 36.4116 43.4253 36.3672 43.5138L37.1686 44.1378C36.7681 44.9388 36.545 45.83 36.501 46.8536H36.7681Z" fill="black"/>
<path fill-rule="evenodd" clip-rule="evenodd" d="M37.5254 43.5136L37.7036 43.6474C38.4161 42.4006 39.4847 41.5547 40.7315 41.2432C39.4402 41.4654 38.2823 42.3117 37.5254 43.5136ZM45.2736 42.6673C45.3181 42.7566 45.363 42.8011 45.4514 42.8904L46.3417 41.8663C46.2973 41.8214 46.2533 41.7326 46.2079 41.6877L46.1635 41.6432L45.2736 42.6673ZM43.9824 44.5381C43.7388 44.251 43.4396 44.0161 43.1028 43.8477C42.766 43.6794 42.3986 43.581 42.0227 43.5585V43.7363C42.6121 43.8378 43.1562 44.1177 43.5815 44.5381L42.9134 45.2947C43.0028 45.384 43.0472 45.4724 43.1365 45.5178L43.9824 44.5381ZM45.1843 43.1576C44.3825 42.1779 43.2699 41.5099 42.0231 41.4654V41.6436C43.1365 41.733 44.1162 42.3117 44.8287 43.158L44.0269 44.0483L44.25 44.2714L45.1843 43.1576Z" fill="black"/>
<path fill-rule="evenodd" clip-rule="evenodd" d="M41.4876 39.9967H41.6658V39.5518H41.3098C39.4394 39.73 37.8366 41.0212 36.8125 42.6685C37.8806 41.1097 39.5287 39.9967 41.4876 39.9967ZM47.8548 46.8542H48.078C48.078 45.0727 47.4992 43.4259 46.5636 42.1787L46.252 42.5343C47.0534 43.693 47.633 45.162 47.8548 46.8542Z" fill="#25478A"/>
<path fill-rule="evenodd" clip-rule="evenodd" d="M56.6273 36.9238H26.7939V66.5354H28.6643L29.1097 39.7734C29.0208 39.7734 28.9315 39.8179 28.887 39.8179C28.7092 39.8628 28.4865 39.4174 28.531 39.328C28.531 39.2387 28.7537 38.8382 29.1097 38.7938C29.0648 38.7938 29.0648 38.7938 29.0648 38.7489C29.1986 38.4818 28.8421 38.3484 28.7532 38.2146C28.0407 38.1257 27.5954 38.2146 27.5954 37.9475C27.5954 37.8586 27.7736 37.8137 28.0852 37.7697C27.5509 37.6803 27.2389 37.5914 27.2389 37.5025C27.2389 37.3688 27.6843 37.2799 28.4412 37.191C28.7528 37.191 30.0889 37.2803 31.5135 37.2803H31.5579C32.9381 37.2803 34.3186 37.191 34.6751 37.191C35.3876 37.2803 35.8325 37.3692 35.8325 37.5025C35.8325 37.5914 35.521 37.6808 34.9867 37.7697C35.2983 37.8141 35.4765 37.8586 35.4765 37.9475C35.4765 38.2146 35.0316 38.1257 34.3191 38.2146C34.2297 38.3484 33.8737 38.4818 34.0075 38.7489C34.0075 38.7938 34.0075 38.7938 33.9626 38.7938C34.3191 38.8382 34.5417 39.2387 34.5862 39.328C34.5862 39.4169 34.3635 39.8623 34.1857 39.8179C34.1857 39.8179 34.0968 39.7734 33.963 39.7734L34.4084 66.5354H36.2788L36.3232 48.6351H47.0544V66.5354H49.0137L49.4586 39.7734C49.3257 39.7734 49.2808 39.8179 49.2364 39.8179C49.0586 39.8628 48.8355 39.4174 48.8355 39.328C48.8799 39.2387 49.1026 38.8382 49.4586 38.7938C49.4142 38.7938 49.4142 38.7938 49.4142 38.7489C49.548 38.4818 49.1919 38.3484 49.1026 38.2146C48.3901 38.1257 47.9452 38.2146 47.9452 37.9475C47.9452 37.8586 48.123 37.8137 48.4345 37.7697C47.8998 37.6803 47.5887 37.5914 47.5887 37.5025C47.5887 37.3688 48.0336 37.2799 48.7915 37.191C49.103 37.191 50.4392 37.2803 51.8188 37.2803H51.9082C53.2887 37.2803 54.6693 37.191 54.9809 37.191C55.7374 37.2803 56.1828 37.3692 56.1828 37.5025C56.1828 37.5914 55.8712 37.6808 55.3369 37.7697C55.6485 37.8141 55.8272 37.8586 55.8272 37.9475C55.8272 38.2146 55.3814 38.1257 54.6697 38.2146C54.5804 38.3484 54.2239 38.4818 54.3573 38.7489C54.3573 38.7938 54.3573 38.7938 54.3128 38.7938C54.6693 38.8382 54.8916 39.2387 54.8916 39.328C54.936 39.4169 54.7138 39.8623 54.536 39.8179C54.4906 39.8179 54.4022 39.7734 54.3128 39.7734L54.7578 66.5354H56.6277V36.9238H56.6273ZM48.4794 46.8536H48.6572L48.9244 46.9874L48.7457 48.1008V47.0318H34.5418L34.7644 46.854H35.1654C35.2098 44.9841 35.9223 43.0688 37.1246 41.5998C38.4159 40.0414 40.0631 39.1507 41.8002 39.1507C45.4067 39.1498 48.4345 42.6675 48.4794 46.8536Z" fill="#25478A"/>
<path fill-rule="evenodd" clip-rule="evenodd" d="M42.0224 39.5504V40.0403C43.6252 40.174 45.0058 40.9755 46.0299 42.2218L46.3415 41.8662C46.297 41.8213 46.253 41.7324 46.2077 41.6875C45.0951 40.3967 43.6252 39.5949 42.0224 39.5504ZM26.7939 30.1105H56.6273V30.9568H26.7939V30.1105ZM41.7108 17.0195C41.5775 17.2867 41.3992 17.42 41.221 17.5983C40.8205 17.9987 26.7939 29.1757 26.7939 29.1757V29.4429L41.7108 18.1325L56.6273 29.4429V29.1757C56.6273 29.1757 42.5571 17.9992 42.1113 17.5983C41.9335 17.3756 41.7997 17.2418 41.7108 17.0195Z" fill="#25478A"/>
<path fill-rule="evenodd" clip-rule="evenodd" d="M56.6721 25.2134L41.7104 12.6562L26.749 25.2134V25.881L41.7104 13.3688L56.6721 25.881V25.2134Z" fill="#25478A"/>
<path fill-rule="evenodd" clip-rule="evenodd" d="M56.6728 27.4393L41.711 14.6599L26.7497 27.4393V28.2856L41.711 16.0405L56.6728 28.2856V27.4393ZM25.6363 10.6525H25.5029V8.9603H25.6812C25.9483 9.85105 26.6608 10.5636 27.596 10.5636C28.4419 10.5636 29.2882 9.98483 29.2882 9.09409C29.2882 8.51537 29.1099 8.24823 28.353 7.93621C27.9969 7.80286 26.4826 7.31304 26.3048 7.2237C25.7261 6.86767 25.5034 6.24406 25.5034 5.70979C25.5034 5.26485 25.6367 4.95283 25.9039 4.55235C26.2154 4.15143 26.7053 3.83984 27.4622 3.83984C27.9076 3.83984 28.5752 4.15143 28.7534 4.28521L29.1095 4.01808H29.2877V5.53199H29.065C28.8423 4.73058 28.2636 4.06253 27.3733 4.06253C26.7053 4.06253 25.9928 4.55235 25.9928 5.3093C25.9928 6.957 29.7331 5.88846 29.7331 8.55982C29.7331 9.93995 28.8868 10.7862 27.5956 10.7862C27.0164 10.7862 26.4821 10.6525 26.0817 10.2075L25.6363 10.6525ZM31.6924 7.93621C31.8262 7.00102 32.5827 6.82322 32.7614 6.82322C33.5183 6.82322 33.7854 7.31304 33.7854 8.73805C33.7854 10.5636 33.2512 10.5636 32.7614 10.5636C32.4498 10.5636 32.0044 10.2964 31.8706 9.98483C31.6924 9.67281 31.6479 9.53946 31.6479 8.8714C31.6479 8.55982 31.6479 8.29268 31.6924 7.93621ZM30.8905 12.6562H30.3118V12.8789H32.3155V12.6562H31.6479V10.1182H31.6924C31.9151 10.5187 32.2715 10.7414 32.8054 10.7414C34.0521 10.7414 34.7202 9.71726 34.7202 8.78207C34.7202 7.17925 33.6072 6.60053 32.8498 6.60053C32.36 6.60053 31.9146 6.86767 31.6475 7.35749V6.60053C31.4693 6.64498 31.2466 6.68943 31.0683 6.68943H30.3114V6.91212H30.8901L30.8905 12.6562ZM36.323 8.07C36.323 7.84688 36.323 7.62463 36.4123 7.44639C36.4123 7.35705 36.6795 6.82278 37.3027 6.82278C37.7925 6.82278 38.1934 7.04547 38.1934 7.75798V8.07H36.323ZM38.861 9.40567C38.7272 10.0737 38.0596 10.5636 37.5253 10.5636C36.4119 10.5636 36.2786 9.76215 36.2786 8.7825V8.38202H39.0837C39.0837 7.26859 38.3267 6.60097 37.3027 6.60097C36.1448 6.60097 35.3434 7.66951 35.3434 8.82695C35.3434 9.94038 36.323 10.7418 37.3471 10.7418C38.2374 10.7418 38.9055 10.3413 39.0837 9.40611L38.861 9.40567ZM39.6184 10.6525V10.3853H40.4198V4.01764H39.6184V3.79495H40.0633C40.4198 3.79495 40.8203 3.79495 41.1768 3.70605V10.3853H41.9337V10.6525H39.6184ZM49.1468 10.3853V10.6525H47.3213V10.3853H47.856V7.57974C47.856 7.1348 47.6338 6.91168 47.3213 6.91168C46.6982 6.91168 46.2079 7.75754 46.2079 8.3367V10.3853H46.7426V10.6525H44.9171V10.3853H45.4074V7.57974C45.4074 7.1348 45.1842 6.91168 44.8727 6.91168C44.2495 6.91168 43.7592 7.75754 43.7592 8.51493V10.3853H44.2939V10.6525H42.4684V10.3853H43.0031V6.91212H42.4684V6.68943H42.6462C43.0027 6.68943 43.4036 6.68943 43.7597 6.60053V7.53573C44.1161 7.00102 44.3828 6.60053 45.0958 6.60053C45.6745 6.60053 46.1199 6.95657 46.1639 7.53573H46.2083C46.5208 7.00102 46.9217 6.60053 47.5889 6.60053C47.9454 6.60053 48.6579 6.73432 48.6579 7.75798V10.3853H49.1468ZM52.1755 9.49458C52.1755 9.8955 52.0417 10.0288 51.9524 10.0737C51.7302 10.2964 51.5075 10.3853 51.1959 10.3853C50.751 10.3853 50.4394 10.0737 50.4394 9.58391C50.4394 8.6936 51.5519 8.55982 52.1755 8.55982V9.49458ZM53.5108 9.93995C53.4663 10.1182 53.377 10.3853 53.1552 10.3853C52.9765 10.3853 52.9765 10.2515 52.9765 9.93995V7.57974C52.9765 7.17925 52.9765 6.6001 51.5968 6.6001C50.4394 6.6001 50.0384 7.17882 50.0384 7.53529C50.0384 7.84688 50.1722 8.02511 50.4394 8.02511C50.7056 8.02511 50.8394 7.84688 50.8394 7.62419C50.8394 7.26815 50.5723 7.2237 50.5723 7.17925C50.5723 6.86767 51.2403 6.82322 51.4635 6.82322C51.8191 6.82322 52.176 6.957 52.176 7.40194V8.33713C50.6616 8.33713 49.7264 8.87184 49.682 9.8066C49.682 10.5191 50.2167 10.7418 50.8394 10.7418C51.3741 10.7418 51.8644 10.564 52.22 10.1631C52.2644 10.5191 52.4871 10.7418 52.844 10.7418C53.289 10.7418 53.645 10.4302 53.6899 9.94038L53.5108 9.93995ZM54.6242 6.91212H54.0455V6.68943H54.8024C55.0256 6.68943 55.2034 6.64498 55.3812 6.60053V7.66908C55.6936 7.04547 56.0492 6.60053 56.8066 6.60053C57.1622 6.60053 57.9641 6.68943 57.9641 7.58018V10.3858H58.4988V10.6529H56.6733V10.3858H57.2071V7.71353C57.2071 7.00102 56.9848 6.91212 56.5839 6.91212C55.8714 6.91212 55.3812 7.80286 55.3812 8.55982V10.3853H55.9159V10.6525H54.0459V10.3853H54.6246V6.91212H54.6242ZM32.0484 73.17H31.8257C31.6475 72.2348 31.1132 71.4779 30.0891 71.4779C29.4211 71.4779 28.9312 71.9228 28.7534 72.2789C28.3525 73.0363 28.3525 74.4168 28.3525 74.9955C28.3525 76.6868 28.5308 77.9336 30.1336 77.9336C31.0688 77.9336 31.6924 77.1326 31.9595 76.2414H32.1822V78.0229H31.9151L31.6479 77.622C31.1581 78.0229 30.6238 78.2007 30.0896 78.2007C28.2641 78.2007 27.1951 76.5979 27.1951 74.6831C27.1951 72.7238 28.709 71.2548 30.1336 71.2548C30.7127 71.2548 31.1136 71.4326 31.5586 71.7895L31.9151 71.4779H32.0484V73.17ZM35.0318 74.1941C36.0114 74.1941 36.0114 75.2622 36.0114 76.1085C36.0114 76.9104 36.0114 77.9794 35.0318 77.9794C34.0077 77.9794 34.0077 76.9104 34.0077 76.1085C34.0077 75.2622 34.0077 74.1941 35.0318 74.1941ZM35.0318 74.0163C33.9628 74.0163 33.1169 74.9066 33.1169 76.1085C33.1169 77.3113 33.9628 78.1572 35.0318 78.1572C36.0559 78.1572 36.9466 77.3113 36.9466 76.1085C36.9466 74.9066 36.0559 74.0163 35.0318 74.0163ZM37.4364 78.0234V77.8002H38.1934V71.433H37.4364V71.2108H37.8374C38.2378 71.2108 38.5943 71.1654 38.9504 71.1214V77.8002H39.7073V78.0234H37.4364ZM40.1971 78.0234V77.8002H40.9541V71.433H40.1971V71.2108H40.5981C40.9541 71.2108 41.355 71.1654 41.711 71.1214V77.8002H42.468V78.0234H40.1971ZM44.0264 75.4854C44.0264 75.2622 44.0708 74.996 44.1157 74.8173C44.1157 74.7729 44.382 74.1941 45.006 74.1941C45.4954 74.1941 45.8963 74.4613 45.8963 75.1738V75.4854H44.0264ZM46.5648 76.8215C46.431 77.4887 45.763 77.9789 45.2296 77.9789C44.1161 77.9789 43.9828 77.1771 43.9828 76.1974V75.7965H46.7884C46.7884 74.6831 46.031 74.0159 45.0069 74.0159C43.8494 74.0159 43.0476 75.084 43.0476 76.2414C43.0476 77.3549 44.0272 78.1567 45.0513 78.1567C45.9425 78.1567 46.6097 77.7558 46.7884 76.8215H46.5648ZM48.0787 79.2261C48.0787 78.8697 48.4343 78.1127 49.5931 78.1127C50.839 78.1127 51.0181 78.3798 51.0181 78.9586C51.0181 79.1364 50.9728 80.072 49.2811 80.072C48.7459 80.072 48.0787 79.8489 48.0787 79.2261ZM48.0787 77.4002C47.9449 77.4002 47.8556 77.3109 47.8556 77.2215C47.8556 76.7321 48.7459 76.6868 49.7256 76.5543C49.9487 76.5543 50.7505 76.2872 50.7505 75.3516C50.7505 75.04 50.6167 74.8169 50.6167 74.6835C50.6167 74.5951 50.7052 74.4613 50.7945 74.4613C50.8839 74.4613 50.9723 74.7284 51.151 74.7284C51.3733 74.7284 51.4626 74.5497 51.4626 74.3719C51.4626 74.1048 51.2848 74.0163 51.1061 74.0163C50.7505 74.0163 50.5274 74.3719 50.4389 74.5951C50.1718 74.1941 49.7709 74.0163 49.1922 74.0163C48.2125 74.0163 47.7671 74.7729 47.7671 75.396C47.7671 75.9307 48.0787 76.2872 48.5237 76.5095C48.1672 76.5988 47.544 76.7326 47.544 77.3113C47.544 78.0238 48.1227 78.0678 48.613 78.1572C48.1227 78.2909 47.4547 78.5581 47.4547 79.2706C47.4547 79.6715 47.9449 80.2947 49.37 80.2947C50.3051 80.2947 51.3737 79.8497 51.3737 78.647C51.3737 78.3354 51.2852 78.0683 51.1066 77.846C50.795 77.4895 50.5278 77.4011 49.1473 77.4011H48.0787V77.4002ZM49.2806 74.1941C49.9047 74.1941 49.9487 74.8173 49.9487 75.3076C49.9487 75.9307 49.9042 76.421 49.1922 76.421C48.6574 76.421 48.5681 75.8423 48.5681 75.396C48.5681 74.4613 48.7912 74.1941 49.2806 74.1941ZM52.8436 75.4854C52.8436 75.2622 52.8436 74.996 52.9321 74.8173C52.9321 74.7729 53.1992 74.1941 53.8224 74.1941C54.3126 74.1941 54.7135 74.4613 54.7135 75.1738V75.4854H52.8436ZM55.3807 76.8215C55.2478 77.4887 54.5798 77.9789 54.001 77.9789C52.9321 77.9789 52.7983 77.1771 52.7983 76.1974V75.7965H55.6038C55.6038 74.6831 54.8473 74.0159 53.8224 74.0159C52.6649 74.0159 51.8639 75.084 51.8639 76.2414C51.8639 77.3549 52.8436 78.1567 53.8677 78.1567C54.758 78.1567 55.426 77.7558 55.6038 76.8215H55.3807Z" fill="#25478A"/>
</g>
<defs>
<clipPath id="clip0_495_6146">
<rect width="84" height="84" fill="white"/>
</clipPath>
</defs>
</svg>
